<svg width="34" height="33" viewBox="0 0 34 33" fill="none" xmlns="http://www.w3.org/2000/svg">
<g clip-path="url(#clip0_3425_37670)">
<path d="M29.9986 4.42188H1.9986C1.84146 4.42188 1.71289 4.55045 1.71289 4.70759V6.9933C1.71289 7.15045 1.84146 7.27902 1.9986 7.27902H29.9986C30.1558 7.27902 30.2843 7.15045 30.2843 6.9933V4.70759C30.2843 4.55045 30.1558 4.42188 29.9986 4.42188ZM29.9986 26.7076H1.9986C1.84146 26.7076 1.71289 26.8362 1.71289 26.9933V29.279C1.71289 29.4362 1.84146 29.5647 1.9986 29.5647H29.9986C30.1558 29.5647 30.2843 29.4362 30.2843 29.279V26.9933C30.2843 26.8362 30.1558 26.7076 29.9986 26.7076ZM29.9986 15.5647H1.9986C1.84146 15.5647 1.71289 15.6933 1.71289 15.8504V18.1362C1.71289 18.2933 1.84146 18.4219 1.9986 18.4219H29.9986C30.1558 18.4219 30.2843 18.2933 30.2843 18.1362V15.8504C30.2843 15.6933 30.1558 15.5647 29.9986 15.5647Z" fill="#34A853"/>
<circle cx="28" cy="6" r="5.5" fill="#11270B" stroke="#F1E9DB"/>
</g>
<defs>
<clipPath id="clip0_3425_37670">
<rect width="34" height="33" fill="white"/>
</clipPath>
</defs>
</svg>
