<svg width="22" height="22" viewBox="0 0 22 22" fill="none" xmlns="http://www.w3.org/2000/svg">
<path d="M11.0008 1.83203C9.22292 1.83541 7.48438 2.35573 5.99694 3.32962C4.50951 4.30352 3.33739 5.68894 2.62335 7.31715C1.90931 8.94536 1.68416 10.7461 1.97534 12.5C2.26652 14.2539 3.06146 15.8852 4.26332 17.1954C5.12171 18.1258 6.16352 18.8684 7.32309 19.3763C8.48267 19.8842 9.73489 20.1464 11.0008 20.1464C12.2668 20.1464 13.519 19.8842 14.6785 19.3763C15.8381 18.8684 16.8799 18.1258 17.7383 17.1954C18.9402 15.8852 19.7351 14.2539 20.0263 12.5C20.3175 10.7461 20.0923 8.94536 19.3783 7.31715C18.6642 5.68894 17.4921 4.30352 16.0047 3.32962C14.5173 2.35573 12.7787 1.83541 11.0008 1.83203ZM11.0008 18.332C9.10191 18.3291 7.27816 17.5898 5.91332 16.2695C6.32769 15.2608 7.0326 14.398 7.93847 13.7908C8.84434 13.1836 9.91027 12.8593 11.0008 12.8593C12.0914 12.8593 13.1573 13.1836 14.0632 13.7908C14.969 14.398 15.6739 15.2608 16.0883 16.2695C14.7235 17.5898 12.8997 18.3291 11.0008 18.332ZM9.16749 9.16536C9.16749 8.80276 9.27501 8.44831 9.47646 8.14682C9.67791 7.84533 9.96423 7.61035 10.2992 7.47158C10.6342 7.33282 11.0029 7.29652 11.3585 7.36726C11.7141 7.438 12.0408 7.61261 12.2972 7.869C12.5536 8.1254 12.7282 8.45207 12.7989 8.8077C12.8697 9.16333 12.8334 9.53195 12.6946 9.86695C12.5558 10.2019 12.3209 10.4883 12.0194 10.6897C11.7179 10.8912 11.3634 10.9987 11.0008 10.9987C10.5146 10.9987 10.0483 10.8055 9.70446 10.4617C9.36064 10.1179 9.16749 9.65159 9.16749 9.16536ZM17.335 14.6654C16.516 13.2645 15.2554 12.1748 13.7508 11.567C14.2176 11.0378 14.5217 10.3851 14.6267 9.68735C14.7317 8.98956 14.6331 8.2763 14.3428 7.63315C14.0524 6.99001 13.5827 6.44429 12.9899 6.0615C12.3971 5.67871 11.7065 5.47509 11.0008 5.47509C10.2952 5.47509 9.60453 5.67871 9.01174 6.0615C8.41895 6.44429 7.94921 6.99001 7.65888 7.63315C7.36855 8.2763 7.26997 8.98956 7.37497 9.68735C7.47997 10.3851 7.78408 11.0378 8.25082 11.567C6.7462 12.1748 5.48566 13.2645 4.66665 14.6654C4.01393 13.5535 3.66906 12.288 3.66748 10.9987C3.66748 9.05378 4.4401 7.18851 5.81537 5.81325C7.19064 4.43798 9.0559 3.66536 11.0008 3.66536C12.9457 3.66536 14.811 4.43798 16.1863 5.81325C17.5615 7.18851 18.3342 9.05378 18.3342 10.9987C18.3326 12.288 17.9877 13.5535 17.335 14.6654Z" fill="currentColor"/>
</svg>
