<svg width="25" height="24" viewBox="0 0 25 24" fill="none" xmlns="http://www.w3.org/2000/svg">
<path d="M15.4392 5.19C15.8172 4.75428 16.1055 4.24817 16.2874 3.70074C16.4693 3.1533 16.5413 2.57533 16.4992 2C15.3386 2.09369 14.2612 2.63956 13.4992 3.52C13.1343 3.94198 12.8578 4.43288 12.686 4.96364C12.5142 5.49441 12.4507 6.05424 12.4992 6.61C13.0653 6.61472 13.625 6.4891 14.1348 6.24286C14.6446 5.99662 15.0909 5.63637 15.4392 5.19ZM17.9592 12.63C17.9659 11.8637 18.1677 11.1118 18.5456 10.4452C18.9236 9.77859 19.4651 9.21926 20.1192 8.82C19.7064 8.22524 19.1607 7.73483 18.5254 7.38767C17.8901 7.04052 17.1827 6.84615 16.4592 6.82C14.8992 6.66 13.4592 7.73 12.6292 7.73C11.7992 7.73 10.6292 6.84 9.32918 6.86C8.47931 6.888 7.6512 7.13578 6.92563 7.57919C6.20005 8.02259 5.60179 8.64648 5.18918 9.39C3.42918 12.45 4.73918 17 6.49918 19.47C7.29918 20.68 8.29918 22.05 9.61918 22C10.9392 21.95 11.3692 21.18 12.8992 21.18C14.4292 21.18 14.8992 22 16.1992 21.97C17.4992 21.94 18.4192 20.73 19.2592 19.52C19.8542 18.6415 20.319 17.6816 20.6392 16.67C19.8467 16.332 19.1705 15.7693 18.6942 15.0513C18.2179 14.3333 17.9624 13.4916 17.9592 12.63Z" fill="#ABF5D1"/>
</svg>
