<svg width="25" height="25" viewBox="0 0 25 25" fill="none" xmlns="http://www.w3.org/2000/svg">
<rect width="24" height="24" transform="translate(0.818359 0.5)" fill="white" fill-opacity="0.01"/>
<path fill-rule="evenodd" clip-rule="evenodd" d="M9.23215 11.9994H18.8181C19.0834 11.9994 19.3377 12.1048 19.5253 12.2923C19.7128 12.4799 19.8181 12.7342 19.8181 12.9994C19.8181 13.2646 19.7128 13.519 19.5253 13.7065C19.3377 13.8941 19.0834 13.9994 18.8181 13.9994H9.23215L13.0251 17.7924C13.2073 17.981 13.3081 18.2336 13.3058 18.4958C13.3035 18.758 13.1984 19.0088 13.013 19.1942C12.8276 19.3797 12.5767 19.4848 12.3145 19.4871C12.0524 19.4894 11.7997 19.3886 11.6111 19.2064L6.11115 13.7064C5.92367 13.5189 5.81836 13.2646 5.81836 12.9994C5.81836 12.7343 5.92367 12.48 6.11115 12.2924L11.6111 6.79243C11.7997 6.61027 12.0524 6.50948 12.3145 6.51176C12.5767 6.51403 12.8276 6.6192 13.013 6.80461C13.1984 6.99002 13.3035 7.24083 13.3058 7.50303C13.3081 7.76523 13.2073 8.01783 13.0251 8.20643L9.23215 11.9994Z" fill="currentColor"/>
</svg>
