<svg width="189" height="97" viewBox="0 0 189 97" fill="none" xmlns="http://www.w3.org/2000/svg">
<path d="M61.3586 81.1162L63.1589 80.2451L61.3586 81.1162ZM19.9179 49.4367L18.2139 50.4839L19.9179 49.4367ZM2.57531 29.7314C1.47101 29.756 0.595697 30.6711 0.620245 31.7754L1.02025 49.7709C1.0448 50.8752 1.95991 51.7505 3.0642 51.726C4.1685 51.7014 5.04382 50.7863 5.01927 49.682L4.6637 33.686L20.6598 33.3304C21.7641 33.3059 22.6394 32.3908 22.6148 31.2865C22.5903 30.1822 21.6752 29.3069 20.5709 29.3314L2.57531 29.7314ZM187.266 2.00145C185.648 0.824724 185.648 0.82498 185.648 0.82575C185.647 0.826697 185.646 0.82798 185.645 0.82986C185.642 0.833629 185.638 0.839441 185.632 0.847282C185.621 0.862963 185.603 0.886757 185.58 0.918502C185.534 0.981991 185.464 1.0773 185.371 1.20317C185.186 1.45492 184.91 1.82891 184.547 2.31517C183.823 3.28771 182.756 4.70917 181.386 6.4997C178.648 10.0811 174.703 15.1373 169.883 21.0297C160.237 32.8221 147.116 47.9311 133.166 61.2674C119.162 74.6548 104.529 86.0529 91.861 90.6741C85.5518 92.9757 79.9447 93.5165 75.2128 92.0075C70.5429 90.5182 66.3907 86.9244 63.1589 80.2451L59.5583 81.9873C63.1501 89.4108 68.0502 93.9217 73.9975 95.8184C79.8829 97.6953 86.4579 96.903 93.2319 94.4319C106.73 89.5077 121.868 77.6014 135.93 64.1587C150.044 50.6649 163.282 35.4181 172.979 23.5622C177.831 17.6305 181.803 12.5395 184.564 8.92959C185.944 7.12451 187.022 5.68938 187.756 4.70422C188.122 4.21162 188.403 3.83149 188.593 3.57382C188.688 3.44499 188.76 3.34677 188.808 3.28041C188.833 3.24723 188.851 3.22201 188.863 3.20492C188.87 3.19638 188.874 3.18986 188.878 3.1854C188.879 3.18316 188.881 3.18136 188.881 3.18024C188.882 3.17894 188.883 3.17816 187.266 2.00145ZM63.1589 80.2451C59.5134 72.7107 55.5558 67.7444 51.4554 64.3395C47.35 60.9307 43.2057 59.1747 39.3433 57.9277C31.4004 55.3634 25.6718 54.9796 21.6218 48.3895L18.2139 50.4839C23.2582 58.6918 31.157 59.4881 38.1144 61.7343C41.7022 62.8926 45.3263 64.4494 48.9 67.4169C52.4786 70.3885 56.1108 74.8621 59.5583 81.9873L63.1589 80.2451ZM21.6218 48.3895C21.3079 47.8787 20.7723 47.225 20.184 46.5518C19.5669 45.8457 18.7957 45.0108 17.9351 44.1051C16.2123 42.2922 14.088 40.151 12.0286 38.1084C9.96704 36.0638 7.96095 34.1086 6.47091 32.6652C5.72567 31.9433 5.10904 31.3489 4.67849 30.9348C4.46321 30.7277 4.29442 30.5657 4.17932 30.4553C4.12176 30.4001 4.07762 30.3579 4.0478 30.3293C4.03289 30.315 4.02156 30.3042 4.01393 30.2969C4.0101 30.2932 4.00721 30.2904 4.00524 30.2886C4.00427 30.2876 4.00352 30.2869 4.00301 30.2864C4.00276 30.2862 4.00255 30.286 4.00243 30.2859C4.00227 30.2857 4.00219 30.2856 2.61976 31.7309C1.23732 33.1762 1.23735 33.1762 1.23745 33.1763C1.23756 33.1764 1.2377 33.1766 1.23792 33.1768C1.23835 33.1772 1.23902 33.1778 1.23993 33.1787C1.24174 33.1804 1.2445 33.1831 1.24817 33.1866C1.2555 33.1936 1.26652 33.2042 1.28113 33.2181C1.31033 33.2461 1.35381 33.2878 1.41071 33.3423C1.5245 33.4515 1.6919 33.6121 1.90568 33.8178C2.33329 34.229 2.94646 34.8201 3.68779 35.5382C5.17091 36.9749 7.16502 38.9184 9.2118 40.9484C11.2607 42.9805 13.3528 45.0898 15.0356 46.8606C15.8777 47.7468 16.6066 48.537 17.172 49.184C17.7662 49.8638 18.0955 50.2912 18.2139 50.4839L21.6218 48.3895Z" fill="#34A853"/>
</svg>
