<svg width="24" height="25" viewBox="0 0 24 25" fill="none" xmlns="http://www.w3.org/2000/svg">
<rect width="24" height="24" transform="translate(0 0.5)" fill="white" fill-opacity="0.01"/>
<path fill-rule="evenodd" clip-rule="evenodd" d="M8.41379 11.9994H17.9998C18.265 11.9994 18.5194 12.1048 18.7069 12.2923C18.8944 12.4799 18.9998 12.7342 18.9998 12.9994C18.9998 13.2646 18.8944 13.519 18.7069 13.7065C18.5194 13.8941 18.265 13.9994 17.9998 13.9994H8.41379L12.2068 17.7924C12.3889 17.981 12.4897 18.2336 12.4875 18.4958C12.4852 18.758 12.38 19.0088 12.1946 19.1942C12.0092 19.3797 11.7584 19.4848 11.4962 19.4871C11.234 19.4894 10.9814 19.3886 10.7928 19.2064L5.29279 13.7064C5.10532 13.5189 5 13.2646 5 12.9994C5 12.7343 5.10532 12.48 5.29279 12.2924L10.7928 6.79243C10.9814 6.61027 11.234 6.50948 11.4962 6.51176C11.7584 6.51403 12.0092 6.6192 12.1946 6.80461C12.38 6.99002 12.4852 7.24083 12.4875 7.50303C12.4897 7.76523 12.3889 8.01783 12.2068 8.20643L8.41379 11.9994Z" fill="#333333"/>
</svg>
