<svg width="24" height="25" viewBox="0 0 24 25" fill="none" xmlns="http://www.w3.org/2000/svg">
<path d="M15.5388 11.9204L9.87876 6.27041C9.7858 6.17668 9.6752 6.10229 9.55334 6.05152C9.43148 6.00075 9.30077 5.97461 9.16876 5.97461C9.03675 5.97461 8.90604 6.00075 8.78418 6.05152C8.66233 6.10229 8.55172 6.17668 8.45876 6.27041C8.27251 6.45777 8.16797 6.71122 8.16797 6.97541C8.16797 7.23959 8.27251 7.49305 8.45876 7.68041L13.4088 12.6804L8.45876 17.6304C8.27251 17.8178 8.16797 18.0712 8.16797 18.3354C8.16797 18.5996 8.27251 18.853 8.45876 19.0404C8.55138 19.1349 8.66182 19.2101 8.7837 19.2616C8.90557 19.3131 9.03645 19.3399 9.16876 19.3404C9.30107 19.3399 9.43195 19.3131 9.55383 19.2616C9.6757 19.2101 9.78615 19.1349 9.87876 19.0404L15.5388 13.3904C15.6403 13.2968 15.7213 13.1831 15.7767 13.0566C15.8321 12.9301 15.8607 12.7935 15.8607 12.6554C15.8607 12.5173 15.8321 12.3807 15.7767 12.2542C15.7213 12.1277 15.6403 12.0141 15.5388 11.9204Z" fill="#D6EEDD"/>
</svg>
