<svg width="32" height="32" viewBox="0 0 32 32" fill="none" xmlns="http://www.w3.org/2000/svg">
<rect width="31.0097" height="31.0097" transform="translate(0.347656 0.535156)" fill="white" fill-opacity="0.01"/>
<path fill-rule="evenodd" clip-rule="evenodd" d="M15.5856 8.01957C15.4655 8.13946 15.3703 8.28185 15.3053 8.4386C15.2402 8.59535 15.2068 8.76337 15.2068 8.93306C15.2068 9.10276 15.2402 9.27078 15.3053 9.42753C15.3703 9.58428 15.4655 9.72667 15.5856 9.84656L20.4864 14.7474H8.10066C7.75799 14.7474 7.42934 14.8835 7.18703 15.1258C6.94472 15.3681 6.80859 15.6968 6.80859 16.0394C6.80859 16.3821 6.94472 16.7108 7.18703 16.9531C7.42934 17.1954 7.75799 17.3315 8.10066 17.3315H20.4864L15.5856 22.2323C15.4655 22.3522 15.3703 22.4946 15.3053 22.6514C15.2402 22.8081 15.2068 22.9761 15.2068 23.1458C15.2068 23.3155 15.2402 23.4835 15.3053 23.6403C15.3703 23.797 15.4655 23.9394 15.5856 24.0593C16.0895 24.5632 16.9087 24.5632 17.4139 24.0593L24.519 16.9529C24.753 16.7198 24.8885 16.4058 24.8976 16.0756V16.002C24.8883 15.6722 24.7528 15.3587 24.519 15.126L17.4139 8.01957C17.2939 7.89944 17.1514 7.80414 16.9945 7.73912C16.8377 7.67409 16.6696 7.64063 16.4998 7.64062C16.33 7.64063 16.1618 7.67409 16.005 7.73912C15.8481 7.80414 15.7056 7.89944 15.5856 8.01957Z" fill="black"/>
</svg>
