<svg width="24" height="24" viewBox="0 0 24 24" fill="none" xmlns="http://www.w3.org/2000/svg">
<rect width="24" height="24" fill="white" fill-opacity="0.01"/>
<path fill-rule="evenodd" clip-rule="evenodd" d="M11.793 5.79329C11.7001 5.88607 11.6263 5.99628 11.576 6.11759C11.5257 6.23891 11.4998 6.36895 11.4998 6.50029C11.4998 6.63162 11.5257 6.76166 11.576 6.88298C11.6263 7.00429 11.7001 7.1145 11.793 7.20729L15.586 11.0003H6C5.73478 11.0003 5.48043 11.1056 5.29289 11.2932C5.10536 11.4807 5 11.7351 5 12.0003C5 12.2655 5.10536 12.5199 5.29289 12.7074C5.48043 12.8949 5.73478 13.0003 6 13.0003H15.586L11.793 16.7933C11.7001 16.8861 11.6263 16.9963 11.576 17.1176C11.5257 17.2389 11.4998 17.369 11.4998 17.5003C11.4998 17.6316 11.5257 17.7617 11.576 17.883C11.6263 18.0043 11.7001 18.1145 11.793 18.2073C12.183 18.5973 12.817 18.5973 13.208 18.2073L18.707 12.7073C18.8881 12.5269 18.993 12.2838 19 12.0283V11.9713C18.9928 11.7161 18.888 11.4734 18.707 11.2933L13.208 5.79329C13.1151 5.70031 13.0048 5.62655 12.8834 5.57623C12.762 5.5259 12.6319 5.5 12.5005 5.5C12.3691 5.5 12.239 5.5259 12.1176 5.57623C11.9962 5.62655 11.8859 5.70031 11.793 5.79329Z" fill="#FDE74C"/>
</svg>
