<svg width="24" height="24" viewBox="0 0 24 24" fill="none" xmlns="http://www.w3.org/2000/svg">
<rect width="24" height="24" transform="matrix(-1 0 0 -1 24 24)" fill="white" fill-opacity="0.01"/>
<path fill-rule="evenodd" clip-rule="evenodd" d="M2 12C2 6.47715 6.47715 2 12 2C17.5228 2 22 6.47715 22 12C22 17.5228 17.5228 22 12 22C6.47715 22 2 17.5228 2 12ZM15.9996 12.9975C15.9996 13.2632 15.8948 13.5181 15.708 13.707C15.616 13.7998 15.5065 13.8735 15.3858 13.9238C15.2651 13.9741 15.1357 13.9999 15.005 13.9999C14.8743 13.9999 14.7449 13.9741 14.6242 13.9238C14.5035 13.8735 14.394 13.7998 14.302 13.707L11.995 11.38L9.697 13.697C9.60517 13.7902 9.49573 13.8642 9.37504 13.9147C9.25435 13.9652 9.12483 13.9912 8.994 13.9912C8.86317 13.9912 8.73365 13.9652 8.61296 13.9147C8.49227 13.8642 8.38283 13.7902 8.291 13.697C8.10443 13.508 7.99982 13.2531 7.99982 12.9875C7.99982 12.7219 8.10443 12.467 8.291 12.278L11.221 9.323C11.434 9.108 11.711 9.001 11.99 9.001C12.269 9.001 12.551 9.108 12.769 9.323L15.708 12.288C15.8948 12.4769 15.9996 12.7318 15.9996 12.9975Z" fill="#34A853"/>
</svg>
