<svg width="24" height="24" viewBox="0 0 24 24" fill="none" xmlns="http://www.w3.org/2000/svg">
<rect width="24" height="24" fill="white" fill-opacity="0.01"/>
<path fill-rule="evenodd" clip-rule="evenodd" d="M11.2925 5.293L5.79246 10.792C5.60517 10.9798 5.5 11.2343 5.5 11.4995C5.5 11.7648 5.60517 12.0192 5.79246 12.207C5.88525 12.2999 5.99545 12.3737 6.11677 12.424C6.23808 12.4743 6.36813 12.5002 6.49946 12.5002C6.63079 12.5002 6.76084 12.4743 6.88215 12.424C7.00347 12.3737 7.11367 12.2999 7.20646 12.207L10.9995 8.414V18C10.9995 18.2652 11.1048 18.5196 11.2924 18.7071C11.4799 18.8946 11.7342 19 11.9995 19C12.2647 19 12.519 18.8946 12.7066 18.7071C12.8941 18.5196 12.9995 18.2652 12.9995 18V8.414L16.7925 12.207C16.8854 12.2998 16.9957 12.3735 17.117 12.4237C17.2384 12.4739 17.3685 12.4998 17.4998 12.4997C17.6312 12.4997 17.7612 12.4737 17.8825 12.4234C18.0039 12.3731 18.1141 12.2994 18.207 12.2065C18.2998 12.1136 18.3734 12.0033 18.4237 11.8819C18.4739 11.7606 18.4997 11.6305 18.4997 11.4992C18.4996 11.3678 18.4737 11.2377 18.4234 11.1164C18.3731 10.9951 18.2994 10.8848 18.2065 10.792L12.7065 5.293C12.6139 5.19983 12.5037 5.12595 12.3823 5.07566C12.261 5.02536 12.1308 4.99965 11.9995 5C11.8681 4.99965 11.738 5.02536 11.6166 5.07566C11.4952 5.12595 11.3851 5.19983 11.2925 5.293Z" fill="#34A853"/>
</svg>
