<svg width="1558" height="1559" viewBox="0 0 1558 1559" fill="none" xmlns="http://www.w3.org/2000/svg">
<mask id="mask0_3702_34444" style="mask-type:luminance" maskUnits="userSpaceOnUse" x="0" y="0" width="1558" height="1559">
<path d="M1557.29 0.582031H0.892578V1558.42H1557.29V0.582031Z" fill="white"/>
</mask>
<g mask="url(#mask0_3702_34444)">
<path d="M-57.8171 -25.3877C-20.5945 -25.3425 15.091 -10.5339 41.4098 15.7879C67.7293 42.1098 82.5336 77.7965 82.5759 115.02C82.6266 133.462 79.0187 151.731 71.9612 168.77C64.9042 185.808 54.537 201.278 41.4605 214.283C28.4553 227.364 12.9841 237.736 -4.05743 244.796C-21.0984 251.855 -39.3717 255.464 -57.8171 255.413C-95.0391 255.37 -130.724 240.565 -157.044 214.246C-183.363 187.926 -198.168 152.241 -198.21 115.02V-25.3877H-57.8171ZM-57.8171 -32.5938H-205.416V115.02C-205.412 154.164 -189.86 191.704 -162.181 219.383C-134.502 247.062 -96.9619 262.614 -57.8171 262.618C-38.4309 262.642 -19.2311 258.835 -1.32108 251.415C16.5895 243.996 32.8574 233.11 46.5476 219.384C60.2734 205.694 71.1591 189.426 78.5781 171.516C85.9978 153.606 89.8048 134.406 89.7812 115.02C89.7812 75.8724 74.231 38.3287 46.5512 10.6466C18.872 -17.0362 -18.6704 -32.5895 -57.8171 -32.5938Z" fill="#FDE74C"/>
<path d="M188.957 -173.794C226.178 -173.752 261.864 -158.948 288.184 -132.628C314.503 -106.308 329.307 -70.6231 329.35 -33.4011V107.006H188.957C151.739 106.953 116.061 92.1411 89.7478 65.8198C63.435 39.4992 48.6344 3.81672 48.5927 -33.4011C48.5372 -51.8543 52.1438 -70.1348 59.2038 -87.1836C66.2637 -104.233 76.637 -119.711 89.7219 -132.723C102.726 -145.79 118.192 -156.148 135.225 -163.198C152.259 -170.248 170.522 -173.849 188.957 -173.794ZM188.957 -181C169.568 -181.025 150.366 -177.218 132.453 -169.799C114.54 -162.379 98.2701 -151.493 84.5769 -137.767C70.8517 -124.076 59.966 -107.808 52.547 -89.8977C45.1273 -71.9876 41.3203 -52.7879 41.3439 -33.4011C41.3439 5.74797 56.8959 43.2941 84.5787 70.9769C112.262 98.6597 149.808 114.212 188.957 114.212H336.598V-33.4011C336.598 -52.7873 332.778 -71.9834 325.354 -89.8928C317.937 -107.802 307.056 -124.074 293.35 -137.78C279.638 -151.486 263.361 -162.358 245.448 -169.773C227.542 -177.189 208.344 -181.004 188.957 -181Z" fill="#FDE74C"/>
<path d="M335.517 -25.3877C363.291 -25.3908 390.437 -17.1588 413.528 -1.73221C436.618 13.6943 454.621 35.622 465.249 61.2782C475.877 86.9337 478.66 115.165 473.246 142.403C467.826 169.64 454.458 194.659 434.82 214.297C415.188 233.935 390.166 247.309 362.929 252.728C335.692 258.147 307.459 255.367 281.804 244.741C256.148 234.114 234.216 216.118 218.791 193.027C203.36 169.937 195.125 142.79 195.125 115.02V-25.3877H335.517ZM335.517 -32.5937H187.92V115.02C187.92 144.215 196.577 172.755 212.798 197.03C229.02 221.305 252.075 240.225 279.046 251.397C306.023 262.569 335.704 265.492 364.335 259.795C392.972 254.098 419.273 240.038 439.914 219.392C460.56 198.747 474.616 172.443 480.313 143.809C486.004 115.174 483.077 85.4931 471.906 58.5207C460.729 31.5482 441.809 8.49502 417.529 -7.72334C393.256 -23.9417 364.715 -32.5962 335.517 -32.5937Z" fill="#FDE74C"/>
<path d="M582.382 -173.794C619.607 -173.752 655.287 -158.948 681.606 -132.628C707.926 -106.308 722.736 -70.6231 722.772 -33.4011V107.006H582.382C545.157 106.96 509.477 92.1519 483.157 65.8301C456.838 39.5082 442.033 3.82154 441.991 -33.4011C441.925 -51.8506 445.522 -70.1288 452.571 -87.1776C459.62 -104.226 469.982 -119.707 483.061 -132.723C496.079 -145.799 511.559 -156.162 528.608 -163.212C545.652 -170.262 563.932 -173.859 582.382 -173.794ZM582.382 -181C562.997 -181.025 543.793 -177.219 525.886 -169.799C507.974 -162.38 491.709 -151.494 478.015 -137.767C464.291 -124.076 453.404 -107.808 445.987 -89.8977C438.569 -71.9876 434.761 -52.7879 434.785 -33.4011C434.779 -14.0173 438.599 5.17765 446.017 23.0865C453.434 40.9959 464.303 57.2686 478.009 70.9757C491.715 84.6834 507.986 95.5564 525.892 102.975C543.805 110.393 562.997 114.212 582.382 114.212H729.936V-33.4011C729.936 -72.5381 714.389 -110.071 686.718 -137.75C659.047 -165.428 621.52 -180.985 582.382 -181Z" fill="#FDE74C"/>
<path d="M728.868 -25.3877C756.642 -25.3877 783.789 -17.1533 806.879 -1.72497C829.97 13.7034 847.961 35.6316 858.589 61.2878C869.217 86.944 871.999 115.175 866.579 142.412C861.16 169.648 847.792 194.666 828.153 214.303C808.515 233.939 783.499 247.311 756.262 252.729C729.025 258.147 700.793 255.366 675.137 244.739C649.482 234.112 627.556 216.116 612.124 193.026C596.698 169.936 588.466 142.789 588.466 115.02V-25.3877H728.868ZM728.868 -32.5938H581.26V115.02C581.26 144.214 589.914 172.754 606.137 197.029C622.353 221.304 645.408 240.223 672.379 251.396C699.356 262.569 729.037 265.492 757.668 259.796C786.305 254.101 812.607 240.042 833.247 219.398C853.893 198.754 867.949 172.451 873.646 143.817C879.344 115.183 876.423 85.5034 865.246 58.5303C854.074 31.5579 835.154 8.50346 810.88 -7.7161C786.607 -23.9363 758.067 -32.5938 728.868 -32.5938Z" fill="#FDE74C"/>
<path d="M975.678 -173.795C1012.9 -173.753 1048.58 -158.949 1074.91 -132.63C1101.23 -106.311 1116.04 -70.6251 1116.09 -33.4025V107.005H975.678C938.453 106.959 902.767 92.1511 876.447 65.8292C850.128 39.5074 835.323 3.8207 835.281 -33.4025C835.221 -51.8521 838.818 -70.1315 845.873 -87.1803C852.928 -104.229 863.29 -119.709 876.369 -132.724C889.374 -145.804 904.849 -156.174 921.886 -163.234C938.929 -170.294 957.204 -173.903 975.647 -173.853M975.647 -181.058C956.262 -181.082 937.058 -177.275 919.152 -169.856C901.24 -162.436 884.975 -151.551 871.281 -137.825C857.557 -124.135 846.669 -107.867 839.252 -89.9564C831.835 -72.0464 828.027 -52.8461 828.051 -33.4599C828.039 -14.0694 831.853 5.13337 839.27 23.05C846.688 40.9667 857.557 57.2472 871.269 70.9603C884.975 84.6741 901.252 95.5519 919.17 102.973C937.082 110.394 956.287 114.213 975.678 114.21H1123.29V-33.4025C1123.29 -72.5491 1107.73 -110.092 1080.05 -137.771C1052.37 -165.451 1014.82 -181.001 975.678 -181.001L975.647 -181.058Z" fill="#FDE74C"/>
<path d="M1122.21 -25.3877C1149.98 -25.3908 1177.13 -17.1588 1200.22 -1.73221C1223.31 13.6943 1241.31 35.622 1251.94 61.2782C1262.57 86.9337 1265.35 115.165 1259.93 142.403C1254.52 169.64 1241.15 194.659 1221.51 214.297C1201.88 233.935 1176.85 247.309 1149.62 252.728C1122.38 258.147 1094.15 255.367 1068.49 244.741C1042.84 234.114 1020.91 216.118 1005.48 193.027C990.047 169.937 981.815 142.79 981.815 115.02V-25.3877H1122.21ZM1122.21 -32.5938H974.609V115.02C974.609 144.211 983.27 172.746 999.492 197.017C1015.71 221.287 1038.76 240.203 1065.73 251.373C1092.71 262.541 1122.38 265.462 1151.01 259.766C1179.64 254.069 1205.94 240.01 1226.58 219.368C1247.22 198.725 1261.27 172.426 1266.97 143.795C1272.66 115.164 1269.74 85.4877 1258.57 58.5183C1247.4 31.5488 1228.48 8.49802 1204.21 -7.71973C1179.94 -23.9375 1151.4 -32.5938 1122.21 -32.5938Z" fill="#FDE74C"/>
<path d="M1369.03 -173.795C1406.24 -173.753 1441.93 -158.949 1468.25 -132.629C1494.57 -106.309 1509.37 -70.6239 1509.42 -33.4025V107.005H1369.03C1331.8 106.963 1296.11 92.1565 1269.79 65.8341C1243.47 39.5122 1228.66 3.82312 1228.62 -33.4025C1228.57 -51.8581 1232.18 -70.1405 1239.25 -87.1899C1246.32 -104.239 1256.7 -119.716 1269.79 -132.724C1282.79 -145.806 1298.27 -156.178 1315.31 -163.238C1332.35 -170.298 1350.62 -173.906 1369.07 -173.853M1369.07 -181.058C1349.68 -181.083 1330.48 -177.277 1312.57 -169.857C1294.65 -162.438 1278.38 -151.552 1264.69 -137.825C1250.97 -124.135 1240.08 -107.867 1232.66 -89.9564C1225.24 -72.0458 1221.44 -52.8461 1221.45 -33.4599C1221.45 -14.0742 1225.26 5.12371 1232.67 23.0367C1240.08 40.9498 1250.95 57.2273 1264.65 70.9398C1278.36 84.653 1294.63 95.532 1312.54 102.957C1330.44 110.381 1349.64 114.205 1369.03 114.21H1516.62V-33.4025C1516.62 -72.5467 1501.07 -110.087 1473.39 -137.766C1445.71 -165.445 1408.17 -180.997 1369.03 -181.001L1369.07 -181.058Z" fill="#FDE74C"/>
<path d="M1515.54 -25.3877C1543.32 -25.3908 1570.46 -17.1588 1593.55 -1.73221C1616.64 13.6943 1634.64 35.622 1645.27 61.2782C1655.9 86.9337 1658.68 115.165 1653.27 142.403C1647.85 169.64 1634.48 194.659 1614.84 214.297C1595.21 233.935 1570.19 247.309 1542.95 252.728C1515.72 258.147 1487.48 255.367 1461.83 244.741C1436.17 234.114 1414.24 216.118 1398.82 193.027C1383.38 169.937 1375.15 142.79 1375.15 115.02V-25.3877H1515.54ZM1515.54 -32.5937H1367.95V115.02C1367.95 144.215 1376.6 172.755 1392.82 197.03C1409.04 221.305 1432.1 240.225 1459.07 251.397C1486.04 262.569 1515.72 265.492 1544.36 259.795C1573 254.098 1599.3 240.038 1619.94 219.392C1640.58 198.747 1654.64 172.443 1660.34 143.809C1666.03 115.174 1663.1 85.4931 1651.93 58.5207C1640.75 31.5482 1621.83 8.49502 1597.55 -7.72334C1573.28 -23.9417 1544.74 -32.5962 1515.54 -32.5937Z" fill="#FDE74C"/>
<path d="M-104.87 343.491C-67.6484 343.533 -31.9635 358.338 -5.64409 384.657C20.676 410.977 35.4809 446.665 35.5225 483.884C35.5738 502.327 31.9666 520.602 24.909 537.639C17.8515 554.682 7.48425 570.157 -5.59219 583.162C-18.5992 596.241 -34.071 606.609 -51.112 613.67C-68.1529 620.731 -86.4251 624.34 -104.87 624.292C-142.093 624.244 -177.778 609.439 -204.098 583.114C-230.417 556.795 -245.221 521.109 -245.263 483.884V343.491H-104.87ZM-104.87 336.285H-252.469V483.884C-252.469 523.028 -236.918 560.573 -209.239 588.256C-181.56 615.939 -144.017 631.492 -104.87 631.498C-85.4842 631.516 -66.285 627.708 -48.375 620.291C-30.465 612.874 -14.1972 601.986 -0.505122 588.262C13.2207 574.568 24.1057 558.297 31.5248 540.385C38.9439 522.473 42.7515 503.275 42.7279 483.884C42.7243 444.739 27.1728 407.199 -0.506338 379.52C-28.1861 351.841 -65.7262 336.289 -104.87 336.285Z" fill="#FDE74C"/>
<path d="M141.948 195.084C179.169 195.127 214.855 209.931 241.175 236.251C267.494 262.57 282.299 298.256 282.341 335.477V475.869H141.948C123.511 475.869 105.255 472.242 88.2221 465.181C71.1884 458.125 55.7118 447.787 42.6752 434.751C29.6386 421.713 19.2973 406.237 12.2415 389.203C5.18639 372.17 1.55503 353.914 1.55503 335.477C1.55503 317.04 5.18639 298.785 12.2415 281.751C19.2973 264.718 29.6386 249.241 42.6752 236.204C55.7118 223.168 71.1884 212.827 88.2221 205.771C105.255 198.716 123.511 195.084 141.948 195.084ZM141.948 187.879C102.803 187.879 65.26 203.429 37.5802 231.11C9.89986 258.789 -5.65039 296.332 -5.65039 335.477C-5.65039 374.623 9.89986 412.165 37.5802 439.845C65.26 467.528 102.803 483.075 141.948 483.075H289.547V335.477C289.541 296.333 273.988 258.793 246.311 231.114C218.633 203.435 181.092 187.883 141.948 187.879Z" fill="#FDE74C"/>
<path d="M288.469 343.491C316.237 343.488 343.389 351.721 366.479 367.148C389.57 382.575 407.567 404.503 418.201 430.158C428.829 455.814 431.611 484.046 426.192 511.289C420.778 538.526 407.404 563.542 387.766 583.18C368.127 602.819 343.111 616.193 315.868 621.606C288.632 627.026 260.399 624.244 234.743 613.616C209.088 602.988 187.159 584.985 171.732 561.894C156.305 538.804 148.072 511.657 148.075 483.884V343.491H288.469ZM288.469 336.285H140.869V483.884C140.866 513.082 149.522 541.622 165.741 565.896C181.959 590.175 205.014 609.096 231.985 620.273C258.963 631.444 288.644 634.371 317.275 628.674C345.912 622.982 372.213 608.92 392.859 588.274C413.506 567.634 427.562 541.326 433.259 512.695C438.956 484.059 436.029 454.377 424.858 427.4C413.681 400.429 394.76 377.375 370.481 361.157C346.207 344.938 317.667 336.282 288.469 336.285Z" fill="#FDE74C"/>
<path d="M535.284 195.084C572.509 195.127 608.195 209.931 634.515 236.251C660.834 262.57 675.638 298.256 675.681 335.477V475.869H535.284C516.853 475.869 498.596 472.242 481.559 465.181C464.528 458.125 449.047 447.787 436.011 434.751C422.975 421.713 412.637 406.237 405.582 389.203C398.527 372.17 394.893 353.914 394.893 335.477C394.893 317.04 398.527 298.785 405.582 281.751C412.637 264.718 422.975 249.241 436.011 236.204C449.047 223.168 464.528 212.827 481.559 205.771C498.596 198.716 516.853 195.084 535.284 195.084ZM535.284 187.879C496.14 187.879 458.601 203.429 430.918 231.11C403.24 258.789 387.688 296.332 387.688 335.477C387.688 374.623 403.24 412.165 430.918 439.845C458.601 467.528 496.14 483.075 535.284 483.075H682.887V335.477C682.881 296.333 667.328 258.793 639.651 231.114C611.973 203.435 574.428 187.883 535.284 187.879Z" fill="#FDE74C"/>
<path d="M681.818 343.491C709.592 343.491 736.738 351.726 759.829 367.155C782.919 382.583 800.916 404.513 811.538 430.17C822.166 455.826 824.948 484.058 819.529 511.295C814.109 538.532 800.735 563.548 781.097 583.186C761.458 602.825 736.442 616.193 709.199 621.606C681.963 627.026 653.736 624.244 628.074 613.616C602.419 602.982 580.493 584.985 565.067 561.894C549.641 538.804 541.409 511.651 541.409 483.884V343.491H681.818ZM681.818 336.285H534.203V483.884C534.203 513.082 542.858 541.622 559.074 565.896C575.297 590.175 598.345 609.096 625.322 620.273C652.294 631.444 681.975 634.371 710.606 628.674C739.243 622.982 765.544 608.927 786.19 588.28C806.837 567.64 820.899 541.338 826.596 512.702C832.293 484.065 829.366 454.383 818.195 427.412C807.024 400.439 788.103 377.384 763.83 361.163C739.556 344.943 711.016 336.285 681.818 336.285Z" fill="#FDE74C"/>
<path d="M928.62 195.084C965.845 195.127 1001.53 209.931 1027.86 236.25C1054.18 262.569 1068.99 298.255 1069.03 335.477V475.869H928.62C891.389 475.869 855.679 461.077 829.347 434.751C803.022 408.422 788.229 372.712 788.229 335.477C788.229 298.243 803.022 262.534 829.347 236.204C855.679 209.876 891.389 195.084 928.62 195.084ZM928.62 187.879C889.476 187.879 851.937 203.429 824.253 231.11C796.576 258.789 781.023 296.332 781.023 335.477C781.023 374.623 796.576 412.165 824.253 439.845C851.937 467.528 889.476 483.075 928.62 483.075H1076.23V335.477C1076.23 296.331 1060.68 258.788 1032.99 231.108C1005.32 203.429 967.77 187.879 928.62 187.879Z" fill="#FDE74C"/>
<path d="M1075.16 343.491C1102.92 343.488 1130.08 351.721 1153.17 367.148C1176.26 382.575 1194.26 404.503 1204.89 430.158C1215.52 455.814 1218.3 484.046 1212.88 511.289C1207.46 538.526 1194.09 563.542 1174.45 583.18C1154.81 602.819 1129.8 616.193 1102.55 621.606C1075.32 627.026 1047.09 624.244 1021.43 613.616C995.774 602.988 973.848 584.985 958.416 561.894C942.99 538.804 934.759 511.657 934.765 483.884V343.491H1075.16ZM1075.16 336.285H927.559V483.884C927.559 513.076 936.213 541.61 952.43 565.884C968.652 590.157 991.701 609.077 1018.67 620.249C1045.64 631.42 1075.32 634.341 1103.95 628.643C1132.58 622.952 1158.88 608.896 1179.52 588.25C1200.16 567.61 1214.22 541.308 1219.92 512.677C1225.61 484.046 1222.69 454.371 1211.52 427.4C1200.35 400.43 1181.43 377.378 1157.16 361.16C1132.88 344.942 1104.35 336.285 1075.16 336.285Z" fill="#FDE74C"/>
<path d="M1321.98 195.084C1359.19 195.127 1394.88 209.931 1421.2 236.251C1447.52 262.57 1462.32 298.256 1462.37 335.477V475.869H1321.98C1303.54 475.869 1285.28 472.242 1268.25 465.181C1251.21 458.125 1235.74 447.787 1222.7 434.751C1209.67 421.713 1199.32 406.237 1192.27 389.203C1185.21 372.17 1181.58 353.914 1181.58 335.477C1181.58 317.04 1185.21 298.785 1192.27 281.751C1199.32 264.718 1209.67 249.241 1222.7 236.204C1235.74 223.168 1251.21 212.827 1268.25 205.771C1285.28 198.716 1303.54 195.084 1321.98 195.084ZM1321.98 187.879C1282.83 187.879 1245.29 203.429 1217.6 231.11C1189.93 258.789 1174.37 296.332 1174.37 335.477C1174.37 374.623 1189.93 412.165 1217.6 439.845C1245.29 467.528 1282.83 483.075 1321.98 483.075H1469.57V335.477C1469.57 296.333 1454.02 258.793 1426.34 231.114C1398.66 203.435 1361.12 187.883 1321.98 187.879Z" fill="#FDE74C"/>
<path d="M1468.49 343.491C1496.26 343.488 1523.41 351.721 1546.5 367.148C1569.59 382.575 1587.6 404.503 1598.22 430.158C1608.85 455.814 1611.63 484.046 1606.21 511.289C1600.8 538.526 1587.43 563.542 1567.79 583.18C1548.15 602.819 1523.13 616.193 1495.89 621.606C1468.65 627.026 1440.42 624.244 1414.77 613.616C1389.11 602.988 1367.18 584.985 1351.75 561.894C1336.33 538.804 1328.09 511.657 1328.1 483.884V343.491H1468.49ZM1468.49 336.285H1320.89V483.884C1320.89 513.082 1329.54 541.622 1345.77 565.896C1361.98 590.175 1385.04 609.096 1412.01 620.273C1438.99 631.444 1468.67 634.371 1497.3 628.674C1525.93 622.982 1552.24 608.92 1572.88 588.274C1593.53 567.634 1607.58 541.326 1613.28 512.695C1618.98 484.059 1616.05 454.377 1604.88 427.4C1593.7 400.429 1574.78 377.375 1550.5 361.157C1526.23 344.938 1497.69 336.282 1468.49 336.285Z" fill="#FDE74C"/>
<path d="M91.1374 565.843C128.359 565.885 164.044 580.689 190.364 607.009C216.681 633.328 231.491 669.014 231.533 706.233V846.63H91.1374C53.9148 846.588 18.2281 831.783 -8.09435 805.464C-34.4162 779.144 -49.2242 743.458 -49.27 706.233C-49.27 687.796 -45.638 669.539 -38.5817 652.508C-31.5254 635.471 -21.1829 619.996 -8.14445 606.954C4.89336 593.918 20.3718 583.58 37.4067 576.525C54.4417 569.47 72.6999 565.843 91.1374 565.843ZM91.1374 558.637C71.7548 558.637 52.5617 562.451 34.6541 569.874C16.7465 577.291 0.475605 588.161 -13.2303 601.867C-26.9362 615.573 -37.808 631.844 -45.2258 649.75C-52.6431 667.656 -56.4609 686.854 -56.4609 706.233C-56.4609 725.618 -52.6431 744.81 -45.2258 762.716C-37.808 780.623 -26.9362 796.894 -13.2303 810.6C0.475605 824.306 16.7465 835.181 34.6541 842.598C52.5617 850.016 71.7548 853.836 91.1374 853.836H238.733V706.233C238.733 667.089 223.181 629.55 195.501 601.873C167.822 574.189 130.282 558.643 91.1374 558.637Z" fill="#FDE74C"/>
<path d="M237.651 714.245C265.425 714.239 292.571 722.471 315.662 737.903C338.759 753.329 356.756 775.255 367.384 800.91C378.012 826.566 380.794 854.799 375.38 882.041C369.961 909.278 356.587 934.294 336.948 953.933C317.316 973.571 292.294 986.945 265.057 992.359C237.82 997.778 209.588 994.996 183.929 984.368C158.273 973.74 136.344 955.737 120.917 932.646C105.49 909.556 97.2571 882.41 97.2601 854.636V714.245H237.651ZM237.651 707.039H90.0547V854.636C90.0517 883.834 98.7073 912.374 114.926 936.654C131.145 960.927 154.198 979.848 181.172 991.025C208.145 1002.2 237.826 1005.12 266.463 999.426C295.1 993.735 321.401 979.673 342.048 959.026C362.688 938.386 376.75 912.079 382.447 883.448C388.139 854.811 385.218 825.13 374.04 798.152C362.869 771.181 343.943 748.127 319.669 731.91C295.39 715.688 266.849 707.033 237.651 707.039Z" fill="#FDE74C"/>
<path d="M484.473 565.843C521.692 565.885 557.379 580.689 583.698 607.009C610.017 633.328 624.822 669.014 624.864 706.233V846.63H484.473C447.236 846.63 411.526 831.838 385.201 805.506C358.869 779.181 344.077 743.47 344.077 706.233C344.077 669.002 358.869 633.292 385.201 606.96C411.526 580.635 447.236 565.843 484.473 565.843ZM484.473 558.637C445.329 558.637 407.784 574.189 380.107 601.867C352.424 629.544 336.877 667.089 336.877 706.233C336.877 745.377 352.424 782.922 380.107 810.6C407.784 838.283 445.329 853.836 484.473 853.836H632.07V706.233C632.07 667.089 616.517 629.55 588.834 601.873C561.157 574.189 523.618 558.643 484.473 558.637Z" fill="#FDE74C"/>
<path d="M631.001 714.245C658.775 714.245 685.921 722.477 709.012 737.909C732.103 753.335 750.1 775.267 760.728 800.922C771.349 826.578 774.132 854.811 768.712 882.047C763.292 909.284 749.919 934.3 730.28 953.939C710.642 973.577 685.626 986.945 658.389 992.365C631.152 997.778 602.919 994.996 577.264 984.368C551.608 973.734 529.676 955.737 514.25 932.646C498.825 909.556 490.593 882.41 490.599 854.636V714.245H631.001ZM631.001 707.039H483.393V854.636C483.387 883.834 492.041 912.374 508.264 936.648C524.48 960.927 547.535 979.848 574.506 991.025C601.477 1002.2 631.158 1005.12 659.795 999.432C688.426 993.735 714.733 979.679 735.38 959.032C756.02 938.392 770.082 912.091 775.779 883.454C781.477 854.817 778.555 825.136 767.384 798.164C756.207 771.193 737.293 748.139 713.013 731.916C688.74 715.694 660.199 707.039 631.001 707.039Z" fill="#FDE74C"/>
<path d="M877.811 565.843C915.036 565.885 950.722 580.689 977.042 607.009C1003.36 633.328 1018.17 669.014 1018.22 706.233V846.63H877.811C840.574 846.63 804.864 831.838 778.539 805.506C752.207 779.181 737.415 743.47 737.415 706.233C737.415 669.002 752.207 633.292 778.539 606.96C804.864 580.635 840.574 565.843 877.811 565.843ZM877.811 558.637C858.426 558.637 839.234 562.451 821.328 569.874C803.422 577.291 787.151 588.161 773.445 601.867C759.739 615.573 748.864 631.844 741.446 649.75C734.029 667.656 730.215 686.854 730.215 706.233C730.215 725.618 734.029 744.81 741.446 762.716C748.864 780.623 759.739 796.894 773.445 810.6C787.151 824.306 803.422 835.181 821.328 842.598C839.234 850.016 858.426 853.836 877.811 853.836H1025.43V706.233C1025.42 667.089 1009.87 629.544 982.184 601.867C954.5 574.183 916.956 558.637 877.811 558.637Z" fill="#FDE74C"/>
<path d="M1024.34 714.245C1052.11 714.239 1079.26 722.471 1102.36 737.903C1125.45 753.329 1143.44 775.255 1154.07 800.91C1164.7 826.566 1167.48 854.799 1162.07 882.041C1156.65 909.278 1143.27 934.294 1123.64 953.933C1104 973.571 1078.98 986.945 1051.74 992.359C1024.51 997.778 996.275 994.996 970.619 984.368C944.958 973.74 923.032 955.737 907.606 932.646C892.18 909.556 883.948 882.41 883.948 854.636V714.245H1024.34ZM1024.34 707.039H876.742V854.636C876.742 883.828 885.397 912.362 901.619 936.636C917.836 960.909 940.89 979.83 967.855 991.001C994.827 1002.17 1024.51 1005.09 1053.14 999.396C1081.77 993.704 1108.06 979.649 1128.71 959.002C1149.35 938.362 1163.41 912.06 1169.1 883.429C1174.8 854.799 1171.87 825.124 1160.7 798.152C1149.53 771.181 1130.61 748.133 1106.34 731.91C1082.07 715.694 1053.53 707.039 1024.34 707.039Z" fill="#FDE74C"/>
<path d="M1271.23 565.843C1308.46 565.885 1344.14 580.689 1370.46 607.009C1396.78 633.328 1411.59 669.014 1411.62 706.233V846.63H1271.23C1234 846.63 1198.29 831.838 1171.96 805.506C1145.63 779.181 1130.84 743.47 1130.84 706.233C1130.84 669.002 1145.63 633.292 1171.96 606.96C1198.29 580.635 1234 565.843 1271.23 565.843ZM1271.23 558.637C1251.85 558.637 1232.65 562.451 1214.75 569.874C1196.84 577.291 1180.57 588.161 1166.86 601.867C1153.16 615.573 1142.28 631.844 1134.87 649.75C1127.45 667.656 1123.63 686.854 1123.63 706.233C1123.63 725.618 1127.45 744.81 1134.87 762.716C1142.28 780.623 1153.16 796.894 1166.86 810.6C1180.57 824.306 1196.84 835.181 1214.75 842.598C1232.65 850.016 1251.85 853.836 1271.23 853.836H1418.76V706.233C1418.76 667.101 1403.21 629.574 1375.55 601.897C1347.88 574.22 1310.36 558.661 1271.23 558.637Z" fill="#FDE74C"/>
<path d="M1417.68 714.245C1445.45 714.239 1472.6 722.471 1495.69 737.903C1518.78 753.329 1536.78 775.255 1547.41 800.91C1558.04 826.566 1560.82 854.799 1555.41 882.041C1549.99 909.278 1536.61 934.294 1516.98 953.933C1497.34 973.571 1472.32 986.945 1445.08 992.359C1417.85 997.778 1389.61 994.996 1363.96 984.368C1338.3 973.74 1316.37 955.737 1300.94 932.646C1285.52 909.556 1277.29 882.41 1277.29 854.636V714.245H1417.68ZM1417.68 707.039H1270.08V854.636C1270.08 883.834 1278.73 912.374 1294.95 936.654C1311.17 960.927 1334.22 979.848 1361.2 991.025C1388.17 1002.2 1417.85 1005.12 1446.49 999.426C1475.13 993.735 1501.43 979.673 1522.07 959.026C1542.72 938.386 1556.78 912.079 1562.47 883.448C1568.16 854.811 1565.24 825.13 1554.07 798.152C1542.89 771.181 1523.97 748.127 1499.69 731.91C1475.42 715.688 1446.87 707.033 1417.68 707.039Z" fill="#FDE74C"/>
<path d="M1664.5 565.843C1701.72 565.885 1737.4 580.689 1763.72 607.009C1790.04 633.328 1804.85 669.014 1804.89 706.233V846.63H1664.5C1627.26 846.63 1591.56 831.838 1565.22 805.506C1538.89 779.181 1524.11 743.47 1524.11 706.233C1524.11 669.002 1538.89 633.292 1565.22 606.96C1591.56 580.635 1627.26 565.843 1664.5 565.843ZM1664.5 558.637C1625.35 558.637 1587.81 574.189 1560.13 601.867C1532.45 629.544 1516.9 667.089 1516.9 706.233C1516.9 745.377 1532.45 782.922 1560.13 810.6C1587.81 838.283 1625.35 853.836 1664.5 853.836H1812.09V706.233C1812.09 667.089 1796.54 629.55 1768.86 601.873C1741.18 574.189 1703.64 558.643 1664.5 558.637Z" fill="#FDE74C"/>
<path d="M44.0833 934.705C81.3065 934.754 116.991 949.558 143.311 975.884C169.63 1002.2 184.435 1037.89 184.476 1075.11V1215.5H44.0833C6.85038 1215.48 -28.8508 1200.68 -55.1853 1174.36C-81.5199 1148.04 -96.3356 1112.35 -96.3815 1075.11C-96.4304 1056.66 -92.8201 1038.4 -85.7602 1021.35C-78.7002 1004.32 -68.3311 988.841 -55.2523 975.835C-42.2386 962.751 -26.7572 952.376 -9.70597 945.315C7.34525 938.254 25.6283 934.651 44.0833 934.705ZM44.0833 927.499C24.5769 927.306 5.22572 930.982 -12.8521 938.315C-30.9293 945.647 -47.3746 956.486 -61.2362 970.21C-75.0984 983.94 -86.1018 1000.28 -93.612 1018.28C-101.122 1036.28 -104.988 1055.6 -104.988 1075.11C-104.988 1094.61 -101.122 1113.93 -93.612 1131.93C-86.1018 1149.94 -75.0984 1166.27 -61.2362 1180C-47.3746 1193.72 -30.9293 1204.56 -12.8521 1211.9C5.22572 1219.23 24.5769 1222.9 44.0833 1222.71H191.682V1075.11C191.682 1035.96 176.132 998.425 148.452 970.742C120.772 943.058 83.2305 927.505 44.0833 927.499Z" fill="#FDE74C"/>
<path d="M190.6 1083.13C218.369 1083.13 245.509 1091.36 268.6 1106.79C291.684 1122.22 309.681 1144.14 320.309 1169.8C330.931 1195.45 333.713 1223.68 328.294 1250.91C322.88 1278.15 309.506 1303.16 289.874 1322.8C270.241 1342.43 245.225 1355.8 217.989 1361.22C190.756 1366.63 162.528 1363.85 136.874 1353.23C111.221 1342.6 89.2943 1324.61 73.8677 1301.52C58.4412 1278.43 50.2074 1251.29 50.2074 1223.52V1083.13H190.6ZM190.6 1075.93H43.002V1223.52C42.9989 1252.72 51.6546 1281.26 67.873 1305.53C84.0919 1329.81 107.146 1348.73 134.119 1359.91C161.092 1371.08 190.774 1374.01 219.407 1368.31C248.044 1362.62 274.345 1348.56 294.992 1327.91C315.638 1307.27 329.7 1280.97 335.391 1252.33C341.088 1223.7 338.161 1194.02 326.99 1167.04C315.813 1140.07 296.893 1117.01 272.613 1100.8C248.34 1084.57 219.799 1075.92 190.6 1075.93Z" fill="#FDE74C"/>
<path d="M437.424 934.706C474.643 934.754 510.329 949.559 536.648 975.884C562.968 1002.2 577.772 1037.89 577.814 1075.11V1215.51H437.424C400.434 1215.13 365.086 1200.18 339.062 1173.89C313.032 1147.6 298.439 1112.1 298.439 1075.11C298.439 1038.11 313.032 1002.61 339.062 976.325C365.086 950.035 400.434 935.08 437.424 934.706ZM437.424 927.5C398.527 927.886 361.356 943.608 333.987 971.243C306.617 998.884 291.27 1036.21 291.27 1075.11C291.27 1114.01 306.617 1151.33 333.987 1178.97C361.356 1206.61 398.527 1222.32 437.424 1222.71H585.02V1075.11C585.02 1035.96 569.467 998.426 541.79 970.742C514.113 943.059 476.568 927.506 437.424 927.5Z" fill="#FDE74C"/>
<path d="M583.95 1083.13C611.718 1083.13 638.858 1091.37 661.949 1106.8C685.034 1122.23 703.025 1144.15 713.647 1169.8C724.275 1195.46 727.051 1223.69 721.631 1250.92C716.211 1278.15 702.844 1303.17 683.205 1322.8C663.573 1342.43 638.557 1355.8 611.32 1361.22C584.089 1366.63 555.863 1363.85 530.207 1353.22C504.558 1342.6 482.632 1324.61 467.206 1301.52C451.78 1278.43 443.548 1251.29 443.548 1223.52V1083.13H583.95ZM583.95 1075.93H436.342V1223.52C436.336 1252.72 444.99 1281.26 461.207 1305.53C477.429 1329.81 500.484 1348.73 527.455 1359.91C554.426 1371.08 584.107 1374.01 612.744 1368.31C641.375 1362.62 667.683 1348.57 688.323 1327.92C708.969 1307.28 723.031 1280.97 728.728 1252.34C734.426 1223.7 731.505 1194.02 720.328 1167.05C709.156 1140.08 690.236 1117.02 665.963 1100.8C641.689 1084.58 613.149 1075.93 583.95 1075.93Z" fill="#FDE74C"/>
<path d="M830.754 934.706C867.979 934.748 903.671 949.553 929.99 975.878C956.316 1002.2 971.12 1037.89 971.162 1075.11V1215.51H830.754C793.764 1215.13 758.416 1200.18 732.392 1173.89C706.369 1147.6 691.769 1112.1 691.769 1075.11C691.769 1038.11 706.369 1002.61 732.392 976.325C758.416 950.035 793.764 935.08 830.754 934.706ZM830.754 927.5C791.863 927.886 754.692 943.608 727.323 971.243C699.953 998.884 684.6 1036.21 684.6 1075.11C684.6 1114.01 699.953 1151.33 727.323 1178.97C754.692 1206.61 791.863 1222.32 830.754 1222.71H978.368V1075.11C978.368 1035.96 962.816 998.419 935.132 970.736C907.449 943.053 869.904 927.5 830.754 927.5Z" fill="#FDE74C"/>
<path d="M977.246 1083.13C1005.01 1083.13 1032.15 1091.36 1055.24 1106.79C1078.33 1122.22 1096.33 1144.14 1106.95 1169.8C1117.58 1195.45 1120.36 1223.68 1114.94 1250.91C1109.52 1278.15 1096.15 1303.16 1076.52 1322.8C1056.89 1342.43 1031.87 1355.8 1004.63 1361.22C977.403 1366.63 949.17 1363.85 923.521 1353.23C897.865 1342.6 875.939 1324.61 860.513 1301.52C845.087 1278.43 836.849 1251.29 836.849 1223.52V1083.13H977.246ZM977.246 1075.93H829.691V1223.52C829.691 1252.71 838.346 1281.26 854.569 1305.53C870.785 1329.8 893.839 1348.72 920.817 1359.89C947.788 1371.06 977.469 1373.98 1006.1 1368.28C1034.73 1362.59 1061.03 1348.52 1081.67 1327.88C1102.31 1307.23 1116.36 1280.92 1122.05 1252.29C1127.75 1223.66 1124.82 1193.98 1113.64 1167.01C1102.46 1140.04 1083.54 1116.99 1059.26 1100.78C1034.98 1084.56 1006.44 1075.91 977.246 1075.93Z" fill="#FDE74C"/>
<path d="M1224.11 934.705C1261.33 934.754 1297.02 949.558 1323.33 975.884C1349.65 1002.2 1364.46 1037.89 1364.5 1075.11V1215.5H1224.11C1187.12 1215.13 1151.77 1200.18 1125.75 1173.89C1099.72 1147.6 1085.13 1112.1 1085.13 1075.11C1085.13 1038.11 1099.72 1002.61 1125.75 976.324C1151.77 950.035 1187.12 935.08 1224.11 934.705ZM1224.11 927.499C1204.6 927.306 1185.25 930.982 1167.17 938.315C1149.09 945.647 1132.65 956.486 1118.79 970.21C1104.93 983.94 1093.93 1000.28 1086.41 1018.28C1078.9 1036.28 1075.04 1055.6 1075.04 1075.11C1075.04 1094.61 1078.9 1113.93 1086.41 1131.93C1093.93 1149.94 1104.93 1166.27 1118.79 1180C1132.65 1193.72 1149.09 1204.56 1167.17 1211.9C1185.25 1219.23 1204.6 1222.9 1224.11 1222.71H1371.71V1075.11C1371.71 1035.96 1356.15 998.425 1328.48 970.742C1300.8 943.058 1263.25 927.505 1224.11 927.499Z" fill="#FDE74C"/>
<path d="M1370.67 1083.13C1398.44 1083.13 1425.58 1091.36 1448.67 1106.79C1471.76 1122.22 1489.75 1144.14 1500.38 1169.8C1511 1195.45 1513.78 1223.68 1508.37 1250.91C1502.95 1278.15 1489.58 1303.16 1469.94 1322.8C1450.31 1342.43 1425.29 1355.8 1398.06 1361.22C1370.82 1366.63 1342.6 1363.85 1316.94 1353.23C1291.29 1342.6 1269.36 1324.61 1253.94 1301.52C1238.51 1278.43 1230.28 1251.29 1230.28 1223.52V1083.13H1370.67ZM1370.67 1075.93H1223.03V1223.52C1223.02 1252.71 1231.68 1281.26 1247.89 1305.53C1264.11 1329.81 1287.17 1348.73 1314.14 1359.91C1341.11 1371.08 1370.78 1374.01 1399.42 1368.32C1428.05 1362.63 1454.36 1348.57 1475 1327.93C1495.65 1307.29 1509.71 1280.99 1515.41 1252.36C1521.11 1223.73 1518.19 1194.05 1507.03 1167.07C1495.86 1140.1 1476.94 1117.04 1452.67 1100.81C1428.4 1084.59 1399.87 1075.93 1370.67 1075.93Z" fill="#FDE74C"/>
<path d="M1617.45 934.706C1654.67 934.754 1690.35 949.559 1716.67 975.884C1742.99 1002.2 1757.8 1037.89 1757.84 1075.11V1215.51H1617.45C1580.46 1215.13 1545.11 1200.18 1519.09 1173.89C1493.06 1147.6 1478.46 1112.1 1478.46 1075.11C1478.46 1038.11 1493.06 1002.61 1519.09 976.325C1545.11 950.035 1580.46 935.08 1617.45 934.706ZM1617.45 927.5C1578.55 927.886 1541.38 943.608 1514.01 971.243C1486.65 998.884 1471.29 1036.21 1471.29 1075.11C1471.29 1114.01 1486.65 1151.33 1514.01 1178.97C1541.38 1206.61 1578.55 1222.32 1617.45 1222.71H1765.04V1075.11C1765.04 1035.96 1749.5 998.426 1721.81 970.742C1694.14 943.059 1656.59 927.506 1617.45 927.5Z" fill="#FDE74C"/>
<path d="M-1.0949 1303.59C36.1283 1303.63 71.815 1318.44 98.1368 1344.76C124.459 1371.07 139.267 1406.75 139.312 1443.98V1584.39H-1.0949C-38.3181 1584.34 -74.003 1569.54 -100.322 1543.21C-126.641 1516.89 -141.446 1481.2 -141.488 1443.98C-141.536 1425.54 -137.926 1407.27 -130.866 1390.23C-123.806 1373.19 -113.437 1357.72 -100.359 1344.72C-87.3558 1331.63 -71.887 1321.27 -54.8485 1314.2C-37.8094 1307.14 -19.5384 1303.53 -1.0949 1303.59ZM-1.0949 1296.38C-20.4811 1296.36 -39.6809 1300.17 -57.5915 1307.58C-75.5015 1315 -91.7694 1325.89 -105.46 1339.61C-119.186 1353.31 -130.071 1369.57 -137.491 1387.48C-144.91 1405.4 -148.717 1424.59 -148.693 1443.98C-148.693 1483.13 -133.144 1520.67 -105.464 1548.35C-77.784 1576.04 -40.2415 1591.59 -1.0949 1591.59H146.518V1443.98C146.514 1404.84 130.96 1367.29 103.278 1339.61C75.596 1311.93 38.0517 1296.38 -1.0949 1296.38Z" fill="#FDE74C"/>
<path d="M145.436 1452C173.207 1451.99 200.355 1460.22 223.445 1475.65C246.535 1491.08 264.538 1513 275.166 1538.66C285.794 1564.32 288.576 1592.55 283.163 1619.79C277.743 1647.02 264.375 1672.04 244.737 1691.68C225.104 1711.31 200.085 1724.69 172.848 1730.11C145.611 1735.53 117.379 1732.75 91.7225 1722.12C66.0657 1711.5 44.1362 1693.5 28.7073 1670.41C13.2783 1647.32 5.04328 1620.17 5.04328 1592.4V1452H145.436ZM145.436 1444.79H-2.16211V1592.4C-2.16211 1621.6 6.49536 1650.14 22.7161 1674.41C38.9369 1698.69 61.9913 1717.61 88.965 1728.78C115.939 1739.95 145.62 1742.87 174.254 1737.18C202.888 1731.48 229.19 1717.42 249.836 1696.78C270.477 1676.13 284.533 1649.83 290.23 1621.19C295.921 1592.55 293 1562.87 281.823 1535.9C270.646 1508.93 251.726 1485.88 227.452 1469.66C203.173 1453.44 174.632 1444.78 145.436 1444.79Z" fill="#FDE74C"/>
<path d="M392.255 1303.59C429.48 1303.63 465.16 1318.43 491.479 1344.75C517.799 1371.07 532.609 1406.76 532.651 1443.98V1584.39H392.255C355.265 1584.01 319.917 1569.05 293.893 1542.76C267.869 1516.47 253.27 1480.98 253.27 1443.98C253.27 1407 267.869 1371.5 293.893 1345.21C319.917 1318.92 355.265 1303.96 392.255 1303.59ZM392.255 1296.38C372.749 1296.19 353.4 1299.86 335.319 1307.2C317.243 1314.52 300.798 1325.37 286.935 1339.09C273.072 1352.82 262.07 1369.15 254.562 1387.16C247.048 1405.17 243.186 1424.48 243.186 1443.98C243.186 1463.5 247.048 1482.81 254.562 1500.81C262.07 1518.82 273.072 1535.15 286.935 1548.88C300.798 1562.61 317.243 1573.45 335.319 1580.78C353.4 1588.11 372.749 1591.79 392.255 1591.59H539.851V1443.98C539.851 1404.83 524.299 1367.3 496.621 1339.62C468.938 1311.93 431.399 1296.38 392.255 1296.38Z" fill="#FDE74C"/>
<path d="M538.788 1452C566.556 1452 593.703 1460.23 616.793 1475.66C639.884 1491.08 657.881 1513.02 668.509 1538.67C679.137 1564.33 681.913 1592.55 676.499 1619.79C671.08 1647.03 657.706 1672.05 638.073 1691.68C618.435 1711.32 593.419 1724.69 566.182 1730.11C538.945 1735.53 510.713 1732.75 485.057 1722.12C459.402 1711.5 437.47 1693.5 422.044 1670.41C406.618 1647.32 398.38 1620.17 398.38 1592.4V1452H538.788ZM538.788 1444.79H391.174V1592.4C391.174 1621.6 399.834 1650.14 416.051 1674.41C432.273 1698.68 455.328 1717.6 482.299 1728.78C509.27 1739.95 538.951 1742.87 567.582 1737.18C596.219 1731.48 622.521 1717.42 643.167 1696.78C663.807 1676.14 677.869 1649.83 683.567 1621.2C689.258 1592.57 686.337 1562.89 675.166 1535.91C663.994 1508.94 645.074 1485.89 620.795 1469.67C596.521 1453.44 567.981 1444.79 538.788 1444.79Z" fill="#FDE74C"/>
<path d="M785.58 1303.59C822.799 1303.63 858.485 1318.44 884.804 1344.75C911.124 1371.07 925.928 1406.76 925.97 1443.98V1584.39H785.58C748.59 1584.01 713.242 1569.05 687.218 1542.76C661.189 1516.47 646.596 1480.98 646.596 1443.99C646.596 1407 661.189 1371.5 687.218 1345.21C713.242 1318.92 748.59 1303.96 785.58 1303.59ZM785.58 1296.38C746.683 1296.76 709.512 1312.48 682.143 1340.13C654.773 1367.77 639.426 1405.09 639.426 1443.99C639.426 1482.88 654.773 1520.21 682.143 1547.85C709.512 1575.49 746.683 1591.21 785.58 1591.59H933.189V1443.98C933.189 1424.59 929.374 1405.4 921.951 1387.49C914.534 1369.58 903.664 1353.31 889.952 1339.61C876.246 1325.9 859.976 1315.03 842.063 1307.61C824.157 1300.2 804.959 1296.38 785.58 1296.38Z" fill="#FDE74C"/>
<path d="M932.126 1452C959.894 1452 987.041 1460.23 1010.13 1475.66C1033.22 1491.08 1051.22 1513.02 1061.84 1538.67C1072.47 1564.33 1075.25 1592.55 1069.83 1619.79C1064.42 1647.03 1051.04 1672.05 1031.41 1691.68C1011.77 1711.32 986.751 1724.69 959.514 1730.11C932.277 1735.53 904.051 1732.75 878.395 1722.12C852.734 1711.5 830.808 1693.5 815.382 1670.41C799.95 1647.32 791.718 1620.17 791.718 1592.4V1452H932.126ZM932.126 1444.79H784.512V1592.4C784.512 1621.6 793.166 1650.14 809.389 1674.41C825.605 1698.68 848.66 1717.6 875.637 1728.78C902.608 1739.95 932.289 1742.87 960.92 1737.18C989.557 1731.48 1015.86 1717.42 1036.5 1696.78C1057.15 1676.14 1071.21 1649.83 1076.9 1621.2C1082.6 1592.57 1079.67 1562.89 1068.5 1535.91C1057.33 1508.94 1038.41 1485.89 1014.13 1469.67C989.859 1453.44 961.319 1444.79 932.126 1444.79Z" fill="#FDE74C"/>
<path d="M1179 1303.59C1216.23 1303.63 1251.91 1318.44 1278.23 1344.75C1304.55 1371.07 1319.36 1406.75 1319.41 1443.98V1584.39H1179C1142.01 1584.01 1106.66 1569.05 1080.64 1542.76C1054.62 1516.47 1040.02 1480.98 1040.02 1443.99C1040.02 1407 1054.62 1371.5 1080.64 1345.21C1106.66 1318.92 1142.01 1303.96 1179 1303.59ZM1179 1296.38C1140.1 1296.76 1102.93 1312.48 1075.56 1340.13C1048.2 1367.77 1032.85 1405.09 1032.85 1443.99C1032.85 1482.88 1048.2 1520.21 1075.56 1547.85C1102.93 1575.49 1140.1 1591.21 1179 1591.59H1326.54V1443.98C1326.54 1404.85 1310.99 1367.31 1283.33 1339.64C1255.66 1311.96 1218.13 1296.4 1179 1296.38Z" fill="#FDE74C"/>
<path d="M1325.46 1452C1353.23 1451.99 1380.38 1460.22 1403.47 1475.65C1426.57 1491.08 1444.56 1513 1455.19 1538.66C1465.82 1564.32 1468.6 1592.55 1463.19 1619.79C1457.77 1647.02 1444.4 1672.04 1424.76 1691.68C1405.13 1711.31 1380.11 1724.69 1352.88 1730.11C1325.64 1735.53 1297.41 1732.75 1271.74 1722.12C1246.09 1711.5 1224.16 1693.5 1208.73 1670.41C1193.31 1647.32 1185.07 1620.17 1185.07 1592.4V1452H1325.46ZM1325.46 1444.79H1177.86V1592.4C1177.86 1621.6 1186.52 1650.14 1202.74 1674.41C1218.96 1698.69 1242.02 1717.61 1268.99 1728.78C1295.96 1739.95 1325.64 1742.87 1354.28 1737.18C1382.91 1731.48 1409.21 1717.42 1429.86 1696.78C1450.5 1676.13 1464.56 1649.83 1470.25 1621.19C1475.95 1592.55 1473.02 1562.87 1461.85 1535.9C1450.68 1508.93 1431.75 1485.88 1407.48 1469.66C1383.2 1453.44 1354.66 1444.78 1325.46 1444.79Z" fill="#FDE74C"/>
<path d="M1572.28 1303.59C1609.51 1303.63 1645.19 1318.43 1671.51 1344.75C1697.83 1371.07 1712.63 1406.76 1712.68 1443.98V1584.39H1572.28C1535.29 1584.01 1499.94 1569.05 1473.92 1542.76C1447.89 1516.47 1433.3 1480.98 1433.3 1443.98C1433.3 1407 1447.89 1371.5 1473.92 1345.21C1499.94 1318.92 1535.29 1303.96 1572.28 1303.59ZM1572.28 1296.38C1552.77 1296.19 1533.43 1299.86 1515.34 1307.2C1497.27 1314.52 1480.82 1325.37 1466.96 1339.09C1453.1 1352.82 1442.09 1369.15 1434.59 1387.16C1427.08 1405.17 1423.21 1424.48 1423.21 1443.98C1423.21 1463.5 1427.08 1482.81 1434.59 1500.81C1442.09 1518.82 1453.1 1535.15 1466.96 1548.88C1480.82 1562.61 1497.27 1573.45 1515.34 1580.78C1533.43 1588.11 1552.77 1591.79 1572.28 1591.59H1719.88V1443.98C1719.88 1404.83 1704.32 1367.3 1676.65 1339.62C1648.96 1311.93 1611.42 1296.38 1572.28 1296.38Z" fill="#FDE74C"/>
</g>
</svg>
