<svg width="28" height="36" viewBox="0 0 28 36" fill="none" xmlns="http://www.w3.org/2000/svg">
<g clip-path="url(#clip0_2715_86622)">
<path fill-rule="evenodd" clip-rule="evenodd" d="M19.0988 9.36372C18.9896 6.523 18.0305 4.20378 16.3916 2.55503C14.6682 0.821212 12.4012 0.0397491 10.1971 0.00144703C5.91217 -0.0730128 1.15455 2.728 0.3264 7.97293C-0.064347 10.4477 -0.0338299 15.5908 0.0601293 20.6953C0.0608018 20.7319 0.061478 20.7684 0.0621578 20.805C0.0212889 21.2376 0.000388714 21.6761 0.000388714 22.1195V35.9259H13.8068C21.4319 35.9259 27.6132 29.7446 27.6132 22.1195C27.6132 16.3692 24.0978 11.44 19.0988 9.36372ZM14.1608 8.31758C13.9355 7.1887 13.4778 6.43555 12.9857 5.94046C12.2707 5.22108 11.2613 4.82289 10.1137 4.80295C7.69509 4.76092 5.44768 6.32907 5.06986 8.72189C4.96358 9.39505 4.89422 10.3849 4.85294 11.6099C7.2636 9.55408 10.3902 8.31315 13.8068 8.31315C13.9251 8.31315 14.0432 8.31465 14.1608 8.31758ZM5.07925 31.1237C5.05289 29.3494 5.00826 27.3789 4.96258 25.3616C4.92993 23.9197 4.89673 22.4538 4.86926 21.0185C5.41227 16.565 9.20666 13.1154 13.8068 13.1154C18.7797 13.1154 22.8109 17.1467 22.8109 22.1195C22.8109 27.0924 18.7797 31.1237 13.8068 31.1237H5.07925Z" fill="#34A853"/>
<path d="M11.6062 20.8087C11.6062 22.7978 13.2188 24.4104 15.2079 24.4104C17.197 24.4104 18.8096 22.7978 18.8096 20.8087C18.8096 18.8196 17.197 17.207 15.2079 17.207C13.2188 17.207 11.6062 18.8196 11.6062 20.8087Z" fill="#34A853"/>
</g>
<defs>
<clipPath id="clip0_2715_86622">
<rect width="27.6132" height="36" fill="white"/>
</clipPath>
</defs>
</svg>
