<svg width="112" height="34" viewBox="0 0 112 34" fill="none" xmlns="http://www.w3.org/2000/svg">
<path fill-rule="evenodd" clip-rule="evenodd" d="M14.8432 3.00507C16.3271 4.49793 17.1956 6.59783 17.2946 9.16986C21.8215 11.05 25.0049 15.5136 25.0049 20.7208C25.0049 27.6256 19.4075 33.223 12.5027 33.223H0.000501703V20.7208C0.000501703 20.3198 0.0193816 19.9231 0.0563009 19.5318L0.0544492 19.4318C-0.0306343 14.8094 -0.0582684 10.1521 0.295566 7.9112C1.04549 3.16171 5.35367 0.625291 9.23386 0.692717C11.2298 0.7274 13.2826 1.43504 14.8432 3.00507ZM11.7591 6.0707C12.2046 6.51893 12.6189 7.20074 12.823 8.22263C12.7166 8.21998 12.6097 8.21861 12.5027 8.21861C9.40886 8.21861 6.57748 9.34242 4.39452 11.204C4.43191 10.095 4.49471 9.19881 4.59094 8.58938C4.93306 6.42259 6.96817 5.00259 9.15828 5.04064C10.1975 5.0587 11.1116 5.41928 11.7591 6.0707ZM4.49379 23.6573C4.53515 25.4838 4.57556 27.2679 4.59944 28.8744H12.5027C17.0058 28.8744 20.6563 25.2239 20.6563 20.7208C20.6563 16.2177 17.0058 12.5672 12.5027 12.5672C8.33671 12.5672 4.9005 15.6915 4.4093 19.7249C4.43417 21.0244 4.46422 22.3516 4.49379 23.6572L4.49379 23.6572V23.6573ZM86.9721 20.7208C86.9721 13.816 92.5692 8.21861 99.4745 8.21861C106.379 8.21861 111.976 13.816 111.976 20.7208C111.976 27.6256 106.379 33.223 99.4745 33.223C92.5692 33.223 86.9721 27.6256 86.9721 20.7208ZM99.4745 12.5672C94.9708 12.5672 91.3206 16.2177 91.3206 20.7208C91.3206 25.2239 94.9708 28.8744 99.4745 28.8744C103.978 28.8744 107.628 25.2239 107.628 20.7208C107.628 16.2177 103.978 12.5672 99.4745 12.5672ZM74.6513 33.3057C80.3548 33.3057 84.9792 28.6818 84.9792 22.9779V12.65V0.871889H80.6299V12.65H74.6513C68.9472 12.65 64.3232 17.2739 64.3232 22.9779C64.3232 28.6818 68.9472 33.3057 74.6513 33.3057ZM80.6307 22.9779C80.6307 26.2801 77.9531 28.9571 74.6513 28.9571C71.3488 28.9571 68.6718 26.2801 68.6718 22.9779C68.6718 19.6756 71.3488 16.9986 74.6513 16.9986H80.6307V22.9779ZM31.3464 24.7006V8.48399H26.9978V24.7006C26.9978 29.4539 30.8511 33.3072 35.6044 33.3072C40.3576 33.3072 44.211 29.4539 44.211 24.7006V8.48399H39.8624V24.7006C39.8624 27.0522 37.956 28.9586 35.6044 28.9586C33.2528 28.9586 31.3464 27.0522 31.3464 24.7006ZM59.0686 32.9448V16.7282C59.0686 14.3766 57.1622 12.4702 54.8107 12.4702C52.459 12.4702 50.5527 14.3766 50.5527 16.7282V32.9447H46.2041V16.7282C46.2041 11.9749 50.0574 8.12163 54.8107 8.12163C59.564 8.12163 63.4172 11.9749 63.4172 16.7282V32.9448H59.0686Z" fill="#34A853"/>
</svg>
