<svg width="428" height="416" viewBox="0 0 428 416" fill="none" xmlns="http://www.w3.org/2000/svg">
<g clip-path="url(#clip0_423_29834)">
<rect width="428" height="428" transform="translate(0 -12)" fill="none"/>
<mask id="mask0_423_29834" style="mask-type:luminance" maskUnits="userSpaceOnUse" x="0" y="-12" width="428" height="428">
<path d="M428 -12H0V416H428V-12Z" fill="white"/>
</mask>
<g mask="url(#mask0_423_29834)">
<path d="M21.7013 -9.90811C26.8999 -9.90147 31.8838 -7.83336 35.5597 -4.15734C39.2358 -0.481302 41.3039 4.50251 41.3106 9.70127V29.3106H21.7013C16.5005 29.3106 11.5128 27.2445 7.83533 23.5671C4.15786 19.8896 2.09189 14.902 2.09189 9.70127C2.09189 4.50052 4.15786 -0.487212 7.83533 -4.16467C11.5128 -7.84214 16.5005 -9.90811 21.7013 -9.90811ZM21.7013 -12C15.9456 -12 10.4259 -9.71363 6.35614 -5.64386C2.28637 -1.57408 0 3.94564 0 9.70127C0 15.4567 2.28637 20.9766 6.35614 25.0464C10.4259 29.1161 15.9456 31.4025 21.7013 31.4025H43.4025V9.70127C43.4025 6.85139 42.8411 4.02946 41.7505 1.39652C40.66 -1.23639 39.0615 -3.62871 37.0464 -5.64386C35.0311 -7.659 32.6389 -9.2575 30.006 -10.3481C27.3731 -11.4387 24.5511 -12 21.7013 -12Z" fill="#FFFADB" fill-opacity="0.1"/>
<path d="M63.8339 -9.90811C69.0347 -9.90811 74.0224 -7.84214 77.6999 -4.16467C81.3773 -0.487212 83.4433 4.50052 83.4433 9.70127C83.4433 14.902 81.3773 19.8896 77.6999 23.5671C74.0224 27.2445 69.0347 29.3106 63.8339 29.3106H44.2246V9.70127C44.2313 4.50251 46.2994 -0.481302 49.9755 -4.15734C53.6514 -7.83336 58.6353 -9.90147 63.8339 -9.90811ZM63.8339 -12C58.0784 -12 52.5586 -9.71363 48.4888 -5.64386C44.4191 -1.57408 42.1328 3.94564 42.1328 9.70127V31.4025H63.8339C69.5896 31.4025 75.1093 29.1161 79.179 25.0464C83.2488 20.9766 85.5352 15.4567 85.5352 9.70127C85.5352 3.94564 83.2488 -1.57408 79.179 -5.64386C75.1093 -9.71363 69.5896 -12 63.8339 -12Z" fill="#FFFADB" fill-opacity="0.1"/>
<path d="M41.3106 32.2228V51.8321C41.3106 55.7104 40.1605 59.5018 38.0059 62.7265C35.8511 65.9512 32.7885 68.4646 29.2054 69.9488C25.6223 71.4329 21.6794 71.8212 17.8757 71.0646C14.0718 70.308 10.5778 68.4405 7.83535 65.6979C5.09293 62.9555 3.22532 59.4615 2.46869 55.6577C1.71205 51.8538 2.10039 47.9111 3.58457 44.3279C5.06875 40.7447 7.58214 37.6822 10.8069 35.5275C14.0316 33.3729 17.8229 32.2228 21.7013 32.2228H41.3106ZM43.4025 30.1309H21.7013C17.4092 30.1309 13.2134 31.4036 9.64469 33.7882C6.07594 36.1728 3.29444 39.562 1.65192 43.5274C0.00940239 47.4927 -0.420353 51.8561 0.416992 56.0659C1.25434 60.2755 3.32118 64.1423 6.35616 67.1772C9.39113 70.2122 13.2579 72.279 17.4675 73.1164C21.6771 73.9538 26.0405 73.5239 30.006 71.8814C33.9713 70.2389 37.3606 67.4574 39.7452 63.8887C42.1297 60.3199 43.4025 56.1242 43.4025 51.8321V30.1309Z" fill="#FFFADB" fill-opacity="0.1"/>
<path d="M63.8339 32.2228C67.7123 32.2228 71.5036 33.3729 74.7283 35.5275C77.953 37.6822 80.4665 40.7447 81.9507 44.3279C83.4349 47.9111 83.8232 51.8538 83.0666 55.6577C82.3098 59.4615 80.4423 62.9555 77.6999 65.6979C74.9575 68.4405 71.4634 70.308 67.6595 71.0646C63.8558 71.8212 59.9129 71.4329 56.3298 69.9488C52.7467 68.4646 49.6841 65.9512 47.5295 62.7265C45.3747 59.5018 44.2246 55.7104 44.2246 51.8321V32.2228H63.8339ZM63.8339 30.1309H42.1328V51.8321C42.1328 56.1242 43.4055 60.3199 45.7901 63.8887C48.1746 67.4574 51.5639 70.2389 55.5292 71.8814C59.4947 73.5239 63.8581 73.9538 68.0677 73.1164C72.2773 72.279 76.1441 70.2122 79.179 67.1772C82.214 64.1423 84.2808 60.2755 85.1182 56.0659C85.9556 51.8561 85.5259 47.4927 83.8834 43.5274C82.2408 39.562 79.4592 36.1728 75.8905 33.7882C72.3217 31.4036 68.1261 30.1309 63.8339 30.1309Z" fill="#FFFADB" fill-opacity="0.1"/>
<path d="M107.314 -9.90811C112.513 -9.90147 117.497 -7.83336 121.173 -4.15734C124.849 -0.481302 126.917 4.50251 126.924 9.70127V29.3106H107.314C102.114 29.3106 97.1261 27.2445 93.4486 23.5671C89.7711 19.8896 87.7052 14.902 87.7052 9.70127C87.7052 4.50052 89.7711 -0.487212 93.4486 -4.16467C97.1261 -7.84214 102.114 -9.90811 107.314 -9.90811ZM107.314 -12C101.559 -12 96.0392 -9.71363 91.9693 -5.64386C87.8996 -1.57408 85.6133 3.94564 85.6133 9.70127C85.6133 15.4567 87.8996 20.9766 91.9693 25.0464C96.0392 29.1161 101.559 31.4025 107.314 31.4025H129.016V9.70127C129.016 3.94564 126.729 -1.57408 122.659 -5.64386C118.59 -9.71363 113.07 -12 107.314 -12Z" fill="#FFFADB" fill-opacity="0.1"/>
<path d="M149.447 -9.90811C154.648 -9.90811 159.635 -7.84214 163.314 -4.16467C166.991 -0.487212 169.057 4.50052 169.057 9.70127C169.057 14.902 166.991 19.8896 163.314 23.5671C159.635 27.2445 154.648 29.3106 149.447 29.3106H129.838V9.70127C129.845 4.50251 131.913 -0.481302 135.589 -4.15734C139.265 -7.83336 144.249 -9.90147 149.447 -9.90811ZM149.447 -12C143.692 -12 138.172 -9.71363 134.102 -5.64386C130.033 -1.57408 127.746 3.94564 127.746 9.70127V31.4025H149.447C155.203 31.4025 160.723 29.1161 164.792 25.0464C168.863 20.9766 171.148 15.4567 171.148 9.70127C171.148 3.94564 168.863 -1.57408 164.792 -5.64386C160.723 -9.71363 155.203 -12 149.447 -12Z" fill="#FFFADB" fill-opacity="0.1"/>
<path d="M126.928 32.2228V51.8321C126.928 55.7102 125.778 59.5013 123.624 62.726C121.469 65.9506 118.407 68.4641 114.824 69.9483C111.241 71.4326 107.298 71.8212 103.495 71.065C99.6909 70.3087 96.1968 68.4415 93.4543 65.6995C90.7117 62.9575 88.8437 59.4637 88.0866 55.6603C87.3296 51.8567 87.7173 47.914 89.2008 44.3307C90.6844 40.7476 93.1971 37.6848 96.4213 35.5295C99.6454 33.3744 103.436 32.2235 107.315 32.2228H126.924M129.016 30.1309H107.315C103.022 30.1309 98.8266 31.4036 95.2579 33.7882C91.6891 36.1728 88.9077 39.562 87.2651 43.5274C85.6226 47.4927 85.1929 51.8561 86.0303 56.0659C86.8675 60.2755 88.9344 64.1423 91.9695 67.1772C95.0044 70.2122 98.8712 72.279 103.081 73.1164C107.29 73.9538 111.654 73.5239 115.619 71.8814C119.585 70.2389 122.974 67.4574 125.358 63.8887C127.743 60.3199 129.016 56.1242 129.016 51.8321V30.1309Z" fill="#FFFADB" fill-opacity="0.1"/>
<path d="M149.447 32.2228C153.326 32.2228 157.117 33.3729 160.342 35.5275C163.566 37.6822 166.081 40.7447 167.565 44.3279C169.049 47.9111 169.437 51.8538 168.679 55.6577C167.924 59.4615 166.056 62.9555 163.314 65.6979C160.571 68.4405 157.076 70.308 153.273 71.0646C149.469 71.8212 145.526 71.4329 141.943 69.9488C138.36 68.4646 135.297 65.9512 133.143 62.7265C130.988 59.5018 129.838 55.7104 129.838 51.8321V32.2228H149.447ZM149.447 30.1309H127.746V51.8321C127.746 56.1242 129.019 60.3199 131.403 63.8887C133.788 67.4574 137.177 70.2389 141.143 71.8814C145.108 73.5239 149.471 73.9538 153.68 73.1164C157.89 72.279 161.758 70.2122 164.792 67.1772C167.827 64.1423 169.895 60.2755 170.732 56.0659C171.568 51.8561 171.139 47.4927 169.496 43.5274C167.855 39.562 165.073 36.1728 161.504 33.7882C157.936 31.4036 153.74 30.1309 149.447 30.1309Z" fill="#FFFADB" fill-opacity="0.1"/>
<path d="M192.935 -9.90811C198.134 -9.90147 203.118 -7.83336 206.794 -4.15734C210.471 -0.481302 212.538 4.50251 212.544 9.70127V29.3106H192.935C187.734 29.3106 182.747 27.2445 179.069 23.5671C175.392 19.8896 173.326 14.902 173.326 9.70127C173.326 4.50052 175.392 -0.487212 179.069 -4.16467C182.747 -7.84214 187.734 -9.90811 192.935 -9.90811ZM192.935 -12C187.18 -12 181.66 -9.71363 177.591 -5.64386C173.52 -1.57408 171.234 3.94564 171.234 9.70127C171.234 15.4567 173.52 20.9766 177.591 25.0464C181.66 29.1161 187.18 31.4025 192.935 31.4025H214.636V9.70127C214.636 3.94564 212.35 -1.57408 208.281 -5.64386C204.21 -9.71363 198.692 -12 192.935 -12Z" fill="#FFFADB" fill-opacity="0.1"/>
<path d="M235.066 -9.90811C240.266 -9.90811 245.253 -7.84214 248.932 -4.16467C252.609 -0.487212 254.675 4.50052 254.675 9.70127C254.675 14.902 252.609 19.8896 248.932 23.5671C245.253 27.2445 240.266 29.3106 235.066 29.3106H215.455V9.70127C215.463 4.50251 217.53 -0.481302 221.207 -4.15734C224.882 -7.83336 229.866 -9.90147 235.066 -9.90811ZM235.066 -12C229.309 -12 223.789 -9.71363 219.72 -5.64386C215.651 -1.57408 213.363 3.94564 213.363 9.70127V31.4025H235.066C240.821 31.4025 246.341 29.1161 250.41 25.0464C254.481 20.9766 256.766 15.4567 256.766 9.70127C256.766 3.94564 254.481 -1.57408 250.41 -5.64386C246.341 -9.71363 240.821 -12 235.066 -12Z" fill="#FFFADB" fill-opacity="0.1"/>
<path d="M212.544 32.2228V51.8321C212.544 55.7104 211.394 59.5018 209.24 62.7265C207.085 65.9512 204.022 68.4646 200.44 69.9488C196.856 71.4329 192.914 71.8212 189.11 71.0646C185.306 70.308 181.811 68.4405 179.069 65.6979C176.327 62.9555 174.459 59.4615 173.703 55.6577C172.946 51.8538 173.334 47.9111 174.818 44.3279C176.302 40.7447 178.815 37.6822 182.04 35.5275C185.265 33.3729 189.057 32.2228 192.935 32.2228H212.544ZM214.636 30.1309H192.935C188.643 30.1309 184.447 31.4036 180.878 33.7882C177.31 36.1728 174.528 39.562 172.886 43.5274C171.243 47.4927 170.814 51.8561 171.651 56.0659C172.488 60.2755 174.555 64.1423 177.591 67.1772C180.625 70.2122 184.493 72.279 188.702 73.1164C192.911 73.9538 197.275 73.5239 201.24 71.8814C205.206 70.2389 208.595 67.4574 210.979 63.8887C213.364 60.3199 214.636 56.1242 214.636 51.8321V30.1309Z" fill="#FFFADB" fill-opacity="0.1"/>
<path d="M235.066 32.2228C238.944 32.2228 242.735 33.3729 245.96 35.5275C249.184 37.6822 251.699 40.7447 253.183 44.3279C254.667 47.9111 255.055 51.8538 254.297 55.6577C253.542 59.4615 251.674 62.9555 248.932 65.6979C246.189 68.4405 242.694 70.308 238.891 71.0646C235.087 71.8212 231.144 71.4329 227.561 69.9488C223.979 68.4646 220.916 65.9512 218.761 62.7265C216.607 59.5018 215.455 55.7104 215.455 51.8321V32.2228H235.066ZM235.066 30.1309H213.363V51.8321C213.363 56.1242 214.637 60.3199 217.022 63.8887C219.405 67.4574 222.795 70.2389 226.761 71.8814C230.726 73.5239 235.09 73.9538 239.298 73.1164C243.508 72.279 247.376 70.2122 250.41 67.1772C253.445 64.1423 255.513 60.2755 256.35 56.0659C257.186 51.8561 256.757 47.4927 255.114 43.5274C253.473 39.562 250.691 36.1728 247.122 33.7882C243.552 31.4036 239.358 30.1309 235.066 30.1309Z" fill="#FFFADB" fill-opacity="0.1"/>
<path d="M278.552 -9.90811C283.752 -9.90147 288.736 -7.83336 292.411 -4.15734C296.088 -0.481302 298.155 4.50251 298.161 9.70127V29.3106H278.552C273.352 29.3106 268.365 27.2445 264.686 23.5671C261.009 19.8896 258.943 14.902 258.943 9.70127C258.943 4.50052 261.009 -0.487212 264.686 -4.16467C268.365 -7.84214 273.352 -9.90811 278.552 -9.90811ZM278.552 -12C272.797 -12 267.277 -9.71363 263.208 -5.64386C259.137 -1.57408 256.852 3.94564 256.852 9.70127C256.852 15.4567 259.137 20.9766 263.208 25.0464C267.277 29.1161 272.797 31.4025 278.552 31.4025H300.253V9.70127C300.253 3.94564 297.967 -1.57408 293.898 -5.64386C289.827 -9.71363 284.307 -12 278.552 -12Z" fill="#FFFADB" fill-opacity="0.1"/>
<path d="M320.687 -9.90811C325.886 -9.90811 330.874 -7.84214 334.551 -4.16467C338.23 -0.487212 340.296 4.50052 340.296 9.70127C340.296 14.902 338.23 19.8896 334.551 23.5671C330.874 27.2445 325.886 29.3106 320.687 29.3106H301.072V9.70127C301.079 4.5019 303.148 -0.482661 306.825 -4.1588C310.502 -7.83496 315.486 -9.90257 320.687 -9.90811ZM320.687 -12C314.93 -12 309.41 -9.71363 305.341 -5.64386C301.272 -1.57408 298.984 3.94564 298.984 9.70127V31.4025H320.687C326.442 31.4025 331.962 29.1161 336.031 25.0464C340.1 20.9766 342.388 15.4567 342.388 9.70127C342.388 3.94564 340.1 -1.57408 336.031 -5.64386C331.962 -9.71363 326.442 -12 320.687 -12Z" fill="#FFFADB" fill-opacity="0.1"/>
<path d="M298.161 32.2228V51.8321C298.161 55.7104 297.011 59.5018 294.857 62.7265C292.702 65.9512 289.639 68.4646 286.057 69.9488C282.473 71.4329 278.531 71.8212 274.727 71.0646C270.924 70.308 267.429 68.4405 264.686 65.6979C261.944 62.9555 260.076 59.4615 259.321 55.6577C258.563 51.8538 258.951 47.9111 260.435 44.3279C261.919 40.7447 264.433 37.6822 267.658 35.5275C270.882 33.3729 274.674 32.2228 278.552 32.2228H298.161ZM300.253 30.1309H278.552C274.26 30.1309 270.064 31.4036 266.496 33.7882C262.927 36.1728 260.145 39.562 258.504 43.5274C256.861 47.4927 256.432 51.8561 257.268 56.0659C258.105 60.2755 260.173 64.1423 263.208 67.1772C266.242 70.2122 270.11 72.279 274.318 73.1164C278.528 73.9538 282.892 73.5239 286.857 71.8814C290.823 70.2389 294.213 67.4574 296.596 63.8887C298.981 60.3199 300.253 56.1242 300.253 51.8321V30.1309Z" fill="#FFFADB" fill-opacity="0.1"/>
<path d="M320.687 32.2228C324.564 32.2228 328.356 33.3729 331.581 35.5275C334.805 37.6822 337.319 40.7447 338.803 44.3279C340.287 47.9111 340.676 51.8538 339.919 55.6577C339.163 59.4615 337.294 62.9555 334.552 65.6979C331.81 68.4405 328.316 70.308 324.512 71.0646C320.709 71.8212 316.766 71.4329 313.182 69.9488C309.599 68.4646 306.537 65.9512 304.383 62.7265C302.227 59.5018 301.077 55.7104 301.077 51.8321V32.2228H320.687ZM320.687 30.1309H298.98V51.8321C298.98 56.124 300.254 60.3196 302.637 63.8882C305.023 67.4568 308.412 70.2384 312.376 71.8809C316.342 73.5236 320.706 73.9536 324.914 73.1167C329.124 72.2796 332.991 70.2132 336.025 67.1786C339.061 64.1441 341.128 60.2778 341.967 56.0683C342.804 51.859 342.374 47.4958 340.733 43.5303C339.092 39.5649 336.311 36.1752 332.743 33.7902C329.174 31.4051 324.978 30.1316 320.687 30.1309Z" fill="#FFFADB" fill-opacity="0.1"/>
<path d="M364.17 -9.90811C369.369 -9.90147 374.353 -7.83336 378.028 -4.15734C381.703 -0.481302 383.772 4.50251 383.778 9.70127V29.3106H364.17C358.969 29.3106 353.98 27.2445 350.303 23.5671C346.627 19.8896 344.561 14.902 344.561 9.70127C344.561 4.50052 346.627 -0.487212 350.303 -4.16467C353.98 -7.84214 358.969 -9.90811 364.17 -9.90811ZM364.17 -12C358.415 -12 352.895 -9.71363 348.824 -5.64386C344.755 -1.57408 342.469 3.94564 342.469 9.70127C342.469 15.4567 344.755 20.9766 348.824 25.0464C352.895 29.1161 358.415 31.4025 364.17 31.4025H385.87V9.70127C385.87 3.94564 383.585 -1.57408 379.515 -5.64386C375.444 -9.71363 369.925 -12 364.17 -12Z" fill="#FFFADB" fill-opacity="0.1"/>
<path d="M406.3 -9.90811C411.501 -9.90811 416.488 -7.84214 420.166 -4.16467C423.843 -0.487212 425.909 4.50052 425.909 9.70127C425.909 14.902 423.843 19.8896 420.166 23.5671C416.488 27.2445 411.501 29.3106 406.3 29.3106H386.69V9.70127C386.697 4.50251 388.765 -0.481302 392.442 -4.15734C396.117 -7.83336 401.101 -9.90147 406.3 -9.90811ZM406.3 -12C400.543 -12 395.024 -9.71363 390.954 -5.64386C386.885 -1.57408 384.598 3.94564 384.598 9.70127V31.4025H406.3C412.055 31.4025 417.575 29.1161 421.644 25.0464C425.715 20.9766 428.001 15.4567 428.001 9.70127C428.001 3.94564 425.715 -1.57408 421.644 -5.64386C417.575 -9.71363 412.055 -12 406.3 -12Z" fill="#FFFADB" fill-opacity="0.1"/>
<path d="M383.775 32.2228V51.8321C383.775 55.7104 382.625 59.5018 380.471 62.7265C378.316 65.9512 375.253 68.4646 371.671 69.9488C368.087 71.4329 364.145 71.8212 360.341 71.0646C356.536 70.308 353.042 68.4405 350.3 65.6979C347.558 62.9555 345.69 59.4615 344.933 55.6577C344.177 51.8538 344.565 47.9111 346.049 44.3279C347.533 40.7447 350.047 37.6822 353.272 35.5275C356.496 33.3729 360.288 32.2228 364.166 32.2228H383.775ZM385.867 30.1309H364.166C359.874 30.1309 355.678 31.4036 352.11 33.7882C348.541 36.1728 345.759 39.562 344.118 43.5274C342.475 47.4927 342.044 51.8561 342.882 56.0659C343.719 60.2755 345.786 64.1423 348.821 67.1772C351.856 70.2122 355.722 72.279 359.932 73.1164C364.142 73.9538 368.506 73.5239 372.471 71.8814C376.437 70.2389 379.825 67.4574 382.21 63.8887C384.595 60.3199 385.867 56.1242 385.867 51.8321V30.1309Z" fill="#FFFADB" fill-opacity="0.1"/>
<path d="M406.3 32.2228C410.178 32.2228 413.97 33.3729 417.193 35.5275C420.418 37.6822 422.931 40.7447 424.416 44.3279C425.9 47.9111 426.289 51.8538 425.532 55.6577C424.776 59.4615 422.908 62.9555 420.166 65.6979C417.424 68.4405 413.929 70.308 410.125 71.0646C406.321 71.8212 402.379 71.4329 398.795 69.9488C395.213 68.4646 392.15 65.9512 389.995 62.7265C387.841 59.5018 386.69 55.7104 386.69 51.8321V32.2228H406.3ZM406.3 30.1309H384.598V51.8321C384.598 56.1242 385.871 60.3199 388.256 63.8887C390.64 67.4574 394.03 70.2389 397.995 71.8814C401.96 73.5239 406.323 73.9538 410.533 73.1164C414.742 72.279 418.61 70.2122 421.644 67.1772C424.68 64.1423 426.746 60.2755 427.584 56.0659C428.421 51.8561 427.992 47.4927 426.349 43.5274C424.706 39.562 421.925 36.1728 418.357 33.7882C414.787 31.4036 410.592 30.1309 406.3 30.1309Z" fill="#FFFADB" fill-opacity="0.1"/>
<path d="M21.7013 75.7093C26.8993 75.7159 31.8824 77.7835 35.5584 81.4585C39.2343 85.1337 41.3028 90.1166 41.3106 95.3144V114.924H21.7013C16.5005 114.924 11.5128 112.858 7.83533 109.18C4.15786 105.503 2.09189 100.515 2.09189 95.3144C2.09189 90.1138 4.15786 85.1261 7.83533 81.4486C11.5128 77.7711 16.5005 75.7052 21.7013 75.7052M21.7013 73.6133C15.9456 73.6133 10.4259 75.8996 6.35614 79.9693C2.28637 84.0392 0 89.5589 0 95.3144C0 101.07 2.28637 106.59 6.35614 110.659C10.4259 114.729 15.9456 117.016 21.7013 117.016H43.4025V95.3144C43.4025 92.4647 42.8411 89.6427 41.7505 87.0097C40.66 84.3768 39.0615 81.9845 37.0464 79.9693C35.0311 77.9542 32.6389 76.3557 30.006 75.2651C27.3731 74.1746 24.5511 73.6133 21.7013 73.6133Z" fill="#FFFADB" fill-opacity="0.1"/>
<path d="M63.8339 75.7093C69.0347 75.7093 74.0224 77.7753 77.6999 81.4527C81.3773 85.1302 83.4433 90.1179 83.4433 95.3187C83.4433 100.519 81.3773 105.507 77.6999 109.185C74.0224 112.862 69.0347 114.928 63.8339 114.928H44.2246V95.3144C44.2313 90.1158 46.2994 85.1319 49.9755 81.4559C53.6514 77.7798 58.6353 75.7118 63.8339 75.7052M63.8339 73.6133C58.0784 73.6133 52.5586 75.8996 48.4888 79.9693C44.4191 84.0392 42.1328 89.5589 42.1328 95.3144V117.016H63.8339C69.5896 117.016 75.1093 114.729 79.179 110.659C83.2488 106.59 85.5352 101.07 85.5352 95.3144C85.5352 89.5589 83.2488 84.0392 79.179 79.9693C75.1093 75.8996 69.5896 73.6133 63.8339 73.6133Z" fill="#FFFADB" fill-opacity="0.1"/>
<path d="M41.3106 117.84V137.449C41.3106 141.328 40.1605 145.119 38.0059 148.344C35.8511 151.568 32.7885 154.083 29.2054 155.567C25.6223 157.051 21.6794 157.439 17.8757 156.681C14.0718 155.926 10.5778 154.058 7.83535 151.316C5.09293 148.573 3.22532 145.078 2.46869 141.275C1.71205 137.471 2.10039 133.528 3.58457 129.945C5.06875 126.362 7.58214 123.299 10.8069 121.145C14.0316 118.99 17.8229 117.84 21.7013 117.84H41.3106ZM43.4025 115.748H21.7013C17.4092 115.748 13.2134 117.021 9.64469 119.405C6.07594 121.79 3.29444 125.179 1.65192 129.145C0.00940239 133.11 -0.420353 137.473 0.416992 141.682C1.25434 145.892 3.32118 149.76 6.35616 152.794C9.39113 155.829 13.2579 157.897 17.4675 158.734C21.6771 159.57 26.0405 159.141 30.006 157.498C33.9713 155.857 37.3606 153.075 39.7452 149.506C42.1297 145.938 43.4025 141.742 43.4025 137.449V115.748Z" fill="#FFFADB" fill-opacity="0.1"/>
<path d="M63.8339 117.84C67.7123 117.84 71.5036 118.99 74.7283 121.145C77.953 123.299 80.4665 126.362 81.9507 129.945C83.4349 133.528 83.8232 137.471 83.0666 141.275C82.3098 145.078 80.4423 148.573 77.6999 151.316C74.9575 154.058 71.4634 155.926 67.6595 156.681C63.8558 157.439 59.9129 157.051 56.3298 155.567C52.7467 154.083 49.6841 151.568 47.5295 148.344C45.3747 145.119 44.2246 141.328 44.2246 137.449V117.84H63.8339ZM63.8339 115.748H42.1328V137.449C42.1328 141.742 43.4055 145.938 45.7901 149.506C48.1746 153.075 51.5639 155.857 55.5292 157.498C59.4947 159.141 63.8581 159.57 68.0677 158.734C72.2773 157.897 76.1441 155.829 79.179 152.794C82.214 149.76 84.2808 145.892 85.1182 141.682C85.9556 137.473 85.5259 133.11 83.8834 129.145C82.2408 125.179 79.4592 121.79 75.8905 119.405C72.3217 117.021 68.1261 115.748 63.8339 115.748Z" fill="#FFFADB" fill-opacity="0.1"/>
<path d="M107.314 75.7093C112.513 75.7148 117.497 77.7818 121.174 81.4571C124.851 85.1323 126.92 90.1158 126.928 95.3144V114.924H107.314C102.114 114.924 97.1261 112.858 93.4486 109.18C89.7711 105.503 87.7052 100.515 87.7052 95.3144C87.7052 90.1138 89.7711 85.1261 93.4486 81.4486C97.1261 77.7711 102.114 75.7052 107.314 75.7052M107.314 73.6133C101.559 73.6133 96.0392 75.8996 91.9693 79.9693C87.8996 84.0392 85.6133 89.5589 85.6133 95.3144C85.6133 101.07 87.8996 106.59 91.9693 110.659C96.0392 114.729 101.559 117.016 107.314 117.016H129.016V95.3144C129.015 89.5597 126.728 84.0409 122.658 79.972C118.588 75.9032 113.069 73.6174 107.314 73.6174V73.6133Z" fill="#FFFADB" fill-opacity="0.1"/>
<path d="M149.447 75.7093C154.648 75.7093 159.635 77.7753 163.314 81.4527C166.991 85.1302 169.057 90.1179 169.057 95.3187C169.057 100.519 166.991 105.507 163.314 109.185C159.635 112.862 154.648 114.928 149.447 114.928H129.838V95.3144C129.845 90.1158 131.913 85.1319 135.589 81.4559C139.265 77.7798 144.249 75.7118 149.447 75.7052M149.447 73.6133C143.692 73.6133 138.172 75.8996 134.102 79.9693C130.033 84.0392 127.746 89.5589 127.746 95.3144V117.016H149.447C155.203 117.016 160.723 114.729 164.792 110.659C168.863 106.59 171.148 101.07 171.148 95.3144C171.148 89.5589 168.863 84.0392 164.792 79.9693C160.723 75.8996 155.203 73.6133 149.447 73.6133Z" fill="#FFFADB" fill-opacity="0.1"/>
<path d="M126.928 117.84V137.449C126.928 141.328 125.778 145.118 123.624 148.343C121.469 151.568 118.407 154.081 114.824 155.565C111.241 157.049 107.298 157.439 103.495 156.683C99.6909 155.926 96.1968 154.058 93.4543 151.317C90.7117 148.575 88.8437 145.081 88.0866 141.278C87.3296 137.474 87.7173 133.531 89.2008 129.948C90.6844 126.365 93.1971 123.302 96.4213 121.147C99.6454 118.992 103.436 117.841 107.315 117.84H126.924M129.016 115.748H107.315C103.022 115.748 98.8266 117.021 95.2579 119.405C91.6891 121.79 88.9077 125.179 87.2651 129.145C85.6226 133.11 85.1929 137.473 86.0303 141.682C86.8675 145.892 88.9344 149.76 91.9695 152.794C95.0044 155.829 98.8712 157.897 103.081 158.734C107.29 159.57 111.654 159.141 115.619 157.498C119.585 155.857 122.974 153.075 125.358 149.506C127.743 145.938 129.016 141.742 129.016 137.449V115.748Z" fill="#FFFADB" fill-opacity="0.1"/>
<path d="M149.447 117.84C153.326 117.84 157.117 118.99 160.342 121.145C163.566 123.299 166.081 126.362 167.565 129.945C169.049 133.528 169.437 137.471 168.679 141.275C167.924 145.078 166.056 148.573 163.314 151.316C160.571 154.058 157.076 155.926 153.273 156.681C149.469 157.439 145.526 157.051 141.943 155.567C138.36 154.083 135.297 151.568 133.143 148.344C130.988 145.119 129.838 141.328 129.838 137.449V117.84H149.447ZM149.447 115.748H127.746V137.449C127.746 141.742 129.019 145.938 131.403 149.506C133.788 153.075 137.177 155.857 141.143 157.498C145.108 159.141 149.471 159.57 153.68 158.734C157.89 157.897 161.758 155.829 164.792 152.794C167.827 149.76 169.895 145.892 170.732 141.682C171.568 137.473 171.139 133.11 169.496 129.145C167.855 125.179 165.073 121.79 161.504 119.405C157.936 117.021 153.74 115.748 149.447 115.748Z" fill="#FFFADB" fill-opacity="0.1"/>
<path d="M192.935 75.7093C198.133 75.7159 203.117 77.7835 206.792 81.4585C210.469 85.1337 212.536 90.1166 212.544 95.3144V114.924H192.935C187.734 114.924 182.747 112.858 179.069 109.18C175.392 105.503 173.326 100.515 173.326 95.3144C173.326 90.1138 175.392 85.1261 179.069 81.4486C182.747 77.7711 187.734 75.7052 192.935 75.7052M192.935 73.6133C187.18 73.6133 181.66 75.8996 177.591 79.9693C173.52 84.0392 171.234 89.5589 171.234 95.3144C171.234 101.07 173.52 106.59 177.591 110.659C181.66 114.729 187.18 117.016 192.935 117.016H214.636V95.3144C214.636 89.5589 212.35 84.0392 208.281 79.9693C204.21 75.8996 198.692 73.6133 192.935 73.6133Z" fill="#FFFADB" fill-opacity="0.1"/>
<path d="M235.066 75.7093C240.266 75.7093 245.253 77.7753 248.932 81.4527C252.609 85.1302 254.675 90.1179 254.675 95.3187C254.675 100.519 252.609 105.507 248.932 109.185C245.253 112.862 240.266 114.928 235.066 114.928H215.455V95.3144C215.463 90.1158 217.53 85.1319 221.207 81.4559C224.882 77.7798 229.866 75.7118 235.066 75.7052M235.066 73.6133C229.309 73.6133 223.789 75.8996 219.72 79.9693C215.651 84.0392 213.363 89.5589 213.363 95.3144V117.016H235.066C240.821 117.016 246.341 114.729 250.41 110.659C254.481 106.59 256.766 101.07 256.766 95.3144C256.766 89.5589 254.481 84.0392 250.41 79.9693C246.341 75.8996 240.821 73.6133 235.066 73.6133Z" fill="#FFFADB" fill-opacity="0.1"/>
<path d="M212.544 117.84V137.449C212.544 141.328 211.394 145.119 209.24 148.344C207.085 151.568 204.022 154.083 200.44 155.567C196.856 157.051 192.914 157.439 189.11 156.681C185.306 155.926 181.811 154.058 179.069 151.316C176.327 148.573 174.459 145.078 173.703 141.275C172.946 137.471 173.334 133.528 174.818 129.945C176.302 126.362 178.815 123.299 182.04 121.145C185.265 118.99 189.057 117.84 192.935 117.84H212.544ZM214.636 115.748H192.935C188.643 115.748 184.447 117.021 180.878 119.405C177.31 121.79 174.528 125.179 172.886 129.145C171.243 133.11 170.814 137.473 171.651 141.682C172.488 145.892 174.555 149.76 177.591 152.794C180.625 155.829 184.493 157.897 188.702 158.734C192.911 159.57 197.275 159.141 201.24 157.498C205.206 155.857 208.595 153.075 210.979 149.506C213.364 145.938 214.636 141.742 214.636 137.449V115.748Z" fill="#FFFADB" fill-opacity="0.1"/>
<path d="M235.066 117.84C238.944 117.84 242.735 118.99 245.96 121.145C249.184 123.299 251.699 126.362 253.183 129.945C254.667 133.528 255.055 137.471 254.297 141.275C253.542 145.078 251.674 148.573 248.932 151.316C246.189 154.058 242.694 155.926 238.891 156.681C235.087 157.439 231.144 157.051 227.561 155.567C223.979 154.083 220.916 151.568 218.761 148.344C216.607 145.119 215.455 141.328 215.455 137.449V117.84H235.066ZM235.066 115.748H213.363V137.449C213.363 141.742 214.637 145.938 217.022 149.506C219.405 153.075 222.795 155.857 226.761 157.498C230.726 159.141 235.09 159.57 239.298 158.734C243.508 157.897 247.376 155.829 250.41 152.794C253.445 149.76 255.513 145.892 256.35 141.682C257.186 137.473 256.757 133.11 255.114 129.145C253.473 125.179 250.691 121.79 247.122 119.405C243.552 117.021 239.358 115.748 235.066 115.748Z" fill="#FFFADB" fill-opacity="0.1"/>
<path d="M278.552 75.7093C283.75 75.7159 288.734 77.7835 292.409 81.4585C296.086 85.1337 298.154 90.1166 298.161 95.3144V114.924H278.552C273.352 114.924 268.365 112.858 264.686 109.18C261.009 105.503 258.943 100.515 258.943 95.3144C258.943 90.1138 261.009 85.1261 264.686 81.4486C268.365 77.7711 273.352 75.7052 278.552 75.7052M278.552 73.6133C272.797 73.6133 267.277 75.8996 263.208 79.9693C259.137 84.0392 256.852 89.5589 256.852 95.3144C256.852 101.07 259.137 106.59 263.208 110.659C267.277 114.729 272.797 117.016 278.552 117.016H300.253V95.3144C300.253 89.5589 297.967 84.0392 293.898 79.9693C289.827 75.8996 284.307 73.6133 278.552 73.6133Z" fill="#FFFADB" fill-opacity="0.1"/>
<path d="M320.687 75.7093C325.887 75.7093 330.875 77.7753 334.552 81.4527C338.23 85.1302 340.296 90.1179 340.296 95.3187C340.296 100.519 338.23 105.507 334.552 109.185C330.875 112.862 325.887 114.928 320.687 114.928H301.072V95.3144C301.082 90.1158 303.151 85.1323 306.827 81.4571C310.504 77.7818 315.488 75.7148 320.687 75.7093ZM320.687 73.6174C317.837 73.6168 315.015 74.1776 312.382 75.2677C309.748 76.3578 307.356 77.9559 305.34 79.9705C303.325 81.9853 301.726 84.3774 300.634 87.01C299.544 89.6427 298.982 92.4647 298.98 95.3144V117.016H320.687C326.442 117.016 331.962 114.729 336.032 110.659C340.101 106.59 342.388 101.07 342.388 95.3144C342.388 89.5589 340.101 84.0392 336.032 79.9693C331.962 75.8996 326.442 73.6133 320.687 73.6133V73.6174Z" fill="#FFFADB" fill-opacity="0.1"/>
<path d="M298.161 117.84V137.449C298.161 141.328 297.011 145.119 294.857 148.344C292.702 151.568 289.639 154.083 286.057 155.567C282.473 157.051 278.531 157.439 274.727 156.681C270.924 155.926 267.429 154.058 264.686 151.316C261.944 148.573 260.076 145.078 259.321 141.275C258.563 137.471 258.951 133.528 260.435 129.945C261.919 126.362 264.433 123.299 267.658 121.145C270.882 118.99 274.674 117.84 278.552 117.84H298.161ZM300.253 115.748H278.552C274.26 115.748 270.064 117.021 266.496 119.405C262.927 121.79 260.145 125.179 258.504 129.145C256.861 133.11 256.432 137.473 257.268 141.682C258.105 145.892 260.173 149.76 263.208 152.794C266.242 155.829 270.11 157.897 274.318 158.734C278.528 159.57 282.892 159.141 286.857 157.498C290.823 155.857 294.213 153.075 296.596 149.506C298.981 145.938 300.253 141.742 300.253 137.449V115.748Z" fill="#FFFADB" fill-opacity="0.1"/>
<path d="M320.687 117.84C324.564 117.84 328.356 118.99 331.581 121.145C334.805 123.299 337.319 126.362 338.803 129.945C340.287 133.528 340.676 137.471 339.919 141.275C339.163 145.078 337.294 148.573 334.552 151.316C331.81 154.058 328.316 155.926 324.512 156.681C320.709 157.439 316.766 157.051 313.182 155.567C309.599 154.083 306.537 151.568 304.383 148.344C302.227 145.119 301.077 141.328 301.077 137.449V117.84H320.687ZM320.687 115.748H298.98V137.449C298.98 141.742 300.254 145.936 302.637 149.505C305.023 153.075 308.412 155.855 312.376 157.498C316.342 159.141 320.706 159.57 324.914 158.734C329.124 157.897 332.991 155.831 336.025 152.795C339.061 149.761 341.128 145.895 341.967 141.685C342.804 137.476 342.374 133.113 340.733 129.148C339.092 125.182 336.311 121.792 332.743 119.407C329.174 117.022 324.978 115.749 320.687 115.748Z" fill="#FFFADB" fill-opacity="0.1"/>
<path d="M364.17 75.7093C369.367 75.7159 374.351 77.7835 378.026 81.4585C381.702 85.1337 383.771 90.1166 383.778 95.3144V114.924H364.17C358.969 114.924 353.98 112.858 350.303 109.18C346.627 105.503 344.561 100.515 344.561 95.3144C344.561 90.1138 346.627 85.1261 350.303 81.4486C353.98 77.7711 358.969 75.7052 364.17 75.7052M364.17 73.6133C358.415 73.6133 352.895 75.8996 348.824 79.9693C344.755 84.0392 342.469 89.5589 342.469 95.3144C342.469 101.07 344.755 106.59 348.824 110.659C352.895 114.729 358.415 117.016 364.17 117.016H385.87V95.3144C385.87 89.5589 383.585 84.0392 379.515 79.9693C375.444 75.8996 369.925 73.6133 364.17 73.6133Z" fill="#FFFADB" fill-opacity="0.1"/>
<path d="M406.3 75.7093C411.501 75.7093 416.488 77.7753 420.166 81.4527C423.843 85.1302 425.909 90.1179 425.909 95.3187C425.909 100.519 423.843 105.507 420.166 109.185C416.488 112.862 411.501 114.928 406.3 114.928H386.69V95.3144C386.697 90.1158 388.765 85.1319 392.442 81.4559C396.117 77.7798 401.101 75.7118 406.3 75.7052M406.3 73.6133C400.543 73.6133 395.024 75.8996 390.954 79.9693C386.885 84.0392 384.598 89.5589 384.598 95.3144V117.016H406.3C412.055 117.016 417.575 114.729 421.644 110.659C425.715 106.59 428.001 101.07 428.001 95.3144C428.001 89.5589 425.715 84.0392 421.644 79.9693C417.575 75.8996 412.055 73.6133 406.3 73.6133Z" fill="#FFFADB" fill-opacity="0.1"/>
<path d="M383.775 117.84V137.449C383.775 141.328 382.625 145.119 380.471 148.344C378.316 151.568 375.253 154.083 371.671 155.567C368.087 157.051 364.145 157.439 360.341 156.681C356.536 155.926 353.042 154.058 350.3 151.316C347.558 148.573 345.69 145.078 344.933 141.275C344.177 137.471 344.565 133.528 346.049 129.945C347.533 126.362 350.047 123.299 353.272 121.145C356.496 118.99 360.288 117.84 364.166 117.84H383.775ZM385.867 115.748H364.166C359.874 115.748 355.678 117.021 352.11 119.405C348.541 121.79 345.759 125.179 344.118 129.145C342.475 133.11 342.044 137.473 342.882 141.682C343.719 145.892 345.786 149.76 348.821 152.794C351.856 155.829 355.722 157.897 359.932 158.734C364.142 159.57 368.506 159.141 372.471 157.498C376.437 155.857 379.825 153.075 382.21 149.506C384.595 145.938 385.867 141.742 385.867 137.449V115.748Z" fill="#FFFADB" fill-opacity="0.1"/>
<path d="M406.3 117.84C410.178 117.84 413.97 118.99 417.193 121.145C420.418 123.299 422.931 126.362 424.416 129.945C425.9 133.528 426.289 137.471 425.532 141.275C424.776 145.078 422.908 148.573 420.166 151.316C417.424 154.058 413.929 155.926 410.125 156.681C406.321 157.439 402.379 157.051 398.795 155.567C395.213 154.083 392.15 151.568 389.995 148.344C387.841 145.119 386.69 141.328 386.69 137.449V117.84H406.3ZM406.3 115.748H384.598V137.449C384.598 141.742 385.871 145.938 388.256 149.506C390.64 153.075 394.03 155.857 397.995 157.498C401.96 159.141 406.323 159.57 410.533 158.734C414.742 157.897 418.61 155.829 421.644 152.794C424.68 149.76 426.746 145.892 427.584 141.682C428.421 137.473 427.992 133.11 426.349 129.145C424.706 125.179 421.925 121.79 418.357 119.405C414.787 117.021 410.592 115.748 406.3 115.748Z" fill="#FFFADB" fill-opacity="0.1"/>
<path d="M21.7013 161.326C26.8999 161.332 31.8838 163.401 35.5597 167.077C39.2358 170.754 41.3039 175.737 41.3106 180.935V200.546H21.7013C16.5005 200.546 11.5128 198.48 7.83533 194.801C4.15786 191.124 2.09189 186.136 2.09189 180.935C2.09189 175.734 4.15786 170.747 7.83533 167.069C11.5128 163.392 16.5005 161.326 21.7013 161.326ZM21.7013 159.234C15.9456 159.234 10.4259 161.52 6.35614 165.591C2.28637 169.66 0 175.18 0 180.935C0 186.692 2.28637 192.212 6.35614 196.281C10.4259 200.35 15.9456 202.638 21.7013 202.638H43.4025V180.935C43.4025 178.086 42.8411 175.264 41.7505 172.63C40.66 169.998 39.0615 167.605 37.0464 165.591C35.0311 163.575 32.6389 161.977 30.006 160.887C27.3731 159.796 24.5511 159.234 21.7013 159.234Z" fill="#FFFADB" fill-opacity="0.1"/>
<path d="M63.8339 161.326C69.0347 161.326 74.0224 163.392 77.6999 167.069C81.3773 170.747 83.4433 175.734 83.4433 180.935C83.4433 186.136 81.3773 191.124 77.6999 194.801C74.0224 198.48 69.0347 200.546 63.8339 200.546H44.2246V180.935C44.2313 175.737 46.2994 170.754 49.9755 167.077C53.6514 163.401 58.6353 161.332 63.8339 161.326ZM63.8339 159.234C58.0784 159.234 52.5586 161.52 48.4888 165.591C44.4191 169.66 42.1328 175.18 42.1328 180.935V202.638H63.8339C69.5896 202.638 75.1093 200.35 79.179 196.281C83.2488 192.212 85.5352 186.692 85.5352 180.935C85.5352 175.18 83.2488 169.66 79.179 165.591C75.1093 161.52 69.5896 159.234 63.8339 159.234Z" fill="#FFFADB" fill-opacity="0.1"/>
<path d="M41.3106 203.457V223.066C41.3106 226.944 40.1605 230.736 38.0059 233.961C35.8511 237.186 32.7885 239.699 29.2054 241.183C25.6223 242.667 21.6794 243.055 17.8757 242.299C14.0718 241.542 10.5778 239.675 7.83535 236.932C5.09293 234.19 3.22532 230.696 2.46869 226.891C1.71205 223.087 2.10039 219.145 3.58457 215.561C5.06875 211.979 7.58214 208.916 10.8069 206.761C14.0316 204.607 17.8229 203.457 21.7013 203.457H41.3106ZM43.4025 201.365H21.7013C17.4092 201.365 13.2134 202.637 9.64469 205.022C6.07594 207.407 3.29444 210.796 1.65192 214.761C0.00940239 218.726 -0.420353 223.09 0.416992 227.3C1.25434 231.51 3.32118 235.376 6.35616 238.412C9.39113 241.446 13.2579 243.513 17.4675 244.35C21.6771 245.188 26.0405 244.758 30.006 243.115C33.9713 241.473 37.3606 238.691 39.7452 235.123C42.1297 231.554 43.4025 227.358 43.4025 223.066V201.365Z" fill="#FFFADB" fill-opacity="0.1"/>
<path d="M63.8339 203.457C67.7123 203.457 71.5036 204.607 74.7283 206.761C77.953 208.916 80.4665 211.979 81.9507 215.561C83.4349 219.145 83.8232 223.087 83.0666 226.891C82.3098 230.696 80.4423 234.19 77.6999 236.932C74.9575 239.675 71.4634 241.542 67.6595 242.299C63.8558 243.055 59.9129 242.667 56.3298 241.183C52.7467 239.699 49.6841 237.186 47.5295 233.961C45.3747 230.736 44.2246 226.944 44.2246 223.066V203.457H63.8339ZM63.8339 201.365H42.1328V223.066C42.1328 227.358 43.4055 231.554 45.7901 235.123C48.1746 238.691 51.5639 241.473 55.5292 243.115C59.4947 244.758 63.8581 245.188 68.0677 244.35C72.2773 243.513 76.1441 241.446 79.179 238.412C82.214 235.376 84.2808 231.51 85.1182 227.3C85.9556 223.09 85.5259 218.726 83.8834 214.761C82.2408 210.796 79.4592 207.407 75.8905 205.022C72.3217 202.637 68.1261 201.365 63.8339 201.365Z" fill="#FFFADB" fill-opacity="0.1"/>
<path d="M107.314 161.326C112.513 161.332 117.497 163.401 121.173 167.077C124.849 170.754 126.917 175.737 126.924 180.935V200.546H107.314C102.114 200.546 97.1261 198.48 93.4486 194.801C89.7711 191.124 87.7052 186.136 87.7052 180.935C87.7052 175.734 89.7711 170.747 93.4486 167.069C97.1261 163.392 102.114 161.326 107.314 161.326ZM107.314 159.234C101.559 159.234 96.0392 161.52 91.9693 165.591C87.8996 169.66 85.6133 175.18 85.6133 180.935C85.6133 186.692 87.8996 192.212 91.9693 196.281C96.0392 200.35 101.559 202.638 107.314 202.638H129.016V180.935C129.016 175.18 126.729 169.66 122.659 165.591C118.59 161.52 113.07 159.234 107.314 159.234Z" fill="#FFFADB" fill-opacity="0.1"/>
<path d="M149.447 161.326C154.648 161.326 159.635 163.392 163.314 167.069C166.991 170.747 169.057 175.734 169.057 180.935C169.057 186.136 166.991 191.124 163.314 194.801C159.635 198.48 154.648 200.546 149.447 200.546H129.838V180.935C129.845 175.737 131.913 170.754 135.589 167.077C139.265 163.401 144.249 161.332 149.447 161.326ZM149.447 159.234C143.692 159.234 138.172 161.52 134.102 165.591C130.033 169.66 127.746 175.18 127.746 180.935V202.638H149.447C155.203 202.638 160.723 200.35 164.792 196.281C168.863 192.212 171.148 186.692 171.148 180.935C171.148 175.18 168.863 169.66 164.792 165.591C160.723 161.52 155.203 159.234 149.447 159.234Z" fill="#FFFADB" fill-opacity="0.1"/>
<path d="M126.928 203.457V223.066C126.928 226.944 125.778 230.736 123.624 233.959C121.469 237.184 118.407 239.697 114.824 241.182C111.241 242.667 107.298 243.055 103.495 242.299C99.6909 241.542 96.1968 239.676 93.4543 236.934C90.7117 234.191 88.8437 230.698 88.0866 226.894C87.3296 223.09 87.7173 219.148 89.2008 215.564C90.6844 211.982 93.1971 208.919 96.4213 206.763C99.6454 204.608 103.436 203.457 107.315 203.457H126.924M129.016 201.365H107.315C103.022 201.365 98.8266 202.637 95.2579 205.022C91.6891 207.407 88.9077 210.796 87.2651 214.761C85.6226 218.726 85.1929 223.09 86.0303 227.3C86.8675 231.51 88.9344 235.376 91.9695 238.412C95.0044 241.446 98.8712 243.513 103.081 244.35C107.29 245.188 111.654 244.758 115.619 243.115C119.585 241.473 122.974 238.691 125.358 235.123C127.743 231.554 129.016 227.358 129.016 223.066V201.365Z" fill="#FFFADB" fill-opacity="0.1"/>
<path d="M149.447 203.457C153.326 203.457 157.117 204.607 160.342 206.761C163.566 208.916 166.081 211.979 167.565 215.561C169.049 219.145 169.437 223.087 168.679 226.891C167.924 230.696 166.056 234.19 163.314 236.932C160.571 239.675 157.076 241.542 153.273 242.299C149.469 243.055 145.526 242.667 141.943 241.183C138.36 239.699 135.297 237.186 133.143 233.961C130.988 230.736 129.838 226.944 129.838 223.066V203.457H149.447ZM149.447 201.365H127.746V223.066C127.746 227.358 129.019 231.554 131.403 235.123C133.788 238.691 137.177 241.473 141.143 243.115C145.108 244.758 149.471 245.188 153.68 244.35C157.89 243.513 161.758 241.446 164.792 238.412C167.827 235.376 169.895 231.51 170.732 227.3C171.568 223.09 171.139 218.726 169.496 214.761C167.855 210.796 165.073 207.407 161.504 205.022C157.936 202.637 153.74 201.365 149.447 201.365Z" fill="#FFFADB" fill-opacity="0.1"/>
<path d="M192.935 161.326C198.134 161.332 203.118 163.401 206.794 167.077C210.471 170.754 212.538 175.737 212.544 180.935V200.546H192.935C187.734 200.546 182.747 198.48 179.069 194.801C175.392 191.124 173.326 186.136 173.326 180.935C173.326 175.734 175.392 170.747 179.069 167.069C182.747 163.392 187.734 161.326 192.935 161.326ZM192.935 159.234C187.18 159.234 181.66 161.52 177.591 165.591C173.52 169.66 171.234 175.18 171.234 180.935C171.234 186.692 173.52 192.212 177.591 196.281C181.66 200.35 187.18 202.638 192.935 202.638H214.636V180.935C214.636 175.18 212.35 169.66 208.281 165.591C204.21 161.52 198.692 159.234 192.935 159.234Z" fill="#FFFADB" fill-opacity="0.1"/>
<path d="M235.066 161.326C240.266 161.326 245.253 163.392 248.932 167.069C252.609 170.747 254.675 175.734 254.675 180.935C254.675 186.136 252.609 191.124 248.932 194.801C245.253 198.48 240.266 200.546 235.066 200.546H215.455V180.935C215.463 175.737 217.53 170.754 221.207 167.077C224.882 163.401 229.866 161.332 235.066 161.326ZM235.066 159.234C229.309 159.234 223.789 161.52 219.72 165.591C215.651 169.66 213.363 175.18 213.363 180.935V202.638H235.066C240.821 202.638 246.341 200.35 250.41 196.281C254.481 192.212 256.766 186.692 256.766 180.935C256.766 175.18 254.481 169.66 250.41 165.591C246.341 161.52 240.821 159.234 235.066 159.234Z" fill="#FFFADB" fill-opacity="0.1"/>
<path d="M212.544 203.457V223.066C212.544 226.944 211.394 230.736 209.24 233.961C207.085 237.186 204.022 239.699 200.44 241.183C196.856 242.667 192.914 243.055 189.11 242.299C185.306 241.542 181.811 239.675 179.069 236.932C176.327 234.19 174.459 230.696 173.703 226.891C172.946 223.087 173.334 219.145 174.818 215.561C176.302 211.979 178.815 208.916 182.04 206.761C185.265 204.607 189.057 203.457 192.935 203.457H212.544ZM214.636 201.365H192.935C188.643 201.365 184.447 202.637 180.878 205.022C177.31 207.407 174.528 210.796 172.886 214.761C171.243 218.726 170.814 223.09 171.651 227.3C172.488 231.51 174.555 235.376 177.591 238.412C180.625 241.446 184.493 243.513 188.702 244.35C192.911 245.188 197.275 244.758 201.24 243.115C205.206 241.473 208.595 238.691 210.979 235.123C213.364 231.554 214.636 227.358 214.636 223.066V201.365Z" fill="#FFFADB" fill-opacity="0.1"/>
<path d="M235.066 203.457C238.944 203.457 242.735 204.607 245.96 206.761C249.184 208.916 251.699 211.979 253.183 215.561C254.667 219.145 255.055 223.087 254.297 226.891C253.542 230.696 251.674 234.19 248.932 236.932C246.189 239.675 242.694 241.542 238.891 242.299C235.087 243.055 231.144 242.667 227.561 241.183C223.979 239.699 220.916 237.186 218.761 233.961C216.607 230.736 215.455 226.944 215.455 223.066V203.457H235.066ZM235.066 201.365H213.363V223.066C213.363 227.358 214.637 231.554 217.022 235.123C219.405 238.691 222.795 241.473 226.761 243.115C230.726 244.758 235.09 245.188 239.298 244.35C243.508 243.513 247.376 241.446 250.41 238.412C253.445 235.376 255.513 231.51 256.35 227.3C257.186 223.09 256.757 218.726 255.114 214.761C253.473 210.796 250.691 207.407 247.122 205.022C243.552 202.637 239.358 201.365 235.066 201.365Z" fill="#FFFADB" fill-opacity="0.1"/>
<path d="M278.552 161.326C283.752 161.332 288.736 163.401 292.411 167.077C296.088 170.754 298.155 175.737 298.161 180.935V200.546H278.552C273.352 200.546 268.365 198.48 264.686 194.801C261.009 191.124 258.943 186.136 258.943 180.935C258.943 175.734 261.009 170.747 264.686 167.069C268.365 163.392 273.352 161.326 278.552 161.326ZM278.552 159.234C272.797 159.234 267.277 161.52 263.208 165.591C259.137 169.66 256.852 175.18 256.852 180.935C256.852 186.692 259.137 192.212 263.208 196.281C267.277 200.35 272.797 202.638 278.552 202.638H300.253V180.935C300.253 175.18 297.967 169.66 293.898 165.591C289.827 161.52 284.307 159.234 278.552 159.234Z" fill="#FFFADB" fill-opacity="0.1"/>
<path d="M320.687 161.326C325.886 161.326 330.874 163.392 334.551 167.069C338.23 170.747 340.296 175.734 340.296 180.935C340.296 186.136 338.23 191.124 334.551 194.801C330.874 198.48 325.886 200.546 320.687 200.546H301.072V180.935C301.079 175.736 303.148 170.752 306.825 167.075C310.502 163.4 315.486 161.332 320.687 161.326ZM320.687 159.234C314.93 159.234 309.41 161.52 305.341 165.591C301.272 169.66 298.984 175.18 298.984 180.935V202.638H320.687C326.442 202.638 331.962 200.35 336.031 196.281C340.1 192.212 342.388 186.692 342.388 180.935C342.388 175.18 340.1 169.66 336.031 165.591C331.962 161.52 326.442 159.234 320.687 159.234Z" fill="#FFFADB" fill-opacity="0.1"/>
<path d="M298.161 203.457V223.066C298.161 226.944 297.011 230.736 294.857 233.961C292.702 237.186 289.639 239.699 286.057 241.183C282.473 242.667 278.531 243.055 274.727 242.299C270.924 241.542 267.429 239.675 264.686 236.932C261.944 234.19 260.076 230.696 259.321 226.891C258.563 223.087 258.951 219.145 260.435 215.561C261.919 211.979 264.433 208.916 267.658 206.761C270.882 204.607 274.674 203.457 278.552 203.457H298.161ZM300.253 201.365H278.552C274.26 201.365 270.064 202.637 266.496 205.022C262.927 207.407 260.145 210.796 258.504 214.761C256.861 218.726 256.432 223.09 257.268 227.3C258.105 231.51 260.173 235.376 263.208 238.412C266.242 241.446 270.11 243.513 274.318 244.35C278.528 245.188 282.892 244.758 286.857 243.115C290.823 241.473 294.213 238.691 296.596 235.123C298.981 231.554 300.253 227.358 300.253 223.066V201.365Z" fill="#FFFADB" fill-opacity="0.1"/>
<path d="M320.687 203.457C324.564 203.457 328.356 204.607 331.581 206.761C334.805 208.916 337.319 211.979 338.803 215.561C340.287 219.145 340.676 223.087 339.919 226.891C339.163 230.696 337.294 234.19 334.552 236.932C331.81 239.675 328.316 241.542 324.512 242.299C320.709 243.055 316.766 242.667 313.182 241.183C309.599 239.699 306.537 237.186 304.383 233.961C302.227 230.736 301.077 226.944 301.077 223.066V203.457H320.687ZM320.687 201.365H298.98V223.066C298.98 227.358 300.254 231.553 302.637 235.123C305.023 238.691 308.412 241.472 312.376 243.115C316.342 244.758 320.706 245.188 324.914 244.35C329.124 243.513 332.991 241.447 336.025 238.413C339.061 235.378 341.128 231.512 341.967 227.302C342.804 223.094 342.374 218.73 340.733 214.764C339.092 210.799 336.311 207.409 332.743 205.024C329.174 202.639 324.978 201.365 320.687 201.365Z" fill="#FFFADB" fill-opacity="0.1"/>
<path d="M364.17 161.326C369.369 161.332 374.353 163.401 378.028 167.077C381.703 170.754 383.772 175.737 383.778 180.935V200.546H364.17C358.969 200.546 353.98 198.48 350.303 194.801C346.627 191.124 344.561 186.136 344.561 180.935C344.561 175.734 346.627 170.747 350.303 167.069C353.98 163.392 358.969 161.326 364.17 161.326ZM364.17 159.234C358.415 159.234 352.895 161.52 348.824 165.591C344.755 169.66 342.469 175.18 342.469 180.935C342.469 186.692 344.755 192.212 348.824 196.281C352.895 200.35 358.415 202.638 364.17 202.638H385.87V180.935C385.87 175.18 383.585 169.66 379.515 165.591C375.444 161.52 369.925 159.234 364.17 159.234Z" fill="#FFFADB" fill-opacity="0.1"/>
<path d="M406.3 161.326C411.501 161.326 416.488 163.392 420.166 167.069C423.843 170.747 425.909 175.734 425.909 180.935C425.909 186.136 423.843 191.124 420.166 194.801C416.488 198.48 411.501 200.546 406.3 200.546H386.69V180.935C386.697 175.737 388.765 170.754 392.442 167.077C396.117 163.401 401.101 161.332 406.3 161.326ZM406.3 159.234C400.543 159.234 395.024 161.52 390.954 165.591C386.885 169.66 384.598 175.18 384.598 180.935V202.638H406.3C412.055 202.638 417.575 200.35 421.644 196.281C425.715 192.212 428.001 186.692 428.001 180.935C428.001 175.18 425.715 169.66 421.644 165.591C417.575 161.52 412.055 159.234 406.3 159.234Z" fill="#FFFADB" fill-opacity="0.1"/>
<path d="M383.775 203.457V223.066C383.775 226.944 382.625 230.736 380.471 233.961C378.316 237.186 375.253 239.699 371.671 241.183C368.087 242.667 364.145 243.055 360.341 242.299C356.536 241.542 353.042 239.675 350.3 236.932C347.558 234.19 345.69 230.696 344.933 226.891C344.177 223.087 344.565 219.145 346.049 215.561C347.533 211.979 350.047 208.916 353.272 206.761C356.496 204.607 360.288 203.457 364.166 203.457H383.775ZM385.867 201.365H364.166C359.874 201.365 355.678 202.637 352.11 205.022C348.541 207.407 345.759 210.796 344.118 214.761C342.475 218.726 342.044 223.09 342.882 227.3C343.719 231.51 345.786 235.376 348.821 238.412C351.856 241.446 355.722 243.513 359.932 244.35C364.142 245.188 368.506 244.758 372.471 243.115C376.437 241.473 379.825 238.691 382.21 235.123C384.595 231.554 385.867 227.358 385.867 223.066V201.365Z" fill="#FFFADB" fill-opacity="0.1"/>
<path d="M406.3 203.457C410.178 203.457 413.97 204.607 417.193 206.761C420.418 208.916 422.931 211.979 424.416 215.561C425.9 219.145 426.289 223.087 425.532 226.891C424.776 230.696 422.908 234.19 420.166 236.932C417.424 239.675 413.929 241.542 410.125 242.299C406.321 243.055 402.379 242.667 398.795 241.183C395.213 239.699 392.15 237.186 389.995 233.961C387.841 230.736 386.69 226.944 386.69 223.066V203.457H406.3ZM406.3 201.365H384.598V223.066C384.598 227.358 385.871 231.554 388.256 235.123C390.64 238.691 394.03 241.473 397.995 243.115C401.96 244.758 406.323 245.188 410.533 244.35C414.742 243.513 418.61 241.446 421.644 238.412C424.68 235.376 426.746 231.51 427.584 227.3C428.421 223.09 427.992 218.726 426.349 214.761C424.706 210.796 421.925 207.407 418.357 205.022C414.787 202.637 410.592 201.365 406.3 201.365Z" fill="#FFFADB" fill-opacity="0.1"/>
<path d="M21.7013 246.942C26.8999 246.948 31.8838 249.017 35.5597 252.692C39.2358 256.369 41.3039 261.353 41.3106 266.55V286.159H21.7013C16.5005 286.159 11.5128 284.093 7.83533 280.417C4.15786 276.74 2.09189 271.751 2.09189 266.55C2.09189 261.35 4.15786 256.363 7.83533 252.684C11.5128 249.007 16.5005 246.942 21.7013 246.942ZM21.7013 244.85C15.9456 244.85 10.4259 247.135 6.35614 251.206C2.28637 255.276 0 260.795 0 266.55C0 272.305 2.28637 277.825 6.35614 281.896C10.4259 285.965 15.9456 288.251 21.7013 288.251H43.4025V266.55C43.4013 260.795 41.1146 255.277 37.0451 251.206C32.9755 247.137 27.4564 244.851 21.7013 244.85Z" fill="#FFFADB" fill-opacity="0.1"/>
<path d="M63.8339 246.942C69.0347 246.942 74.0224 249.007 77.6999 252.684C81.3773 256.363 83.4433 261.35 83.4433 266.55C83.4433 271.751 81.3773 276.74 77.6999 280.417C74.0224 284.093 69.0347 286.159 63.8339 286.159H44.2246V266.55C44.2313 261.353 46.2994 256.369 49.9755 252.692C53.6514 249.017 58.6353 246.948 63.8339 246.942ZM63.8339 244.85C58.0784 244.85 52.5586 247.135 48.4888 251.206C44.4191 255.276 42.1328 260.795 42.1328 266.55V288.251H63.8339C69.5896 288.251 75.1093 285.965 79.179 281.896C83.2488 277.825 85.5352 272.305 85.5352 266.55C85.5352 260.795 83.2488 255.276 79.179 251.206C75.1093 247.135 69.5896 244.85 63.8339 244.85Z" fill="#FFFADB" fill-opacity="0.1"/>
<path d="M41.3106 289.072V308.687C41.3106 312.564 40.1605 316.356 38.0059 319.581C35.8511 322.805 32.7885 325.319 29.2054 326.803C25.6223 328.287 21.6794 328.676 17.8757 327.919C14.0718 327.163 10.5778 325.294 7.83535 322.552C5.09293 319.81 3.22532 316.316 2.46869 312.512C1.71205 308.709 2.10039 304.766 3.58457 301.182C5.06875 297.599 7.58214 294.537 10.8069 292.383C14.0316 290.227 17.8229 289.077 21.7013 289.077H41.3106M43.4025 286.985H21.7013C17.4092 286.985 13.2134 288.259 9.64469 290.642C6.07594 293.027 3.29444 296.417 1.65192 300.382C0.00940239 304.348 -0.420353 308.71 0.416992 312.92C1.25434 317.13 3.32118 320.996 6.35616 324.032C9.39113 327.067 13.2579 329.133 17.4675 329.971C21.6771 330.808 26.0405 330.379 30.006 328.736C33.9713 327.093 37.3606 324.312 39.7452 320.743C42.1297 317.174 43.4025 312.978 43.4025 308.687V286.98V286.985Z" fill="#FFFADB" fill-opacity="0.1"/>
<path d="M63.8339 289.072C67.7122 289.072 71.5033 290.224 74.7278 292.378C77.9526 294.533 80.4659 297.594 81.9503 301.178C83.4346 304.76 83.8232 308.703 83.0669 312.506C82.3106 316.31 80.4433 319.805 77.7014 322.547C74.9593 325.29 71.4657 327.157 67.6621 327.915C63.8585 328.672 59.916 328.284 56.3327 326.8C52.7494 325.317 49.6866 322.804 47.5314 319.581C45.3762 316.356 44.2255 312.564 44.2246 308.687V289.072H63.8339ZM63.8339 286.98H42.1328V308.687C42.1328 312.978 43.4055 317.174 45.7901 320.743C48.1746 324.312 51.5639 327.093 55.5292 328.736C59.4947 330.379 63.8581 330.808 68.0677 329.971C72.2773 329.133 76.1441 327.067 79.179 324.032C82.214 320.996 84.2808 317.13 85.1182 312.92C85.9556 308.71 85.5259 304.348 83.8834 300.382C82.2408 296.417 79.4592 293.027 75.8905 290.642C72.3217 288.259 68.1261 286.985 63.8339 286.985V286.98Z" fill="#FFFADB" fill-opacity="0.1"/>
<path d="M107.314 246.942C112.513 246.948 117.497 249.017 121.173 252.692C124.849 256.369 126.917 261.353 126.924 266.55V286.159H107.314C102.114 286.159 97.1261 284.093 93.4486 280.417C89.7711 276.74 87.7052 271.751 87.7052 266.55C87.7052 261.35 89.7711 256.363 93.4486 252.684C97.1261 249.007 102.114 246.942 107.314 246.942ZM107.314 244.85C101.559 244.85 96.0392 247.135 91.9693 251.206C87.8996 255.276 85.6133 260.795 85.6133 266.55C85.6133 272.305 87.8996 277.825 91.9693 281.896C96.0392 285.965 101.559 288.251 107.314 288.251H129.016V266.55C129.015 260.795 126.728 255.277 122.658 251.206C118.589 247.137 113.07 244.851 107.314 244.85Z" fill="#FFFADB" fill-opacity="0.1"/>
<path d="M149.447 246.942C154.648 246.942 159.635 249.007 163.314 252.684C166.991 256.363 169.057 261.35 169.057 266.55C169.057 271.751 166.991 276.74 163.314 280.417C159.635 284.093 154.648 286.159 149.447 286.159H129.838V266.55C129.845 261.353 131.913 256.369 135.589 252.692C139.265 249.017 144.249 246.948 149.447 246.942ZM149.447 244.85C143.692 244.851 138.173 247.137 134.103 251.206C130.034 255.277 127.747 260.795 127.746 266.55V288.251H149.447C155.203 288.251 160.723 285.965 164.792 281.896C168.863 277.825 171.148 272.305 171.148 266.55C171.148 260.795 168.863 255.276 164.792 251.206C160.723 247.135 155.203 244.85 149.447 244.85Z" fill="#FFFADB" fill-opacity="0.1"/>
<path d="M126.928 289.072V308.687C126.927 312.564 125.776 316.356 123.621 319.579C121.466 322.804 118.404 325.316 114.821 326.8C111.238 328.284 107.295 328.672 103.492 327.915C99.6883 327.159 96.1947 325.29 93.4525 322.549C90.7102 319.807 88.8428 316.313 88.0861 312.509C87.3293 308.706 87.7173 304.763 89.2009 301.181C90.6846 297.597 93.1973 294.534 96.4215 292.38C99.6456 290.225 103.436 289.074 107.314 289.072H126.924M129.015 286.98H107.314C103.023 286.982 98.8273 288.255 95.2593 290.641C91.6912 293.026 88.9103 296.414 87.2682 300.379C85.6263 304.345 85.1969 308.707 86.0343 312.917C86.8718 317.127 88.9385 320.993 91.9733 324.027C95.008 327.063 98.8745 329.128 103.084 329.967C107.293 330.804 111.656 330.374 115.621 328.733C119.586 327.09 122.976 324.309 125.361 320.741C127.745 317.174 129.019 312.978 129.02 308.687V286.98H129.015Z" fill="#FFFADB" fill-opacity="0.1"/>
<path d="M149.447 289.072C153.326 289.072 157.116 290.224 160.341 292.378C163.566 294.533 166.079 297.594 167.563 301.178C169.047 304.76 169.437 308.703 168.681 312.506C167.924 316.31 166.056 319.805 163.315 322.547C160.573 325.29 157.079 327.157 153.276 327.915C149.472 328.672 145.529 328.284 141.946 326.8C138.363 325.317 135.3 322.804 133.145 319.581C130.99 316.356 129.839 312.564 129.838 308.687V289.072H149.447ZM149.447 286.98H127.746V308.687C127.746 312.978 129.019 317.174 131.403 320.743C133.788 324.312 137.177 327.093 141.143 328.736C145.108 330.379 149.471 330.808 153.68 329.971C157.89 329.133 161.758 327.067 164.792 324.032C167.827 320.996 169.895 317.13 170.732 312.92C171.568 308.71 171.139 304.348 169.496 300.382C167.855 296.417 165.073 293.027 161.504 290.642C157.936 288.259 153.74 286.985 149.447 286.985V286.98Z" fill="#FFFADB" fill-opacity="0.1"/>
<path d="M192.935 246.942C198.134 246.948 203.118 249.017 206.794 252.692C210.471 256.369 212.538 261.353 212.544 266.55V286.159H192.935C187.734 286.159 182.747 284.093 179.069 280.417C175.392 276.74 173.326 271.751 173.326 266.55C173.326 261.35 175.392 256.363 179.069 252.684C182.747 249.007 187.734 246.942 192.935 246.942ZM192.935 244.85C187.18 244.85 181.66 247.135 177.591 251.206C173.52 255.276 171.234 260.795 171.234 266.55C171.234 272.305 173.52 277.825 177.591 281.896C181.66 285.965 187.18 288.251 192.935 288.251H214.636V266.55C214.636 260.795 212.349 255.277 208.279 251.206C204.21 247.137 198.69 244.851 192.935 244.85Z" fill="#FFFADB" fill-opacity="0.1"/>
<path d="M235.066 246.942C240.266 246.942 245.253 249.007 248.932 252.684C252.609 256.363 254.675 261.35 254.675 266.55C254.675 271.751 252.609 276.74 248.932 280.417C245.253 284.093 240.266 286.159 235.066 286.159H215.455V266.55C215.463 261.353 217.53 256.369 221.207 252.692C224.882 249.017 229.866 246.948 235.066 246.942ZM235.066 244.85C229.311 244.851 223.791 247.137 219.721 251.206C215.652 255.277 213.365 260.795 213.363 266.55V288.251H235.066C240.821 288.251 246.341 285.965 250.41 281.896C254.481 277.825 256.766 272.305 256.766 266.55C256.766 260.795 254.481 255.276 250.41 251.206C246.341 247.135 240.821 244.85 235.066 244.85Z" fill="#FFFADB" fill-opacity="0.1"/>
<path d="M212.544 289.072V308.687C212.544 312.564 211.394 316.356 209.24 319.581C207.085 322.805 204.022 325.319 200.44 326.803C196.856 328.287 192.914 328.676 189.11 327.919C185.306 327.163 181.811 325.294 179.069 322.552C176.327 319.81 174.459 316.316 173.703 312.512C172.946 308.709 173.334 304.766 174.818 301.182C176.302 297.599 178.815 294.537 182.04 292.383C185.265 290.227 189.057 289.077 192.935 289.077H212.544M214.636 286.985H192.935C188.643 286.985 184.447 288.259 180.878 290.642C177.31 293.027 174.528 296.417 172.886 300.382C171.243 304.348 170.814 308.71 171.651 312.92C172.488 317.13 174.555 320.996 177.591 324.032C180.625 327.067 184.493 329.133 188.702 329.971C192.911 330.808 197.275 330.379 201.24 328.736C205.206 327.093 208.595 324.312 210.979 320.743C213.364 317.174 214.636 312.978 214.636 308.687V286.98V286.985Z" fill="#FFFADB" fill-opacity="0.1"/>
<path d="M235.066 289.072C238.944 289.072 242.734 290.224 245.959 292.378C249.184 294.533 251.697 297.594 253.181 301.178C254.665 304.76 255.055 308.703 254.299 312.506C253.542 316.31 251.674 319.805 248.933 322.547C246.191 325.29 242.697 327.157 238.894 327.915C235.09 328.672 231.147 328.284 227.564 326.8C223.98 325.317 220.919 322.804 218.763 319.581C216.608 316.356 215.457 312.564 215.455 308.687V289.072H235.066ZM235.066 286.98H213.363V308.687C213.363 312.978 214.637 317.174 217.022 320.743C219.405 324.312 222.795 327.093 226.761 328.736C230.726 330.379 235.09 330.808 239.298 329.971C243.508 329.133 247.376 327.067 250.41 324.032C253.445 320.996 255.513 317.13 256.35 312.92C257.186 308.71 256.757 304.348 255.114 300.382C253.473 296.417 250.691 293.027 247.122 290.642C243.552 288.259 239.358 286.985 235.066 286.985V286.98Z" fill="#FFFADB" fill-opacity="0.1"/>
<path d="M278.552 246.942C283.752 246.948 288.736 249.017 292.411 252.692C296.088 256.369 298.155 261.353 298.161 266.55V286.159H278.552C273.352 286.159 268.365 284.093 264.686 280.417C261.009 276.74 258.943 271.751 258.943 266.55C258.943 261.35 261.009 256.363 264.686 252.684C268.365 249.007 273.352 246.942 278.552 246.942ZM278.552 244.85C272.797 244.85 267.277 247.135 263.208 251.206C259.137 255.276 256.852 260.795 256.852 266.55C256.852 272.305 259.137 277.825 263.208 281.896C267.277 285.965 272.797 288.251 278.552 288.251H300.253V266.55C300.253 260.795 297.966 255.277 293.897 251.206C289.827 247.137 284.307 244.851 278.552 244.85Z" fill="#FFFADB" fill-opacity="0.1"/>
<path d="M320.687 246.942C325.886 246.942 330.874 249.007 334.551 252.684C338.23 256.363 340.296 261.35 340.296 266.55C340.296 271.751 338.23 276.74 334.551 280.417C330.874 284.093 325.886 286.159 320.687 286.159H301.072V266.55C301.079 261.351 303.148 256.367 306.825 252.69C310.502 249.015 315.486 246.948 320.687 246.942ZM320.687 244.85C314.93 244.851 309.412 247.137 305.343 251.206C301.273 255.277 298.986 260.795 298.984 266.55V288.251H320.687C326.442 288.251 331.962 285.965 336.031 281.896C340.1 277.825 342.388 272.305 342.388 266.55C342.388 260.795 340.1 255.276 336.031 251.206C331.962 247.135 326.442 244.85 320.687 244.85Z" fill="#FFFADB" fill-opacity="0.1"/>
<path d="M298.161 289.072V308.687C298.161 312.564 297.011 316.356 294.857 319.581C292.702 322.805 289.639 325.319 286.057 326.803C282.473 328.287 278.531 328.676 274.727 327.919C270.924 327.163 267.429 325.294 264.686 322.552C261.944 319.81 260.076 316.316 259.321 312.512C258.563 308.709 258.951 304.766 260.435 301.182C261.919 297.599 264.433 294.537 267.658 292.383C270.882 290.227 274.674 289.077 278.552 289.077H298.161M300.253 286.985H278.552C274.26 286.985 270.064 288.259 266.496 290.642C262.927 293.027 260.145 296.417 258.504 300.382C256.861 304.348 256.432 308.71 257.268 312.92C258.105 317.13 260.173 320.996 263.208 324.032C266.242 327.067 270.11 329.133 274.318 329.971C278.528 330.808 282.892 330.379 286.857 328.736C290.823 327.093 294.213 324.312 296.596 320.743C298.981 317.174 300.253 312.978 300.253 308.687V286.98V286.985Z" fill="#FFFADB" fill-opacity="0.1"/>
<path d="M320.687 289.072C324.564 289.074 328.356 290.225 331.579 292.38C334.804 294.534 337.316 297.597 338.8 301.181C340.284 304.763 340.672 308.706 339.915 312.509C339.159 316.313 337.29 319.807 334.549 322.549C331.807 325.29 328.313 327.159 324.509 327.915C320.706 328.672 316.763 328.284 313.181 326.8C309.597 325.316 306.534 322.804 304.38 319.579C302.225 316.356 301.074 312.564 301.072 308.687V289.072H320.687ZM320.687 286.98H298.98V308.687C298.982 312.978 300.255 317.174 302.641 320.741C305.026 324.309 308.414 327.09 312.379 328.733C316.345 330.374 320.707 330.804 324.917 329.967C329.127 329.128 332.993 327.063 336.027 324.027C339.063 320.993 341.128 317.127 341.967 312.917C342.804 308.707 342.374 304.345 340.733 300.379C339.09 296.414 336.309 293.026 332.741 290.641C329.174 288.255 324.978 286.982 320.687 286.98Z" fill="#FFFADB" fill-opacity="0.1"/>
<path d="M364.17 246.942C369.369 246.948 374.353 249.017 378.028 252.692C381.703 256.369 383.772 261.353 383.778 266.55V286.159H364.17C358.969 286.159 353.98 284.093 350.303 280.417C346.627 276.74 344.561 271.751 344.561 266.55C344.561 261.35 346.627 256.363 350.303 252.684C353.98 249.007 358.969 246.942 364.17 246.942ZM364.17 244.85C358.415 244.85 352.895 247.135 348.824 251.206C344.755 255.276 342.469 260.795 342.469 266.55C342.469 272.305 344.755 277.825 348.824 281.896C352.895 285.965 358.415 288.251 364.17 288.251H385.87V266.55C385.87 260.795 383.585 255.276 379.515 251.206C375.444 247.135 369.925 244.85 364.17 244.85Z" fill="#FFFADB" fill-opacity="0.1"/>
<path d="M406.3 246.942C411.501 246.942 416.488 249.007 420.166 252.684C423.843 256.363 425.909 261.35 425.909 266.55C425.909 271.751 423.843 276.74 420.166 280.417C416.488 284.093 411.501 286.159 406.3 286.159H386.69V266.55C386.697 261.353 388.765 256.369 392.442 252.692C396.117 249.017 401.101 246.948 406.3 246.942ZM406.3 244.85C400.545 244.851 395.025 247.137 390.956 251.206C386.887 255.277 384.599 260.795 384.598 266.55V288.251H406.3C412.055 288.251 417.575 285.965 421.644 281.896C425.715 277.825 428.001 272.305 428.001 266.55C428.001 260.795 425.715 255.276 421.644 251.206C417.575 247.135 412.055 244.85 406.3 244.85Z" fill="#FFFADB" fill-opacity="0.1"/>
<path d="M383.775 289.072V308.687C383.775 312.564 382.625 316.356 380.471 319.581C378.316 322.805 375.253 325.319 371.671 326.803C368.087 328.287 364.145 328.676 360.341 327.919C356.536 327.163 353.042 325.294 350.3 322.552C347.558 319.81 345.69 316.316 344.933 312.512C344.177 308.709 344.565 304.766 346.049 301.182C347.533 297.599 350.047 294.537 353.272 292.383C356.496 290.227 360.288 289.077 364.166 289.077H383.775M385.867 286.985H364.166C359.874 286.985 355.678 288.259 352.11 290.642C348.541 293.027 345.759 296.417 344.118 300.382C342.475 304.348 342.044 308.71 342.882 312.92C343.719 317.13 345.786 320.996 348.821 324.032C351.856 327.067 355.722 329.133 359.932 329.971C364.142 330.808 368.506 330.379 372.471 328.736C376.437 327.093 379.825 324.312 382.21 320.743C384.595 317.174 385.867 312.978 385.867 308.687V286.98V286.985Z" fill="#FFFADB" fill-opacity="0.1"/>
<path d="M406.3 289.072C410.178 289.072 413.968 290.224 417.193 292.378C420.418 294.533 422.931 297.594 424.416 301.178C425.9 304.76 426.289 308.703 425.532 312.506C424.776 316.31 422.908 319.805 420.168 322.547C417.425 325.29 413.932 327.157 410.128 327.915C406.324 328.672 402.382 328.284 398.798 326.8C395.214 325.317 392.151 322.804 389.997 319.581C387.842 316.356 386.691 312.564 386.69 308.687V289.072H406.3ZM406.3 286.98H384.598V308.687C384.598 312.978 385.871 317.174 388.256 320.743C390.64 324.312 394.03 327.093 397.995 328.736C401.96 330.379 406.323 330.808 410.533 329.971C414.742 329.133 418.61 327.067 421.644 324.032C424.68 320.996 426.746 317.13 427.584 312.92C428.421 308.71 427.992 304.348 426.349 300.382C424.706 296.417 421.925 293.027 418.357 290.642C414.787 288.259 410.592 286.985 406.3 286.985V286.98Z" fill="#FFFADB" fill-opacity="0.1"/>
<path d="M21.7013 332.559C26.8999 332.565 31.8838 334.632 35.5597 338.309C39.2358 341.984 41.3039 346.968 41.3106 352.168V371.776H21.7013C16.5005 371.776 11.5128 369.711 7.83533 366.034C4.15786 362.355 2.09189 357.368 2.09189 352.168C2.09189 346.967 4.15786 341.978 7.83533 338.301C11.5128 334.625 16.5005 332.559 21.7013 332.559ZM21.7013 330.467C15.9456 330.467 10.4259 332.753 6.35614 336.822C2.28637 340.893 0 346.413 0 352.168C0 357.923 2.28637 363.442 6.35614 367.513C10.4259 371.583 15.9456 373.868 21.7013 373.868H43.4025V352.168C43.4013 346.413 41.1146 340.893 37.0451 336.823C32.9755 332.754 27.4564 330.467 21.7013 330.467Z" fill="#FFFADB" fill-opacity="0.1"/>
<path d="M63.8339 332.559C69.0347 332.559 74.0224 334.625 77.6999 338.301C81.3773 341.978 83.4433 346.967 83.4433 352.168C83.4433 357.368 81.3773 362.355 77.6999 366.034C74.0224 369.711 69.0347 371.776 63.8339 371.776H44.2246V352.168C44.2313 346.968 46.2994 341.984 49.9755 338.309C53.6514 334.632 58.6353 332.565 63.8339 332.559ZM63.8339 330.467C58.0784 330.467 52.5586 332.753 48.4888 336.822C44.4191 340.893 42.1328 346.413 42.1328 352.168V373.868H63.8339C69.5896 373.868 75.1093 371.583 79.179 367.513C83.2488 363.442 85.5352 357.923 85.5352 352.168C85.5352 346.413 83.2488 340.893 79.179 336.822C75.1093 332.753 69.5896 330.467 63.8339 330.467Z" fill="#FFFADB" fill-opacity="0.1"/>
<path d="M41.3106 374.69V394.3C41.3106 398.178 40.1605 401.97 38.0059 405.193C35.8511 408.418 32.7885 410.931 29.2054 412.416C25.6223 413.9 21.6794 414.289 17.8757 413.532C14.0718 412.776 10.5778 410.908 7.83535 408.166C5.09293 405.424 3.22532 401.929 2.46869 398.125C1.71205 394.321 2.10039 390.379 3.58457 386.795C5.06875 383.213 7.58214 380.15 10.8069 377.995C14.0316 375.841 17.8229 374.69 21.7013 374.69H41.3106ZM43.4025 372.598H21.7013C17.4092 372.598 13.2134 373.871 9.64469 376.256C6.07594 378.64 3.29444 382.03 1.65192 385.995C0.00940239 389.96 -0.420353 394.323 0.416992 398.533C1.25434 402.742 3.32118 406.61 6.35616 409.644C9.39113 412.68 13.2579 414.746 17.4675 415.584C21.6771 416.421 26.0405 415.992 30.006 414.349C33.9713 412.706 37.3606 409.925 39.7452 406.357C42.1297 402.787 43.4025 398.592 43.4025 394.3V372.598Z" fill="#FFFADB" fill-opacity="0.1"/>
<path d="M63.8339 374.69C67.7123 374.69 71.5036 375.841 74.7283 377.995C77.953 380.15 80.4665 383.213 81.9507 386.795C83.4349 390.379 83.8232 394.321 83.0666 398.125C82.3098 401.929 80.4423 405.424 77.6999 408.166C74.9575 410.908 71.4634 412.776 67.6595 413.532C63.8558 414.289 59.9129 413.9 56.3298 412.416C52.7467 410.931 49.6841 408.418 47.5295 405.193C45.3747 401.97 44.2246 398.178 44.2246 394.3V374.69H63.8339ZM63.8339 372.598H42.1328V394.3C42.1328 398.592 43.4055 402.787 45.7901 406.357C48.1746 409.925 51.5639 412.706 55.5292 414.349C59.4947 415.992 63.8581 416.421 68.0677 415.584C72.2773 414.746 76.1441 412.68 79.179 409.644C82.214 406.61 84.2808 402.742 85.1182 398.533C85.9556 394.323 85.5259 389.96 83.8834 385.995C82.2408 382.03 79.4592 378.64 75.8905 376.256C72.3217 373.871 68.1261 372.598 63.8339 372.598Z" fill="#FFFADB" fill-opacity="0.1"/>
<path d="M107.314 332.559C112.513 332.565 117.497 334.632 121.173 338.309C124.849 341.984 126.917 346.968 126.924 352.168V371.776H107.314C102.114 371.776 97.1261 369.711 93.4486 366.034C89.7711 362.355 87.7052 357.368 87.7052 352.168C87.7052 346.967 89.7711 341.978 93.4486 338.301C97.1261 334.625 102.114 332.559 107.314 332.559ZM107.314 330.467C101.559 330.467 96.0392 332.753 91.9693 336.822C87.8996 340.893 85.6133 346.413 85.6133 352.168C85.6133 357.923 87.8996 363.442 91.9693 367.513C96.0392 371.583 101.559 373.868 107.314 373.868H129.016V352.168C129.015 346.413 126.728 340.893 122.658 336.823C118.589 332.754 113.07 330.467 107.314 330.467Z" fill="#FFFADB" fill-opacity="0.1"/>
<path d="M149.447 332.559C154.648 332.559 159.635 334.625 163.314 338.301C166.991 341.978 169.057 346.967 169.057 352.168C169.057 357.368 166.991 362.355 163.314 366.034C159.635 369.711 154.648 371.776 149.447 371.776H129.838V352.168C129.845 346.968 131.913 341.984 135.589 338.309C139.265 334.632 144.249 332.565 149.447 332.559ZM149.447 330.467C143.692 330.467 138.173 332.754 134.103 336.823C130.034 340.893 127.747 346.413 127.746 352.168V373.868H149.447C155.203 373.868 160.723 371.583 164.792 367.513C168.863 363.442 171.148 357.923 171.148 352.168C171.148 346.413 168.863 340.893 164.792 336.822C160.723 332.753 155.203 330.467 149.447 330.467Z" fill="#FFFADB" fill-opacity="0.1"/>
<path d="M126.928 374.69V394.3C126.928 398.178 125.778 401.968 123.624 405.193C121.469 408.418 118.407 410.931 114.824 412.416C111.241 413.9 107.298 414.289 103.495 413.532C99.6909 412.776 96.1968 410.908 93.4543 408.168C90.7117 405.425 88.8437 401.932 88.0866 398.128C87.3296 394.324 87.7173 390.382 89.2008 386.798C90.6844 383.214 93.1971 380.151 96.4213 377.997C99.6454 375.842 103.436 374.691 107.315 374.69H126.924M129.016 372.598H107.315C103.022 372.598 98.8266 373.871 95.2579 376.256C91.6891 378.64 88.9077 382.03 87.2651 385.995C85.6226 389.96 85.1929 394.323 86.0303 398.533C86.8675 402.742 88.9344 406.61 91.9695 409.644C95.0044 412.68 98.8712 414.746 103.081 415.584C107.29 416.421 111.654 415.992 115.619 414.349C119.585 412.706 122.974 409.925 125.358 406.357C127.743 402.787 129.016 398.592 129.016 394.3V372.598Z" fill="#FFFADB" fill-opacity="0.1"/>
<path d="M149.447 374.69C153.326 374.69 157.117 375.841 160.342 377.995C163.566 380.15 166.081 383.213 167.565 386.795C169.049 390.379 169.437 394.321 168.679 398.125C167.924 401.929 166.056 405.424 163.314 408.166C160.571 410.908 157.076 412.776 153.273 413.532C149.469 414.289 145.526 413.9 141.943 412.416C138.36 410.931 135.297 408.418 133.143 405.193C130.988 401.97 129.838 398.178 129.838 394.3V374.69H149.447ZM149.447 372.598H127.746V394.3C127.746 398.592 129.019 402.787 131.403 406.357C133.788 409.925 137.177 412.706 141.143 414.349C145.108 415.992 149.471 416.421 153.68 415.584C157.89 414.746 161.758 412.68 164.792 409.644C167.827 406.61 169.895 402.742 170.732 398.533C171.568 394.323 171.139 389.96 169.496 385.995C167.855 382.03 165.073 378.64 161.504 376.256C157.936 373.871 153.74 372.598 149.447 372.598Z" fill="#FFFADB" fill-opacity="0.1"/>
<path d="M192.935 332.559C198.134 332.565 203.118 334.632 206.794 338.309C210.471 341.984 212.538 346.968 212.544 352.168V371.776H192.935C187.734 371.776 182.747 369.711 179.069 366.034C175.392 362.355 173.326 357.368 173.326 352.168C173.326 346.967 175.392 341.978 179.069 338.301C182.747 334.625 187.734 332.559 192.935 332.559ZM192.935 330.467C187.18 330.467 181.66 332.753 177.591 336.822C173.52 340.893 171.234 346.413 171.234 352.168C171.234 357.923 173.52 363.442 177.591 367.513C181.66 371.583 187.18 373.868 192.935 373.868H214.636V352.168C214.636 346.413 212.349 340.893 208.279 336.823C204.21 332.754 198.69 330.467 192.935 330.467Z" fill="#FFFADB" fill-opacity="0.1"/>
<path d="M235.066 332.559C240.266 332.559 245.253 334.625 248.932 338.301C252.609 341.978 254.675 346.967 254.675 352.168C254.675 357.368 252.609 362.355 248.932 366.034C245.253 369.711 240.266 371.776 235.066 371.776H215.455V352.168C215.463 346.968 217.53 341.984 221.207 338.309C224.882 334.632 229.866 332.565 235.066 332.559ZM235.066 330.467C229.311 330.467 223.791 332.754 219.721 336.823C215.652 340.893 213.365 346.413 213.363 352.168V373.868H235.066C240.821 373.868 246.341 371.583 250.41 367.513C254.481 363.442 256.766 357.923 256.766 352.168C256.766 346.413 254.481 340.893 250.41 336.822C246.341 332.753 240.821 330.467 235.066 330.467Z" fill="#FFFADB" fill-opacity="0.1"/>
<path d="M212.544 374.69V394.3C212.544 398.178 211.394 401.97 209.24 405.193C207.085 408.418 204.022 410.931 200.44 412.416C196.856 413.9 192.914 414.289 189.11 413.532C185.306 412.776 181.811 410.908 179.069 408.166C176.327 405.424 174.459 401.929 173.703 398.125C172.946 394.321 173.334 390.379 174.818 386.795C176.302 383.213 178.815 380.15 182.04 377.995C185.265 375.841 189.057 374.69 192.935 374.69H212.544ZM214.636 372.598H192.935C188.643 372.598 184.447 373.871 180.878 376.256C177.31 378.64 174.528 382.03 172.886 385.995C171.243 389.96 170.814 394.323 171.651 398.533C172.488 402.742 174.555 406.61 177.591 409.644C180.625 412.68 184.493 414.746 188.702 415.584C192.911 416.421 197.275 415.992 201.24 414.349C205.206 412.706 208.595 409.925 210.979 406.357C213.364 402.787 214.636 398.592 214.636 394.3V372.598Z" fill="#FFFADB" fill-opacity="0.1"/>
<path d="M235.066 374.69C238.944 374.69 242.735 375.841 245.96 377.995C249.184 380.15 251.699 383.213 253.183 386.795C254.667 390.379 255.055 394.321 254.297 398.125C253.542 401.929 251.674 405.424 248.932 408.166C246.189 410.908 242.694 412.776 238.891 413.532C235.087 414.289 231.144 413.9 227.561 412.416C223.979 410.931 220.916 408.418 218.761 405.193C216.607 401.97 215.455 398.178 215.455 394.3V374.69H235.066ZM235.066 372.598H213.363V394.3C213.363 398.592 214.637 402.787 217.022 406.357C219.405 409.925 222.795 412.706 226.761 414.349C230.726 415.992 235.09 416.421 239.298 415.584C243.508 414.746 247.376 412.68 250.41 409.644C253.445 406.61 255.513 402.742 256.35 398.533C257.186 394.323 256.757 389.96 255.114 385.995C253.473 382.03 250.691 378.64 247.122 376.256C243.552 373.871 239.358 372.598 235.066 372.598Z" fill="#FFFADB" fill-opacity="0.1"/>
<path d="M278.552 332.559C283.752 332.565 288.736 334.632 292.411 338.309C296.088 341.984 298.155 346.968 298.161 352.168V371.776H278.552C273.352 371.776 268.365 369.711 264.686 366.034C261.009 362.355 258.943 357.368 258.943 352.168C258.943 346.967 261.009 341.978 264.686 338.301C268.365 334.625 273.352 332.559 278.552 332.559ZM278.552 330.467C272.797 330.467 267.277 332.753 263.208 336.822C259.137 340.893 256.852 346.413 256.852 352.168C256.852 357.923 259.137 363.442 263.208 367.513C267.277 371.583 272.797 373.868 278.552 373.868H300.253V352.168C300.253 346.413 297.966 340.893 293.897 336.823C289.827 332.754 284.307 330.467 278.552 330.467Z" fill="#FFFADB" fill-opacity="0.1"/>
<path d="M320.687 332.559C325.886 332.559 330.874 334.625 334.551 338.301C338.23 341.978 340.296 346.967 340.296 352.168C340.296 357.368 338.23 362.355 334.551 366.034C330.874 369.711 325.886 371.776 320.687 371.776H301.072V352.168C301.079 346.968 303.148 341.983 306.825 338.308C310.502 334.631 315.486 332.563 320.687 332.559ZM320.687 330.467C314.93 330.467 309.412 332.754 305.343 336.823C301.273 340.893 298.986 346.413 298.984 352.168V373.868H320.687C326.442 373.868 331.962 371.583 336.031 367.513C340.1 363.442 342.388 357.923 342.388 352.168C342.388 346.413 340.1 340.893 336.031 336.822C331.962 332.753 326.442 330.467 320.687 330.467Z" fill="#FFFADB" fill-opacity="0.1"/>
<path d="M298.161 374.69V394.3C298.161 398.178 297.011 401.97 294.857 405.193C292.702 408.418 289.639 410.931 286.057 412.416C282.473 413.9 278.531 414.289 274.727 413.532C270.924 412.776 267.429 410.908 264.686 408.166C261.944 405.424 260.076 401.929 259.321 398.125C258.563 394.321 258.951 390.379 260.435 386.795C261.919 383.213 264.433 380.15 267.658 377.995C270.882 375.841 274.674 374.69 278.552 374.69H298.161ZM300.253 372.598H278.552C274.26 372.598 270.064 373.871 266.496 376.256C262.927 378.64 260.145 382.03 258.504 385.995C256.861 389.96 256.432 394.323 257.268 398.533C258.105 402.742 260.173 406.61 263.208 409.644C266.242 412.68 270.11 414.746 274.318 415.584C278.528 416.421 282.892 415.992 286.857 414.349C290.823 412.706 294.213 409.925 296.596 406.357C298.981 402.787 300.253 398.592 300.253 394.3V372.598Z" fill="#FFFADB" fill-opacity="0.1"/>
<path d="M320.687 374.69C324.564 374.69 328.356 375.841 331.581 377.995C334.805 380.15 337.319 383.213 338.803 386.795C340.287 390.379 340.676 394.321 339.919 398.125C339.163 401.929 337.294 405.424 334.552 408.166C331.81 410.908 328.316 412.776 324.512 413.532C320.709 414.289 316.766 413.9 313.182 412.416C309.599 410.931 306.537 408.418 304.383 405.193C302.227 401.97 301.077 398.178 301.077 394.3V374.69H320.687ZM320.687 372.598H298.98V394.3C298.98 398.591 300.254 402.787 302.637 406.355C305.023 409.924 308.412 412.706 312.376 414.349C316.342 415.992 320.706 416.421 324.914 415.584C329.124 414.747 332.991 412.681 336.025 409.646C339.061 406.612 341.128 402.745 341.967 398.536C342.804 394.326 342.374 389.963 340.733 385.998C339.092 382.033 336.311 378.643 332.743 376.258C329.174 373.873 324.978 372.599 320.687 372.598Z" fill="#FFFADB" fill-opacity="0.1"/>
<path d="M364.17 332.559C369.369 332.565 374.353 334.632 378.028 338.309C381.703 341.984 383.772 346.968 383.778 352.168V371.776H364.17C358.969 371.776 353.98 369.711 350.303 366.034C346.627 362.355 344.561 357.368 344.561 352.168C344.561 346.967 346.627 341.978 350.303 338.301C353.98 334.625 358.969 332.559 364.17 332.559ZM364.17 330.467C358.415 330.467 352.895 332.753 348.824 336.822C344.755 340.893 342.469 346.413 342.469 352.168C342.469 357.923 344.755 363.442 348.824 367.513C352.895 371.583 358.415 373.868 364.17 373.868H385.87V352.168C385.87 346.413 383.585 340.893 379.515 336.822C375.444 332.753 369.925 330.467 364.17 330.467Z" fill="#FFFADB" fill-opacity="0.1"/>
<path d="M406.3 332.559C411.501 332.559 416.488 334.625 420.166 338.301C423.843 341.978 425.909 346.967 425.909 352.168C425.909 357.368 423.843 362.355 420.166 366.034C416.488 369.711 411.501 371.776 406.3 371.776H386.69V352.168C386.697 346.968 388.765 341.984 392.442 338.309C396.117 334.632 401.101 332.565 406.3 332.559ZM406.3 330.467C400.545 330.467 395.025 332.754 390.956 336.823C386.887 340.893 384.599 346.413 384.598 352.168V373.868H406.3C412.055 373.868 417.575 371.583 421.644 367.513C425.715 363.442 428.001 357.923 428.001 352.168C428.001 346.413 425.715 340.893 421.644 336.822C417.575 332.753 412.055 330.467 406.3 330.467Z" fill="#FFFADB" fill-opacity="0.1"/>
<path d="M383.775 374.69V394.3C383.775 398.178 382.625 401.97 380.471 405.193C378.316 408.418 375.253 410.931 371.671 412.416C368.087 413.9 364.145 414.289 360.341 413.532C356.536 412.776 353.042 410.908 350.3 408.166C347.558 405.424 345.69 401.929 344.933 398.125C344.177 394.321 344.565 390.379 346.049 386.795C347.533 383.213 350.047 380.15 353.272 377.995C356.496 375.841 360.288 374.69 364.166 374.69H383.775ZM385.867 372.598H364.166C359.874 372.598 355.678 373.871 352.11 376.256C348.541 378.64 345.759 382.03 344.118 385.995C342.475 389.96 342.044 394.323 342.882 398.533C343.719 402.742 345.786 406.61 348.821 409.644C351.856 412.68 355.722 414.746 359.932 415.584C364.142 416.421 368.506 415.992 372.471 414.349C376.437 412.706 379.825 409.925 382.21 406.357C384.595 402.787 385.867 398.592 385.867 394.3V372.598Z" fill="#FFFADB" fill-opacity="0.1"/>
<path d="M406.3 374.69C410.178 374.69 413.97 375.841 417.193 377.995C420.418 380.15 422.931 383.213 424.416 386.795C425.9 390.379 426.289 394.321 425.532 398.125C424.776 401.929 422.908 405.424 420.166 408.166C417.424 410.908 413.929 412.776 410.125 413.532C406.321 414.289 402.379 413.9 398.795 412.416C395.213 410.931 392.15 408.418 389.995 405.193C387.841 401.97 386.69 398.178 386.69 394.3V374.69H406.3ZM406.3 372.598H384.598V394.3C384.598 398.592 385.871 402.787 388.256 406.357C390.64 409.925 394.03 412.706 397.995 414.349C401.96 415.992 406.323 416.421 410.533 415.584C414.742 414.746 418.61 412.68 421.644 409.644C424.68 406.61 426.746 402.742 427.584 398.533C428.421 394.323 427.992 389.96 426.349 385.995C424.706 382.03 421.925 378.64 418.357 376.256C414.787 373.871 410.592 372.598 406.3 372.598Z" fill="#FFFADB" fill-opacity="0.1"/>
</g>
</g>
<defs>
<clipPath id="clip0_423_29834">
<rect width="428" height="428" fill="white" transform="translate(0 -12)"/>
</clipPath>
</defs>
</svg>
