<svg width="20" height="26" viewBox="0 0 20 26" fill="none" xmlns="http://www.w3.org/2000/svg">
<g clip-path="url(#clip0_2779_93660)">
<path fill-rule="evenodd" clip-rule="evenodd" d="M13.5283 6.63263C13.451 4.62046 12.7716 2.97768 11.6107 1.80981C10.39 0.581692 8.78422 0.0281556 7.22295 0.00102498C4.18778 -0.0517174 0.817805 1.93233 0.2312 5.64749C-0.0455791 7.40044 -0.0239629 11.0435 0.0425916 14.6592C0.0430679 14.6851 0.0435469 14.711 0.0440284 14.7369C0.0150796 15.0433 0.000275339 15.3539 0.000275339 15.668V25.4475H9.77978C15.1809 25.4475 19.5593 21.0691 19.5593 15.668C19.5593 11.5949 17.0693 8.10334 13.5283 6.63263ZM10.0306 5.89162C9.87097 5.092 9.54681 4.55851 9.19821 4.20783C8.69174 3.69827 7.97674 3.41622 7.16387 3.40209C5.45069 3.37232 3.85877 4.48309 3.59115 6.17801C3.51587 6.65483 3.46674 7.35594 3.4375 8.22367C5.14505 6.76748 7.35975 5.88848 9.77978 5.88848C9.86362 5.88848 9.94724 5.88955 10.0306 5.89162ZM3.5978 22.046C3.57913 20.7892 3.54752 19.3934 3.51516 17.9645C3.49203 16.9431 3.46852 15.9048 3.44906 14.8881C3.83369 11.7335 6.52139 9.29007 9.77978 9.29007C13.3023 9.29007 16.1578 12.1456 16.1578 15.668C16.1578 19.1905 13.3023 22.046 9.77978 22.046H3.5978Z" fill="#34A853"/>
<path d="M8.22088 14.7406C8.22088 16.1496 9.36308 17.2918 10.7721 17.2918C12.181 17.2918 13.3232 16.1496 13.3232 14.7406C13.3232 13.3317 12.181 12.1895 10.7721 12.1895C9.36308 12.1895 8.22088 13.3317 8.22088 14.7406Z" fill="#FDE74C"/>
</g>
<defs>
<clipPath id="clip0_2779_93660">
<rect width="19.5593" height="25.5" fill="white"/>
</clipPath>
</defs>
</svg>
