<svg width="1440" height="768" viewBox="0 0 1440 768" fill="none" xmlns="http://www.w3.org/2000/svg">
<g opacity="0.04" clip-path="url(#clip0_1695_35377)">
<mask id="mask0_1695_35377" style="mask-type:luminance" maskUnits="userSpaceOnUse" x="-95" y="-215" width="1604" height="1604">
<path d="M1509 -215H-95V1389H1509V-215Z" fill="white"/>
</mask>
<g mask="url(#mask0_1695_35377)">
<path d="M59.8183 -49.2686V24.2207C59.8183 38.7551 55.5082 52.9639 47.4333 65.0491C39.3578 77.1343 27.8803 86.5535 14.452 92.1157C1.0237 97.6779 -13.7528 99.1331 -28.008 96.2976C-42.2636 93.4622 -55.3581 86.4631 -65.6358 76.185C-75.9134 65.9075 -82.9126 52.8128 -85.7482 38.5576C-88.5838 24.3019 -87.1284 9.526 -81.5662 -3.90285C-76.004 -17.3311 -66.5847 -28.8086 -54.4995 -36.8836C-42.4143 -44.9585 -28.206 -49.2686 -13.671 -49.2686H59.8183ZM67.6581 -57.1084H-13.671C-29.7562 -57.1084 -45.4805 -52.3387 -58.8549 -43.402C-72.2294 -34.4653 -82.6535 -21.7637 -88.8092 -6.90256C-94.9648 7.95805 -96.5753 24.3105 -93.4373 40.0873C-90.2992 55.8635 -82.5533 70.355 -71.1793 81.7289C-59.8052 93.1028 -45.3138 100.849 -29.5376 103.987C-13.7614 107.125 2.59107 105.514 17.4523 99.3586C32.3129 93.2029 45.015 82.7789 53.9517 69.4045C62.8879 56.03 67.6581 40.3059 67.6581 24.2207V-57.1084Z" fill="#34A853"/>
<path d="M144.219 -49.2686C158.754 -49.2686 172.962 -44.9585 185.048 -36.8836C197.133 -28.8086 206.553 -17.3311 212.115 -3.90285C217.677 9.526 219.132 24.3019 216.297 38.5576C213.461 52.8128 206.462 65.9075 196.184 76.185C185.907 86.4631 172.812 93.4622 158.556 96.2976C144.301 99.1331 129.524 97.6779 116.096 92.1157C102.668 86.5535 91.1904 77.1343 83.1155 65.0491C75.0399 52.9639 70.7298 38.7551 70.7298 24.2207V-49.2686H144.219ZM144.219 -57.1084H62.8906V24.2207C62.8906 40.3059 67.6603 56.03 76.597 69.4045C85.5332 82.7789 98.2353 93.2029 113.096 99.3586C127.957 105.514 144.31 107.125 160.086 103.987C175.862 100.849 190.353 93.1028 201.727 81.7289C213.101 70.355 220.847 55.8635 223.985 40.0873C227.124 24.3105 225.513 7.95805 219.358 -6.90256C213.202 -21.7637 202.777 -34.4653 189.403 -43.402C176.028 -52.3387 160.305 -57.1084 144.219 -57.1084Z" fill="#34A853"/>
<path d="M380.678 -49.2686V24.2207C380.678 38.7545 376.368 52.9622 368.294 65.0474C360.219 77.1321 348.742 86.5518 335.315 92.114C321.888 97.6768 307.112 99.1331 292.857 96.2988C278.602 93.4645 265.507 86.4671 255.229 76.1907C244.951 65.9149 237.95 52.8214 235.113 38.5674C232.276 24.3128 233.729 9.53686 239.289 -3.89199C244.849 -17.3203 254.265 -28.7989 266.348 -36.8761C278.431 -44.9528 292.638 -49.2658 307.173 -49.2686H380.662M388.501 -57.1084H307.173C291.087 -57.1084 275.363 -52.3387 261.988 -43.402C248.614 -34.4653 238.19 -21.7637 232.034 -6.90256C225.879 7.95805 224.268 24.3105 227.407 40.0873C230.544 55.8635 238.29 70.355 249.665 81.7289C261.039 93.1028 275.53 100.849 291.306 103.987C307.082 107.125 323.435 105.514 338.296 99.3586C353.157 93.2029 365.859 82.7789 374.795 69.4045C383.732 56.03 388.501 40.3059 388.501 24.2207V-57.1084Z" fill="#34A853"/>
<path d="M465.083 -49.2686C479.619 -49.2686 493.828 -44.9585 505.914 -36.8836C517.994 -28.8086 527.419 -17.3311 532.981 -3.90285C538.543 9.526 539.997 24.3019 537.158 38.5576C534.326 52.8128 527.327 65.9075 517.05 76.185C506.772 86.4631 493.673 93.4622 479.419 96.2976C465.164 99.1331 450.388 97.6779 436.959 92.1157C423.531 86.5535 412.054 77.1343 403.979 65.0491C395.904 52.9639 391.594 38.7551 391.594 24.2207V-49.2686H465.083ZM465.083 -57.1084H383.754V24.2207C383.754 40.3059 388.524 56.03 397.46 69.4045C406.397 82.7789 419.099 93.2029 433.96 99.3586C448.82 105.514 465.173 107.125 480.947 103.987C496.723 100.849 511.218 93.1028 522.589 81.7289C533.965 70.355 541.713 55.8635 544.849 40.0873C547.985 24.3105 546.377 7.95805 540.22 -6.90256C534.068 -21.7637 523.642 -34.4653 510.268 -43.402C496.895 -52.3387 481.17 -57.1084 465.083 -57.1084Z" fill="#34A853"/>
<path d="M701.541 -49.2686V24.2207C701.541 38.7551 697.232 52.9639 689.158 65.0491C681.083 77.1343 669.604 86.5535 656.179 92.1157C642.749 97.6779 627.973 99.1331 613.719 96.2976C599.464 93.4622 586.365 86.4631 576.088 76.185C565.81 65.9075 558.812 52.8128 555.979 38.5576C553.141 24.3019 554.594 9.526 560.157 -3.90285C565.719 -17.3311 575.138 -28.8086 587.224 -36.8836C599.31 -44.9585 613.518 -49.2686 628.053 -49.2686H701.541ZM709.381 -57.1084H628.053C611.968 -57.1084 596.242 -52.3387 582.869 -43.402C569.496 -34.4653 559.069 -21.7637 552.918 -6.90256C546.76 7.95805 545.152 24.3105 548.288 40.0873C551.424 55.8635 559.172 70.355 570.549 81.7289C581.919 93.1028 596.414 100.849 612.191 103.987C627.962 107.125 644.317 105.514 659.178 99.3586C674.039 93.2029 686.743 82.7789 695.676 69.4045C704.614 56.03 709.381 40.3059 709.381 24.2207V-57.1084Z" fill="#34A853"/>
<path d="M785.946 -49.2686C800.481 -49.2686 814.69 -44.9585 826.776 -36.8836C838.856 -28.8086 848.281 -17.3311 853.843 -3.90285C859.405 9.526 860.859 24.3019 858.021 38.5576C855.188 52.8128 848.189 65.9075 837.912 76.185C827.634 86.4631 814.536 93.4622 800.281 96.2976C786.026 99.1331 771.251 97.6779 757.821 92.1157C744.396 86.5535 732.917 77.1343 724.842 65.0491C716.768 52.9639 712.453 38.7551 712.453 24.2207V-49.2686H785.946ZM785.946 -57.1084H704.613V24.2207C704.613 40.3059 709.386 56.03 718.324 69.4045C727.257 82.7789 739.961 93.2029 754.822 99.3586C769.683 105.514 786.038 107.125 801.809 103.987C817.586 100.849 832.081 93.1028 843.451 81.7289C854.827 70.355 862.576 55.8635 865.711 40.0873C868.847 24.3105 867.239 7.95805 861.082 -6.90256C854.93 -21.7637 844.504 -34.4653 831.131 -43.402C817.752 -52.3387 802.032 -57.1084 785.946 -57.1084Z" fill="#34A853"/>
<path d="M1022.4 -49.2686V24.2207C1022.4 38.7551 1018.1 52.9639 1010.02 65.0491C1001.95 77.1343 990.467 86.5535 977.043 92.1157C963.612 97.6779 948.837 99.1331 934.582 96.2976C920.327 93.4622 907.229 86.4631 896.951 76.185C886.674 65.9075 879.675 52.8128 876.843 38.5576C874.004 24.3019 875.458 9.526 881.02 -3.90285C886.582 -17.3311 896.001 -28.8086 908.087 -36.8836C920.173 -44.9585 934.382 -49.2686 948.917 -49.2686H1022.4ZM1030.24 -57.1084H948.917C932.831 -57.1084 917.106 -52.3387 903.732 -43.402C890.359 -34.4653 879.933 -21.7637 873.781 -6.90256C867.624 7.95805 866.016 24.3105 869.152 40.0873C872.288 55.8635 880.036 70.355 891.412 81.7289C902.782 93.1028 917.277 100.849 933.048 103.987C948.825 107.125 965.18 105.514 980.041 99.3586C994.902 93.2029 1007.61 82.7789 1016.54 69.4045C1025.48 56.03 1030.24 40.3059 1030.24 24.2207V-57.1084Z" fill="#34A853"/>
<path d="M1106.83 -49.2686C1121.36 -49.2686 1135.56 -44.9585 1147.65 -36.8836C1159.74 -28.8086 1169.16 -17.3311 1174.72 -3.90285C1180.28 9.526 1181.74 24.3019 1178.9 38.5576C1176.07 52.8128 1169.06 65.9075 1158.79 76.185C1148.51 86.4631 1135.42 93.4622 1121.16 96.2976C1106.91 99.1331 1092.13 97.6779 1078.7 92.1157C1065.27 86.5535 1053.8 77.1343 1045.72 65.0491C1037.64 52.9639 1033.33 38.7551 1033.33 24.2207V-49.2686H1106.83ZM1106.83 -57.1084H1025.48V24.2207C1025.48 40.3053 1030.25 56.0288 1039.18 69.4027C1048.12 82.7767 1060.82 93.2012 1075.68 99.3569C1090.54 105.513 1106.9 107.125 1122.67 103.988C1138.44 100.851 1152.94 93.1068 1164.31 81.734C1175.68 70.3618 1183.43 55.872 1186.57 40.0964C1189.71 24.3214 1188.1 7.96948 1181.95 -6.8917C1175.8 -21.7529 1165.38 -34.4561 1152.01 -43.3946C1138.63 -52.333 1122.91 -57.1055 1106.83 -57.1084Z" fill="#34A853"/>
<path d="M1343.27 -49.2686V24.2207C1343.27 38.7551 1338.96 52.9639 1330.88 65.0491C1322.81 77.1343 1311.33 86.5535 1297.9 92.1157C1284.47 97.6779 1269.7 99.1331 1255.44 96.2976C1241.18 93.4622 1228.09 86.4631 1217.81 76.185C1207.54 65.9075 1200.54 52.8128 1197.7 38.5576C1194.87 24.3019 1196.32 9.526 1201.88 -3.90285C1207.44 -17.3311 1216.86 -28.8086 1228.95 -36.8836C1241.03 -44.9585 1255.24 -49.2686 1269.78 -49.2686H1343.27ZM1351.11 -57.1084H1269.78C1253.69 -57.1084 1237.97 -52.3387 1224.59 -43.402C1211.22 -34.4653 1200.79 -21.7637 1194.64 -6.90256C1188.49 7.95805 1186.87 24.3105 1190.01 40.0873C1193.15 55.8635 1200.9 70.355 1212.27 81.7289C1223.64 93.1028 1238.13 100.849 1253.91 103.987C1269.69 107.125 1286.04 105.514 1300.9 99.3586C1315.76 93.2029 1328.46 82.7789 1337.4 69.4045C1346.34 56.03 1351.11 40.3059 1351.11 24.2207V-57.1084Z" fill="#34A853"/>
<path d="M1427.67 -49.2686C1442.21 -49.2686 1456.42 -44.9585 1468.5 -36.8836C1480.58 -28.8086 1490 -17.3311 1495.56 -3.90285C1501.13 9.526 1502.59 24.3019 1499.75 38.5576C1496.91 52.8128 1489.92 65.9075 1479.64 76.185C1469.36 86.4631 1456.26 93.4622 1442.01 96.2976C1427.75 99.1331 1412.98 97.6779 1399.55 92.1157C1386.12 86.5535 1374.64 77.1343 1366.57 65.0491C1358.49 52.9639 1354.18 38.7551 1354.18 24.2207V-49.2686H1427.67ZM1427.67 -57.1084H1346.34V24.2207C1346.34 40.3059 1351.11 56.03 1360.05 69.4045C1368.98 82.7789 1381.69 93.2029 1396.55 99.3586C1411.41 105.514 1427.76 107.125 1443.54 103.987C1459.31 100.849 1473.81 93.1028 1485.18 81.7289C1496.55 70.355 1504.3 55.8635 1507.44 40.0873C1510.57 24.3105 1508.97 7.95805 1502.81 -6.90256C1496.65 -21.7637 1486.23 -34.4653 1472.86 -43.402C1459.48 -52.3387 1443.76 -57.1084 1427.67 -57.1084Z" fill="#34A853"/>
<path d="M-13.671 113.702C5.80937 113.726 24.4846 121.475 38.2608 135.248C52.037 149.021 59.7891 167.695 59.8183 187.175V260.664H-13.671C-33.1616 260.664 -51.8539 252.922 -65.6358 239.14C-79.4177 225.358 -87.1603 206.666 -87.1603 187.175C-87.1603 167.685 -79.4177 148.993 -65.6358 135.211C-51.8539 121.429 -33.1616 113.686 -13.671 113.686M-13.671 105.847C-35.2411 105.847 -55.9272 114.415 -71.1793 129.667C-86.4314 144.919 -95 165.606 -95 187.175C-95 208.745 -86.4314 229.431 -71.1793 244.683C-55.9272 259.936 -35.2411 268.504 -13.671 268.504H67.6581V187.175C67.6581 176.495 65.5539 165.92 61.467 156.052C57.38 146.185 51.3892 137.219 43.8373 129.667C36.2848 122.115 27.3195 116.124 17.4523 112.037C7.58505 107.95 -2.9906 105.847 -13.671 105.847Z" fill="#34A853"/>
<path d="M144.219 113.702C163.71 113.702 182.402 121.444 196.184 135.226C209.966 149.008 217.708 167.701 217.708 187.191C217.708 206.682 209.966 225.374 196.184 239.156C182.402 252.937 163.71 260.68 144.219 260.68H70.7298V187.175C70.755 167.693 78.5054 149.014 92.2822 135.238C106.058 121.462 124.736 113.711 144.219 113.686M144.219 105.847C122.65 105.847 101.963 114.415 86.7109 129.667C71.4588 144.919 62.8906 165.606 62.8906 187.175V268.504H144.219C165.789 268.504 186.475 259.936 201.727 244.683C216.979 229.431 225.548 208.745 225.548 187.175C225.548 165.606 216.979 144.919 201.727 129.667C186.475 114.415 165.789 105.847 144.219 105.847Z" fill="#34A853"/>
<path d="M59.8183 271.594V345.083C59.8183 359.619 55.5082 373.828 47.4333 385.914C39.3578 397.994 27.8803 407.419 14.452 412.981C1.0237 418.543 -13.7528 419.997 -28.008 417.158C-42.2636 414.326 -55.3581 407.327 -65.6358 397.05C-75.9134 386.772 -82.9126 373.673 -85.7482 359.419C-88.5838 345.164 -87.1284 330.388 -81.5662 316.959C-76.004 303.531 -66.5847 292.054 -54.4995 283.979C-42.4143 275.904 -28.206 271.594 -13.671 271.594H59.8183ZM67.6581 263.754H-13.671C-29.7562 263.754 -45.4805 268.524 -58.8549 277.46C-72.2294 286.397 -82.6535 299.099 -88.8092 313.96C-94.9648 328.82 -96.5753 345.173 -93.4373 360.947C-90.2992 376.723 -82.5533 391.218 -71.1793 402.589C-59.8052 413.965 -45.3138 421.713 -29.5376 424.849C-13.7614 427.985 2.59107 426.377 17.4523 420.22C32.3129 414.068 45.015 403.642 53.9517 390.268C62.8879 376.895 67.6581 361.17 67.6581 345.083V263.754Z" fill="#34A853"/>
<path d="M144.219 271.594C158.754 271.594 172.962 275.904 185.048 283.979C197.133 292.054 206.553 303.531 212.115 316.959C217.677 330.388 219.132 345.164 216.297 359.419C213.461 373.673 206.462 386.772 196.184 397.05C185.907 407.327 172.812 414.326 158.556 417.158C144.301 419.997 129.524 418.543 116.096 412.981C102.668 407.419 91.1904 397.994 83.1155 385.914C75.0399 373.828 70.7298 359.619 70.7298 345.083V271.594H144.219ZM144.219 263.754H62.8906V345.083C62.8906 361.17 67.6603 376.895 76.597 390.268C85.5332 403.642 98.2353 414.068 113.096 420.22C127.957 426.377 144.31 427.985 160.086 424.849C175.862 421.713 190.353 413.965 201.727 402.589C213.101 391.218 220.847 376.723 223.985 360.947C227.124 345.173 225.513 328.82 219.358 313.96C213.202 299.099 202.777 286.397 189.403 277.46C176.028 268.524 160.305 263.754 144.219 263.754Z" fill="#34A853"/>
<path d="M307.176 113.702C326.659 113.722 345.339 121.469 359.118 135.243C372.898 149.016 380.652 167.693 380.681 187.175V260.664H307.176C287.686 260.664 268.994 252.922 255.212 239.14C241.43 225.358 233.687 206.666 233.687 187.175C233.687 167.685 241.43 148.993 255.212 135.211C268.994 121.429 287.686 113.686 307.176 113.686M307.176 105.847C285.607 105.847 264.92 114.415 249.668 129.667C234.416 144.919 225.848 165.606 225.848 187.175C225.848 208.745 234.416 229.431 249.668 244.683C264.92 259.936 285.607 268.504 307.176 268.504H388.505V187.175C388.501 165.608 379.931 144.926 364.679 129.677C349.427 114.429 328.743 105.862 307.176 105.862V105.847Z" fill="#34A853"/>
<path d="M465.083 113.702C484.575 113.702 503.264 121.444 517.05 135.226C530.829 149.008 538.572 167.701 538.572 187.191C538.572 206.682 530.829 225.374 517.05 239.156C503.264 252.937 484.575 260.68 465.083 260.68H391.594V187.175C391.618 167.693 399.369 149.014 413.146 135.238C426.922 121.462 445.6 113.711 465.083 113.686M465.083 105.847C443.513 105.847 422.827 114.415 407.575 129.667C392.323 144.919 383.754 165.606 383.754 187.175V268.504H465.083C486.652 268.504 507.339 259.936 522.589 244.683C537.845 229.431 546.411 208.745 546.411 187.175C546.411 165.606 537.845 144.919 522.589 129.667C507.339 114.415 486.652 105.847 465.083 105.847Z" fill="#34A853"/>
<path d="M380.678 271.594V345.083C380.678 359.619 376.368 373.822 368.294 385.908C360.219 397.994 348.742 407.413 335.315 412.975C321.888 418.537 307.112 419.997 292.857 417.164C278.602 414.326 265.507 407.327 255.229 397.055C244.951 386.778 237.95 373.685 235.113 359.43C232.276 345.175 233.729 330.399 239.289 316.97C244.849 303.542 254.265 292.063 266.348 283.986C278.431 275.91 292.638 271.597 307.173 271.594H380.662M388.501 263.754H307.173C291.087 263.754 275.363 268.524 261.988 277.46C248.614 286.397 238.19 299.099 232.034 313.96C225.879 328.82 224.268 345.173 227.407 360.947C230.544 376.723 238.29 391.218 249.665 402.589C261.039 413.965 275.53 421.713 291.306 424.849C307.082 427.985 323.435 426.377 338.296 420.22C353.157 414.068 365.859 403.642 374.795 390.268C383.732 376.895 388.501 361.17 388.501 345.083V263.754Z" fill="#34A853"/>
<path d="M465.083 271.594C479.619 271.594 493.828 275.904 505.914 283.979C517.994 292.054 527.419 303.531 532.981 316.959C538.543 330.388 539.997 345.164 537.158 359.419C534.326 373.673 527.327 386.772 517.05 397.05C506.772 407.327 493.673 414.326 479.419 417.158C465.164 419.997 450.388 418.543 436.959 412.981C423.531 407.419 412.054 397.994 403.979 385.914C395.904 373.828 391.594 359.619 391.594 345.083V271.594H465.083ZM465.083 263.754H383.754V345.083C383.754 361.17 388.524 376.895 397.46 390.268C406.397 403.642 419.099 414.068 433.96 420.22C448.82 426.377 465.173 427.985 480.947 424.849C496.723 421.713 511.218 413.965 522.589 402.589C533.965 391.218 541.713 376.723 544.849 360.947C547.985 345.173 546.377 328.82 540.22 313.96C534.068 299.099 523.642 286.397 510.268 277.46C496.895 268.524 481.17 263.754 465.083 263.754Z" fill="#34A853"/>
<path d="M628.054 113.702C647.533 113.726 666.211 121.475 679.985 135.248C693.765 149.021 701.513 167.695 701.541 187.175V260.664H628.054C608.563 260.664 589.874 252.922 576.088 239.14C562.309 225.358 554.566 206.666 554.566 187.175C554.566 167.685 562.309 148.993 576.088 135.211C589.874 121.429 608.563 113.686 628.054 113.686M628.054 105.847C606.486 105.847 585.799 114.415 570.549 129.667C555.293 144.919 546.727 165.606 546.727 187.175C546.727 208.745 555.293 229.431 570.549 244.683C585.799 259.936 606.486 268.504 628.054 268.504H709.381V187.175C709.381 165.606 700.815 144.919 685.564 129.667C670.308 114.415 649.627 105.847 628.054 105.847Z" fill="#34A853"/>
<path d="M785.946 113.702C805.437 113.702 824.126 121.444 837.912 135.226C851.691 149.008 859.434 167.701 859.434 187.191C859.434 206.682 851.691 225.374 837.912 239.156C824.126 252.937 805.437 260.68 785.946 260.68H712.453V187.175C712.482 167.693 720.23 149.014 734.009 135.238C747.783 121.462 766.461 113.711 785.946 113.686M785.946 105.847C764.373 105.847 743.686 114.415 728.436 129.667C713.186 144.919 704.613 165.606 704.613 187.175V268.504H785.946C807.514 268.504 828.201 259.936 843.451 244.683C858.707 229.431 867.274 208.745 867.274 187.175C867.274 165.606 858.707 144.919 843.451 129.667C828.201 114.415 807.514 105.847 785.946 105.847Z" fill="#34A853"/>
<path d="M701.541 271.594V345.083C701.541 359.619 697.232 373.828 689.158 385.914C681.083 397.994 669.604 407.419 656.179 412.981C642.749 418.543 627.973 419.997 613.719 417.158C599.464 414.326 586.365 407.327 576.088 397.05C565.81 386.772 558.812 373.673 555.979 359.419C553.141 345.164 554.594 330.388 560.157 316.959C565.719 303.531 575.138 292.054 587.224 283.979C599.31 275.904 613.518 271.594 628.053 271.594H701.541ZM709.381 263.754H628.053C611.968 263.754 596.242 268.524 582.869 277.46C569.496 286.397 559.069 299.099 552.918 313.96C546.76 328.82 545.152 345.173 548.288 360.947C551.424 376.723 559.172 391.218 570.549 402.589C581.919 413.965 596.414 421.713 612.191 424.849C627.962 427.985 644.317 426.377 659.178 420.22C674.039 414.068 686.743 403.642 695.676 390.268C704.614 376.895 709.381 361.17 709.381 345.083V263.754Z" fill="#34A853"/>
<path d="M785.946 271.594C800.481 271.594 814.69 275.904 826.776 283.979C838.856 292.054 848.281 303.531 853.843 316.959C859.405 330.388 860.859 345.164 858.021 359.419C855.188 373.673 848.189 386.772 837.912 397.05C827.634 407.327 814.536 414.326 800.281 417.158C786.026 419.997 771.251 418.543 757.821 412.981C744.396 407.419 732.917 397.994 724.842 385.914C716.768 373.828 712.453 359.619 712.453 345.083V271.594H785.946ZM785.946 263.754H704.613V345.083C704.613 361.17 709.386 376.895 718.324 390.268C727.257 403.642 739.961 414.068 754.822 420.22C769.683 426.377 786.038 427.985 801.809 424.849C817.586 421.713 832.081 413.965 843.451 402.589C854.827 391.218 862.576 376.723 865.711 360.947C868.847 345.173 867.239 328.82 861.082 313.96C854.93 299.099 844.504 286.397 831.131 277.46C817.752 268.524 802.032 263.754 785.946 263.754Z" fill="#34A853"/>
<path d="M948.917 113.702C968.396 113.726 987.074 121.475 1000.85 135.248C1014.63 149.021 1022.38 167.695 1022.4 187.175V260.664H948.917C929.427 260.664 910.737 252.922 896.952 239.14C883.172 225.358 875.43 206.666 875.43 187.175C875.43 167.685 883.172 148.993 896.952 135.211C910.737 121.429 929.427 113.686 948.917 113.686M948.917 105.847C927.349 105.847 906.663 114.415 891.412 129.667C876.156 144.919 867.59 165.606 867.59 187.175C867.59 208.745 876.156 229.431 891.412 244.683C906.663 259.936 927.349 268.504 948.917 268.504H1030.24V187.175C1030.24 165.606 1021.68 144.919 1006.43 129.667C991.172 114.415 970.485 105.847 948.917 105.847Z" fill="#34A853"/>
<path d="M1106.83 113.702C1126.31 113.702 1145.01 121.444 1158.79 135.226C1172.57 149.008 1180.31 167.701 1180.31 187.191C1180.31 206.682 1172.57 225.374 1158.79 239.156C1145.01 252.937 1126.31 260.68 1106.83 260.68H1033.32V187.175C1033.35 167.693 1041.1 149.016 1054.88 135.243C1068.66 121.469 1087.34 113.722 1106.83 113.702ZM1106.83 105.862C1096.14 105.86 1085.57 107.962 1075.7 112.047C1065.83 116.132 1056.86 122.121 1049.31 129.671C1041.76 137.222 1035.77 146.187 1031.67 156.053C1027.59 165.92 1025.48 176.495 1025.48 187.175V268.504H1106.83C1128.39 268.504 1149.08 259.936 1164.33 244.683C1179.58 229.431 1188.15 208.745 1188.15 187.175C1188.15 165.606 1179.58 144.919 1164.33 129.667C1149.08 114.415 1128.39 105.847 1106.83 105.847V105.862Z" fill="#34A853"/>
<path d="M1022.4 271.594V345.083C1022.4 359.619 1018.1 373.828 1010.02 385.914C1001.95 397.994 990.467 407.419 977.043 412.981C963.612 418.543 948.837 419.997 934.582 417.158C920.327 414.326 907.229 407.327 896.951 397.05C886.674 386.772 879.675 373.673 876.843 359.419C874.004 345.164 875.458 330.388 881.02 316.959C886.582 303.531 896.001 292.054 908.087 283.979C920.173 275.904 934.382 271.594 948.917 271.594H1022.4ZM1030.24 263.754H948.917C932.831 263.754 917.106 268.524 903.732 277.46C890.359 286.397 879.933 299.099 873.781 313.96C867.624 328.82 866.016 345.173 869.152 360.947C872.288 376.723 880.036 391.218 891.412 402.589C902.782 413.965 917.277 421.713 933.048 424.849C948.825 427.985 965.18 426.377 980.041 420.22C994.902 414.068 1007.61 403.642 1016.54 390.268C1025.48 376.895 1030.24 361.17 1030.24 345.083V263.754Z" fill="#34A853"/>
<path d="M1106.83 271.594C1121.36 271.594 1135.56 275.904 1147.65 283.979C1159.74 292.054 1169.16 303.531 1174.72 316.959C1180.28 330.388 1181.74 345.164 1178.9 359.419C1176.07 373.673 1169.06 386.772 1158.79 397.05C1148.51 407.327 1135.42 414.326 1121.16 417.158C1106.91 419.997 1092.13 418.543 1078.7 412.981C1065.27 407.419 1053.8 397.994 1045.72 385.914C1037.64 373.828 1033.33 359.619 1033.33 345.083V271.594H1106.83ZM1106.83 263.754H1025.48V345.083C1025.48 361.17 1030.25 376.889 1039.18 390.263C1048.12 403.642 1060.82 414.062 1075.68 420.22C1090.54 426.377 1106.9 427.985 1122.67 424.849C1138.44 421.713 1152.94 413.971 1164.31 402.595C1175.68 391.224 1183.43 376.735 1186.57 360.958C1189.71 345.184 1188.1 328.832 1181.95 313.971C1175.8 299.109 1165.38 286.406 1152.01 277.468C1138.63 268.529 1122.91 263.757 1106.83 263.754Z" fill="#34A853"/>
<path d="M1269.78 113.702C1289.26 113.726 1307.94 121.475 1321.71 135.248C1335.49 149.021 1343.24 167.695 1343.27 187.175V260.664H1269.78C1250.29 260.664 1231.59 252.922 1217.81 239.14C1204.04 225.358 1196.29 206.666 1196.29 187.175C1196.29 167.685 1204.04 148.993 1217.81 135.211C1231.59 121.429 1250.29 113.686 1269.78 113.686M1269.78 105.847C1248.21 105.847 1227.53 114.415 1212.27 129.667C1197.02 144.919 1188.45 165.606 1188.45 187.175C1188.45 208.745 1197.02 229.431 1212.27 244.683C1227.53 259.936 1248.21 268.504 1269.78 268.504H1351.11V187.175C1351.11 165.606 1342.54 144.919 1327.29 129.667C1312.03 114.415 1291.35 105.847 1269.78 105.847Z" fill="#34A853"/>
<path d="M1427.67 113.702C1447.16 113.702 1465.85 121.444 1479.64 135.226C1493.42 149.008 1501.16 167.701 1501.16 187.191C1501.16 206.682 1493.42 225.374 1479.64 239.156C1465.85 252.937 1447.16 260.68 1427.67 260.68H1354.18V187.175C1354.21 167.693 1361.96 149.014 1375.74 135.238C1389.51 121.462 1408.19 113.711 1427.67 113.686M1427.67 105.847C1406.1 105.847 1385.41 114.415 1370.16 129.667C1354.91 144.919 1346.34 165.606 1346.34 187.175V268.504H1427.67C1449.24 268.504 1469.93 259.936 1485.18 244.683C1500.43 229.431 1509 208.745 1509 187.175C1509 165.606 1500.43 144.919 1485.18 129.667C1469.93 114.415 1449.24 105.847 1427.67 105.847Z" fill="#34A853"/>
<path d="M1343.27 271.594V345.083C1343.27 359.619 1338.96 373.828 1330.88 385.914C1322.81 397.994 1311.33 407.419 1297.9 412.981C1284.47 418.543 1269.7 419.997 1255.44 417.158C1241.18 414.326 1228.09 407.327 1217.81 397.05C1207.54 386.772 1200.54 373.673 1197.7 359.419C1194.87 345.164 1196.32 330.388 1201.88 316.959C1207.44 303.531 1216.86 292.054 1228.95 283.979C1241.03 275.904 1255.24 271.594 1269.78 271.594H1343.27ZM1351.11 263.754H1269.78C1253.69 263.754 1237.97 268.524 1224.59 277.46C1211.22 286.397 1200.79 299.099 1194.64 313.96C1188.49 328.82 1186.87 345.173 1190.01 360.947C1193.15 376.723 1200.9 391.218 1212.27 402.589C1223.64 413.965 1238.13 421.713 1253.91 424.849C1269.69 427.985 1286.04 426.377 1300.9 420.22C1315.76 414.068 1328.46 403.642 1337.4 390.268C1346.34 376.895 1351.11 361.17 1351.11 345.083V263.754Z" fill="#34A853"/>
<path d="M1427.67 271.594C1442.21 271.594 1456.42 275.904 1468.5 283.979C1480.58 292.054 1490 303.531 1495.56 316.959C1501.13 330.388 1502.59 345.164 1499.75 359.419C1496.91 373.673 1489.92 386.772 1479.64 397.05C1469.36 407.327 1456.26 414.326 1442.01 417.158C1427.75 419.997 1412.98 418.543 1399.55 412.981C1386.12 407.419 1374.64 397.994 1366.57 385.914C1358.49 373.828 1354.18 359.619 1354.18 345.083V271.594H1427.67ZM1427.67 263.754H1346.34V345.083C1346.34 361.17 1351.11 376.895 1360.05 390.268C1368.98 403.642 1381.69 414.068 1396.55 420.22C1411.41 426.377 1427.76 427.985 1443.54 424.849C1459.31 421.713 1473.81 413.965 1485.18 402.589C1496.55 391.218 1504.3 376.723 1507.44 360.947C1510.57 345.173 1508.97 328.82 1502.81 313.96C1496.65 299.099 1486.23 286.397 1472.86 277.46C1459.48 268.524 1443.76 263.754 1427.67 263.754Z" fill="#34A853"/>
<path d="M-13.671 434.565C5.81166 434.588 24.4897 442.342 38.2659 456.116C52.0427 469.896 59.7932 488.574 59.8183 508.053V581.546H-13.671C-33.1616 581.546 -51.8539 573.804 -65.6358 560.018C-79.4177 546.239 -87.1603 527.544 -87.1603 508.053C-87.1603 488.562 -79.4177 469.873 -65.6358 456.087C-51.8539 442.308 -33.1616 434.565 -13.671 434.565ZM-13.671 426.726C-35.2411 426.726 -55.9272 435.292 -71.1793 450.548C-86.4314 465.798 -95 486.485 -95 508.053C-95 529.627 -86.4314 550.313 -71.1793 565.563C-55.9272 580.814 -35.2411 589.386 -13.671 589.386H67.6581V508.053C67.6581 497.375 65.5539 486.8 61.467 476.929C57.38 467.063 51.3892 458.096 43.8373 450.548C36.2848 442.994 27.3195 437.003 17.4523 432.917C7.58505 428.831 -2.9906 426.726 -13.671 426.726Z" fill="#34A853"/>
<path d="M144.219 434.565C163.71 434.565 182.402 442.308 196.184 456.087C209.966 469.873 217.708 488.562 217.708 508.053C217.708 527.544 209.966 546.239 196.184 560.018C182.402 573.804 163.71 581.546 144.219 581.546H70.7298V508.053C70.755 488.574 78.5054 469.896 92.2822 456.116C106.058 442.342 124.736 434.588 144.219 434.565ZM144.219 426.726C122.65 426.726 101.963 435.292 86.7109 450.548C71.4588 465.798 62.8906 486.485 62.8906 508.053V589.386H144.219C165.789 589.386 186.475 580.814 201.727 565.563C216.979 550.313 225.548 529.627 225.548 508.053C225.548 486.485 216.979 465.798 201.727 450.548C186.475 435.292 165.789 426.726 144.219 426.726Z" fill="#34A853"/>
<path d="M59.8183 592.459V665.946C59.8183 680.481 55.5082 694.69 47.4333 706.776C39.3578 718.862 27.8803 728.281 14.452 733.843C1.0237 739.405 -13.7528 740.859 -28.008 738.026C-42.2636 735.188 -55.3581 728.189 -65.6358 717.912C-75.9134 707.634 -82.9126 694.542 -85.7482 680.281C-88.5838 666.027 -87.1284 651.251 -81.5662 637.821C-76.004 624.396 -66.5847 612.917 -54.4995 604.842C-42.4143 596.768 -28.206 592.459 -13.671 592.459H59.8183ZM67.6581 584.619H-13.671C-29.7562 584.619 -45.4805 589.386 -58.8549 598.324C-72.2294 607.263 -82.6535 619.961 -88.8092 634.822C-94.9648 649.683 -96.5753 666.038 -93.4373 681.815C-90.2992 697.592 -82.5533 712.081 -71.1793 723.457C-59.8052 734.827 -45.3138 742.576 -29.5376 745.712C-13.7614 748.853 2.59107 747.239 17.4523 741.082C32.3129 734.931 45.015 724.504 53.9517 711.131C62.8879 697.758 67.6581 682.032 67.6581 665.946V584.619Z" fill="#34A853"/>
<path d="M144.219 592.459C158.754 592.459 172.962 596.768 185.048 604.842C197.133 612.917 206.553 624.396 212.115 637.821C217.677 651.251 219.132 666.027 216.297 680.281C213.461 694.542 206.462 707.634 196.184 717.912C185.907 728.189 172.812 735.188 158.556 738.026C144.301 740.859 129.524 739.405 116.096 733.843C102.668 728.281 91.1904 718.862 83.1155 706.776C75.0399 694.69 70.7298 680.481 70.7298 665.946V592.459H144.219ZM144.219 584.619H62.8906V665.946C62.8906 682.032 67.6603 697.758 76.597 711.131C85.5332 724.504 98.2353 734.931 113.096 741.082C127.957 747.239 144.31 748.853 160.086 745.712C175.862 742.576 190.353 734.827 201.727 723.457C213.101 712.081 220.847 697.592 223.985 681.815C227.124 666.038 225.513 649.683 219.358 634.822C213.202 619.961 202.777 607.263 189.403 598.324C176.028 589.386 160.305 584.619 144.219 584.619Z" fill="#34A853"/>
<path d="M307.176 434.565C326.659 434.588 345.337 442.342 359.114 456.116C372.89 469.896 380.641 488.574 380.665 508.053V581.546H307.176C287.686 581.546 268.994 573.804 255.212 560.018C241.43 546.239 233.687 527.544 233.687 508.053C233.687 488.562 241.43 469.873 255.212 456.087C268.994 442.308 287.686 434.565 307.176 434.565ZM307.176 426.726C285.607 426.726 264.92 435.292 249.668 450.548C234.416 465.798 225.848 486.485 225.848 508.053C225.848 529.627 234.416 550.313 249.668 565.563C264.92 580.814 285.607 589.386 307.176 589.386H388.505V508.053C388.505 486.485 379.937 465.798 364.684 450.548C349.432 435.292 328.746 426.726 307.176 426.726Z" fill="#34A853"/>
<path d="M465.083 434.565C484.575 434.565 503.264 442.308 517.05 456.087C530.829 469.873 538.572 488.562 538.572 508.053C538.572 527.544 530.829 546.239 517.05 560.018C503.264 573.804 484.575 581.546 465.083 581.546H391.594V508.053C391.618 488.574 399.369 469.896 413.146 456.116C426.922 442.342 445.6 434.588 465.083 434.565ZM465.083 426.726C443.513 426.726 422.827 435.292 407.575 450.548C392.323 465.798 383.754 486.485 383.754 508.053V589.386H465.083C486.652 589.386 507.339 580.814 522.589 565.563C537.845 550.313 546.411 529.627 546.411 508.053C546.411 486.485 537.845 465.798 522.589 450.548C507.339 435.292 486.652 426.726 465.083 426.726Z" fill="#34A853"/>
<path d="M380.678 592.459V665.946C380.678 680.481 376.368 694.69 368.294 706.77C360.219 718.856 348.742 728.275 335.315 733.838C321.888 739.405 307.112 740.859 292.857 738.026C278.602 735.188 265.507 728.195 255.229 717.918C244.951 707.64 237.95 694.547 235.113 680.293C232.276 666.038 233.729 651.263 239.289 637.832C244.849 624.407 254.265 612.928 266.348 604.848C278.431 596.774 292.638 592.459 307.173 592.459H380.662M388.501 584.619H307.173C291.087 584.619 275.363 589.386 261.988 598.324C248.614 607.263 238.19 619.961 232.034 634.822C225.879 649.683 224.268 666.038 227.407 681.815C230.544 697.592 238.29 712.081 249.665 723.457C261.039 734.827 275.53 742.576 291.306 745.712C307.082 748.853 323.435 747.239 338.296 741.082C353.157 734.931 365.859 724.504 374.795 711.131C383.732 697.758 388.501 682.032 388.501 665.946V584.619Z" fill="#34A853"/>
<path d="M465.083 592.459C479.619 592.459 493.828 596.768 505.914 604.842C517.994 612.917 527.419 624.396 532.981 637.821C538.543 651.251 539.997 666.027 537.158 680.281C534.326 694.542 527.327 707.634 517.05 717.912C506.772 728.189 493.673 735.188 479.419 738.026C465.164 740.859 450.388 739.405 436.959 733.843C423.531 728.281 412.054 718.862 403.979 706.776C395.904 694.69 391.594 680.481 391.594 665.946V592.459H465.083ZM465.083 584.619H383.754V665.946C383.754 682.032 388.524 697.758 397.46 711.131C406.397 724.504 419.099 734.931 433.96 741.082C448.82 747.239 465.173 748.853 480.947 745.712C496.723 742.576 511.218 734.827 522.589 723.457C533.965 712.081 541.713 697.592 544.849 681.815C547.985 666.038 546.377 649.683 540.22 634.822C534.068 619.961 523.642 607.263 510.268 598.324C496.895 589.386 481.17 584.619 465.083 584.619Z" fill="#34A853"/>
<path d="M628.054 434.565C647.539 434.588 666.217 442.342 679.991 456.116C693.77 469.896 701.519 488.574 701.541 508.053V581.546H628.054C608.563 581.546 589.874 573.804 576.088 560.018C562.309 546.239 554.566 527.544 554.566 508.053C554.566 488.562 562.309 469.873 576.088 456.087C589.874 442.308 608.563 434.565 628.054 434.565ZM628.054 426.726C606.486 426.726 585.799 435.292 570.549 450.548C555.293 465.798 546.727 486.485 546.727 508.053C546.727 529.627 555.293 550.313 570.549 565.563C585.799 580.814 606.486 589.386 628.054 589.386H709.381V508.053C709.381 486.485 700.815 465.798 685.564 450.548C670.308 435.292 649.627 426.726 628.054 426.726Z" fill="#34A853"/>
<path d="M785.946 434.565C805.437 434.565 824.126 442.308 837.912 456.087C851.691 469.873 859.434 488.562 859.434 508.053C859.434 527.544 851.691 546.239 837.912 560.018C824.126 573.804 805.437 581.546 785.946 581.546H712.453V508.053C712.482 488.574 720.23 469.896 734.009 456.116C747.783 442.342 766.461 434.588 785.946 434.565ZM785.946 426.726C764.373 426.726 743.686 435.292 728.436 450.548C713.186 465.798 704.613 486.485 704.613 508.053V589.386H785.946C807.514 589.386 828.201 580.814 843.451 565.563C858.707 550.313 867.274 529.627 867.274 508.053C867.274 486.485 858.707 465.798 843.451 450.548C828.201 435.292 807.514 426.726 785.946 426.726Z" fill="#34A853"/>
<path d="M701.541 592.459V665.946C701.541 680.481 697.232 694.69 689.158 706.776C681.083 718.862 669.604 728.281 656.179 733.843C642.749 739.405 627.973 740.859 613.719 738.026C599.464 735.188 586.365 728.189 576.088 717.912C565.81 707.634 558.812 694.542 555.979 680.281C553.141 666.027 554.594 651.251 560.157 637.821C565.719 624.396 575.138 612.917 587.224 604.842C599.31 596.768 613.518 592.459 628.053 592.459H701.541ZM709.381 584.619H628.053C611.968 584.619 596.242 589.386 582.869 598.324C569.496 607.263 559.069 619.961 552.918 634.822C546.76 649.683 545.152 666.038 548.288 681.815C551.424 697.592 559.172 712.081 570.549 723.457C581.919 734.827 596.414 742.576 612.191 745.712C627.962 748.853 644.317 747.239 659.178 741.082C674.039 734.931 686.743 724.504 695.676 711.131C704.614 697.758 709.381 682.032 709.381 665.946V584.619Z" fill="#34A853"/>
<path d="M785.946 592.459C800.481 592.459 814.69 596.768 826.776 604.842C838.856 612.917 848.281 624.396 853.843 637.821C859.405 651.251 860.859 666.027 858.021 680.281C855.188 694.542 848.189 707.634 837.912 717.912C827.634 728.189 814.536 735.188 800.281 738.026C786.026 740.859 771.251 739.405 757.821 733.843C744.396 728.281 732.917 718.862 724.842 706.776C716.768 694.69 712.453 680.481 712.453 665.946V592.459H785.946ZM785.946 584.619H704.613V665.946C704.613 682.032 709.386 697.758 718.324 711.131C727.257 724.504 739.961 734.931 754.822 741.082C769.683 747.239 786.038 748.853 801.809 745.712C817.586 742.576 832.081 734.827 843.451 723.457C854.827 712.081 862.576 697.592 865.711 681.815C868.847 666.038 867.239 649.683 861.082 634.822C854.93 619.961 844.504 607.263 831.131 598.324C817.752 589.386 802.032 584.619 785.946 584.619Z" fill="#34A853"/>
<path d="M948.917 434.565C968.402 434.588 987.08 442.342 1000.85 456.116C1014.63 469.896 1022.38 488.574 1022.4 508.053V581.546H948.917C929.427 581.546 910.737 573.804 896.952 560.018C883.172 546.239 875.43 527.544 875.43 508.053C875.43 488.562 883.172 469.873 896.952 456.087C910.737 442.308 929.427 434.565 948.917 434.565ZM948.917 426.726C927.349 426.726 906.663 435.292 891.412 450.548C876.156 465.798 867.59 486.485 867.59 508.053C867.59 529.627 876.156 550.313 891.412 565.563C906.663 580.814 927.349 589.386 948.917 589.386H1030.24V508.053C1030.24 486.485 1021.68 465.798 1006.43 450.548C991.172 435.292 970.485 426.726 948.917 426.726Z" fill="#34A853"/>
<path d="M1106.83 434.565C1126.31 434.565 1145.01 442.308 1158.79 456.087C1172.57 469.873 1180.31 488.562 1180.31 508.053C1180.31 527.544 1172.57 546.239 1158.79 560.018C1145.01 573.804 1126.31 581.546 1106.83 581.546H1033.31V508.053C1033.34 488.568 1041.1 469.89 1054.88 456.11C1068.66 442.336 1087.33 434.588 1106.83 434.565ZM1106.83 426.726C1085.25 426.726 1064.57 435.292 1049.31 450.548C1034.06 465.798 1025.49 486.485 1025.49 508.053V589.386H1106.83C1128.39 589.386 1149.08 580.814 1164.33 565.563C1179.58 550.313 1188.15 529.627 1188.15 508.053C1188.15 486.485 1179.58 465.798 1164.33 450.548C1149.08 435.292 1128.39 426.726 1106.83 426.726Z" fill="#34A853"/>
<path d="M1022.4 592.459V665.946C1022.4 680.481 1018.1 694.69 1010.02 706.776C1001.95 718.862 990.467 728.281 977.043 733.843C963.612 739.405 948.837 740.859 934.582 738.026C920.327 735.188 907.229 728.189 896.951 717.912C886.674 707.634 879.675 694.542 876.843 680.281C874.004 666.027 875.458 651.251 881.02 637.821C886.582 624.396 896.001 612.917 908.087 604.842C920.173 596.768 934.382 592.459 948.917 592.459H1022.4ZM1030.24 584.619H948.917C932.831 584.619 917.106 589.386 903.732 598.324C890.359 607.263 879.933 619.961 873.781 634.822C867.624 649.683 866.016 666.038 869.152 681.815C872.288 697.592 880.036 712.081 891.412 723.457C902.782 734.827 917.277 742.576 933.048 745.712C948.825 748.853 965.18 747.239 980.041 741.082C994.902 734.931 1007.61 724.504 1016.54 711.131C1025.48 697.758 1030.24 682.032 1030.24 665.946V584.619Z" fill="#34A853"/>
<path d="M1106.83 592.459C1121.36 592.459 1135.56 596.768 1147.65 604.842C1159.74 612.917 1169.16 624.396 1174.72 637.821C1180.28 651.251 1181.74 666.027 1178.9 680.281C1176.07 694.542 1169.06 707.634 1158.79 717.912C1148.51 728.189 1135.42 735.188 1121.16 738.026C1106.91 740.859 1092.13 739.405 1078.7 733.843C1065.27 728.281 1053.8 718.862 1045.72 706.776C1037.64 694.69 1033.33 680.481 1033.33 665.946V592.459H1106.83ZM1106.83 584.619H1025.48V665.946C1025.48 682.032 1030.25 697.752 1039.18 711.131C1048.12 724.504 1060.82 734.925 1075.68 741.082C1090.54 747.239 1106.9 748.853 1122.67 745.712C1138.44 742.576 1152.94 734.833 1164.31 723.463C1175.68 712.087 1183.43 697.597 1186.57 681.821C1189.71 666.049 1188.1 649.695 1181.95 634.834C1175.8 619.972 1165.38 607.269 1152.01 598.33C1138.63 589.392 1122.91 584.619 1106.83 584.619Z" fill="#34A853"/>
<path d="M1269.78 434.565C1289.27 434.588 1307.94 442.342 1321.72 456.116C1335.49 469.896 1343.25 488.574 1343.27 508.053V581.546H1269.78C1250.29 581.546 1231.59 573.804 1217.81 560.018C1204.04 546.239 1196.29 527.544 1196.29 508.053C1196.29 488.562 1204.04 469.873 1217.81 456.087C1231.59 442.308 1250.29 434.565 1269.78 434.565ZM1269.78 426.726C1248.21 426.726 1227.53 435.292 1212.27 450.548C1197.02 465.798 1188.45 486.485 1188.45 508.053C1188.45 529.627 1197.02 550.313 1212.27 565.563C1227.53 580.814 1248.21 589.386 1269.78 589.386H1351.11V508.053C1351.11 486.485 1342.54 465.798 1327.29 450.548C1312.03 435.292 1291.35 426.726 1269.78 426.726Z" fill="#34A853"/>
<path d="M1427.67 434.565C1447.16 434.565 1465.85 442.308 1479.64 456.087C1493.42 469.873 1501.16 488.562 1501.16 508.053C1501.16 527.544 1493.42 546.239 1479.64 560.018C1465.85 573.804 1447.16 581.546 1427.67 581.546H1354.18V508.053C1354.21 488.574 1361.96 469.896 1375.74 456.116C1389.51 442.342 1408.19 434.588 1427.67 434.565ZM1427.67 426.726C1406.1 426.726 1385.41 435.292 1370.16 450.548C1354.91 465.798 1346.34 486.485 1346.34 508.053V589.386H1427.67C1449.24 589.386 1469.93 580.814 1485.18 565.563C1500.43 550.313 1509 529.627 1509 508.053C1509 486.485 1500.43 465.798 1485.18 450.548C1469.93 435.292 1449.24 426.726 1427.67 426.726Z" fill="#34A853"/>
<path d="M1343.27 592.459V665.946C1343.27 680.481 1338.96 694.69 1330.88 706.776C1322.81 718.862 1311.33 728.281 1297.9 733.843C1284.47 739.405 1269.7 740.859 1255.44 738.026C1241.18 735.188 1228.09 728.189 1217.81 717.912C1207.54 707.634 1200.54 694.542 1197.7 680.281C1194.87 666.027 1196.32 651.251 1201.88 637.821C1207.44 624.396 1216.86 612.917 1228.95 604.842C1241.03 596.768 1255.24 592.459 1269.78 592.459H1343.27ZM1351.11 584.619H1269.78C1253.69 584.619 1237.97 589.386 1224.59 598.324C1211.22 607.263 1200.79 619.961 1194.64 634.822C1188.49 649.683 1186.87 666.038 1190.01 681.815C1193.15 697.592 1200.9 712.081 1212.27 723.457C1223.64 734.827 1238.13 742.576 1253.91 745.712C1269.69 748.853 1286.04 747.239 1300.9 741.082C1315.76 734.931 1328.46 724.504 1337.4 711.131C1346.34 697.758 1351.11 682.032 1351.11 665.946V584.619Z" fill="#34A853"/>
<path d="M1427.67 592.459C1442.21 592.459 1456.42 596.768 1468.5 604.842C1480.58 612.917 1490 624.396 1495.56 637.821C1501.13 651.251 1502.59 666.027 1499.75 680.281C1496.91 694.542 1489.92 707.634 1479.64 717.912C1469.36 728.189 1456.26 735.188 1442.01 738.026C1427.75 740.859 1412.98 739.405 1399.55 733.843C1386.12 728.281 1374.64 718.862 1366.57 706.776C1358.49 694.69 1354.18 680.481 1354.18 665.946V592.459H1427.67ZM1427.67 584.619H1346.34V665.946C1346.34 682.032 1351.11 697.758 1360.05 711.131C1368.98 724.504 1381.69 734.931 1396.55 741.082C1411.41 747.239 1427.76 748.853 1443.54 745.712C1459.31 742.576 1473.81 734.827 1485.18 723.457C1496.55 712.081 1504.3 697.592 1507.44 681.815C1510.57 666.038 1508.97 649.683 1502.81 634.822C1496.65 619.961 1486.23 607.263 1472.86 598.324C1459.48 589.386 1443.76 584.619 1427.67 584.619Z" fill="#34A853"/>
<path d="M-13.671 755.429C5.81166 755.451 24.4897 763.205 38.2659 776.979C52.0427 790.759 59.7932 809.437 59.8183 828.916V902.404H-13.671C-33.1616 902.404 -51.8539 894.661 -65.6358 880.882C-79.4177 867.102 -87.1603 848.407 -87.1603 828.916C-87.1603 809.426 -79.4177 790.736 -65.6358 776.951C-51.8539 763.171 -33.1616 755.429 -13.671 755.429ZM-13.671 747.589C-35.2411 747.589 -55.9272 756.155 -71.1793 771.411C-86.4314 786.662 -95 807.348 -95 828.916C-95 850.484 -86.4314 871.171 -71.1793 886.427C-55.9272 901.677 -35.2411 910.244 -13.671 910.244H67.6581V828.916C67.6535 807.348 59.0836 786.667 43.8327 771.411C28.5812 756.161 7.89749 747.595 -13.671 747.589Z" fill="#34A853"/>
<path d="M144.219 755.429C163.71 755.429 182.402 763.171 196.184 776.951C209.966 790.736 217.708 809.426 217.708 828.916C217.708 848.407 209.966 867.102 196.184 880.882C182.402 894.661 163.71 902.404 144.219 902.404H70.7298V828.916C70.755 809.437 78.5054 790.759 92.2822 776.979C106.058 763.205 124.736 755.451 144.219 755.429ZM144.219 747.589C122.65 747.589 101.963 756.155 86.7109 771.411C71.4588 786.662 62.8906 807.348 62.8906 828.916V910.244H144.219C165.789 910.244 186.475 901.677 201.727 886.427C216.979 871.171 225.548 850.484 225.548 828.916C225.548 807.348 216.979 786.662 201.727 771.411C186.475 756.155 165.789 747.589 144.219 747.589Z" fill="#34A853"/>
<path d="M307.176 755.429C326.659 755.451 345.337 763.205 359.114 776.979C372.89 790.759 380.641 809.437 380.665 828.916V902.404H307.176C287.686 902.404 268.994 894.661 255.212 880.882C241.43 867.102 233.687 848.407 233.687 828.916C233.687 809.426 241.43 790.736 255.212 776.951C268.994 763.171 287.686 755.429 307.176 755.429ZM307.176 747.589C285.607 747.589 264.92 756.155 249.668 771.411C234.416 786.662 225.848 807.348 225.848 828.916C225.848 850.484 234.416 871.171 249.668 886.427C264.92 901.677 285.607 910.244 307.176 910.244H388.505V828.916C388.501 807.348 379.931 786.667 364.68 771.411C349.429 756.161 328.745 747.595 307.176 747.589Z" fill="#34A853"/>
<path d="M465.083 755.429C484.575 755.429 503.264 763.171 517.05 776.951C530.829 790.736 538.572 809.426 538.572 828.916C538.572 848.407 530.829 867.102 517.05 880.882C503.264 894.661 484.575 902.404 465.083 902.404H391.594V828.916C391.618 809.437 399.369 790.759 413.146 776.979C426.922 763.205 445.6 755.451 465.083 755.429ZM465.083 747.589C443.514 747.595 422.83 756.161 407.579 771.411C392.328 786.667 383.758 807.348 383.754 828.916V910.244H465.083C486.652 910.244 507.339 901.677 522.589 886.427C537.845 871.171 546.411 850.484 546.411 828.916C546.411 807.348 537.845 786.662 522.589 771.411C507.339 756.155 486.652 747.589 465.083 747.589Z" fill="#34A853"/>
<path d="M628.054 755.429C647.539 755.451 666.217 763.205 679.991 776.979C693.77 790.759 701.519 809.437 701.541 828.916V902.404H628.054C608.563 902.404 589.874 894.661 576.088 880.882C562.309 867.102 554.566 848.407 554.566 828.916C554.566 809.426 562.309 790.736 576.088 776.951C589.874 763.171 608.563 755.429 628.054 755.429ZM628.054 747.589C606.486 747.589 585.799 756.155 570.549 771.411C555.293 786.662 546.727 807.348 546.727 828.916C546.727 850.484 555.293 871.171 570.549 886.427C585.799 901.677 606.486 910.244 628.054 910.244H709.381V828.916C709.381 807.348 700.809 786.667 685.559 771.411C670.308 756.161 649.622 747.595 628.054 747.589Z" fill="#34A853"/>
<path d="M785.946 755.429C805.437 755.429 824.126 763.171 837.912 776.951C851.691 790.736 859.434 809.426 859.434 828.916C859.434 848.407 851.691 867.102 837.912 880.882C824.126 894.661 805.437 902.404 785.946 902.404H712.453V828.916C712.482 809.437 720.23 790.759 734.009 776.979C747.783 763.205 766.461 755.451 785.946 755.429ZM785.946 747.589C764.378 747.595 743.692 756.161 728.442 771.411C713.191 786.667 704.619 807.348 704.613 828.916V910.244H785.946C807.514 910.244 828.201 901.677 843.451 886.427C858.707 871.171 867.274 850.484 867.274 828.916C867.274 807.348 858.707 786.662 843.451 771.411C828.201 756.155 807.514 747.589 785.946 747.589Z" fill="#34A853"/>
<path d="M948.917 755.429C968.402 755.451 987.08 763.205 1000.85 776.979C1014.63 790.759 1022.38 809.437 1022.4 828.916V902.404H948.917C929.427 902.404 910.737 894.661 896.952 880.882C883.172 867.102 875.43 848.407 875.43 828.916C875.43 809.426 883.172 790.736 896.952 776.951C910.737 763.171 929.427 755.429 948.917 755.429ZM948.917 747.589C927.349 747.589 906.663 756.155 891.412 771.411C876.156 786.662 867.59 807.348 867.59 828.916C867.59 850.484 876.156 871.171 891.412 886.427C906.663 901.677 927.349 910.244 948.917 910.244H1030.24V828.916C1030.24 807.348 1021.67 786.667 1006.42 771.411C991.172 756.161 970.485 747.595 948.917 747.589Z" fill="#34A853"/>
<path d="M1106.83 755.429C1126.31 755.429 1145.01 763.171 1158.79 776.951C1172.57 790.736 1180.31 809.426 1180.31 828.916C1180.31 848.407 1172.57 867.102 1158.79 880.882C1145.01 894.661 1126.31 902.404 1106.83 902.404H1033.31V828.916C1033.34 809.431 1041.1 790.753 1054.88 776.974C1068.66 763.2 1087.33 755.451 1106.83 755.429ZM1106.83 747.589C1085.25 747.595 1064.57 756.161 1049.32 771.411C1034.07 786.667 1025.5 807.348 1025.49 828.916V910.244H1106.83C1128.39 910.244 1149.08 901.677 1164.33 886.427C1179.58 871.171 1188.15 850.484 1188.15 828.916C1188.15 807.348 1179.58 786.662 1164.33 771.411C1149.08 756.155 1128.39 747.589 1106.83 747.589Z" fill="#34A853"/>
<path d="M1269.78 755.429C1289.27 755.451 1307.94 763.205 1321.72 776.979C1335.49 790.759 1343.25 809.437 1343.27 828.916V902.404H1269.78C1250.29 902.404 1231.59 894.661 1217.81 880.882C1204.04 867.102 1196.29 848.407 1196.29 828.916C1196.29 809.426 1204.04 790.736 1217.81 776.951C1231.59 763.171 1250.29 755.429 1269.78 755.429ZM1269.78 747.589C1248.21 747.589 1227.53 756.155 1212.27 771.411C1197.02 786.662 1188.45 807.348 1188.45 828.916C1188.45 850.484 1197.02 871.171 1212.27 886.427C1227.53 901.677 1248.21 910.244 1269.78 910.244H1351.11V828.916C1351.11 807.348 1342.54 786.662 1327.29 771.411C1312.03 756.155 1291.35 747.589 1269.78 747.589Z" fill="#34A853"/>
<path d="M1427.67 755.429C1447.16 755.429 1465.85 763.171 1479.64 776.951C1493.42 790.736 1501.16 809.426 1501.16 828.916C1501.16 848.407 1493.42 867.102 1479.64 880.882C1465.85 894.661 1447.16 902.404 1427.67 902.404H1354.18V828.916C1354.21 809.437 1361.96 790.759 1375.74 776.979C1389.51 763.205 1408.19 755.451 1427.67 755.429ZM1427.67 747.589C1406.1 747.595 1385.42 756.161 1370.17 771.411C1354.92 786.667 1346.35 807.348 1346.34 828.916V910.244H1427.67C1449.24 910.244 1469.93 901.677 1485.18 886.427C1500.43 871.171 1509 850.484 1509 828.916C1509 807.348 1500.43 786.662 1485.18 771.411C1469.93 756.155 1449.24 747.589 1427.67 747.589Z" fill="#34A853"/>
</g>
</g>
<defs>
<clipPath id="clip0_1695_35377">
<rect width="1604" height="1604" fill="white" transform="translate(-95 -215)"/>
</clipPath>
</defs>
</svg>
