<svg width="1440" height="1440" viewBox="0 0 1440 1440" fill="none" xmlns="http://www.w3.org/2000/svg">
<g clip-path="url(#clip0_368_20280)">
<mask id="mask0_368_20280" style="mask-type:luminance" maskUnits="userSpaceOnUse" x="0" y="0" width="1440" height="1440">
<path d="M1439.08 0H0V1440H1439.08V0Z" fill="white"/>
</mask>
<g mask="url(#mask0_368_20280)">
<path d="M119.927 246.875C142.259 246.875 164.089 253.498 182.657 265.904C201.225 278.312 215.696 295.946 224.242 316.578C232.787 337.21 235.022 359.913 230.665 381.815C226.307 403.717 215.552 423.836 199.76 439.626C183.969 455.415 163.849 466.168 141.946 470.523C120.043 474.878 97.341 472.64 76.7099 464.092C56.0788 455.544 38.4462 441.07 26.0414 422.501C13.6366 403.931 7.01711 382.101 7.01988 359.769V246.875H119.927ZM119.927 239.855H8.22189e-07V359.769C-0.00277605 383.489 7.02846 406.677 20.2046 426.401C33.3807 446.124 52.1097 461.498 74.0236 470.577C95.937 479.656 120.051 482.033 143.316 477.408C166.58 472.782 187.951 461.361 204.724 444.589C221.497 427.818 232.921 406.449 237.55 383.185C242.178 359.921 239.804 335.806 230.727 313.892C221.651 291.977 206.279 273.246 186.557 260.068C166.835 246.89 143.648 239.855 119.927 239.855Z" fill="#34A853" fill-opacity="0.04"/>
<path d="M359.768 246.875C382.099 246.875 403.929 253.498 422.497 265.904C441.065 278.312 455.537 295.946 464.082 316.578C472.627 337.21 474.862 359.913 470.504 381.815C466.147 403.717 455.392 423.836 439.6 439.626C423.808 455.415 403.689 466.168 381.786 470.523C359.883 474.878 337.181 472.64 316.55 464.092C295.919 455.544 278.286 441.07 265.882 422.501C253.477 403.931 246.857 382.101 246.86 359.769V246.875H359.768ZM359.768 239.855H239.84V359.769C239.837 383.489 246.869 406.677 260.045 426.401C273.221 446.124 291.95 461.498 313.863 470.577C335.777 479.656 359.891 482.033 383.156 477.408C406.42 472.782 427.79 461.361 444.564 444.589C461.338 427.818 472.761 406.449 477.39 383.185C482.018 359.921 479.644 335.806 470.568 313.892C461.491 291.977 446.119 273.246 426.397 260.068C406.675 246.89 383.487 239.855 359.768 239.855Z" fill="#34A853" fill-opacity="0.04"/>
<path d="M119.927 7.01988C149.86 7.05703 178.555 18.965 199.719 40.1316C220.883 61.2984 232.787 89.9951 232.821 119.927V232.835H119.927C89.9823 232.835 61.264 220.94 40.0897 199.765C18.9155 178.591 7.01988 149.873 7.01988 119.927C7.01988 89.9823 18.9155 61.264 40.0897 40.0897C61.264 18.9155 89.9823 7.01988 119.927 7.01988ZM119.927 0C88.1205 0 57.617 12.6352 35.1259 35.1259C12.6352 57.617 0 88.1205 0 119.927C0 151.734 12.6352 182.238 35.1259 204.729C57.617 227.22 88.1205 239.855 119.927 239.855H239.841V119.927C239.841 88.1231 227.208 57.6211 204.72 35.1309C182.232 12.6406 151.732 0.00372329 119.927 0Z" fill="#34A853" fill-opacity="0.04"/>
<path d="M599.611 246.875C621.943 246.873 643.772 253.493 662.343 265.898C680.909 278.303 695.387 295.937 703.935 316.568C712.479 337.2 714.718 359.904 710.362 381.807C706.005 403.71 695.253 423.829 679.461 439.62C663.669 455.412 643.551 466.166 621.645 470.522C599.744 474.878 577.042 472.641 556.411 464.093C535.779 455.546 518.143 441.072 505.738 422.502C493.332 403.932 486.712 382.101 486.715 359.769V246.875H599.611ZM599.611 239.855H479.695V359.769C479.693 383.489 486.724 406.678 499.901 426.402C513.078 446.126 531.808 461.5 553.724 470.579C575.635 479.657 599.75 482.033 623.017 477.407C646.279 472.779 667.65 461.358 684.423 444.584C701.197 427.811 712.617 406.441 717.246 383.176C721.875 359.911 719.496 335.797 710.418 313.882C701.341 291.968 685.965 273.237 666.242 260.061C646.52 246.884 623.33 239.852 599.611 239.855Z" fill="#34A853" fill-opacity="0.04"/>
<path d="M359.768 7.01988C389.701 7.05703 418.398 18.9645 439.564 40.1308C460.731 61.2968 472.638 89.9941 472.675 119.927V232.835H359.768C329.823 232.835 301.104 220.94 279.93 199.765C258.756 178.591 246.86 149.873 246.86 119.927C246.86 89.9823 258.756 61.264 279.93 40.0897C301.104 18.9155 329.823 7.01988 359.768 7.01988ZM359.768 0C327.961 0 297.457 12.6352 274.966 35.1259C252.475 57.617 239.84 88.1205 239.84 119.927C239.84 151.734 252.475 182.238 274.966 204.729C297.457 227.22 327.961 239.855 359.768 239.855H479.695V119.927C479.691 88.122 467.055 57.62 444.565 35.13C422.075 12.6401 391.573 0.00372278 359.768 0Z" fill="#34A853" fill-opacity="0.04"/>
<path d="M839.465 246.875C861.798 246.875 883.626 253.498 902.193 265.904C920.764 278.312 935.236 295.946 943.779 316.578C952.323 337.21 954.558 359.913 950.201 381.815C945.845 403.717 935.092 423.836 919.3 439.626C903.508 455.415 883.385 466.168 861.484 470.523C839.584 474.878 816.877 472.64 796.25 464.092C775.618 455.544 757.982 441.07 745.58 422.501C733.174 403.931 726.557 382.101 726.557 359.769V246.875H839.465ZM839.465 239.855H719.539V359.769C719.534 383.489 726.567 406.677 739.744 426.401C752.916 446.124 771.647 461.498 793.563 470.577C815.474 479.656 839.589 482.033 862.856 477.408C886.118 472.782 907.489 461.361 924.263 444.589C941.036 427.818 952.456 406.449 957.085 383.185C961.714 359.921 959.34 335.806 950.263 313.892C941.19 291.977 925.819 273.246 906.097 260.068C886.375 246.89 863.185 239.855 839.465 239.855Z" fill="#34A853" fill-opacity="0.04"/>
<path d="M599.613 7.01988C629.543 7.05333 658.246 18.9597 679.412 40.1267C700.577 61.2938 712.486 89.9926 712.517 119.927V232.835H599.613C569.667 232.835 540.95 220.94 519.773 199.765C498.599 178.591 486.703 149.873 486.703 119.927C486.703 89.9823 498.599 61.264 519.773 40.0897C540.95 18.9155 569.667 7.01988 599.613 7.01988ZM599.613 0C567.803 0 537.302 12.6352 514.811 35.1259C492.319 57.617 479.684 88.1205 479.684 119.927C479.684 151.734 492.319 182.238 514.811 204.729C537.302 227.22 567.803 239.855 599.613 239.855H719.539V119.927C719.539 88.1205 706.902 57.617 684.41 35.1259C661.924 12.6352 631.418 0 599.613 0Z" fill="#34A853" fill-opacity="0.04"/>
<path d="M1079.31 246.875C1101.64 246.875 1123.47 253.498 1142.03 265.904C1160.6 278.312 1175.07 295.946 1183.62 316.578C1192.16 337.21 1194.4 359.913 1190.04 381.815C1185.68 403.717 1174.93 423.836 1159.13 439.626C1143.34 455.415 1123.22 466.168 1101.32 470.523C1079.42 474.878 1056.72 472.64 1036.08 464.092C1015.45 455.544 997.822 441.07 985.42 422.501C973.013 403.931 966.391 382.101 966.397 359.769V246.875H1079.31ZM1079.31 239.855H959.379V359.769C959.374 383.489 966.407 406.677 979.579 426.401C992.756 446.124 1011.49 461.498 1033.4 470.577C1055.31 479.656 1079.43 482.033 1102.69 477.408C1125.96 472.782 1147.33 461.361 1164.1 444.589C1180.88 427.818 1192.3 406.449 1196.93 383.185C1201.55 359.921 1199.18 335.806 1190.1 313.892C1181.02 291.977 1165.65 273.246 1145.93 260.068C1126.21 246.89 1103.02 239.855 1079.31 239.855Z" fill="#34A853" fill-opacity="0.04"/>
<path d="M839.465 7.01988C869.396 7.05703 898.093 18.965 919.259 40.1316C940.42 61.2984 952.328 89.9951 952.359 119.927V232.835H839.465C809.52 232.835 780.802 220.94 759.626 199.765C738.455 178.591 726.557 149.873 726.557 119.927C726.557 89.9823 738.455 61.264 759.626 40.0897C780.802 18.9155 809.52 7.01988 839.465 7.01988ZM839.465 0C807.66 0 777.154 12.6352 754.663 35.1259C732.172 57.617 719.539 88.1205 719.539 119.927C719.539 151.734 732.172 182.238 754.663 204.729C777.154 227.22 807.66 239.855 839.465 239.855H959.376V119.927C959.376 88.1231 946.744 57.6211 924.257 35.1309C901.771 12.6406 871.271 0.00372329 839.465 0Z" fill="#34A853" fill-opacity="0.04"/>
<path d="M1319.14 246.875C1341.47 246.873 1363.31 253.493 1381.88 265.898C1400.45 278.303 1414.92 295.937 1423.47 316.568C1432.01 337.2 1434.25 359.904 1429.9 381.807C1425.54 403.71 1414.79 423.829 1399 439.62C1383.2 455.412 1363.09 466.166 1341.18 470.522C1319.28 474.878 1296.57 472.641 1275.94 464.093C1255.31 455.546 1237.68 441.072 1225.27 422.502C1212.86 403.932 1206.25 382.101 1206.25 359.769V246.875H1319.14ZM1319.14 239.855H1199.23V359.769C1199.23 383.489 1206.26 406.678 1219.44 426.402C1232.61 446.126 1251.34 461.5 1273.25 470.579C1295.17 479.657 1319.29 482.033 1342.55 477.407C1365.81 472.779 1387.19 461.358 1403.96 444.584C1420.73 427.811 1432.15 406.441 1436.78 383.176C1441.41 359.911 1439.03 335.797 1429.95 313.882C1420.88 291.968 1405.5 273.237 1385.78 260.061C1366.05 246.884 1342.87 239.852 1319.14 239.855Z" fill="#34A853" fill-opacity="0.04"/>
<path d="M1079.31 7.01988C1109.24 7.05703 1137.93 18.9645 1159.1 40.1308C1180.26 61.2968 1192.17 89.9941 1192.21 119.927V232.835H1079.31C1049.36 232.835 1020.64 220.94 999.466 199.765C978.29 178.591 966.397 149.873 966.397 119.927C966.397 89.9823 978.29 61.264 999.466 40.0897C1020.64 18.9155 1049.36 7.01988 1079.31 7.01988ZM1079.31 0C1047.49 0 1016.99 12.6352 994.503 35.1259C972.012 57.617 959.379 88.1205 959.379 119.927C959.379 151.734 972.012 182.238 994.503 204.729C1016.99 227.22 1047.49 239.855 1079.31 239.855H1199.23V119.927C1199.23 88.122 1186.59 57.62 1164.1 35.13C1141.61 12.6401 1111.11 0.00372278 1079.31 0Z" fill="#34A853" fill-opacity="0.04"/>
<path d="M1319.15 7.01988C1349.08 7.05333 1377.78 18.9597 1398.95 40.1267C1420.11 61.2938 1432.02 89.9926 1432.05 119.927V232.835H1319.15C1289.2 232.835 1260.48 220.94 1239.31 199.765C1218.13 178.591 1206.24 149.873 1206.24 119.927C1206.24 89.9823 1218.13 61.264 1239.31 40.0897C1260.48 18.9155 1289.2 7.01988 1319.15 7.01988ZM1319.15 0C1287.34 0 1256.84 12.6352 1234.35 35.1259C1211.86 57.617 1199.22 88.1205 1199.22 119.927C1199.22 151.734 1211.86 182.238 1234.35 204.729C1256.84 227.22 1287.34 239.855 1319.15 239.855H1439.08V119.927C1439.08 88.1205 1426.44 57.617 1403.95 35.1259C1381.46 12.6352 1350.96 0 1319.15 0Z" fill="#34A853" fill-opacity="0.04"/>
<path d="M119.927 727.018C142.258 727.018 164.088 733.64 182.656 746.046C201.223 758.453 215.695 776.09 224.24 796.721C232.786 817.353 235.022 840.055 230.666 861.955C226.309 883.856 215.556 903.974 199.765 919.766C183.975 935.553 163.856 946.311 141.955 950.667C120.053 955.024 97.3508 952.784 76.7197 944.24C56.0886 935.697 38.4547 921.225 26.0482 902.653C13.6418 884.087 7.01988 862.258 7.01988 839.926V727.018H119.927ZM119.927 720H0V839.926C0 863.645 7.0336 886.836 20.2114 906.558C33.3892 926.28 52.1195 941.651 74.0334 950.724C95.9473 959.801 120.06 962.18 143.324 957.551C166.588 952.922 187.957 941.502 204.729 924.729C221.501 907.955 232.923 886.589 237.551 863.322C242.178 840.06 239.803 815.945 230.726 794.034C221.649 772.118 206.278 753.388 186.556 740.21C166.833 727.033 143.647 720 119.927 720Z" fill="#34A853" fill-opacity="0.04"/>
<path d="M359.768 727.018C382.098 727.018 403.928 733.64 422.496 746.046C441.063 758.453 455.535 776.09 464.081 796.721C472.626 817.353 474.862 840.055 470.505 861.955C466.149 883.856 455.395 903.974 439.605 919.766C423.815 935.553 403.697 946.311 381.795 950.667C359.893 955.024 337.191 952.784 316.56 944.24C295.928 935.697 278.294 921.225 265.888 902.653C253.482 884.087 246.86 862.258 246.86 839.926V727.018H359.768ZM359.768 720H239.84V839.926C239.84 863.645 246.874 886.836 260.051 906.558C273.229 926.28 291.959 941.651 313.873 950.724C335.787 959.801 359.901 962.18 383.164 957.551C406.428 952.922 427.797 941.502 444.569 924.729C461.341 907.955 472.763 886.589 477.391 863.322C482.018 840.06 479.643 815.945 470.566 794.034C461.489 772.118 446.117 753.388 426.396 740.21C406.674 727.033 383.487 720 359.768 720Z" fill="#34A853" fill-opacity="0.04"/>
<path d="M119.928 487.179C149.86 487.216 178.556 499.124 199.72 520.29C220.884 541.456 232.788 570.153 232.822 600.089V712.982H119.928C104.996 713.147 90.179 710.352 76.3354 704.752C62.4913 699.152 49.8959 690.861 39.2778 680.36C28.6597 669.859 20.2301 657.36 14.477 643.577C8.72385 629.798 5.76155 615.013 5.76155 600.079C5.76155 585.144 8.72385 570.364 14.477 556.581C20.2301 542.802 28.6597 530.298 39.2778 519.797C49.8959 509.297 62.4913 501.008 76.3354 495.409C90.179 489.81 104.996 487.013 119.928 487.179ZM119.928 480.159C104.071 479.988 88.3368 482.963 73.6368 488.912C58.9373 494.862 45.5631 503.668 34.2891 514.819C23.0151 525.972 14.0649 539.252 7.95658 553.883C1.84829 568.52 -1.29688 584.22 -1.29688 600.079C-1.29688 615.938 1.84829 631.637 7.95658 646.274C14.0649 660.91 23.0151 674.185 34.2891 685.338C45.5631 696.491 58.9373 705.297 73.6368 711.246C88.3368 717.195 104.071 720.169 119.928 720H239.841V600.089C239.841 568.283 227.208 537.778 204.72 515.292C182.233 492.8 151.732 480.163 119.928 480.159Z" fill="#34A853" fill-opacity="0.04"/>
<path d="M599.611 727.018C621.943 727.018 643.772 733.635 662.343 746.041C680.909 758.448 695.381 776.079 703.93 796.711C712.479 817.343 714.718 840.045 710.362 861.945C706.005 883.851 695.253 903.969 679.466 919.761C663.674 935.553 643.556 946.306 621.655 950.662C599.755 955.024 577.048 952.789 556.416 944.24C535.784 935.697 518.153 921.225 505.745 902.659C493.338 884.087 486.715 862.258 486.715 839.926V727.018H599.611ZM599.611 720H479.695V839.926C479.695 863.645 486.729 886.836 499.908 906.558C513.086 926.28 531.818 941.651 553.734 950.729C575.645 959.806 599.76 962.18 623.027 957.551C646.289 952.922 667.66 941.497 684.429 924.724C701.202 907.95 712.622 886.579 717.246 863.317C721.875 840.05 719.496 815.935 710.418 794.024C701.341 772.108 685.965 753.382 666.242 740.205C646.515 727.028 623.33 719.995 599.611 720Z" fill="#34A853" fill-opacity="0.04"/>
<path d="M359.768 487.179C389.701 487.216 418.399 499.123 439.564 520.29C460.731 541.456 472.638 570.153 472.676 600.089V712.982H359.768C330.043 712.648 301.648 700.606 280.745 679.471C259.843 658.336 248.12 629.808 248.12 600.079C248.12 570.354 259.843 541.826 280.745 520.686C301.648 499.551 330.043 487.51 359.768 487.179ZM359.768 480.159C343.911 479.988 328.177 482.963 313.477 488.912C298.777 494.862 285.403 503.668 274.129 514.819C262.855 525.972 253.905 539.252 247.796 553.883C241.688 568.52 238.543 584.22 238.543 600.079C238.543 615.938 241.688 631.637 247.796 646.274C253.905 660.91 262.855 674.185 274.129 685.338C285.403 696.491 298.777 705.297 313.477 711.246C328.177 717.195 343.911 720.169 359.768 720H479.695V600.089C479.692 568.283 467.056 537.778 444.565 515.292C422.075 492.799 391.573 480.163 359.768 480.159Z" fill="#34A853" fill-opacity="0.04"/>
<path d="M839.465 727.018C861.798 727.018 883.626 733.64 902.193 746.046C920.759 758.453 935.231 776.09 943.779 796.721C952.323 817.353 954.558 840.055 950.201 861.955C945.845 883.856 935.092 903.974 919.305 919.766C903.513 935.553 883.395 946.311 861.494 950.667C839.589 955.024 816.887 952.784 796.255 944.24C775.629 935.697 757.992 921.225 745.585 902.653C733.179 884.087 726.557 862.258 726.557 839.926V727.018H839.465ZM839.465 720H719.539V839.926C719.539 863.645 726.572 886.836 739.749 906.558C752.927 926.28 771.658 941.651 793.573 950.724C815.484 959.801 839.599 962.18 862.861 957.551C886.128 952.922 907.494 941.502 924.268 924.729C941.041 907.955 952.462 886.589 957.09 863.322C961.714 840.06 959.34 815.945 950.263 794.034C941.185 772.118 925.814 753.388 906.092 740.21C886.369 727.033 863.185 720 839.465 720Z" fill="#34A853" fill-opacity="0.04"/>
<path d="M599.613 487.178C629.543 487.211 658.245 499.118 679.411 520.285C700.577 541.45 712.486 570.153 712.516 600.083V712.981H599.613C569.883 712.648 541.489 700.606 520.59 679.471C499.685 658.33 487.962 629.808 487.962 600.078C487.962 570.353 499.685 541.825 520.59 520.685C541.489 499.55 569.883 487.509 599.613 487.178ZM599.613 480.158C568.028 480.5 537.862 493.285 515.648 515.738C493.439 538.188 480.98 568.499 480.98 600.078C480.98 631.662 493.439 661.968 515.648 684.418C537.862 706.873 568.028 719.655 599.613 719.999H719.539V600.083C719.539 568.278 706.901 537.777 684.41 515.286C661.924 492.793 631.418 480.158 599.613 480.158Z" fill="#34A853" fill-opacity="0.04"/>
<path d="M1079.31 727.018C1101.64 727.018 1123.47 733.64 1142.03 746.046C1160.6 758.453 1175.07 776.09 1183.62 796.721C1192.16 817.353 1194.4 840.055 1190.04 861.955C1185.68 883.856 1174.93 903.974 1159.14 919.766C1143.35 935.553 1123.23 946.311 1101.33 950.667C1079.43 955.024 1056.73 952.784 1036.1 944.24C1015.46 935.697 997.832 921.225 985.425 902.653C973.019 884.087 966.397 862.258 966.397 839.926V727.018H1079.31ZM1079.31 720H959.379V839.926C959.379 863.645 966.412 886.836 979.589 906.558C992.767 926.28 1011.5 941.651 1033.41 950.724C1055.32 959.801 1079.44 962.18 1102.7 957.551C1125.96 952.922 1147.33 941.502 1164.11 924.729C1180.88 907.955 1192.3 886.589 1196.93 863.322C1201.55 840.06 1199.18 815.945 1190.1 794.034C1181.02 772.118 1165.65 753.388 1145.93 740.21C1126.21 727.033 1103.02 720 1079.31 720Z" fill="#34A853" fill-opacity="0.04"/>
<path d="M839.464 487.179C869.395 487.216 898.092 499.124 919.258 520.29C940.419 541.456 952.327 570.153 952.358 600.089V712.982H839.464C824.53 713.147 809.714 710.352 795.874 704.752C782.029 699.152 769.432 690.861 758.813 680.36C748.194 669.859 739.769 657.36 734.015 643.577C728.261 629.798 725.297 615.013 725.297 600.079C725.297 585.144 728.261 570.364 734.015 556.581C739.769 542.802 748.194 530.298 758.813 519.797C769.432 509.297 782.029 501.008 795.874 495.409C809.714 489.81 824.53 487.013 839.464 487.179ZM839.464 480.159C823.605 479.988 807.875 482.963 793.172 488.912C778.474 494.862 765.101 503.668 753.825 514.819C742.553 525.972 733.604 539.252 727.496 553.883C721.387 568.52 718.238 584.22 718.238 600.079C718.238 615.938 721.387 631.637 727.496 646.274C733.604 660.91 742.553 674.185 753.825 685.338C765.101 696.491 778.474 705.297 793.172 711.246C807.875 717.195 823.605 720.169 839.464 720H959.38V600.089C959.38 568.283 946.743 537.778 924.256 515.292C901.77 492.8 871.27 480.163 839.464 480.159Z" fill="#34A853" fill-opacity="0.04"/>
<path d="M1319.14 727.018C1341.47 727.018 1363.31 733.635 1381.87 746.041C1400.45 758.448 1414.92 776.079 1423.47 796.711C1432.01 817.343 1434.25 840.045 1429.9 861.945C1425.54 883.851 1414.79 903.969 1399 919.761C1383.21 935.553 1363.09 946.306 1341.19 950.662C1319.29 955.024 1296.58 952.789 1275.95 944.24C1255.32 935.697 1237.69 921.225 1225.28 902.659C1212.87 884.087 1206.25 862.258 1206.25 839.926V727.018H1319.14ZM1319.14 720H1199.23V839.926C1199.23 863.645 1206.26 886.836 1219.44 906.558C1232.62 926.28 1251.35 941.651 1273.26 950.729C1295.18 959.806 1319.3 962.18 1342.56 957.551C1365.82 952.922 1387.19 941.497 1403.96 924.724C1420.74 907.95 1432.16 886.579 1436.78 863.317C1441.41 840.05 1439.03 815.935 1429.95 794.024C1420.87 772.108 1405.5 753.382 1385.77 740.205C1366.05 727.028 1342.87 719.995 1319.14 720Z" fill="#34A853" fill-opacity="0.04"/>
<path d="M1079.3 487.179C1109.24 487.216 1137.93 499.123 1159.1 520.29C1180.27 541.456 1192.17 570.153 1192.21 600.089V712.982H1079.3C1049.58 712.648 1021.19 700.606 1000.28 679.471C979.378 658.336 967.654 629.808 967.654 600.079C967.654 570.354 979.378 541.826 1000.28 520.686C1021.19 499.551 1049.58 487.51 1079.3 487.179ZM1079.3 480.159C1063.45 479.988 1047.71 482.963 1033.01 488.912C1018.31 494.862 1004.94 503.668 993.665 514.819C982.388 525.972 973.439 539.252 967.33 553.883C961.222 568.52 958.078 584.22 958.078 600.079C958.078 615.938 961.222 631.637 967.33 646.274C973.439 660.91 982.388 674.185 993.665 685.338C1004.94 696.491 1018.31 705.297 1033.01 711.246C1047.71 717.195 1063.45 720.169 1079.3 720H1199.23V600.089C1199.23 568.283 1186.59 537.778 1164.1 515.292C1141.61 492.799 1111.11 480.163 1079.3 480.159Z" fill="#34A853" fill-opacity="0.04"/>
<path d="M1319.14 487.178C1349.08 487.211 1377.78 499.118 1398.95 520.285C1420.11 541.45 1432.02 570.153 1432.05 600.083V712.981H1319.14C1289.42 712.648 1261.02 700.606 1240.12 679.471C1219.22 658.33 1207.5 629.808 1207.5 600.078C1207.5 570.353 1219.22 541.825 1240.12 520.685C1261.02 499.55 1289.42 487.509 1319.14 487.178ZM1319.14 480.158C1287.56 480.5 1257.39 493.285 1235.18 515.738C1212.97 538.188 1200.52 568.499 1200.52 600.078C1200.52 631.662 1212.97 661.968 1235.18 684.418C1257.39 706.873 1287.56 719.655 1319.14 719.999H1439.07V600.083C1439.07 568.278 1426.44 537.777 1403.94 515.286C1381.45 492.793 1350.95 480.158 1319.14 480.158Z" fill="#34A853" fill-opacity="0.04"/>
<path d="M119.927 1207.18C142.258 1207.18 164.088 1213.8 182.656 1226.21C201.223 1238.62 215.695 1256.25 224.24 1276.88C232.786 1297.51 235.022 1320.21 230.666 1342.11C226.309 1364.02 215.556 1384.14 199.765 1399.92C183.975 1415.72 163.856 1426.47 141.955 1430.83C120.053 1435.18 97.3508 1432.95 76.7197 1424.4C56.0886 1415.86 38.4547 1401.38 26.0482 1382.82C13.6418 1364.25 7.01988 1342.42 7.01988 1320.09V1207.18H119.927ZM119.927 1200.16H0V1320.09C0 1343.81 7.0336 1366.99 20.2114 1386.72C33.3892 1406.44 52.1195 1421.81 74.0334 1430.89C95.9473 1439.96 120.06 1442.34 143.324 1437.71C166.588 1433.09 187.957 1421.66 204.729 1404.89C221.501 1388.12 232.923 1366.75 237.551 1343.49C242.178 1320.22 239.803 1296.11 230.726 1274.19C221.649 1252.28 206.278 1233.55 186.556 1220.37C166.833 1207.19 143.647 1200.16 119.927 1200.16Z" fill="#34A853" fill-opacity="0.04"/>
<path d="M359.768 1207.18C382.098 1207.18 403.928 1213.8 422.496 1226.21C441.063 1238.62 455.535 1256.25 464.081 1276.88C472.626 1297.51 474.862 1320.21 470.505 1342.11C466.149 1364.02 455.395 1384.14 439.605 1399.92C423.815 1415.72 403.697 1426.47 381.795 1430.83C359.893 1435.18 337.191 1432.95 316.56 1424.4C295.928 1415.86 278.294 1401.38 265.888 1382.82C253.482 1364.25 246.86 1342.42 246.86 1320.09V1207.18H359.768ZM359.768 1200.16H239.84V1320.09C239.84 1343.81 246.874 1366.99 260.051 1386.72C273.229 1406.44 291.959 1421.81 313.873 1430.89C335.787 1439.96 359.901 1442.34 383.164 1437.71C406.428 1433.09 427.797 1421.66 444.569 1404.89C461.341 1388.12 472.763 1366.75 477.391 1343.49C482.018 1320.22 479.643 1296.11 470.566 1274.19C461.489 1252.28 446.117 1233.55 426.396 1220.37C406.674 1207.19 383.487 1200.16 359.768 1200.16Z" fill="#34A853" fill-opacity="0.04"/>
<path d="M119.928 967.337C149.862 967.373 178.559 979.277 199.724 1000.45C220.889 1021.61 232.792 1050.31 232.822 1080.25V1193.14H119.928C104.996 1193.3 90.179 1190.51 76.3354 1184.91C62.4913 1179.31 49.8959 1171.02 39.2778 1160.52C28.6597 1150.02 20.2301 1137.52 14.477 1123.74C8.72385 1109.96 5.76155 1095.17 5.76155 1080.24C5.76155 1065.31 8.72385 1050.52 14.477 1036.74C20.2301 1022.96 28.6597 1010.46 39.2778 999.954C49.8959 989.459 62.4913 981.167 76.3354 975.567C90.179 969.968 104.996 967.173 119.928 967.337ZM119.928 960.32C104.071 960.145 88.3368 963.12 73.6368 969.069C58.9373 975.023 45.5631 983.828 34.2891 994.981C23.0151 1006.13 14.0649 1019.41 7.95658 1034.05C1.84829 1048.68 -1.29688 1064.38 -1.29688 1080.24C-1.29688 1096.09 1.84829 1111.8 7.95658 1126.43C14.0649 1141.07 23.0151 1154.34 34.2891 1165.5C45.5631 1176.65 58.9373 1185.45 73.6368 1191.4C88.3368 1197.36 104.071 1200.33 119.928 1200.16H239.841V1080.25C239.843 1064.49 236.743 1048.9 230.717 1034.35C224.692 1019.8 215.86 1006.58 204.725 995.444C193.589 984.306 180.37 975.475 165.82 969.449C151.271 963.418 135.676 960.32 119.928 960.32Z" fill="#34A853" fill-opacity="0.04"/>
<path d="M599.611 1207.18C621.943 1207.18 643.772 1213.8 662.343 1226.2C680.909 1238.61 695.381 1256.24 703.93 1276.87C712.479 1297.5 714.718 1320.2 710.362 1342.11C706.005 1364.01 695.253 1384.13 679.466 1399.92C663.674 1415.71 643.556 1426.47 621.655 1430.83C599.755 1435.18 577.048 1432.95 556.416 1424.4C535.784 1415.86 518.153 1401.38 505.745 1382.82C493.338 1364.25 486.715 1342.42 486.715 1320.09V1207.18H599.611ZM599.611 1200.16H479.695V1320.09C479.695 1343.81 486.729 1366.99 499.908 1386.72C513.086 1406.44 531.818 1421.81 553.734 1430.89C575.645 1439.96 599.76 1442.34 623.027 1437.71C646.289 1433.08 667.66 1421.66 684.429 1404.88C701.202 1388.11 712.622 1366.74 717.246 1343.48C721.875 1320.21 719.496 1296.1 710.418 1274.18C701.341 1252.27 685.965 1233.54 666.242 1220.36C646.515 1207.19 623.33 1200.16 599.611 1200.16Z" fill="#34A853" fill-opacity="0.04"/>
<path d="M359.768 967.337C389.703 967.373 418.402 979.277 439.569 1000.44C460.736 1021.61 472.642 1050.31 472.676 1080.25V1193.14H359.768C344.836 1193.3 330.019 1190.51 316.175 1184.91C302.331 1179.31 289.736 1171.02 279.118 1160.52C268.499 1150.02 260.07 1137.52 254.317 1123.74C248.564 1109.96 245.601 1095.17 245.601 1080.24C245.601 1065.31 248.564 1050.52 254.317 1036.74C260.07 1022.96 268.499 1010.46 279.118 999.954C289.736 989.459 302.331 981.167 316.175 975.567C330.019 969.968 344.836 967.173 359.768 967.337ZM359.768 960.32C343.911 960.145 328.177 963.12 313.477 969.069C298.777 975.023 285.403 983.828 274.129 994.981C262.855 1006.13 253.905 1019.41 247.796 1034.05C241.688 1048.68 238.543 1064.38 238.543 1080.24C238.543 1096.09 241.688 1111.8 247.796 1126.43C253.905 1141.07 262.855 1154.34 274.129 1165.5C285.403 1176.65 298.777 1185.45 313.477 1191.4C328.177 1197.36 343.911 1200.33 359.768 1200.16H479.695V1080.25C479.695 1048.44 467.06 1017.94 444.569 995.444C422.079 972.953 391.575 960.32 359.768 960.32Z" fill="#34A853" fill-opacity="0.04"/>
<path d="M839.465 1207.18C861.798 1207.18 883.626 1213.8 902.193 1226.21C920.759 1238.62 935.231 1256.25 943.779 1276.88C952.323 1297.51 954.558 1320.21 950.201 1342.11C945.845 1364.02 935.092 1384.14 919.305 1399.92C903.513 1415.72 883.395 1426.47 861.494 1430.83C839.589 1435.18 816.887 1432.95 796.255 1424.4C775.629 1415.86 757.992 1401.38 745.585 1382.82C733.179 1364.25 726.557 1342.42 726.557 1320.09V1207.18H839.465ZM839.465 1200.16H719.539V1320.09C719.539 1343.81 726.572 1366.99 739.749 1386.72C752.927 1406.44 771.658 1421.81 793.573 1430.89C815.484 1439.96 839.599 1442.34 862.861 1437.71C886.128 1433.09 907.494 1421.66 924.268 1404.89C941.041 1388.12 952.462 1366.75 957.09 1343.49C961.714 1320.22 959.34 1296.11 950.263 1274.19C941.185 1252.28 925.814 1233.55 906.092 1220.37C886.369 1207.19 863.185 1200.16 839.465 1200.16Z" fill="#34A853" fill-opacity="0.04"/>
<path d="M599.613 967.338C629.548 967.369 658.245 979.272 679.416 1000.44C700.582 1021.61 712.491 1050.31 712.516 1080.25V1193.14H599.613C584.678 1193.3 569.862 1190.51 556.017 1184.91C542.172 1179.31 529.58 1171.02 518.961 1160.52C508.342 1150.02 499.913 1137.52 494.159 1123.74C488.406 1109.96 485.444 1095.17 485.444 1080.24C485.444 1065.31 488.406 1050.52 494.159 1036.74C499.913 1022.96 508.342 1010.46 518.961 999.955C529.58 989.459 542.172 981.168 556.017 975.568C569.862 969.968 584.678 967.173 599.613 967.338ZM599.613 960.32C568.028 960.659 537.862 973.446 515.648 995.896C493.439 1018.35 480.98 1048.66 480.98 1080.24C480.98 1111.82 493.439 1142.13 515.648 1164.58C537.862 1187.03 568.028 1199.82 599.613 1200.16H719.539V1080.25C719.539 1048.44 706.901 1017.94 684.41 995.444C661.924 972.953 631.418 960.32 599.613 960.32Z" fill="#34A853" fill-opacity="0.04"/>
<path d="M1079.31 1207.18C1101.64 1207.18 1123.47 1213.8 1142.03 1226.21C1160.6 1238.62 1175.07 1256.25 1183.62 1276.88C1192.16 1297.51 1194.4 1320.21 1190.04 1342.11C1185.68 1364.02 1174.93 1384.14 1159.14 1399.92C1143.35 1415.72 1123.23 1426.47 1101.33 1430.83C1079.43 1435.18 1056.73 1432.95 1036.1 1424.4C1015.46 1415.86 997.832 1401.38 985.425 1382.82C973.019 1364.25 966.397 1342.42 966.397 1320.09V1207.18H1079.31ZM1079.31 1200.16H959.379V1320.09C959.379 1343.81 966.412 1366.99 979.589 1386.72C992.767 1406.44 1011.5 1421.81 1033.41 1430.89C1055.32 1439.96 1079.44 1442.34 1102.7 1437.71C1125.96 1433.09 1147.33 1421.66 1164.11 1404.89C1180.88 1388.12 1192.3 1366.75 1196.93 1343.49C1201.55 1320.22 1199.18 1296.11 1190.1 1274.19C1181.02 1252.28 1165.65 1233.55 1145.93 1220.37C1126.21 1207.19 1103.02 1200.16 1079.31 1200.16Z" fill="#34A853" fill-opacity="0.04"/>
<path d="M839.464 967.337C869.4 967.373 898.097 979.277 919.263 1000.45C940.424 1021.61 952.327 1050.31 952.358 1080.25V1193.14H839.464C824.53 1193.3 809.714 1190.51 795.874 1184.91C782.029 1179.31 769.432 1171.02 758.813 1160.52C748.194 1150.02 739.769 1137.52 734.015 1123.74C728.261 1109.96 725.297 1095.17 725.297 1080.24C725.297 1065.31 728.261 1050.52 734.015 1036.74C739.769 1022.96 748.194 1010.46 758.813 999.954C769.432 989.459 782.029 981.167 795.874 975.567C809.714 969.968 824.53 967.173 839.464 967.337ZM839.464 960.32C823.605 960.145 807.875 963.12 793.172 969.069C778.474 975.023 765.101 983.828 753.825 994.981C742.553 1006.13 733.604 1019.41 727.496 1034.05C721.387 1048.68 718.238 1064.38 718.238 1080.24C718.238 1096.09 721.387 1111.8 727.496 1126.43C733.604 1141.07 742.553 1154.34 753.825 1165.5C765.101 1176.65 778.474 1185.45 793.172 1191.4C807.875 1197.36 823.605 1200.33 839.464 1200.16H959.38V1080.25C959.38 1064.49 956.278 1048.9 950.257 1034.35C944.23 1019.8 935.394 1006.58 924.262 995.444C913.124 984.306 899.905 975.475 885.356 969.449C870.807 963.418 855.216 960.32 839.464 960.32Z" fill="#34A853" fill-opacity="0.04"/>
<path d="M1319.14 1207.18C1341.47 1207.18 1363.31 1213.8 1381.87 1226.2C1400.45 1238.61 1414.92 1256.24 1423.47 1276.87C1432.01 1297.5 1434.25 1320.2 1429.9 1342.11C1425.54 1364.01 1414.79 1384.13 1399 1399.92C1383.21 1415.71 1363.09 1426.47 1341.19 1430.83C1319.29 1435.18 1296.58 1432.95 1275.95 1424.4C1255.32 1415.86 1237.69 1401.38 1225.28 1382.82C1212.87 1364.25 1206.25 1342.42 1206.25 1320.09V1207.18H1319.14ZM1319.14 1200.16H1199.23V1320.09C1199.23 1343.81 1206.26 1366.99 1219.44 1386.72C1232.62 1406.44 1251.35 1421.81 1273.26 1430.89C1295.18 1439.96 1319.3 1442.34 1342.56 1437.71C1365.82 1433.08 1387.19 1421.66 1403.96 1404.88C1420.74 1388.11 1432.16 1366.74 1436.78 1343.48C1441.41 1320.21 1439.03 1296.1 1429.95 1274.18C1420.87 1252.27 1405.5 1233.54 1385.77 1220.36C1366.05 1207.19 1342.87 1200.16 1319.14 1200.16Z" fill="#34A853" fill-opacity="0.04"/>
<path d="M1079.3 967.337C1109.24 967.373 1137.94 979.277 1159.1 1000.44C1180.27 1021.61 1192.18 1050.31 1192.21 1080.25V1193.14H1079.3C1064.37 1193.3 1049.55 1190.51 1035.71 1184.91C1021.87 1179.31 1009.27 1171.02 998.653 1160.52C988.034 1150.02 979.604 1137.52 973.85 1123.74C968.101 1109.96 965.137 1095.17 965.137 1080.24C965.137 1065.31 968.101 1050.52 973.85 1036.74C979.604 1022.96 988.034 1010.46 998.653 999.954C1009.27 989.459 1021.87 981.167 1035.71 975.567C1049.55 969.968 1064.37 967.173 1079.3 967.337ZM1079.3 960.32C1063.45 960.145 1047.71 963.12 1033.01 969.069C1018.31 975.023 1004.94 983.828 993.665 994.981C982.388 1006.13 973.439 1019.41 967.33 1034.05C961.222 1048.68 958.078 1064.38 958.078 1080.24C958.078 1096.09 961.222 1111.8 967.33 1126.43C973.439 1141.07 982.388 1154.34 993.665 1165.5C1004.94 1176.65 1018.31 1185.45 1033.01 1191.4C1047.71 1197.36 1063.45 1200.33 1079.3 1200.16H1199.23V1080.25C1199.23 1048.44 1186.6 1017.94 1164.11 995.444C1141.62 972.953 1111.11 960.32 1079.3 960.32Z" fill="#34A853" fill-opacity="0.04"/>
<path d="M1319.14 967.338C1349.08 967.369 1377.78 979.272 1398.95 1000.44C1420.12 1021.61 1432.02 1050.31 1432.05 1080.25V1193.14H1319.14C1304.21 1193.3 1289.4 1190.51 1275.55 1184.91C1261.71 1179.31 1249.11 1171.02 1238.5 1160.52C1227.88 1150.02 1219.45 1137.52 1213.69 1123.74C1207.94 1109.96 1204.97 1095.17 1204.97 1080.24C1204.97 1065.31 1207.94 1050.52 1213.69 1036.74C1219.45 1022.96 1227.88 1010.46 1238.5 999.955C1249.11 989.459 1261.71 981.168 1275.55 975.568C1289.4 969.968 1304.21 967.173 1319.14 967.338ZM1319.14 960.32C1287.56 960.659 1257.39 973.446 1235.18 995.896C1212.97 1018.35 1200.52 1048.66 1200.52 1080.24C1200.52 1111.82 1212.97 1142.13 1235.18 1164.58C1257.39 1187.03 1287.56 1199.82 1319.14 1200.16H1439.07V1080.25C1439.07 1048.44 1426.44 1017.94 1403.94 995.444C1381.45 972.953 1350.95 960.32 1319.14 960.32Z" fill="#34A853" fill-opacity="0.04"/>
</g>
</g>
<defs>
<clipPath id="clip0_368_20280">
<rect width="1439.49" height="1440" fill="white"/>
</clipPath>
</defs>
</svg>
