<svg width="190" height="189" viewBox="0 0 190 189" fill="none" xmlns="http://www.w3.org/2000/svg">
<g clip-path="url(#clip0_2507_62999)">
<mask id="mask0_2507_62999" style="mask-type:luminance" maskUnits="userSpaceOnUse" x="0" y="0" width="415" height="415">
<path d="M414.5 0.5H0.5V414.5H414.5V0.5Z" fill="white"/>
</mask>
<g mask="url(#mask0_2507_62999)">
<path d="M21.4914 2.52346C26.52 2.52988 31.3409 4.53035 34.8966 8.08612C38.4524 11.6419 40.4528 16.4627 40.4593 21.4914V40.4593H21.4914C16.4608 40.4593 11.6362 38.4608 8.07903 34.9036C4.52185 31.3465 2.52346 26.522 2.52346 21.4914C2.52346 16.4608 4.52185 11.6362 8.07903 8.07903C11.6362 4.52185 16.4608 2.52346 21.4914 2.52346ZM21.4914 0.5C15.924 0.5 10.5849 2.71158 6.64823 6.64823C2.71158 10.5849 0.5 15.924 0.5 21.4914C0.5 27.0586 2.71158 32.3979 6.64823 36.3346C10.5849 40.2712 15.924 42.4828 21.4914 42.4828H42.4828V21.4914C42.4828 18.7348 41.9397 16.0051 40.8849 13.4583C39.83 10.9115 38.2837 8.59746 36.3346 6.64823C34.3852 4.69901 32.0712 3.15279 29.5245 2.09787C26.9777 1.04296 24.2481 0.5 21.4914 0.5Z" fill="#D6EEDD" fill-opacity="0.08"/>
<path d="M62.2452 2.52346C67.2758 2.52346 72.1004 4.52185 75.6576 8.07903C79.2147 11.6362 81.2131 16.4608 81.2131 21.4914C81.2131 26.522 79.2147 31.3465 75.6576 34.9036C72.1004 38.4608 67.2758 40.4593 62.2452 40.4593H43.2772V21.4914C43.2837 16.4627 45.2842 11.6419 48.84 8.08612C52.3957 4.53035 57.2166 2.52988 62.2452 2.52346ZM62.2452 0.5C56.678 0.5 51.3386 2.71158 47.402 6.64823C43.4654 10.5849 41.2539 15.924 41.2539 21.4914V42.4828H62.2452C67.8125 42.4828 73.1517 40.2712 77.0883 36.3346C81.0249 32.3979 83.2366 27.0586 83.2366 21.4914C83.2366 15.924 81.0249 10.5849 77.0883 6.64823C73.1517 2.71158 67.8125 0.5 62.2452 0.5Z" fill="#D6EEDD" fill-opacity="0.08"/>
<path d="M40.4593 43.2735V62.2414C40.4593 65.9928 39.3469 69.6602 37.2627 72.7794C35.1784 75.8987 32.216 78.3298 28.7501 79.7654C25.2842 81.2011 21.4703 81.5767 17.791 80.8448C14.1115 80.113 10.7318 78.3065 8.07905 75.6536C5.42633 73.001 3.61981 69.6212 2.88794 65.9419C2.15604 62.2624 2.53169 58.4487 3.96732 54.9826C5.40295 51.5167 7.83412 48.5543 10.9534 46.4701C14.0726 44.3859 17.7399 43.2735 21.4914 43.2735H40.4593ZM42.4828 41.25H21.4914C17.3397 41.25 13.2812 42.4811 9.82921 44.7877C6.37719 47.0943 3.68668 50.3726 2.09788 54.2084C0.509095 58.044 0.0933968 62.2646 0.903352 66.3367C1.71331 70.4086 3.71254 74.1489 6.64825 77.0846C9.58394 80.0202 13.3242 82.0195 17.3962 82.8295C21.4681 83.6394 25.6887 83.2237 29.5245 81.6349C33.36 80.0461 36.6385 77.3556 38.9451 73.9036C41.2516 70.4515 42.4828 66.3931 42.4828 62.2414V41.25Z" fill="#D6EEDD" fill-opacity="0.08"/>
<path d="M62.2452 43.2735C65.9967 43.2735 69.6639 44.3859 72.7832 46.4701C75.9024 48.5543 78.3337 51.5167 79.7693 54.9826C81.205 58.4487 81.5806 62.2624 80.8487 65.9419C80.1167 69.6212 78.3102 73.001 75.6576 75.6536C73.0049 78.3065 69.6251 80.113 65.9456 80.8448C62.2663 81.5767 58.4524 81.2011 54.9865 79.7654C51.5206 78.3298 48.5582 75.8987 46.474 72.7794C44.3897 69.6602 43.2772 65.9928 43.2772 62.2414V43.2735H62.2452ZM62.2452 41.25H41.2539V62.2414C41.2539 66.3931 42.485 70.4515 44.7916 73.9036C47.0981 77.3556 50.3765 80.0461 54.2121 81.6349C58.0479 83.2237 62.2685 83.6394 66.3404 82.8295C70.4123 82.0195 74.1526 80.0202 77.0883 77.0846C80.024 74.1489 82.0232 70.4086 82.8332 66.3367C83.6432 62.2646 83.2276 58.044 81.6388 54.2084C80.05 50.3726 77.3593 47.0943 73.9073 44.7877C70.4553 42.4811 66.397 41.25 62.2452 41.25Z" fill="#D6EEDD" fill-opacity="0.08"/>
<path d="M104.304 2.52346C109.332 2.52988 114.153 4.53035 117.709 8.08612C121.265 11.6419 123.265 16.4627 123.272 21.4914V40.4593H104.304C99.2733 40.4593 94.4487 38.4608 90.8915 34.9036C87.3343 31.3465 85.336 26.522 85.336 21.4914C85.336 16.4608 87.3343 11.6362 90.8915 8.07903C94.4487 4.52185 99.2733 2.52346 104.304 2.52346ZM104.304 0.5C98.7365 0.5 93.3974 2.71158 89.4606 6.64823C85.524 10.5849 83.3125 15.924 83.3125 21.4914C83.3125 27.0586 85.524 32.3979 89.4606 36.3346C93.3974 40.2712 98.7365 42.4828 104.304 42.4828H125.295V21.4914C125.295 15.924 123.084 10.5849 119.147 6.64823C115.21 2.71158 109.871 0.5 104.304 0.5Z" fill="#D6EEDD" fill-opacity="0.08"/>
<path d="M145.062 2.52346C150.093 2.52346 154.916 4.52185 158.475 8.07903C162.031 11.6362 164.03 16.4608 164.03 21.4914C164.03 26.522 162.031 31.3465 158.475 34.9036C154.916 38.4608 150.093 40.4593 145.062 40.4593H126.094V21.4914C126.1 16.4627 128.101 11.6419 131.656 8.08612C135.212 4.53035 140.033 2.52988 145.062 2.52346ZM145.062 0.5C139.494 0.5 134.155 2.71158 130.219 6.64823C126.282 10.5849 124.07 15.924 124.07 21.4914V42.4828H145.062C150.629 42.4828 155.968 40.2712 159.904 36.3346C163.842 32.3979 166.053 27.0586 166.053 21.4914C166.053 15.924 163.842 10.5849 159.904 6.64823C155.968 2.71158 150.629 0.5 145.062 0.5Z" fill="#D6EEDD" fill-opacity="0.08"/>
<path d="M123.276 43.2735V62.2414C123.276 65.9927 122.164 69.6597 120.079 72.779C117.995 75.8981 115.033 78.3294 111.568 79.765C108.102 81.2008 104.288 81.5767 100.609 80.8451C96.9296 80.1136 93.5498 78.3075 90.897 75.6551C88.2442 73.0029 86.4372 69.6234 85.7049 65.9444C84.9727 62.2652 85.3477 58.4515 86.7827 54.9854C88.2177 51.5195 90.6483 48.5568 93.7669 46.472C96.8856 44.3874 100.553 43.2742 104.304 43.2735H123.272M125.295 41.25H104.304C100.152 41.25 96.0936 42.4811 92.6416 44.7877C89.1896 47.0943 86.4991 50.3726 84.9103 54.2084C83.3215 58.044 82.9059 62.2646 83.7159 66.3367C84.5257 70.4086 86.525 74.1489 89.4608 77.0846C92.3964 80.0202 96.1368 82.0195 100.209 82.8295C104.281 83.6394 108.501 83.2237 112.337 81.6349C116.173 80.0461 119.451 77.3556 121.758 73.9036C124.064 70.4515 125.295 66.3931 125.295 62.2414V41.25Z" fill="#D6EEDD" fill-opacity="0.08"/>
<path d="M145.062 43.2735C148.814 43.2735 152.481 44.3859 155.6 46.4701C158.718 48.5543 161.151 51.5167 162.586 54.9826C164.022 58.4487 164.397 62.2624 163.665 65.9419C162.934 69.6212 161.127 73.001 158.475 75.6536C155.822 78.3065 152.441 80.113 148.762 80.8448C145.083 81.5767 141.269 81.2011 137.803 79.7654C134.337 78.3298 131.375 75.8987 129.29 72.7794C127.206 69.6602 126.094 65.9928 126.094 62.2414V43.2735H145.062ZM145.062 41.25H124.07V62.2414C124.07 66.3931 125.301 70.4515 127.608 73.9036C129.915 77.3556 133.193 80.0461 137.029 81.6349C140.864 83.2237 145.085 83.6394 149.156 82.8295C153.228 82.0195 156.969 80.0202 159.904 77.0846C162.841 74.1489 164.84 70.4086 165.65 66.3367C166.459 62.2646 166.044 58.044 164.455 54.2084C162.867 50.3726 160.176 47.0943 156.724 44.7877C153.273 42.4811 149.214 41.25 145.062 41.25Z" fill="#D6EEDD" fill-opacity="0.08"/>
<path d="M187.124 2.52346C192.153 2.52988 196.974 4.53035 200.529 8.08612C204.086 11.6419 206.085 16.4627 206.091 21.4914V40.4593H187.124C182.093 40.4593 177.269 38.4608 173.711 34.9036C170.155 31.3465 168.156 26.522 168.156 21.4914C168.156 16.4608 170.155 11.6362 173.711 8.07903C177.269 4.52185 182.093 2.52346 187.124 2.52346ZM187.124 0.5C181.557 0.5 176.218 2.71158 172.282 6.64823C168.344 10.5849 166.133 15.924 166.133 21.4914C166.133 27.0586 168.344 32.3979 172.282 36.3346C176.218 40.2712 181.557 42.4828 187.124 42.4828H208.115V21.4914C208.115 15.924 205.904 10.5849 201.968 6.64823C198.03 2.71158 192.692 0.5 187.124 0.5Z" fill="#D6EEDD" fill-opacity="0.08"/>
<path d="M206.091 43.2735V62.2414C206.091 65.9928 204.979 69.6602 202.895 72.7794C200.811 75.8987 197.848 78.3298 194.383 79.7654C190.917 81.2011 187.103 81.5767 183.424 80.8448C179.745 80.113 176.364 78.3065 173.711 75.6536C171.058 73.001 169.252 69.6212 168.521 65.9419C167.788 62.2624 168.164 58.4487 169.599 54.9826C171.035 51.5167 173.466 48.5543 176.585 46.4701C179.705 44.3859 183.372 43.2735 187.124 43.2735H206.091ZM208.115 41.25H187.124C182.972 41.25 178.913 42.4811 175.461 44.7877C172.01 47.0943 169.319 50.3726 167.731 54.2084C166.142 58.044 165.727 62.2646 166.536 66.3367C167.345 70.4086 169.345 74.1489 172.281 77.0846C175.216 80.0202 178.957 82.0195 183.029 82.8295C187.1 83.6394 191.321 83.2237 195.157 81.6349C198.993 80.0461 202.272 77.3556 204.577 73.9036C206.884 70.4515 208.115 66.3931 208.115 62.2414V41.25Z" fill="#D6EEDD" fill-opacity="0.08"/>
<path d="M21.4914 85.34C26.5194 85.3463 31.3395 87.3463 34.8952 90.9011C38.4509 94.4561 40.4518 99.2759 40.4593 104.304V123.272H21.4914C16.4608 123.272 11.6362 121.273 8.07903 117.716C4.52185 114.159 2.52346 109.334 2.52346 104.304C2.52346 99.2733 4.52185 94.4487 8.07903 90.8915C11.6362 87.3343 16.4608 85.336 21.4914 85.336M21.4914 83.3125C15.924 83.3125 10.5849 85.524 6.64823 89.4606C2.71158 93.3974 0.5 98.7365 0.5 104.304C0.5 109.871 2.71158 115.21 6.64823 119.147C10.5849 123.084 15.924 125.295 21.4914 125.295H42.4828V104.304C42.4828 101.547 41.9397 98.8176 40.8849 96.2707C39.83 93.7239 38.2837 91.4099 36.3346 89.4606C34.3852 87.5114 32.0712 85.9652 29.5245 84.9103C26.9777 83.8554 24.2481 83.3125 21.4914 83.3125Z" fill="#D6EEDD" fill-opacity="0.08"/>
<path d="M62.2452 85.34C67.2758 85.34 72.1004 87.3383 75.6576 90.8955C79.2147 94.4527 81.2131 99.2773 81.2131 104.308C81.2131 109.339 79.2147 114.163 75.6576 117.72C72.1004 121.277 67.2758 123.276 62.2452 123.276H43.2772V104.304C43.2837 99.2752 45.2842 94.4543 48.84 90.8986C52.3957 87.3428 57.2166 85.3423 62.2452 85.336M62.2452 83.3125C56.678 83.3125 51.3386 85.524 47.402 89.4606C43.4654 93.3974 41.2539 98.7365 41.2539 104.304V125.295H62.2452C67.8125 125.295 73.1517 123.084 77.0883 119.147C81.0249 115.21 83.2366 109.871 83.2366 104.304C83.2366 98.7365 81.0249 93.3974 77.0883 89.4606C73.1517 85.524 67.8125 83.3125 62.2452 83.3125Z" fill="#D6EEDD" fill-opacity="0.08"/>
<path d="M40.4593 126.094V145.062C40.4593 148.814 39.3469 152.481 37.2627 155.6C35.1784 158.718 32.216 161.151 28.7501 162.586C25.2842 164.022 21.4703 164.397 17.791 163.665C14.1115 162.934 10.7318 161.127 8.07905 158.475C5.42633 155.822 3.61981 152.441 2.88794 148.762C2.15604 145.083 2.53169 141.269 3.96732 137.803C5.40295 134.337 7.83412 131.375 10.9534 129.29C14.0726 127.206 17.7399 126.094 21.4914 126.094H40.4593ZM42.4828 124.07H21.4914C17.3397 124.07 13.2812 125.301 9.82921 127.608C6.37719 129.915 3.68668 133.193 2.09788 137.029C0.509095 140.864 0.0933968 145.085 0.903352 149.156C1.71331 153.228 3.71254 156.969 6.64825 159.904C9.58394 162.841 13.3242 164.84 17.3962 165.65C21.4681 166.459 25.6887 166.044 29.5245 164.455C33.36 162.867 36.6385 160.176 38.9451 156.724C41.2516 153.273 42.4828 149.214 42.4828 145.062V124.07Z" fill="#D6EEDD" fill-opacity="0.08"/>
<path d="M62.2452 126.094C65.9967 126.094 69.6639 127.206 72.7832 129.29C75.9024 131.375 78.3337 134.337 79.7693 137.803C81.205 141.269 81.5806 145.083 80.8487 148.762C80.1167 152.441 78.3102 155.822 75.6576 158.475C73.0049 161.127 69.6251 162.934 65.9456 163.665C62.2663 164.397 58.4524 164.022 54.9865 162.586C51.5206 161.151 48.5582 158.718 46.474 155.6C44.3897 152.481 43.2772 148.814 43.2772 145.062V126.094H62.2452ZM62.2452 124.07H41.2539V145.062C41.2539 149.214 42.485 153.273 44.7916 156.724C47.0981 160.176 50.3765 162.867 54.2121 164.455C58.0479 166.044 62.2685 166.459 66.3404 165.65C70.4123 164.84 74.1526 162.841 77.0883 159.904C80.024 156.969 82.0232 153.228 82.8332 149.156C83.6432 145.085 83.2276 140.864 81.6388 137.029C80.05 133.193 77.3593 129.915 73.9073 127.608C70.4553 125.301 66.397 124.07 62.2452 124.07Z" fill="#D6EEDD" fill-opacity="0.08"/>
<path d="M104.304 85.34C109.332 85.3453 114.154 87.3447 117.71 90.8998C121.267 94.4548 123.268 99.2752 123.276 104.304V123.272H104.304C99.2733 123.272 94.4487 121.273 90.8915 117.716C87.3343 114.159 85.336 109.334 85.336 104.304C85.336 99.2733 87.3343 94.4487 90.8915 90.8915C94.4487 87.3343 99.2733 85.336 104.304 85.336M104.304 83.3125C98.7365 83.3125 93.3974 85.524 89.4606 89.4606C85.524 93.3974 83.3125 98.7365 83.3125 104.304C83.3125 109.871 85.524 115.21 89.4606 119.147C93.3974 123.084 98.7365 125.295 104.304 125.295H125.295V104.304C125.294 98.7373 123.082 93.399 119.146 89.4633C115.209 85.5275 109.87 83.3165 104.304 83.3165V83.3125Z" fill="#D6EEDD" fill-opacity="0.08"/>
<path d="M145.062 85.34C150.093 85.34 154.916 87.3383 158.475 90.8955C162.031 94.4527 164.03 99.2773 164.03 104.308C164.03 109.339 162.031 114.163 158.475 117.72C154.916 121.277 150.093 123.276 145.062 123.276H126.094V104.304C126.1 99.2752 128.101 94.4543 131.656 90.8986C135.212 87.3428 140.033 85.3423 145.062 85.336M145.062 83.3125C139.494 83.3125 134.155 85.524 130.219 89.4606C126.282 93.3974 124.07 98.7365 124.07 104.304V125.295H145.062C150.629 125.295 155.968 123.084 159.904 119.147C163.842 115.21 166.053 109.871 166.053 104.304C166.053 98.7365 163.842 93.3974 159.904 89.4606C155.968 85.524 150.629 83.3125 145.062 83.3125Z" fill="#D6EEDD" fill-opacity="0.08"/>
<path d="M123.276 126.094V145.062C123.276 148.814 122.164 152.479 120.079 155.599C117.995 158.718 115.033 161.149 111.568 162.585C108.102 164.021 104.288 164.397 100.609 163.666C96.9296 162.934 93.5498 161.127 90.897 158.476C88.2442 155.823 86.4372 152.444 85.7049 148.765C84.9727 145.086 85.3477 141.272 86.7827 137.806C88.2177 134.34 90.6483 131.377 93.7669 129.292C96.8856 127.208 100.553 126.095 104.304 126.094H123.272M125.295 124.07H104.304C100.152 124.07 96.0936 125.301 92.6416 127.608C89.1896 129.915 86.4991 133.193 84.9103 137.029C83.3215 140.864 82.9059 145.085 83.7159 149.156C84.5257 153.228 86.525 156.969 89.4608 159.904C92.3964 162.841 96.1368 164.84 100.209 165.65C104.281 166.459 108.501 166.044 112.337 164.455C116.173 162.867 119.451 160.176 121.758 156.724C124.064 153.273 125.295 149.214 125.295 145.062V124.07Z" fill="#D6EEDD" fill-opacity="0.08"/>
<path d="M145.062 126.094C148.814 126.094 152.481 127.206 155.6 129.29C158.718 131.375 161.151 134.337 162.586 137.803C164.022 141.269 164.397 145.083 163.665 148.762C162.934 152.441 161.127 155.822 158.475 158.475C155.822 161.127 152.441 162.934 148.762 163.665C145.083 164.397 141.269 164.022 137.803 162.586C134.337 161.151 131.375 158.718 129.29 155.6C127.206 152.481 126.094 148.814 126.094 145.062V126.094H145.062ZM145.062 124.07H124.07V145.062C124.07 149.214 125.301 153.273 127.608 156.724C129.915 160.176 133.193 162.867 137.029 164.455C140.864 166.044 145.085 166.459 149.156 165.65C153.228 164.84 156.969 162.841 159.904 159.904C162.841 156.969 164.84 153.228 165.65 149.156C166.459 145.085 166.044 140.864 164.455 137.029C162.867 133.193 160.176 129.915 156.724 127.608C153.273 125.301 149.214 124.07 145.062 124.07Z" fill="#D6EEDD" fill-opacity="0.08"/>
<path d="M187.124 85.34C192.151 85.3463 196.972 87.3463 200.527 90.9011C204.084 94.4561 206.084 99.2759 206.091 104.304V123.272H187.124C182.093 123.272 177.269 121.273 173.711 117.716C170.155 114.159 168.156 109.334 168.156 104.304C168.156 99.2733 170.155 94.4487 173.711 90.8915C177.269 87.3343 182.093 85.336 187.124 85.336M187.124 83.3125C181.557 83.3125 176.218 85.524 172.282 89.4606C168.344 93.3974 166.133 98.7365 166.133 104.304C166.133 109.871 168.344 115.21 172.282 119.147C176.218 123.084 181.557 125.295 187.124 125.295H208.115V104.304C208.115 98.7365 205.904 93.3974 201.968 89.4606C198.03 85.524 192.692 83.3125 187.124 83.3125Z" fill="#D6EEDD" fill-opacity="0.08"/>
<path d="M206.091 126.094V145.062C206.091 148.814 204.979 152.481 202.895 155.6C200.811 158.718 197.848 161.151 194.383 162.586C190.917 164.022 187.103 164.397 183.424 163.665C179.745 162.934 176.364 161.127 173.711 158.475C171.058 155.822 169.252 152.441 168.521 148.762C167.788 145.083 168.164 141.269 169.599 137.803C171.035 134.337 173.466 131.375 176.585 129.29C179.705 127.206 183.372 126.094 187.124 126.094H206.091ZM208.115 124.07H187.124C182.972 124.07 178.913 125.301 175.461 127.608C172.01 129.915 169.319 133.193 167.731 137.029C166.142 140.864 165.727 145.085 166.536 149.156C167.345 153.228 169.345 156.969 172.281 159.904C175.216 162.841 178.957 164.84 183.029 165.65C187.1 166.459 191.321 166.044 195.157 164.455C198.993 162.867 202.272 160.176 204.577 156.724C206.884 153.273 208.115 149.214 208.115 145.062V124.07Z" fill="#D6EEDD" fill-opacity="0.08"/>
<path d="M21.4914 168.156C26.52 168.162 31.3409 170.164 34.8966 173.719C38.4524 177.275 40.4528 182.096 40.4593 187.124V206.093H21.4914C16.4608 206.093 11.6362 204.094 8.07903 200.536C4.52185 196.98 2.52346 192.154 2.52346 187.124C2.52346 182.093 4.52185 177.269 8.07903 173.711C11.6362 170.155 16.4608 168.156 21.4914 168.156ZM21.4914 166.133C15.924 166.133 10.5849 168.344 6.64823 172.282C2.71158 176.218 0.5 181.557 0.5 187.124C0.5 192.692 2.71158 198.031 6.64823 201.968C10.5849 205.904 15.924 208.116 21.4914 208.116H42.4828V187.124C42.4828 184.368 41.9397 181.638 40.8849 179.09C39.83 176.544 38.2837 174.23 36.3346 172.282C34.3852 170.332 32.0712 168.785 29.5245 167.731C26.9777 166.676 24.2481 166.133 21.4914 166.133Z" fill="#D6EEDD" fill-opacity="0.08"/>
<path d="M62.2452 168.156C67.2758 168.156 72.1004 170.155 75.6576 173.711C79.2147 177.269 81.2131 182.093 81.2131 187.124C81.2131 192.154 79.2147 196.98 75.6576 200.536C72.1004 204.094 67.2758 206.093 62.2452 206.093H43.2772V187.124C43.2837 182.096 45.2842 177.275 48.84 173.719C52.3957 170.164 57.2166 168.162 62.2452 168.156ZM62.2452 166.133C56.678 166.133 51.3386 168.344 47.402 172.282C43.4654 176.218 41.2539 181.557 41.2539 187.124V208.116H62.2452C67.8125 208.116 73.1517 205.904 77.0883 201.968C81.0249 198.031 83.2366 192.692 83.2366 187.124C83.2366 181.557 81.0249 176.218 77.0883 172.282C73.1517 168.344 67.8125 166.133 62.2452 166.133Z" fill="#D6EEDD" fill-opacity="0.08"/>
<path d="M104.304 168.156C109.332 168.162 114.153 170.164 117.709 173.719C121.265 177.275 123.265 182.096 123.272 187.124V206.093H104.304C99.2733 206.093 94.4487 204.094 90.8915 200.536C87.3343 196.98 85.336 192.154 85.336 187.124C85.336 182.093 87.3343 177.269 90.8915 173.711C94.4487 170.155 99.2733 168.156 104.304 168.156ZM104.304 166.133C98.7365 166.133 93.3974 168.344 89.4606 172.282C85.524 176.218 83.3125 181.557 83.3125 187.124C83.3125 192.692 85.524 198.031 89.4606 201.968C93.3974 205.904 98.7365 208.116 104.304 208.116H125.295V187.124C125.295 181.557 123.084 176.218 119.147 172.282C115.21 168.344 109.871 166.133 104.304 166.133Z" fill="#D6EEDD" fill-opacity="0.08"/>
<path d="M145.062 168.156C150.093 168.156 154.916 170.155 158.475 173.711C162.031 177.269 164.03 182.093 164.03 187.124C164.03 192.154 162.031 196.98 158.475 200.536C154.916 204.094 150.093 206.093 145.062 206.093H126.094V187.124C126.1 182.096 128.101 177.275 131.656 173.719C135.212 170.164 140.033 168.162 145.062 168.156ZM145.062 166.133C139.494 166.133 134.155 168.344 130.219 172.282C126.282 176.218 124.07 181.557 124.07 187.124V208.116H145.062C150.629 208.116 155.968 205.904 159.904 201.968C163.842 198.031 166.053 192.692 166.053 187.124C166.053 181.557 163.842 176.218 159.904 172.282C155.968 168.344 150.629 166.133 145.062 166.133Z" fill="#D6EEDD" fill-opacity="0.08"/>
<path d="M187.124 168.156C192.153 168.162 196.974 170.164 200.529 173.719C204.086 177.275 206.085 182.096 206.091 187.124V206.093H187.124C182.093 206.093 177.269 204.094 173.711 200.536C170.155 196.98 168.156 192.154 168.156 187.124C168.156 182.093 170.155 177.269 173.711 173.711C177.269 170.155 182.093 168.156 187.124 168.156ZM187.124 166.133C181.557 166.133 176.218 168.344 172.282 172.282C168.344 176.218 166.133 181.557 166.133 187.124C166.133 192.692 168.344 198.031 172.282 201.968C176.218 205.904 181.557 208.116 187.124 208.116H208.115V187.124C208.115 181.557 205.904 176.218 201.968 172.282C198.03 168.344 192.692 166.133 187.124 166.133Z" fill="#D6EEDD" fill-opacity="0.08"/>
</g>
</g>
<defs>
<clipPath id="clip0_2507_62999">
<rect width="414" height="414" fill="white" transform="translate(0.5 0.5)"/>
</clipPath>
</defs>
</svg>
