<svg viewBox="0 0 1440 187" fill="none" xmlns="http://www.w3.org/2000/svg">
<g clip-path="url(#clip0_1_2)">
<mask id="mask0_1_2" style="mask-type:luminance" maskUnits="userSpaceOnUse" x="0" y="0" width="720" height="721">
<path d="M719.794 0H0V720.257H719.794V0Z" fill="white"/>
</mask>
<g mask="url(#mask0_1_2)">
<path d="M59.9851 123.482C71.1549 123.482 82.0738 126.794 91.3611 133C100.648 139.206 107.887 148.026 112.161 158.346C116.435 168.666 117.553 180.021 115.373 190.976C113.194 201.931 107.814 211.994 99.9158 219.891C92.0171 227.789 81.9536 233.167 70.9984 235.345C60.0429 237.524 48.6879 236.404 38.3686 232.129C28.0494 227.854 19.2299 220.614 13.0253 211.326C6.82075 202.038 3.50981 191.119 3.51119 179.949V123.482H59.9851ZM59.9851 119.971H4.11241e-07V179.949C-0.00138852 191.813 3.51549 203.411 10.1059 213.277C16.6963 223.142 26.0642 230.832 37.025 235.373C47.9856 239.914 60.047 241.103 71.6834 238.789C83.3198 236.475 94.0088 230.763 102.399 222.374C110.788 213.985 116.502 203.297 118.817 191.661C121.132 180.025 119.945 167.963 115.405 157.002C110.865 146.041 103.176 136.672 93.3117 130.081C83.4473 123.489 71.8494 119.971 59.9851 119.971Z" fill="#34A853"/>
<path d="M179.946 123.482C191.116 123.482 202.035 126.794 211.322 133C220.609 139.206 227.848 148.026 232.122 158.346C236.396 168.666 237.514 180.021 235.334 190.976C233.155 201.931 227.775 211.994 219.877 219.891C211.978 227.789 201.915 233.167 190.959 235.345C180.004 237.524 168.649 236.404 158.33 232.129C148.011 227.854 139.191 220.614 132.986 211.326C126.782 202.038 123.471 191.119 123.472 179.949V123.482H179.946ZM179.946 119.971H119.961V179.949C119.96 191.813 123.477 203.411 130.067 213.277C136.657 223.142 146.025 230.832 156.986 235.373C167.947 239.914 180.008 241.103 191.644 238.789C203.281 236.475 213.97 230.763 222.359 222.374C230.749 213.985 236.463 203.297 238.778 191.661C241.093 180.025 239.906 167.963 235.366 157.002C230.826 146.041 223.138 136.672 213.273 130.081C203.408 123.489 191.81 119.971 179.946 119.971Z" fill="#34A853"/>
<path d="M59.9851 3.51119C74.9566 3.52977 89.3096 9.48588 99.8952 20.073C110.481 30.6601 116.435 45.0136 116.452 59.9851V116.459H59.9851C45.0072 116.459 30.6429 110.509 20.052 99.9181C9.46111 89.3273 3.51119 74.963 3.51119 59.9851C3.51119 45.0072 9.46111 30.6429 20.052 20.052C30.6429 9.46111 45.0072 3.51119 59.9851 3.51119ZM59.9851 0C44.076 0 28.8188 6.31984 17.5692 17.5692C6.31984 28.8188 0 44.076 0 59.9851C0 75.8942 6.31984 91.1517 17.5692 102.401C28.8188 113.651 44.076 119.97 59.9851 119.97H119.963V59.9851C119.963 44.0773 113.644 28.8208 102.396 17.5717C91.1486 6.32254 75.8929 0.00186231 59.9851 0Z" fill="#34A853"/>
<path d="M299.917 123.482C311.087 123.481 322.005 126.792 331.294 132.996C340.58 139.201 347.822 148.021 352.097 158.341C356.371 168.66 357.491 180.016 355.312 190.972C353.133 201.927 347.755 211.99 339.856 219.889C331.957 227.787 321.894 233.166 310.938 235.345C299.984 237.524 288.628 236.405 278.309 232.13C267.989 227.854 259.168 220.615 252.963 211.327C246.758 202.038 243.447 191.119 243.449 179.949V123.482H299.917ZM299.917 119.971H239.938V179.949C239.936 191.813 243.453 203.412 250.044 213.277C256.635 223.143 266.003 230.832 276.965 235.373C287.924 239.914 299.986 241.103 311.624 238.789C323.259 236.474 333.948 230.761 342.338 222.372C350.728 213.982 356.44 203.293 358.755 191.656C361.07 180.02 359.881 167.958 355.34 156.997C350.8 146.036 343.109 136.668 333.244 130.077C323.38 123.486 311.781 119.969 299.917 119.971Z" fill="#34A853"/>
<path d="M179.946 3.51119C194.918 3.52977 209.272 9.48565 219.859 20.0726C230.446 30.6594 236.402 45.0131 236.42 59.9851V116.459H179.946C164.968 116.459 150.604 110.509 140.013 99.9181C129.422 89.3273 123.472 74.963 123.472 59.9851C123.472 45.0072 129.422 30.6429 140.013 20.052C150.604 9.46111 164.968 3.51119 179.946 3.51119ZM179.946 0C164.037 0 148.78 6.31984 137.53 17.5692C126.281 28.8188 119.961 44.076 119.961 59.9851C119.961 75.8942 126.281 91.1517 137.53 102.401C148.78 113.651 164.037 119.97 179.946 119.97H239.931V59.9851C239.929 44.0767 233.609 28.8203 222.36 17.5713C211.111 6.3223 195.855 0.00186206 179.946 0Z" fill="#34A853"/>
<path d="M419.883 123.482C431.053 123.482 441.971 126.794 451.258 133C460.547 139.206 467.785 148.026 472.059 158.346C476.332 168.666 477.45 180.021 475.271 190.976C473.092 201.931 467.713 211.994 459.814 219.891C451.916 227.789 441.85 233.167 430.896 235.345C419.942 237.524 408.585 236.404 398.268 232.129C387.948 227.854 379.127 220.614 372.924 211.326C366.718 202.038 363.409 191.119 363.409 179.949V123.482H419.883ZM419.883 119.971H359.898V179.949C359.896 191.813 363.414 203.411 370.005 213.277C376.593 223.142 385.962 230.832 396.924 235.373C407.883 239.914 419.945 241.103 431.582 238.789C443.217 236.475 453.907 230.763 462.297 222.374C470.686 213.985 476.399 203.297 478.714 191.661C481.029 180.025 479.842 167.963 475.301 157.002C470.764 146.041 463.075 136.672 453.211 130.081C443.346 123.489 431.747 119.971 419.883 119.971Z" fill="#34A853"/>
<path d="M299.916 3.51119C314.886 3.52792 329.243 9.48321 339.829 20.0705C350.416 30.6578 356.372 45.0123 356.388 59.9851V116.459H299.916C284.938 116.459 270.574 110.509 259.982 99.9181C249.391 89.3273 243.441 74.963 243.441 59.9851C243.441 45.0072 249.391 30.6429 259.982 20.052C270.574 9.46111 284.938 3.51119 299.916 3.51119ZM299.916 0C284.005 0 268.749 6.31984 257.5 17.5692C246.25 28.8188 239.93 44.076 239.93 59.9851C239.93 75.8942 246.25 91.1517 257.5 102.401C268.749 113.651 284.005 119.97 299.916 119.97H359.9V59.9851C359.9 44.076 353.579 28.8188 342.33 17.5692C331.082 6.31984 315.824 0 299.916 0Z" fill="#34A853"/>
<path d="M539.844 123.482C551.014 123.482 561.932 126.794 571.219 133C580.505 139.206 587.744 148.026 592.02 158.346C596.293 168.666 597.411 180.021 595.232 190.976C593.053 201.931 587.672 211.994 579.773 219.891C571.874 227.789 561.811 233.167 550.857 235.345C539.901 237.524 528.545 236.404 518.226 232.129C507.906 227.854 499.088 220.614 492.885 211.326C486.679 202.038 483.367 191.119 483.369 179.949V123.482H539.844ZM539.844 119.971H479.859V179.949C479.857 191.813 483.375 203.411 489.963 213.277C496.554 223.142 505.923 230.832 516.882 235.373C527.844 239.914 539.906 241.103 551.541 238.789C563.178 236.475 573.868 230.763 582.258 222.374C590.647 213.985 596.36 203.297 598.675 191.661C600.99 180.025 599.803 167.963 595.262 157.002C590.722 146.041 583.034 136.672 573.169 130.081C563.304 123.489 551.708 119.971 539.844 119.971Z" fill="#34A853"/>
<path d="M419.883 3.51119C434.853 3.52977 449.207 9.48588 459.794 20.073C470.378 30.6601 476.334 45.0136 476.35 59.9851V116.459H419.883C404.905 116.459 390.541 110.509 379.949 99.9181C369.36 89.3273 363.409 74.963 363.409 59.9851C363.409 45.0072 369.36 30.6429 379.949 20.052C390.541 9.46111 404.905 3.51119 419.883 3.51119ZM419.883 0C403.975 0 388.716 6.31984 377.467 17.5692C366.217 28.8188 359.898 44.076 359.898 59.9851C359.898 75.8942 366.217 91.1517 377.467 102.401C388.716 113.651 403.975 119.97 419.883 119.97H479.86V59.9851C479.86 44.0773 473.541 28.8208 462.294 17.5717C451.047 6.32254 435.791 0.00186231 419.883 0Z" fill="#34A853"/>
<path d="M659.805 123.482C670.975 123.481 681.896 126.792 691.185 132.996C700.471 139.201 707.712 148.021 711.986 158.341C716.262 168.66 717.382 180.016 715.203 190.972C713.024 201.927 707.646 211.99 699.747 219.889C691.848 227.787 681.785 233.166 670.829 235.345C659.874 237.524 648.517 236.405 638.197 232.13C627.878 227.854 619.059 220.615 612.853 211.327C606.648 202.038 603.338 191.119 603.338 179.949V123.482H659.805ZM659.805 119.971H599.828V179.949C599.826 191.813 603.343 203.412 609.934 213.277C616.525 223.143 625.894 230.832 636.853 235.373C647.815 239.914 659.877 241.103 671.515 238.789C683.15 236.474 693.839 230.761 702.229 222.372C710.619 213.982 716.331 203.293 718.646 191.656C720.961 180.02 719.772 167.958 715.231 156.997C710.691 146.036 703 136.668 693.135 130.077C683.268 123.486 671.671 119.969 659.805 119.971Z" fill="#34A853"/>
<path d="M539.844 3.51119C554.814 3.52977 569.168 9.48565 579.755 20.0726C590.342 30.6594 596.298 45.0131 596.316 59.9851V116.459H539.844C524.866 116.459 510.502 110.509 499.91 99.9181C489.318 89.3273 483.369 74.963 483.369 59.9851C483.369 45.0072 489.318 30.6429 499.91 20.052C510.502 9.46111 524.866 3.51119 539.844 3.51119ZM539.844 0C523.933 0 508.677 6.31984 497.428 17.5692C486.178 28.8188 479.859 44.076 479.859 59.9851C479.859 75.8942 486.178 91.1517 497.428 102.401C508.677 113.651 523.933 119.97 539.844 119.97H599.829V59.9851C599.826 44.0767 593.505 28.8203 582.258 17.5713C571.008 6.3223 555.752 0.00186206 539.844 0Z" fill="#34A853"/>
<path d="M659.805 3.51119C674.778 3.52792 689.134 9.48321 699.721 20.0705C710.308 30.6578 716.264 45.0123 716.279 59.9851V116.459H659.805C644.829 116.459 630.463 110.509 619.873 99.9181C609.282 89.3273 603.333 74.963 603.333 59.9851C603.333 45.0072 609.282 30.6429 619.873 20.052C630.463 9.46111 644.829 3.51119 659.805 3.51119ZM659.805 0C643.897 0 628.641 6.31984 617.391 17.5692C606.141 28.8188 599.82 44.076 599.82 59.9851C599.82 75.8942 606.141 91.1517 617.391 102.401C628.641 113.651 643.897 119.97 659.805 119.97H719.792V59.9851C719.792 44.076 713.471 28.8188 702.221 17.5692C690.971 6.31984 675.716 0 659.805 0Z" fill="#34A853"/>
</g>
</g>
<g clip-path="url(#clip1_1_2)">
<mask id="mask1_1_2" style="mask-type:luminance" maskUnits="userSpaceOnUse" x="720" y="0" width="720" height="720">
<path d="M1439.8 0H720.258V720H1439.8V0Z" fill="white"/>
</mask>
<g mask="url(#mask1_1_2)">
<path d="M780.222 123.438C791.387 123.438 802.302 126.749 811.586 132.952C820.87 139.156 828.106 147.973 832.379 158.289C836.651 168.605 837.769 179.956 835.59 190.907C833.411 201.859 828.034 211.918 820.138 219.813C812.242 227.708 802.182 233.084 791.231 235.261C780.279 237.439 768.928 236.32 758.613 232.046C748.297 227.772 739.481 220.535 733.279 211.25C727.076 201.966 723.766 191.05 723.768 179.884V123.438H780.222ZM780.222 119.928H720.258V179.884C720.256 191.744 723.772 203.339 730.36 213.2C736.948 223.062 746.313 230.749 757.27 235.289C768.226 239.828 780.283 241.017 791.916 238.704C803.548 236.391 814.233 230.68 822.62 222.295C831.007 213.909 836.718 203.224 839.033 191.592C841.347 179.96 840.16 167.903 835.621 156.946C831.083 145.989 823.397 136.623 813.536 130.034C803.675 123.445 792.082 119.928 780.222 119.928Z" fill="#34A853"/>
<path d="M900.144 123.438C911.309 123.438 922.224 126.749 931.508 132.952C940.792 139.156 948.028 147.973 952.301 158.289C956.573 168.605 957.691 179.956 955.512 190.907C953.333 201.859 947.956 211.918 940.06 219.813C932.164 227.708 922.104 233.084 911.153 235.261C900.201 237.439 888.85 236.32 878.535 232.046C868.219 227.772 859.403 220.535 853.201 211.25C846.998 201.966 843.688 191.05 843.69 179.884V123.438H900.144ZM900.144 119.928H840.18V179.884C840.178 191.744 843.694 203.339 850.282 213.2C856.87 223.062 866.235 230.749 877.191 235.289C888.148 239.828 900.205 241.017 911.838 238.704C923.47 236.391 934.155 230.68 942.542 222.295C950.929 213.909 956.64 203.224 958.955 191.592C961.269 179.96 960.082 167.903 955.544 156.946C951.005 145.989 943.319 136.623 933.458 130.034C923.597 123.445 912.003 119.928 900.144 119.928Z" fill="#34A853"/>
<path d="M780.222 3.50994C795.188 3.52851 809.536 9.4825 820.117 20.0658C830.699 30.6492 836.651 44.9976 836.668 59.9637V116.418H780.222C765.249 116.418 750.89 110.47 740.303 99.8825C729.716 89.2954 723.768 74.9363 723.768 59.9637C723.768 44.9911 729.716 30.632 740.303 20.0449C750.89 9.45774 765.249 3.50994 780.222 3.50994ZM780.222 0C764.318 0 749.066 6.31758 737.821 17.563C726.575 28.8085 720.258 44.0603 720.258 59.9637C720.258 75.8671 726.575 91.1192 737.821 102.365C749.066 113.61 764.318 119.927 780.222 119.927H840.178V59.9637C840.178 44.0615 833.862 28.8105 822.618 17.5655C811.374 6.32028 796.124 0.00186164 780.222 0Z" fill="#34A853"/>
<path d="M1020.07 123.438C1031.23 123.436 1042.15 126.746 1051.43 132.949C1060.72 139.151 1067.95 147.968 1072.23 158.284C1076.5 168.6 1077.62 179.952 1075.44 190.903C1073.26 201.855 1067.89 211.915 1059.99 219.81C1052.1 227.706 1042.04 233.083 1031.08 235.261C1020.13 237.439 1008.78 236.32 998.467 232.047C988.151 227.773 979.333 220.536 973.13 211.251C966.928 201.966 963.618 191.051 963.619 179.884V123.438H1020.07ZM1020.07 119.928H960.109V179.884C960.108 191.745 963.624 203.339 970.212 213.201C976.801 223.063 986.166 230.75 997.124 235.289C1008.08 239.829 1020.14 241.017 1031.77 238.703C1043.4 236.39 1054.09 230.679 1062.47 222.292C1070.86 213.906 1076.57 203.22 1078.88 191.588C1081.2 179.956 1080.01 167.898 1075.47 156.941C1070.93 145.984 1063.24 136.619 1053.38 130.03C1043.52 123.442 1031.93 119.926 1020.07 119.928Z" fill="#34A853"/>
<path d="M900.144 3.50994C915.11 3.52851 929.459 9.48227 940.042 20.0654C950.625 30.6484 956.579 44.997 956.597 59.9637V116.418H900.144C885.171 116.418 870.812 110.47 860.225 99.8825C849.638 89.2954 843.69 74.9363 843.69 59.9637C843.69 44.9911 849.638 30.632 860.225 20.0449C870.812 9.45774 885.171 3.50994 900.144 3.50994ZM900.144 0C884.24 0 868.988 6.31758 857.743 17.563C846.497 28.8085 840.18 44.0603 840.18 59.9637C840.18 75.8671 846.497 91.1192 857.743 102.365C868.988 113.61 884.24 119.927 900.144 119.927H960.107V59.9637C960.105 44.061 953.787 28.81 942.542 17.565C931.297 6.32005 916.046 0.00186139 900.144 0Z" fill="#34A853"/>
<path d="M1139.99 123.438C1151.15 123.438 1162.07 126.749 1171.35 132.952C1180.64 139.156 1187.87 147.973 1192.14 158.289C1196.42 168.605 1197.53 179.956 1195.35 190.907C1193.18 201.859 1187.8 211.918 1179.9 219.813C1172.01 227.708 1161.95 233.084 1151 235.261C1140.05 237.439 1128.69 236.32 1118.38 232.046C1108.06 227.772 1099.24 220.535 1093.04 211.25C1086.84 201.966 1083.53 191.05 1083.53 179.884V123.438H1139.99ZM1139.99 119.928H1080.02V179.884C1080.02 191.744 1083.54 203.339 1090.13 213.2C1096.71 223.062 1106.08 230.749 1117.04 235.289C1127.99 239.828 1140.05 241.017 1151.68 238.704C1163.31 236.391 1174 230.68 1182.39 222.295C1190.77 213.909 1196.48 203.224 1198.8 191.592C1201.11 179.96 1199.92 167.903 1195.39 156.946C1190.85 145.989 1183.16 136.623 1173.3 130.034C1163.44 123.445 1151.85 119.928 1139.99 119.928Z" fill="#34A853"/>
<path d="M1020.07 3.50994C1035.03 3.52666 1049.38 9.47983 1059.97 20.0633C1070.55 30.6469 1076.5 44.9963 1076.52 59.9637V116.418H1020.07C1005.09 116.418 990.735 110.47 980.146 99.8825C969.559 89.2954 963.611 74.9363 963.611 59.9637C963.611 44.9911 969.559 30.632 980.146 20.0449C990.735 9.45774 1005.09 3.50994 1020.07 3.50994ZM1020.07 0C1004.16 0 988.911 6.31758 977.665 17.563C966.419 28.8085 960.102 44.0603 960.102 59.9637C960.102 75.8671 966.419 91.1192 977.665 102.365C988.911 113.61 1004.16 119.927 1020.07 119.927H1080.03V59.9637C1080.03 44.0603 1073.71 28.8085 1062.46 17.563C1051.22 6.31758 1035.97 0 1020.07 0Z" fill="#34A853"/>
<path d="M1259.91 123.438C1271.07 123.438 1281.99 126.749 1291.27 132.952C1300.56 139.156 1307.79 147.973 1312.07 158.289C1316.34 168.605 1317.45 179.956 1315.28 190.907C1313.1 201.859 1307.72 211.918 1299.82 219.813C1291.93 227.708 1281.87 233.084 1270.92 235.261C1259.97 237.439 1248.61 236.32 1238.3 232.046C1227.98 227.772 1219.17 220.535 1212.97 211.25C1206.76 201.966 1203.45 191.05 1203.45 179.884V123.438H1259.91ZM1259.91 119.928H1199.95V179.884C1199.94 191.744 1203.46 203.339 1210.05 213.2C1216.63 223.062 1226 230.749 1236.95 235.289C1247.91 239.828 1259.97 241.017 1271.6 238.704C1283.23 236.391 1293.92 230.68 1302.31 222.295C1310.69 213.909 1316.4 203.224 1318.72 191.592C1321.03 179.96 1319.85 167.903 1315.31 156.946C1310.77 145.989 1303.08 136.623 1293.22 130.034C1283.36 123.445 1271.77 119.928 1259.91 119.928Z" fill="#34A853"/>
<path d="M1139.99 3.50994C1154.95 3.52851 1169.3 9.4825 1179.88 20.0658C1190.46 30.6492 1196.42 44.9976 1196.43 59.9637V116.418H1139.99C1125.01 116.418 1110.65 110.47 1100.07 99.8825C1089.48 89.2954 1083.53 74.9363 1083.53 59.9637C1083.53 44.9911 1089.48 30.632 1100.07 20.0449C1110.65 9.45774 1125.01 3.50994 1139.99 3.50994ZM1139.99 0C1124.08 0 1108.83 6.31758 1097.59 17.563C1086.34 28.8085 1080.02 44.0603 1080.02 59.9637C1080.02 75.8671 1086.34 91.1192 1097.59 102.365C1108.83 113.61 1124.08 119.927 1139.99 119.927H1199.94V59.9637C1199.94 44.0615 1193.63 28.8105 1182.38 17.5655C1171.14 6.32028 1155.89 0.00186164 1139.99 0Z" fill="#34A853"/>
<path d="M1379.83 123.438C1391 123.436 1401.91 126.746 1411.2 132.949C1420.48 139.151 1427.72 147.968 1431.99 158.284C1436.27 168.6 1437.39 179.952 1435.21 190.903C1433.03 201.855 1427.65 211.915 1419.76 219.81C1411.86 227.706 1401.8 233.083 1390.85 235.261C1379.9 237.439 1368.55 236.32 1358.23 232.047C1347.91 227.773 1339.1 220.536 1332.9 211.251C1326.69 201.966 1323.38 191.051 1323.38 179.884V123.438H1379.83ZM1379.83 119.928H1319.88V179.884C1319.87 191.745 1323.39 203.339 1329.98 213.201C1336.57 223.063 1345.93 230.75 1356.89 235.289C1367.84 239.829 1379.9 241.017 1391.54 238.703C1403.17 236.39 1413.85 230.679 1422.24 222.292C1430.63 213.906 1436.34 203.22 1438.65 191.588C1440.96 179.956 1439.78 167.898 1435.24 156.941C1430.7 145.984 1423.01 136.619 1413.15 130.03C1403.29 123.442 1391.69 119.926 1379.83 119.928Z" fill="#34A853"/>
<path d="M1259.91 3.50994C1274.87 3.52851 1289.22 9.48227 1299.81 20.0654C1310.39 30.6484 1316.34 44.997 1316.36 59.9637V116.418H1259.91C1244.94 116.418 1230.58 110.47 1219.99 99.8825C1209.4 89.2954 1203.45 74.9363 1203.45 59.9637C1203.45 44.9911 1209.4 30.632 1219.99 20.0449C1230.58 9.45774 1244.94 3.50994 1259.91 3.50994ZM1259.91 0C1244 0 1228.75 6.31758 1217.51 17.563C1206.26 28.8085 1199.95 44.0603 1199.95 59.9637C1199.95 75.8671 1206.26 91.1192 1217.51 102.365C1228.75 113.61 1244 119.927 1259.91 119.927H1319.87V59.9637C1319.87 44.061 1313.55 28.81 1302.31 17.565C1291.06 6.32005 1275.81 0.00186139 1259.91 0Z" fill="#34A853"/>
<path d="M1379.83 3.50994C1394.8 3.52666 1409.15 9.47983 1419.73 20.0633C1430.32 30.6469 1436.27 44.9963 1436.28 59.9637V116.418H1379.83C1364.86 116.418 1350.5 110.47 1339.91 99.8825C1329.33 89.2954 1323.38 74.9363 1323.38 59.9637C1323.38 44.9911 1329.33 30.632 1339.91 20.0449C1350.5 9.45774 1364.86 3.50994 1379.83 3.50994ZM1379.83 0C1363.93 0 1348.68 6.31758 1337.43 17.563C1326.19 28.8085 1319.87 44.0603 1319.87 59.9637C1319.87 75.8671 1326.19 91.1192 1337.43 102.365C1348.68 113.61 1363.93 119.927 1379.83 119.927H1439.8V59.9637C1439.8 44.0603 1433.48 28.8085 1422.23 17.563C1410.99 6.31758 1395.74 0 1379.83 0Z" fill="#34A853"/>
</g>
</g>
<defs>
<clipPath id="clip0_1_2">
<rect width="720" height="187" fill="white"/>
</clipPath>
<clipPath id="clip1_1_2">
<rect width="720" height="187" fill="white" transform="translate(720)"/>
</clipPath>
</defs>
</svg>
