<svg viewBox="0 0 660 343" fill="none" xmlns="http://www.w3.org/2000/svg">
<g clip-path="url(#clip0_1_2)">
<mask id="mask0_1_2" style="mask-type:luminance" maskUnits="userSpaceOnUse" x="0" y="0" width="660" height="660">
<path d="M659.818 0H0.242188V660H659.818V0Z" fill="white"/>
</mask>
<g mask="url(#mask0_1_2)">
<path d="M55.2089 113.151C65.4442 113.151 75.4497 116.186 83.96 121.873C92.4703 127.559 99.103 135.642 103.02 145.098C106.936 154.555 107.961 164.96 105.963 174.998C103.966 185.037 99.0369 194.258 91.799 201.495C84.5611 208.732 75.3395 213.66 65.3008 215.656C55.2619 217.652 44.8568 216.626 35.4009 212.709C25.945 208.791 17.8633 202.157 12.1778 193.646C6.49231 185.135 3.45836 175.129 3.45963 164.894V113.151H55.2089ZM55.2089 109.934H0.242188V164.894C0.240915 175.765 3.46357 186.394 9.50263 195.434C15.5417 204.473 24.1258 211.52 34.1697 215.681C44.2133 219.842 55.2657 220.932 65.9286 218.812C76.5914 216.691 86.3862 211.457 94.074 203.77C101.762 196.083 106.998 186.289 109.119 175.626C111.24 164.963 110.152 153.911 105.992 143.867C101.832 133.823 94.7868 125.238 85.7474 119.198C76.7082 113.158 66.0807 109.934 55.2089 109.934Z" fill="#56B770"/>
<path d="M165.139 113.151C175.374 113.151 185.379 116.186 193.89 121.873C202.4 127.559 209.033 135.642 212.949 145.098C216.866 154.555 217.891 164.96 215.893 174.998C213.896 185.037 208.967 194.258 201.729 201.495C194.491 208.732 185.269 213.66 175.23 215.656C165.192 217.652 154.787 216.626 145.331 212.709C135.875 208.791 127.793 202.157 122.108 193.646C116.422 185.135 113.388 175.129 113.389 164.894V113.151H165.139ZM165.139 109.934H110.172V164.894C110.171 175.765 113.393 186.394 119.432 195.434C125.471 204.473 134.056 211.52 144.099 215.681C154.143 219.842 165.195 220.932 175.858 218.812C186.521 216.691 196.316 211.457 204.004 203.77C211.692 196.083 216.928 186.289 219.049 175.626C221.17 164.963 220.082 153.911 215.922 143.867C211.762 133.823 204.717 125.238 195.677 119.198C186.638 113.158 176.01 109.934 165.139 109.934Z" fill="#56B770"/>
<path d="M55.2089 3.21745C68.9279 3.23447 82.0801 8.69229 91.7802 18.3937C101.48 28.0951 106.936 41.2478 106.952 54.9667V106.716H55.2089C41.4841 106.716 28.3215 101.264 18.6167 91.5589C8.91178 81.8541 3.45963 68.6916 3.45963 54.9667C3.45963 41.2419 8.91178 28.0793 18.6167 18.3745C28.3215 8.66959 41.4841 3.21745 55.2089 3.21745ZM55.2089 0C40.6308 0 26.65 5.79112 16.3416 16.0994C6.0333 26.4078 0.242188 40.3886 0.242188 54.9667C0.242188 69.5449 6.0333 83.5259 16.3416 93.8342C26.65 104.142 40.6308 109.933 55.2089 109.933H110.169V54.9667C110.169 40.3897 104.379 26.4097 94.0722 16.1017C83.7653 5.79359 69.7859 0.00170651 55.2089 0Z" fill="#56B770"/>
<path d="M275.071 113.151C285.306 113.15 295.311 116.184 303.823 121.87C312.333 127.555 318.968 135.638 322.886 145.094C326.802 154.55 327.828 164.955 325.832 174.995C323.835 185.033 318.907 194.255 311.669 201.493C304.43 208.73 295.21 213.659 285.17 215.656C275.132 217.652 264.727 216.627 255.271 212.709C245.815 208.792 237.731 202.158 232.045 193.647C226.36 185.135 223.326 175.129 223.327 164.894V113.151H275.071ZM275.071 109.934H220.109V164.894C220.108 175.766 223.331 186.394 229.37 195.434C235.41 204.474 243.994 211.521 254.039 215.682C264.082 219.843 275.134 220.932 285.798 218.811C296.46 216.69 306.255 211.455 313.943 203.768C321.631 196.08 326.865 186.285 328.987 175.622C331.108 164.959 330.018 153.907 325.857 143.862C321.697 133.818 314.649 125.234 305.61 119.194C296.571 113.155 285.942 109.932 275.071 109.934Z" fill="#56B770"/>
<path d="M165.139 3.21745C178.858 3.23447 192.011 8.69208 201.712 18.3933C211.413 28.0944 216.871 41.2473 216.888 54.9667V106.716H165.139C151.414 106.716 138.251 101.264 128.546 91.5589C118.842 81.8541 113.389 68.6916 113.389 54.9667C113.389 41.2419 118.842 28.0793 128.546 18.3745C138.251 8.66959 151.414 3.21745 165.139 3.21745ZM165.139 0C150.561 0 136.58 5.79112 126.271 16.0994C115.963 26.4078 110.172 40.3886 110.172 54.9667C110.172 69.5449 115.963 83.5259 126.271 93.8342C136.58 104.142 150.561 109.933 165.139 109.933H220.106V54.9667C220.104 40.3893 214.312 26.4092 204.004 16.1013C193.696 5.79338 179.716 0.00170628 165.139 0Z" fill="#56B770"/>
<path d="M384.998 113.151C395.233 113.151 405.238 116.186 413.747 121.873C422.259 127.559 428.892 135.642 432.808 145.098C436.724 154.555 437.748 164.96 435.751 174.998C433.755 185.037 428.826 194.258 421.588 201.495C414.35 208.732 405.127 213.66 395.089 215.656C385.052 217.652 374.644 216.626 365.19 212.709C355.734 208.791 347.651 202.157 341.967 193.646C336.28 185.135 333.248 175.129 333.248 164.894V113.151H384.998ZM384.998 109.934H330.031V164.894C330.029 175.765 333.252 186.394 339.292 195.434C345.329 204.473 353.914 211.52 363.959 215.681C374.001 219.842 385.054 220.932 395.718 218.812C406.38 216.691 416.175 211.457 423.863 203.77C431.551 196.083 436.785 186.289 438.907 175.626C441.028 164.963 439.94 153.911 435.78 143.867C431.621 133.823 424.576 125.238 415.537 119.198C406.498 113.158 395.869 109.934 384.998 109.934Z" fill="#56B770"/>
<path d="M275.069 3.21745C288.787 3.23278 301.943 8.68984 311.644 18.3914C321.345 28.093 326.803 41.2466 326.817 54.9667V106.716H275.069C261.344 106.716 248.182 101.264 238.476 91.5589C228.771 81.8541 223.319 68.6916 223.319 54.9667C223.319 41.2419 228.771 28.0793 238.476 18.3745C248.182 8.66959 261.344 3.21745 275.069 3.21745ZM275.069 0C260.489 0 246.51 5.79112 236.202 16.0994C225.893 26.4078 220.102 40.3886 220.102 54.9667C220.102 69.5449 225.893 83.5259 236.202 93.8342C246.51 104.142 260.489 109.933 275.069 109.933H330.035V54.9667C330.035 40.3886 324.243 26.4078 313.935 16.0994C303.628 5.79112 289.647 0 275.069 0Z" fill="#56B770"/>
<path d="M494.919 113.151C505.155 113.151 515.16 116.186 523.669 121.873C532.179 127.559 538.812 135.642 542.73 145.098C546.646 154.555 547.67 164.96 545.673 174.998C543.676 185.037 538.746 194.258 531.508 201.495C524.27 208.732 515.049 213.66 505.011 215.656C494.971 217.652 484.566 216.626 475.11 212.709C465.654 208.791 457.573 202.157 451.889 193.646C446.202 185.135 443.167 175.129 443.17 164.894V113.151H494.919ZM494.919 109.934H439.953V164.894C439.951 175.765 443.174 186.394 449.212 195.434C455.251 204.473 463.836 211.52 473.879 215.681C483.923 219.842 494.976 220.932 505.638 218.812C516.302 216.691 526.097 211.457 533.785 203.77C541.473 196.083 546.707 186.289 548.828 175.626C550.95 164.963 549.862 153.911 545.701 143.867C541.541 133.823 534.496 125.238 525.456 119.198C516.417 113.158 505.791 109.934 494.919 109.934Z" fill="#56B770"/>
<path d="M384.998 3.21745C398.716 3.23447 411.868 8.69229 421.569 18.3937C431.268 28.0951 436.726 41.2478 436.74 54.9667V106.716H384.998C371.272 106.716 358.11 101.264 348.404 91.5589C338.701 81.8541 333.248 68.6916 333.248 54.9667C333.248 41.2419 338.701 28.0793 348.404 18.3745C358.11 8.66959 371.272 3.21745 384.998 3.21745ZM384.998 0C370.42 0 356.438 5.79112 346.13 16.0994C335.821 26.4078 330.031 40.3886 330.031 54.9667C330.031 69.5449 335.821 83.5259 346.13 93.8342C356.438 104.142 370.42 109.933 384.998 109.933H439.957V54.9667C439.957 40.3897 434.167 26.4097 423.861 16.1017C413.554 5.79359 399.575 0.00170651 384.998 0Z" fill="#56B770"/>
<path d="M604.85 113.151C615.085 113.15 625.092 116.184 633.604 121.87C642.114 127.555 648.749 135.638 652.665 145.094C656.583 154.55 657.61 164.955 655.613 174.995C653.616 185.033 648.688 194.255 641.45 201.493C634.212 208.73 624.991 213.659 614.951 215.656C604.913 217.652 594.506 216.627 585.05 212.709C575.594 208.792 567.513 202.158 561.826 193.647C556.14 185.135 553.107 175.129 553.107 164.894V113.151H604.85ZM604.85 109.934H549.891V164.894C549.888 175.766 553.112 186.394 559.151 195.434C565.191 204.474 573.776 211.521 583.818 215.682C593.863 219.843 604.916 220.932 615.58 218.811C626.242 216.69 636.037 211.455 643.725 203.768C651.412 196.08 656.647 186.285 658.768 175.622C660.89 164.959 659.8 153.907 655.639 143.862C651.478 133.818 644.431 125.234 635.392 119.194C626.35 113.155 615.723 109.932 604.85 109.934Z" fill="#56B770"/>
<path d="M494.919 3.21745C508.637 3.23447 521.79 8.69208 531.491 18.3933C541.192 28.0944 546.65 41.2473 546.667 54.9667V106.716H494.919C481.194 106.716 468.032 101.264 458.326 91.5589C448.62 81.8541 443.17 68.6916 443.17 54.9667C443.17 41.2419 448.62 28.0793 458.326 18.3745C468.032 8.66959 481.194 3.21745 494.919 3.21745ZM494.919 0C480.34 0 466.36 5.79112 456.052 16.0994C445.743 26.4078 439.953 40.3886 439.953 54.9667C439.953 69.5449 445.743 83.5259 456.052 93.8342C466.36 104.142 480.34 109.933 494.919 109.933H549.886V54.9667C549.883 40.3893 544.091 26.4092 533.785 16.1013C523.476 5.79338 509.497 0.00170628 494.919 0Z" fill="#56B770"/>
<path d="M604.849 3.21745C618.569 3.23278 631.725 8.68984 641.426 18.3914C651.127 28.093 656.585 41.2466 656.599 54.9667V106.716H604.849C591.126 106.716 577.962 101.264 568.258 91.5589C558.553 81.8541 553.102 68.6916 553.102 54.9667C553.102 41.2419 558.553 28.0793 568.258 18.3745C577.962 8.66959 591.126 3.21745 604.849 3.21745ZM604.849 0C590.272 0 576.292 5.79112 565.984 16.0994C555.675 26.4078 549.883 40.3886 549.883 54.9667C549.883 69.5449 555.675 83.5259 565.984 93.8342C576.292 104.142 590.272 109.933 604.849 109.933H659.818V54.9667C659.818 40.3886 654.025 26.4078 643.717 16.0994C633.408 5.79112 619.429 0 604.849 0Z" fill="#56B770"/>
</g>
</g>
<g clip-path="url(#clip1_1_2)">
<mask id="mask1_1_2" style="mask-type:luminance" maskUnits="userSpaceOnUse" x="0" y="-318" width="660" height="661">
<path d="M0.181641 342.834H659.758V-317.166H0.181641V342.834Z" fill="white"/>
</mask>
<g mask="url(#mask1_1_2)">
<path d="M604.791 229.683C594.556 229.683 584.55 226.648 576.04 220.961C567.53 215.275 560.897 207.192 556.98 197.736C553.064 188.279 552.039 177.874 554.037 167.836C556.034 157.797 560.963 148.576 568.201 141.339C575.439 134.102 584.661 129.174 594.699 127.178C604.738 125.182 615.143 126.208 624.599 130.125C634.055 134.043 642.137 140.677 647.822 149.188C653.508 157.699 656.542 167.705 656.54 177.94V229.683H604.791ZM604.791 232.9H659.758V177.94C659.759 167.069 656.536 156.44 650.497 147.4C644.458 138.361 635.874 131.314 625.83 127.153C615.787 122.992 604.734 121.902 594.071 124.022C583.409 126.143 573.614 131.377 565.926 139.064C558.238 146.751 553.002 156.545 550.881 167.208C548.76 177.871 549.848 188.923 554.008 198.967C558.168 209.011 565.213 217.596 574.253 223.636C583.292 229.676 593.919 232.9 604.791 232.9Z" fill="#56B770"/>
<path d="M494.861 229.683C484.626 229.683 474.621 226.648 466.11 220.961C457.6 215.275 450.967 207.192 447.051 197.736C443.134 188.279 442.109 177.874 444.107 167.836C446.104 157.797 451.033 148.576 458.271 141.339C465.509 134.102 474.731 129.174 484.77 127.178C494.808 125.182 505.213 126.208 514.669 130.125C524.125 134.043 532.207 140.677 537.892 149.188C543.578 157.699 546.612 167.705 546.611 177.94L546.611 229.683H494.861ZM494.861 232.9H549.828V177.94C549.829 167.069 546.607 156.44 540.568 147.4C534.529 138.361 525.944 131.314 515.901 127.153C505.857 122.992 494.805 121.902 484.142 124.022C473.479 126.143 463.684 131.377 455.996 139.064C448.308 146.751 443.072 156.545 440.951 167.208C438.83 177.871 439.918 188.923 444.078 198.967C448.238 209.011 455.283 217.596 464.323 223.636C473.362 229.676 483.99 232.9 494.861 232.9Z" fill="#56B770"/>
<path d="M604.791 339.617C591.072 339.6 577.92 334.142 568.22 324.44C558.52 314.739 553.064 301.586 553.048 287.867V236.118H604.791C618.516 236.118 631.678 241.57 641.383 251.275C651.088 260.98 656.54 274.142 656.54 287.867C656.54 301.592 651.088 314.755 641.383 324.46C631.678 334.164 618.516 339.617 604.791 339.617ZM604.791 342.834C619.369 342.834 633.35 337.043 643.658 326.735C653.967 316.426 659.758 302.445 659.758 287.867C659.758 273.289 653.967 259.308 643.658 249C633.35 238.691 619.369 232.901 604.791 232.901H549.831V287.867C549.831 302.444 555.621 316.424 565.928 326.732C576.235 337.04 590.214 342.832 604.791 342.834Z" fill="#56B770"/>
<path d="M384.929 229.683C374.694 229.684 364.689 226.65 356.177 220.964C347.667 215.279 341.032 207.196 337.114 197.74C333.198 188.284 332.172 177.879 334.168 167.839C336.165 157.8 341.093 148.579 348.331 141.341C355.57 134.104 364.79 129.175 374.83 127.178C384.868 125.182 395.273 126.207 404.729 130.125C414.185 134.042 422.269 140.676 427.955 149.187C433.64 157.699 436.674 167.705 436.673 177.94V229.683H384.929ZM384.929 232.9H439.891V177.94C439.892 167.068 436.669 156.44 430.63 147.4C424.59 138.36 416.006 131.313 405.961 127.152C395.918 122.991 384.866 121.902 374.202 124.023C363.54 126.144 353.745 131.379 346.057 139.066C338.369 146.754 333.135 156.549 331.013 167.212C328.892 177.875 329.982 188.927 334.143 198.972C338.303 209.016 345.351 217.6 354.39 223.64C363.429 229.679 374.058 232.902 384.929 232.9Z" fill="#56B770"/>
<path d="M494.861 339.617C481.142 339.6 467.989 334.142 458.288 324.441C448.587 314.74 443.129 301.587 443.112 287.867V236.118H494.861C508.586 236.118 521.749 241.57 531.454 251.275C541.158 260.98 546.611 274.142 546.611 287.867C546.611 301.592 541.158 314.755 531.454 324.46C521.749 334.164 508.586 339.617 494.861 339.617ZM494.861 342.834C509.439 342.834 523.42 337.043 533.729 326.735C544.037 316.426 549.828 302.445 549.828 287.867C549.828 273.289 544.037 259.308 533.729 249C523.42 238.691 509.439 232.901 494.861 232.901H439.894V287.867C439.896 302.445 445.688 316.425 455.996 326.733C466.304 337.041 480.284 342.832 494.861 342.834Z" fill="#56B770"/>
<path d="M275.002 229.683C264.767 229.683 254.762 226.648 246.253 220.961C237.741 215.275 231.108 207.192 227.192 197.736C223.276 188.279 222.252 177.874 224.249 167.836C226.245 157.797 231.174 148.576 238.412 141.339C245.65 134.102 254.873 129.174 264.911 127.178C274.948 125.182 285.356 126.208 294.81 130.125C304.266 134.043 312.349 140.677 318.033 149.188C323.72 157.699 326.752 167.705 326.752 177.94L326.752 229.683H275.002ZM275.002 232.9H329.969V177.94C329.971 167.069 326.748 156.44 320.708 147.4C314.671 138.361 306.086 131.314 296.041 127.153C285.999 122.992 274.946 121.902 264.282 124.022C253.62 126.143 243.825 131.377 236.137 139.064C228.449 146.751 223.215 156.545 221.093 167.208C218.972 177.871 220.06 188.923 224.22 198.967C228.379 209.011 235.424 217.596 244.463 223.636C253.502 229.676 264.131 232.9 275.002 232.9Z" fill="#56B770"/>
<path d="M384.931 339.617C371.213 339.601 358.057 334.144 348.356 324.443C338.655 314.741 333.197 301.587 333.183 287.867V236.118H384.931C398.656 236.118 411.818 241.57 421.524 251.275C431.229 260.98 436.681 274.142 436.681 287.867C436.681 301.592 431.229 314.755 421.524 324.46C411.818 334.164 398.656 339.617 384.931 339.617ZM384.931 342.834C399.511 342.834 413.49 337.043 423.798 326.735C434.107 316.426 439.898 302.445 439.898 287.867C439.898 273.289 434.107 259.308 423.798 249C413.49 238.691 399.511 232.901 384.931 232.901H329.965V287.867C329.965 302.445 335.757 316.426 346.065 326.735C356.372 337.043 370.353 342.834 384.931 342.834Z" fill="#56B770"/>
<path d="M165.081 229.683C154.845 229.683 144.84 226.648 136.331 220.961C127.821 215.275 121.188 207.192 117.27 197.736C113.354 188.279 112.33 177.874 114.327 167.836C116.324 157.797 121.254 148.576 128.492 141.339C135.73 134.102 144.951 129.174 154.989 127.178C165.029 125.182 175.434 126.208 184.89 130.125C194.346 134.043 202.427 140.677 208.111 149.188C213.798 157.699 216.833 167.705 216.83 177.94V229.683H165.081ZM165.081 232.9H220.047V177.94C220.049 167.069 216.826 156.44 210.788 147.4C204.749 138.361 196.164 131.314 186.121 127.153C176.077 122.992 165.024 121.902 154.362 124.022C143.698 126.143 133.903 131.377 126.215 139.064C118.527 146.751 113.293 156.545 111.172 167.208C109.05 177.871 110.138 188.923 114.299 198.967C118.459 209.011 125.504 217.596 134.544 223.636C143.583 229.676 154.209 232.9 165.081 232.9Z" fill="#56B770"/>
<path d="M275.002 339.617C261.284 339.6 248.132 334.142 238.431 324.44C228.732 314.739 223.274 301.586 223.26 287.867V236.118H275.002C288.728 236.118 301.89 241.57 311.596 251.275C321.299 260.98 326.752 274.142 326.752 287.867C326.752 301.592 321.299 314.755 311.596 324.46C301.89 334.164 288.728 339.617 275.002 339.617ZM275.002 342.834C289.58 342.834 303.562 337.043 313.87 326.735C324.179 316.426 329.969 302.445 329.969 287.867C329.969 273.289 324.179 259.308 313.87 249C303.562 238.691 289.58 232.901 275.002 232.901H220.043V287.867C220.043 302.444 225.833 316.424 236.139 326.732C246.446 337.04 260.425 342.832 275.002 342.834Z" fill="#56B770"/>
<path d="M55.1502 229.683C44.9147 229.684 34.9075 226.65 26.3956 220.964C17.886 215.279 11.2507 207.196 7.33492 197.74C3.41683 188.284 2.39021 177.879 4.38693 167.839C6.38365 157.8 11.3119 148.579 18.55 141.341C25.7881 134.104 35.0088 129.175 45.0489 127.178C55.0867 125.182 65.4941 126.207 74.9502 130.125C84.4064 134.042 92.4874 140.676 98.1738 149.187C103.86 157.699 106.893 167.705 106.893 177.94V229.683H55.1502ZM55.1502 232.9H110.109V177.94C110.112 167.068 106.888 156.44 100.849 147.4C94.8091 138.36 86.2241 131.313 76.1817 127.152C66.1369 122.991 55.0843 121.902 44.4202 124.023C33.7585 126.144 23.9632 131.379 16.2754 139.066C8.58757 146.754 3.35328 156.549 1.23176 167.212C-0.889748 177.875 0.20045 188.927 4.36106 198.972C8.52168 209.016 15.5691 217.6 24.6084 223.64C33.6502 229.679 44.2766 232.902 55.1502 232.9Z" fill="#56B770"/>
<path d="M165.081 339.617C151.363 339.6 138.21 334.142 128.509 324.441C118.808 314.74 113.35 301.587 113.333 287.867V236.118H165.081C178.806 236.118 191.968 241.57 201.674 251.275C211.38 260.98 216.83 274.142 216.83 287.867C216.83 301.592 211.38 314.755 201.674 324.46C191.968 334.164 178.806 339.617 165.081 339.617ZM165.081 342.834C179.66 342.834 193.64 337.043 203.948 326.735C214.257 316.426 220.047 302.445 220.047 287.867C220.047 273.289 214.257 259.308 203.948 249C193.64 238.691 179.66 232.901 165.081 232.901H110.114V287.867C110.117 302.445 115.909 316.425 126.215 326.733C136.524 337.041 150.503 342.832 165.081 342.834Z" fill="#56B770"/>
<path d="M55.1509 339.617C41.4306 339.601 28.2753 334.144 18.5743 324.443C8.87322 314.741 3.41522 301.587 3.4011 287.867V236.118H55.1509C68.8737 236.118 82.0383 241.57 91.7417 251.275C101.447 260.98 106.898 274.142 106.898 287.867C106.898 301.592 101.447 314.755 91.7417 324.46C82.0383 334.164 68.8737 339.617 55.1509 339.617ZM55.1509 342.834C69.7284 342.834 83.7078 337.043 94.0163 326.735C104.325 316.426 110.117 302.445 110.117 287.867C110.117 273.289 104.325 259.308 94.0163 249C83.7078 238.691 69.7284 232.901 55.1509 232.901H0.182348V287.867C0.182348 302.445 5.97469 316.426 16.2832 326.735C26.5917 337.043 40.5711 342.834 55.1509 342.834Z" fill="#56B770"/>
</g>
</g>
<defs>
<clipPath id="clip0_1_2">
<rect width="660" height="171.417" fill="white"/>
</clipPath>
<clipPath id="clip1_1_2">
<rect width="660" height="171.417" fill="white" transform="matrix(-1 0 0 -1 660 342.833)"/>
</clipPath>
</defs>
</svg>
