<svg width="20" height="21" viewBox="0 0 20 21" fill="none" xmlns="http://www.w3.org/2000/svg">
<g clip-path="url(#clip0_1663_3794)">
<path d="M0 8.5C0 4.08172 3.58172 0.5 8 0.5H12C16.4183 0.5 20 4.08172 20 8.5V12.5C20 16.9183 16.4183 20.5 12 20.5H8C3.58172 20.5 0 16.9183 0 12.5V8.5Z" fill="white" fill-opacity="0.01"/>
<path fill-rule="evenodd" clip-rule="evenodd" d="M15.1597 14.0145L11.6453 10.5L15.1597 6.98551C15.6134 6.53184 15.6134 5.79393 15.1597 5.34026C14.7061 4.88658 13.9682 4.88658 13.5145 5.34026L10 8.85474L6.48551 5.34026C6.03184 4.88658 5.29393 4.88658 4.84026 5.34026C4.38658 5.79393 4.38658 6.53184 4.84026 6.98551L8.35474 10.5L4.84026 14.0145C4.38658 14.4682 4.38658 15.2061 4.84026 15.6597C5.29393 16.1134 6.03184 16.1134 6.48551 15.6597L10 12.1453L13.5145 15.6597C13.9682 16.1134 14.7061 16.1134 15.1597 15.6597C15.6134 15.2061 15.6134 14.4682 15.1597 14.0145Z" fill="#606B85"/>
</g>
<defs>
<clipPath id="clip0_1663_3794">
<path d="M0 8.5C0 4.08172 3.58172 0.5 8 0.5H12C16.4183 0.5 20 4.08172 20 8.5V12.5C20 16.9183 16.4183 20.5 12 20.5H8C3.58172 20.5 0 16.9183 0 12.5V8.5Z" fill="white"/>
</clipPath>
</defs>
</svg>
