<svg width="28" height="28" viewBox="0 0 28 28" fill="none" xmlns="http://www.w3.org/2000/svg">
<path d="M22.1088 8.14631H18.6179V6.98267C18.6179 5.74821 18.1275 4.56431 17.2546 3.69141C16.3818 2.81851 15.1979 2.32813 13.9634 2.32812C12.7289 2.32813 11.545 2.81851 10.6721 3.69141C9.79923 4.56431 9.30884 5.74821 9.30884 6.98267V8.14631H5.81793C5.50932 8.14631 5.21334 8.2689 4.99512 8.48713C4.77689 8.70535 4.6543 9.00133 4.6543 9.30994V22.1099C4.6543 23.0358 5.02209 23.9237 5.67676 24.5784C6.33143 25.2331 7.21936 25.6009 8.14521 25.6009H19.7816C20.7074 25.6009 21.5953 25.2331 22.25 24.5784C22.9047 23.9237 23.2725 23.0358 23.2725 22.1099V9.30994C23.2725 9.00133 23.1499 8.70535 22.9317 8.48713C22.7134 8.2689 22.4175 8.14631 22.1088 8.14631ZM11.6361 6.98267C11.6361 6.36544 11.8813 5.77349 12.3178 5.33704C12.7542 4.90059 13.3462 4.6554 13.9634 4.6554C14.5806 4.6554 15.1726 4.90059 15.609 5.33704C16.0455 5.77349 16.2907 6.36544 16.2907 6.98267V8.14631H11.6361V6.98267ZM20.9452 22.1099C20.9452 22.4186 20.8226 22.7145 20.6044 22.9328C20.3862 23.151 20.0902 23.2736 19.7816 23.2736H8.14521C7.83659 23.2736 7.54062 23.151 7.32239 22.9328C7.10417 22.7145 6.98157 22.4186 6.98157 22.1099V10.4736H9.30884V11.6372C9.30884 11.9458 9.43144 12.2418 9.64966 12.46C9.86789 12.6783 10.1639 12.8009 10.4725 12.8009C10.7811 12.8009 11.0771 12.6783 11.2953 12.46C11.5135 12.2418 11.6361 11.9458 11.6361 11.6372V10.4736H16.2907V11.6372C16.2907 11.9458 16.4133 12.2418 16.6315 12.46C16.8497 12.6783 17.1457 12.8009 17.4543 12.8009C17.7629 12.8009 18.0589 12.6783 18.2771 12.46C18.4953 12.2418 18.6179 11.9458 18.6179 11.6372V10.4736H20.9452V22.1099Z" fill="#34A853"/>
</svg>
