<svg width="37" height="36" viewBox="0 0 37 36" fill="none" xmlns="http://www.w3.org/2000/svg">
<rect width="35.1207" height="35.1207" transform="translate(0.947266 0.796875)" fill="white" fill-opacity="0.01"/>
<path fill-rule="evenodd" clip-rule="evenodd" d="M33.1403 18.3602C33.1403 26.4421 26.5886 32.9938 18.5067 32.9938C10.4247 32.9938 3.87305 26.4421 3.87305 18.3602C3.87305 10.2783 10.4247 3.72656 18.5067 3.72656C26.5886 3.72656 33.1403 10.2783 33.1403 18.3602ZM17.1106 16.9642V12.4453C17.1106 12.262 17.1467 12.0804 17.2169 11.9111C17.287 11.7417 17.3899 11.5878 17.5195 11.4582C17.6491 11.3285 17.803 11.2257 17.9724 11.1555C18.1418 11.0854 18.3233 11.0493 18.5067 11.0493C18.69 11.0493 18.8715 11.0854 19.0409 11.1555C19.2103 11.2257 19.3642 11.3285 19.4938 11.4582C19.6235 11.5878 19.7263 11.7417 19.7964 11.9111C19.8666 12.0804 19.9027 12.262 19.9027 12.4453V16.9642H24.4216C24.6049 16.9642 24.7864 17.0003 24.9558 17.0704C25.1252 17.1406 25.2791 17.2434 25.4087 17.3731C25.5384 17.5027 25.6412 17.6566 25.7114 17.826C25.7815 17.9954 25.8176 18.1769 25.8176 18.3602C25.8176 18.5436 25.7815 18.7251 25.7114 18.8945C25.6412 19.0638 25.5384 19.2177 25.4087 19.3474C25.2791 19.477 25.1252 19.5798 24.9558 19.65C24.7864 19.7202 24.6049 19.7563 24.4216 19.7563H19.9027V24.2751C19.9027 24.4585 19.8666 24.64 19.7964 24.8094C19.7263 24.9788 19.6235 25.1327 19.4938 25.2623C19.3642 25.3919 19.2103 25.4948 19.0409 25.5649C18.8715 25.6351 18.69 25.6712 18.5067 25.6712C18.3233 25.6712 18.1418 25.6351 17.9724 25.5649C17.803 25.4948 17.6491 25.3919 17.5195 25.2623C17.3899 25.1327 17.287 24.9788 17.2169 24.8094C17.1467 24.64 17.1106 24.4585 17.1106 24.2751V19.7563H12.5918C12.4084 19.7563 12.2269 19.7202 12.0575 19.65C11.8881 19.5798 11.7342 19.477 11.6046 19.3474C11.475 19.2177 11.3721 19.0638 11.302 18.8945C11.2318 18.7251 11.1957 18.5436 11.1957 18.3602C11.1957 18.1769 11.2318 17.9954 11.302 17.826C11.3721 17.6566 11.475 17.5027 11.6046 17.3731C11.7342 17.2434 11.8881 17.1406 12.0575 17.0704C12.2269 17.0003 12.4084 16.9642 12.5918 16.9642H17.1106Z" fill="#34A853"/>
</svg>
