<svg width="24" height="25" viewBox="0 0 24 25" fill="none" xmlns="http://www.w3.org/2000/svg">
<path d="M13.3866 12.4997L20.4178 4.11847C20.5357 3.97919 20.4366 3.76758 20.2545 3.76758H18.117C17.9911 3.76758 17.8705 3.82383 17.7875 3.92026L11.9884 10.8336L6.18928 3.92026C6.10892 3.82383 5.98838 3.76758 5.85981 3.76758H3.72231C3.54017 3.76758 3.44106 3.97919 3.55892 4.11847L10.5902 12.4997L3.55892 20.881C3.53252 20.912 3.51558 20.95 3.51012 20.9904C3.50465 21.0308 3.5109 21.0719 3.5281 21.1088C3.5453 21.1458 3.57275 21.177 3.60717 21.1988C3.6416 21.2206 3.68156 21.2321 3.72231 21.2319H5.85981C5.98571 21.2319 6.10624 21.1756 6.18928 21.0792L11.9884 14.1658L17.7875 21.0792C17.8678 21.1756 17.9884 21.2319 18.117 21.2319H20.2545C20.4366 21.2319 20.5357 21.0203 20.4178 20.881L13.3866 12.4997Z" fill="#34A853"/>
</svg>
