<svg width="14" height="14" viewBox="0 0 14 14" fill="none" xmlns="http://www.w3.org/2000/svg">
<path d="M9.16559 9.16754L8.95935 8.9613L9.16559 9.16754C9.44866 8.88447 9.44866 8.4198 9.16559 8.13673L8.03016 7.0013L9.16559 5.86587C9.44866 5.58281 9.44866 5.11813 9.16559 4.83506C8.88252 4.55199 8.41785 4.55199 8.13478 4.83506L6.99935 5.97049L5.86392 4.83506C5.58085 4.55199 5.11618 4.55199 4.83311 4.83506C4.55004 5.11813 4.55004 5.58281 4.83311 5.86587L5.96854 7.0013L4.83311 8.13673C4.55004 8.4198 4.55004 8.88447 4.83311 9.16754C4.97819 9.31262 5.1645 9.3813 5.34852 9.3813C5.53253 9.3813 5.71884 9.31262 5.86392 9.16754L6.99935 8.03211L8.13478 9.16754C8.27986 9.31262 8.46617 9.3813 8.65018 9.3813C8.8342 9.3813 9.02051 9.31262 9.16559 9.16754ZM1.45768 7.0013C1.45768 3.94822 3.94626 1.45964 6.99935 1.45964C10.0524 1.45964 12.541 3.94822 12.541 7.0013C12.541 10.0544 10.0524 12.543 6.99935 12.543C3.94626 12.543 1.45768 10.0544 1.45768 7.0013Z" fill="#243665" stroke="#243665" stroke-width="0.583333"/>
</svg>
