<svg width="24" height="24" viewBox="0 0 24 24" fill="none" xmlns="http://www.w3.org/2000/svg">
<path d="M13.3866 11.9978L20.4178 3.61652C20.5357 3.47723 20.4366 3.26562 20.2545 3.26562H18.117C17.9911 3.26562 17.8705 3.32187 17.7875 3.4183L11.9884 10.3317L6.18928 3.4183C6.10892 3.32187 5.98838 3.26562 5.85981 3.26562H3.72231C3.54017 3.26562 3.44106 3.47723 3.55892 3.61652L10.5902 11.9978L3.55892 20.379C3.53252 20.4101 3.51558 20.448 3.51012 20.4884C3.50465 20.5288 3.5109 20.5699 3.5281 20.6069C3.5453 20.6438 3.57275 20.675 3.60717 20.6968C3.6416 20.7187 3.68156 20.7301 3.72231 20.7299H5.85981C5.98571 20.7299 6.10624 20.6737 6.18928 20.5772L11.9884 13.6638L17.7875 20.5772C17.8678 20.6737 17.9884 20.7299 18.117 20.7299H20.2545C20.4366 20.7299 20.5357 20.5183 20.4178 20.379L13.3866 11.9978Z" fill="#79756E"/>
</svg>
