<svg width="25" height="24" viewBox="0 0 25 24" fill="none" xmlns="http://www.w3.org/2000/svg">
<rect width="24" height="24" transform="translate(0.5)" fill="white" fill-opacity="0.01"/>
<path fill-rule="evenodd" clip-rule="evenodd" d="M12.5 21C10.22 21 6.5 12.314 6.5 9C6.5 7.4087 7.13214 5.88258 8.25736 4.75736C9.38258 3.63214 10.9087 3 12.5 3C14.0913 3 15.6174 3.63214 16.7426 4.75736C17.8679 5.88258 18.5 7.4087 18.5 9C18.5 12.314 14.78 21 12.5 21ZM12.5 12C12.8824 12 13.2611 11.9247 13.6144 11.7783C13.9677 11.632 14.2887 11.4175 14.5591 11.1471C14.8295 10.8767 15.044 10.5557 15.1903 10.2024C15.3367 9.84907 15.412 9.47041 15.412 9.088C15.412 8.70559 15.3367 8.32693 15.1903 7.97363C15.044 7.62033 14.8295 7.29931 14.5591 7.0289C14.2887 6.7585 13.9677 6.544 13.6144 6.39766C13.2611 6.25132 12.8824 6.176 12.5 6.176C11.7277 6.176 10.987 6.4828 10.4409 7.0289C9.8948 7.57501 9.588 8.31569 9.588 9.088C9.588 9.86031 9.8948 10.601 10.4409 11.1471C10.987 11.6932 11.7277 12 12.5 12Z" fill="#237037"/>
</svg>
