<svg width="20" height="21" viewBox="0 0 20 21" fill="none" xmlns="http://www.w3.org/2000/svg">
<rect width="19.5" height="19.5" transform="translate(0.0234375 0.75)" fill="white" fill-opacity="0.01"/>
<path d="M8.14844 16.1875H14.6484V7.25H8.14844V16.1875ZM6.52344 7.2435C6.52344 6.34975 7.25631 5.625 8.15575 5.625H14.6411C15.543 5.625 16.2734 6.35056 16.2734 7.2435V16.194C16.2734 17.0877 15.5406 17.8125 14.6411 17.8125H8.15656C7.94306 17.8135 7.73145 17.7724 7.53383 17.6915C7.33621 17.6107 7.15644 17.4918 7.00479 17.3415C6.85314 17.1912 6.73258 17.0125 6.64999 16.8156C6.5674 16.6187 6.5244 16.4075 6.52344 16.194V7.2435Z" fill="#34A853"/>
<path d="M4.08594 13.75V4.806C4.08594 3.91225 4.81881 3.1875 5.71825 3.1875H12.2109V13.75H4.08594ZM5.71094 13.75H12.2109V4.8125H5.71094V13.75Z" fill="#34A853"/>
</svg>
