<svg width="34" height="34" viewBox="0 0 34 34" fill="none" xmlns="http://www.w3.org/2000/svg">
<g clip-path="url(#clip0_2506_57253)">
<rect width="23.8737" height="23.8737" transform="translate(0.484375 13.1484) rotate(-32.0338)" fill="white" fill-opacity="0.01"/>
<path fill-rule="evenodd" clip-rule="evenodd" d="M8.81178 20.8308L23.9907 11.3335L27.1628 16.4032C27.7432 17.3308 27.4591 18.5646 26.5315 19.145L14.7257 26.5318C13.7981 27.1122 12.5643 26.8281 11.9839 25.9005L8.81178 20.8308ZM13.997 23.4675L15.6836 22.4123L14.6283 20.7257L12.9418 21.781L13.997 23.4675ZM22.9381 9.65114L21.8865 7.9705C21.3061 7.04289 20.0723 6.75881 19.1447 7.3392L7.33889 14.726C6.41129 15.3064 6.12721 16.5402 6.7076 17.4678L7.75916 19.1484" fill="#C3423F"/>
</g>
<defs>
<clipPath id="clip0_2506_57253">
<rect width="23.8737" height="23.8737" fill="white" transform="translate(0.484375 13.1484) rotate(-32.0338)"/>
</clipPath>
</defs>
</svg>
