<svg width="20" height="20" viewBox="0 0 20 20" fill="none" xmlns="http://www.w3.org/2000/svg">
<rect width="20" height="20" fill="white" fill-opacity="0.01"/>
<path fill-rule="evenodd" clip-rule="evenodd" d="M9.99935 18.3346C14.6017 18.3346 18.3327 14.6037 18.3327 10.0013C18.3327 5.39893 14.6017 1.66797 9.99935 1.66797C5.39698 1.66797 1.66602 5.39893 1.66602 10.0013C1.66602 14.6037 5.39698 18.3346 9.99935 18.3346ZM8.82585 10.0141L7.59685 11.2505C7.51751 11.3276 7.45431 11.4197 7.41095 11.5215C7.36758 11.6233 7.34492 11.7327 7.34429 11.8433C7.34365 11.9539 7.36506 12.0636 7.40725 12.1659C7.44944 12.2681 7.51157 12.361 7.59002 12.439C7.66848 12.517 7.76168 12.5786 7.86419 12.6202C7.96671 12.6618 8.07648 12.6826 8.18711 12.6814C8.29774 12.6801 8.40701 12.6568 8.50855 12.6129C8.61009 12.5689 8.70186 12.5052 8.77852 12.4255L10.0016 11.195L11.201 12.3997C11.3569 12.5563 11.5687 12.6447 11.7898 12.6452C12.0108 12.6458 12.2231 12.5585 12.3798 12.4026C12.5365 12.2466 12.6248 12.0349 12.6254 11.8138C12.6259 11.5927 12.5386 11.3805 12.3827 11.2238L11.1766 10.013L12.4119 8.77045C12.5633 8.61287 12.6467 8.40211 12.6442 8.18358C12.6417 7.96506 12.5535 7.75626 12.3985 7.60216C12.2436 7.44807 12.0343 7.36102 11.8157 7.35977C11.5972 7.35851 11.3869 7.44315 11.2302 7.59545L10.0006 8.83241L8.74935 7.57632C8.59251 7.42415 8.38218 7.33968 8.16366 7.3411C7.94514 7.34252 7.73592 7.42972 7.58107 7.58391C7.42623 7.73811 7.33814 7.94695 7.33579 8.16546C7.33344 8.38398 7.41702 8.59467 7.56852 8.75215L8.82585 10.0141Z" fill="#34A853"/>
</svg>
