<svg width="24" height="24" viewBox="0 0 24 24" fill="none" xmlns="http://www.w3.org/2000/svg">
<g clip-path="url(#clip0_1660_48997)">
<path d="M0 8C0 3.58172 3.58172 0 8 0H16C20.4183 0 24 3.58172 24 8V16C24 20.4183 20.4183 24 16 24H8C3.58172 24 0 20.4183 0 16V8Z" fill="white" fill-opacity="0.01"/>
<path fill-rule="evenodd" clip-rule="evenodd" d="M14.7 2.40039H9.30002C8.14023 2.40039 7.20002 3.34059 7.20002 4.50039V6.00039H5.40002H3.00002L2.89217 6.01006C2.61227 6.06086 2.40002 6.30584 2.40002 6.60039C2.40002 6.93176 2.66865 7.20039 3.00002 7.20039H4.80002V19.5004C4.80002 20.661 5.72901 21.6004 6.88802 21.6004H17.1C18.2598 21.6004 19.2 20.6602 19.2 19.5004V7.20039H21L21.1079 7.19072C21.3878 7.13992 21.6 6.89494 21.6 6.60039C21.6 6.26902 21.3314 6.00039 21 6.00039H18.6H16.8V4.50039C16.8 3.34059 15.8598 2.40039 14.7 2.40039ZM15.5988 6.00039L15.6 4.50039C15.6 4.04476 15.2614 3.6682 14.8221 3.60861L14.7 3.60039H9.30002C8.80297 3.60039 8.40002 4.00333 8.40002 4.50039L8.39882 6.00039H15.5988ZM7.80002 7.20039H5.99882L6.00002 19.5004C6.00002 19.9595 6.33171 20.3332 6.76693 20.3922L6.88802 20.4004H17.1C17.5971 20.4004 18 19.9974 18 19.5004L17.9988 7.20039H16.2H7.80002ZM10.2 10.8004C10.4946 10.8004 10.7396 11.0126 10.7904 11.2925L10.8 11.4004V16.2004C10.8 16.5318 10.5314 16.8004 10.2 16.8004C9.90547 16.8004 9.66049 16.5881 9.60969 16.3082L9.60002 16.2004V11.4004C9.60002 11.069 9.86865 10.8004 10.2 10.8004ZM14.3904 11.2925C14.3396 11.0126 14.0946 10.8004 13.8 10.8004C13.4687 10.8004 13.2 11.069 13.2 11.4004V16.2004L13.2097 16.3082C13.2605 16.5881 13.5055 16.8004 13.8 16.8004C14.1314 16.8004 14.4 16.5318 14.4 16.2004V11.4004L14.3904 11.2925Z" fill="#606B85"/>
</g>
<defs>
<clipPath id="clip0_1660_48997">
<path d="M0 8C0 3.58172 3.58172 0 8 0H16C20.4183 0 24 3.58172 24 8V16C24 20.4183 20.4183 24 16 24H8C3.58172 24 0 20.4183 0 16V8Z" fill="white"/>
</clipPath>
</defs>
</svg>
