<svg width="20" height="18" viewBox="0 0 20 18" fill="none" xmlns="http://www.w3.org/2000/svg">
<path d="M11.3 9.22C11.8336 8.75813 12.2616 8.18688 12.5549 7.54502C12.8482 6.90316 13 6.20571 13 5.5C13 4.17392 12.4732 2.90215 11.5355 1.96447C10.5979 1.02678 9.32608 0.5 8 0.5C6.67392 0.5 5.40215 1.02678 4.46447 1.96447C3.52678 2.90215 3 4.17392 3 5.5C2.99999 6.20571 3.1518 6.90316 3.44513 7.54502C3.73845 8.18688 4.16642 8.75813 4.7 9.22C3.30014 9.85388 2.11247 10.8775 1.27898 12.1685C0.445495 13.4596 0.00147185 14.9633 0 16.5C0 16.7652 0.105357 17.0196 0.292893 17.2071C0.48043 17.3946 0.734784 17.5 1 17.5C1.26522 17.5 1.51957 17.3946 1.70711 17.2071C1.89464 17.0196 2 16.7652 2 16.5C2 14.9087 2.63214 13.3826 3.75736 12.2574C4.88258 11.1321 6.4087 10.5 8 10.5C9.5913 10.5 11.1174 11.1321 12.2426 12.2574C13.3679 13.3826 14 14.9087 14 16.5C14 16.7652 14.1054 17.0196 14.2929 17.2071C14.4804 17.3946 14.7348 17.5 15 17.5C15.2652 17.5 15.5196 17.3946 15.7071 17.2071C15.8946 17.0196 16 16.7652 16 16.5C15.9985 14.9633 15.5545 13.4596 14.721 12.1685C13.8875 10.8775 12.6999 9.85388 11.3 9.22ZM8 8.5C7.40666 8.5 6.82664 8.32405 6.33329 7.99441C5.83994 7.66476 5.45542 7.19623 5.22836 6.64805C5.0013 6.09987 4.94189 5.49667 5.05764 4.91473C5.1734 4.33279 5.45912 3.79824 5.87868 3.37868C6.29824 2.95912 6.83279 2.6734 7.41473 2.55764C7.99667 2.44189 8.59987 2.5013 9.14805 2.72836C9.69623 2.95542 10.1648 3.33994 10.4944 3.83329C10.8241 4.32664 11 4.90666 11 5.5C11 6.29565 10.6839 7.05871 10.1213 7.62132C9.55871 8.18393 8.79565 8.5 8 8.5ZM18.91 9L19.71 8.21C19.8032 8.11676 19.8772 8.00607 19.9277 7.88425C19.9781 7.76243 20.0041 7.63186 20.0041 7.5C20.0041 7.36814 19.9781 7.23757 19.9277 7.11575C19.8772 6.99393 19.8032 6.88324 19.71 6.79C19.6168 6.69676 19.5061 6.6228 19.3842 6.57234C19.2624 6.52188 19.1319 6.49591 19 6.49591C18.8681 6.49591 18.7376 6.52188 18.6158 6.57234C18.4939 6.6228 18.3832 6.69676 18.29 6.79L17.5 7.59L16.71 6.79C16.6168 6.69676 16.5061 6.6228 16.3842 6.57234C16.2624 6.52188 16.1319 6.49591 16 6.49591C15.7337 6.49591 15.4783 6.6017 15.29 6.79C15.1968 6.88324 15.1228 6.99393 15.0723 7.11575C15.0219 7.23757 14.9959 7.36814 14.9959 7.5C14.9959 7.7663 15.1017 8.0217 15.29 8.21L16.09 9L15.29 9.79C15.1963 9.88296 15.1219 9.99356 15.0711 10.1154C15.0203 10.2373 14.9942 10.368 14.9942 10.5C14.9942 10.632 15.0203 10.7627 15.0711 10.8846C15.1219 11.0064 15.1963 11.117 15.29 11.21C15.383 11.3037 15.4936 11.3781 15.6154 11.4289C15.7373 11.4797 15.868 11.5058 16 11.5058C16.132 11.5058 16.2627 11.4797 16.3846 11.4289C16.5064 11.3781 16.617 11.3037 16.71 11.21L17.5 10.41L18.29 11.21C18.383 11.3037 18.4936 11.3781 18.6154 11.4289C18.7373 11.4797 18.868 11.5058 19 11.5058C19.132 11.5058 19.2627 11.4797 19.3846 11.4289C19.5064 11.3781 19.617 11.3037 19.71 11.21C19.8037 11.117 19.8781 11.0064 19.9289 10.8846C19.9797 10.7627 20.0058 10.632 20.0058 10.5C20.0058 10.368 19.9797 10.2373 19.9289 10.1154C19.8781 9.99356 19.8037 9.88296 19.71 9.79L18.91 9Z" fill="#34A853"/>
</svg>
