<svg width="33" height="33" viewBox="0 0 33 33" fill="none" xmlns="http://www.w3.org/2000/svg">
<g clip-path="url(#clip0_2629_63446)">
<circle cx="16.0605" cy="16.6621" r="16.0605" fill="#F1E9DB"/>
<path fill-rule="evenodd" clip-rule="evenodd" d="M23.4754 10.754C23.832 10.754 24.1289 11.0501 24.1289 11.4268V11.7751C24.1289 12.1427 23.832 12.448 23.4754 12.448H8.28327C7.92578 12.448 7.62891 12.1427 7.62891 11.7751V11.4268C7.62891 11.0501 7.92578 10.754 8.28327 10.754H10.956C11.4989 10.754 11.9714 10.3681 12.0936 9.82356L12.2335 9.1984C12.4511 8.34683 13.1669 7.78125 13.9862 7.78125H17.7716C18.582 7.78125 19.3059 8.34683 19.5154 9.15349L19.6651 9.82265C19.7864 10.3681 20.2589 10.754 20.8027 10.754H23.4754ZM22.1176 23.4874C22.3966 20.8869 22.8852 14.7086 22.8852 14.6463C22.903 14.4574 22.8415 14.2787 22.7193 14.1348C22.5883 14 22.4225 13.9203 22.2397 13.9203H9.52505C9.3414 13.9203 9.16667 14 9.04542 14.1348C8.92239 14.2787 8.86177 14.4574 8.87069 14.6463C8.87232 14.6577 8.88985 14.8754 8.91916 15.2392C9.04936 16.8555 9.41198 21.3572 9.6463 23.4874C9.81212 25.0568 10.8418 26.0431 12.3333 26.0788C13.4842 26.1054 14.6699 26.1146 15.8824 26.1146C17.0244 26.1146 18.1843 26.1054 19.3708 26.0788C20.914 26.0522 21.9428 25.0833 22.1176 23.4874Z" fill="#DE350B"/>
</g>
<defs>
<clipPath id="clip0_2629_63446">
<rect width="32.1211" height="32.1211" fill="white" transform="translate(0 0.601562)"/>
</clipPath>
</defs>
</svg>
