<svg width="20" height="23" viewBox="0 0 20 23" fill="none" xmlns="http://www.w3.org/2000/svg">
<g id="Delete">
<path id="Delete_2" fill-rule="evenodd" clip-rule="evenodd" d="M19.0519 4.43479C19.4784 4.43479 19.8335 4.78895 19.8335 5.23961V5.65627C19.8335 6.09596 19.4784 6.46109 19.0519 6.46109H0.879414C0.451789 6.46109 0.0966797 6.09596 0.0966797 5.65627V5.23961C0.0966797 4.78895 0.451789 4.43479 0.879414 4.43479H4.07647C4.7259 4.43479 5.29109 3.97317 5.43719 3.32186L5.60461 2.57406C5.86481 1.55543 6.72113 0.878906 7.70114 0.878906H12.2291C13.1984 0.878906 14.0643 1.55543 14.3149 2.52034L14.4941 3.32077C14.6391 3.97317 15.2043 4.43479 15.8548 4.43479H19.0519ZM17.4274 19.6642C17.7612 16.5535 18.3456 9.16323 18.3456 9.08867C18.3669 8.86279 18.2933 8.64898 18.1472 8.47683C17.9904 8.31565 17.7921 8.22026 17.5735 8.22026H2.36456C2.14488 8.22026 1.93587 8.31565 1.79084 8.47683C1.64368 8.64898 1.57116 8.86279 1.58183 9.08867C1.58378 9.10237 1.60475 9.36269 1.63981 9.79791C1.79555 11.7313 2.2293 17.1161 2.50959 19.6642C2.70794 21.5414 3.93963 22.7212 5.7237 22.764C7.10042 22.7958 8.51873 22.8067 9.96902 22.8067C11.3351 22.8067 12.7225 22.7958 14.1418 22.764C15.9878 22.7322 17.2184 21.5732 17.4274 19.6642Z" fill="#DE350B"/>
</g>
</svg>
