<svg width="24" height="24" viewBox="0 0 24 24" fill="none" xmlns="http://www.w3.org/2000/svg">
<rect width="24" height="24" transform="translate(0.00195312)" fill="white" fill-opacity="0.01"/>
<path d="M14.002 17H20.002C20.005 17 20.002 7.006 20.002 7.006C20.002 7 14.002 7 14.002 7V17ZM12.002 5H20.002C21.107 5 22.002 5.897 22.002 7.006V16.994C22.003 17.2572 21.952 17.5181 21.852 17.7615C21.7519 18.005 21.6047 18.2263 21.4189 18.4127C21.233 18.5991 21.0122 18.7469 20.769 18.8477C20.5259 18.9485 20.2652 19.0003 20.002 19H12.002V5ZM2.00196 7H10.002V5H2.99896C2.86774 4.99987 2.73779 5.02566 2.61657 5.07591C2.49536 5.12615 2.38526 5.19986 2.29262 5.29278C2.19997 5.3857 2.1266 5.49602 2.07672 5.61739C2.02684 5.73876 2.00143 5.86878 2.00196 6V7ZM2.00196 11H10.002V9H2.00196V11ZM2.00196 18C2.00196 18.552 2.45496 19 2.99896 19H10.002V17H2.00196V18ZM2.00196 15H10.002V13H2.00196V15Z" fill="#34A853"/>
</svg>
