<svg width="32" height="32" viewBox="0 0 32 32" fill="none" xmlns="http://www.w3.org/2000/svg">
<rect width="31.0097" height="31.0097" transform="translate(0.919922 0.847656)" fill="white" fill-opacity="0.01"/>
<path fill-rule="evenodd" clip-rule="evenodd" d="M29.3453 16.3543C29.3453 23.4902 23.5605 29.275 16.4246 29.275C9.2887 29.275 3.50391 23.4902 3.50391 16.3543C3.50391 9.21839 9.2887 3.43359 16.4246 3.43359C23.5605 3.43359 29.3453 9.21839 29.3453 16.3543ZM13.0425 15.1513C13.2001 15.219 13.3427 15.3174 13.4619 15.4408L15.1325 17.1115L19.3873 12.8567C19.5065 12.7333 19.6491 12.6348 19.8067 12.5671C19.9644 12.4994 20.1339 12.4638 20.3055 12.4623C20.477 12.4608 20.6472 12.4935 20.8059 12.5584C20.9647 12.6234 21.109 12.7194 21.2303 12.8407C21.3516 12.962 21.4476 13.1062 21.5125 13.265C21.5775 13.4238 21.6102 13.594 21.6087 13.7655C21.6072 13.9371 21.5716 14.1066 21.5039 14.2643C21.4361 14.4219 21.3377 14.5645 21.2143 14.6837L16.046 19.8519C15.8037 20.0942 15.4751 20.2303 15.1325 20.2303C14.7899 20.2303 14.4613 20.0942 14.219 19.8519L11.6349 17.2678C11.5115 17.1486 11.4131 17.006 11.3453 16.8484C11.2776 16.6908 11.242 16.5212 11.2405 16.3497C11.239 16.1781 11.2717 16.008 11.3367 15.8492C11.4016 15.6904 11.4976 15.5461 11.6189 15.4248C11.7402 15.3035 11.8845 15.2076 12.0433 15.1426C12.202 15.0776 12.3722 15.0449 12.5437 15.0464C12.7153 15.0479 12.8848 15.0836 13.0425 15.1513Z" fill="#DE350B" fill-opacity="0.53"/>
</svg>
