<svg width="23" height="22" viewBox="0 0 23 22" fill="none" xmlns="http://www.w3.org/2000/svg">
<path fill-rule="evenodd" clip-rule="evenodd" d="M20.603 10.9656C20.603 16.012 16.512 20.103 11.4656 20.103C6.41909 20.103 2.32812 16.012 2.32812 10.9656C2.32812 5.91909 6.41909 1.82812 11.4656 1.82812C16.512 1.82812 20.603 5.91909 20.603 10.9656ZM9.07374 10.1148C9.18522 10.1627 9.28605 10.2323 9.37034 10.3196L10.5518 11.501L13.5608 8.49207C13.6451 8.4048 13.7459 8.33519 13.8574 8.2873C13.9688 8.23941 14.0887 8.2142 14.2101 8.21315C14.3314 8.21209 14.4517 8.23521 14.564 8.28116C14.6763 8.3271 14.7783 8.39495 14.8641 8.48074C14.9499 8.56654 15.0178 8.66856 15.0637 8.78085C15.1096 8.89315 15.1328 9.01347 15.1317 9.1348C15.1307 9.25612 15.1055 9.37602 15.0576 9.4875C15.0097 9.59899 14.9401 9.69981 14.8528 9.7841L11.1978 13.4391C11.0265 13.6104 10.7941 13.7066 10.5518 13.7066C10.3095 13.7066 10.0771 13.6104 9.90579 13.4391L8.07831 11.6116C7.99103 11.5273 7.92142 11.4265 7.87353 11.315C7.82565 11.2035 7.80044 11.0836 7.79939 10.9623C7.79833 10.841 7.82145 10.7206 7.86739 10.6083C7.91334 10.496 7.98119 10.394 8.06698 10.3082C8.15277 10.2224 8.25479 10.1546 8.36709 10.1086C8.47939 10.0627 8.59971 10.0396 8.72103 10.0406C8.84236 10.0417 8.96226 10.0669 9.07374 10.1148Z" fill="currentColor"/>
</svg>
