<svg width="24" height="24" viewBox="0 0 24 24" fill="none" xmlns="http://www.w3.org/2000/svg">
<path d="M12.75 4.19922C12.75 3.78501 12.4142 3.44922 12 3.44922C11.5857 3.44922 11.25 3.78501 11.25 4.19922V14.3886L8.81028 11.9489C8.51739 11.656 8.04252 11.656 7.74962 11.9489C7.45673 12.2418 7.45673 12.7167 7.74962 13.0096L11.4996 16.7596C11.7925 17.0525 12.2674 17.0525 12.5603 16.7596L16.3103 13.0096C16.6032 12.7167 16.6032 12.2418 16.3103 11.9489C16.0174 11.656 15.5425 11.656 15.2496 11.9489L12.75 14.4486V4.19922Z" fill="#606B85"/>
<path d="M3.44995 19.7992C3.44995 19.385 3.78574 19.0492 4.19995 19.0492H19.8C20.2142 19.0492 20.55 19.385 20.55 19.7992C20.55 20.2134 20.2142 20.5492 19.8 20.5492H4.19995C3.78574 20.5492 3.44995 20.2134 3.44995 19.7992Z" fill="#606B85"/>
</svg>
