<svg width="33" height="33" viewBox="0 0 33 33" fill="none" xmlns="http://www.w3.org/2000/svg">
<g clip-path="url(#clip0_2629_63441)">
<circle cx="16.9395" cy="16.6621" r="16.0605" fill="#F1E9DB"/>
<path d="M24.9062 23.9062H9.09375C8.71348 23.9062 8.40625 24.2135 8.40625 24.5938V25.3672C8.40625 25.4617 8.48359 25.5391 8.57812 25.5391H25.4219C25.5164 25.5391 25.5938 25.4617 25.5938 25.3672V24.5938C25.5938 24.2135 25.2865 23.9062 24.9062 23.9062ZM11.5365 22.1016C11.5795 22.1016 11.6225 22.0973 11.6654 22.0908L15.2791 21.457C15.3221 21.4484 15.3629 21.4291 15.393 21.3969L24.5002 12.2896C24.5201 12.2698 24.5359 12.2462 24.5467 12.2202C24.5575 12.1942 24.563 12.1663 24.563 12.1382C24.563 12.11 24.5575 12.0822 24.5467 12.0562C24.5359 12.0302 24.5201 12.0066 24.5002 11.9867L20.9295 8.41387C20.8887 8.37305 20.835 8.35156 20.777 8.35156C20.7189 8.35156 20.6652 8.37305 20.6244 8.41387L11.5172 17.5211C11.485 17.5533 11.4656 17.592 11.457 17.635L10.8232 21.2486C10.8023 21.3637 10.8098 21.4822 10.845 21.5937C10.8802 21.7053 10.942 21.8066 11.0252 21.8889C11.167 22.0264 11.3453 22.1016 11.5365 22.1016Z" fill="#889385"/>
</g>
<defs>
<clipPath id="clip0_2629_63441">
<rect width="32.1211" height="32.1211" fill="white" transform="translate(0.878906 0.601562)"/>
</clipPath>
</defs>
</svg>
