<svg width="27" height="27" viewBox="0 0 27 27" fill="none" xmlns="http://www.w3.org/2000/svg">
<path d="M22.6587 22.1686H3.74424C3.28937 22.1686 2.92188 22.5361 2.92188 22.991V23.9161C2.92188 24.0292 3.01439 24.1217 3.12747 24.1217H23.2755C23.3886 24.1217 23.4811 24.0292 23.4811 23.9161V22.991C23.4811 22.5361 23.1136 22.1686 22.6587 22.1686ZM6.66622 20.0099C6.71762 20.0099 6.76902 20.0047 6.82042 19.997L11.143 19.2389C11.1944 19.2286 11.2432 19.2055 11.2792 19.1669L22.173 8.27313C22.1968 8.24935 22.2157 8.22111 22.2286 8.19002C22.2415 8.15894 22.2482 8.12561 22.2482 8.09195C22.2482 8.05829 22.2415 8.02497 22.2286 7.99388C22.2157 7.96279 22.1968 7.93455 22.173 7.91077L17.9018 3.63703C17.853 3.5882 17.7888 3.5625 17.7194 3.5625C17.65 3.5625 17.5857 3.5882 17.5369 3.63703L6.64309 14.5308C6.60454 14.5694 6.58141 14.6156 6.57113 14.667L5.81301 18.9896C5.78801 19.1273 5.79695 19.269 5.83904 19.4024C5.88113 19.5359 5.95512 19.657 6.05458 19.7554C6.2242 19.9199 6.4375 20.0099 6.66622 20.0099Z" fill="#34A853"/>
</svg>
