<svg width="42" height="42" viewBox="0 0 42 42" fill="none" xmlns="http://www.w3.org/2000/svg">
<circle cx="21" cy="21" r="21" fill="#F1E9DB"/>
<g clip-path="url(#clip0_296_13135)">
<path d="M33.4556 11.6309H9.81925C9.31641 11.6309 8.91016 12.0371 8.91016 12.54V30.7218C8.91016 31.2246 9.31641 31.6309 9.81925 31.6309H33.4556C33.9585 31.6309 34.3647 31.2246 34.3647 30.7218V12.54C34.3647 12.0371 33.9585 11.6309 33.4556 11.6309ZM32.3192 14.7786V29.5854H10.9556V14.7786L10.1715 14.1678L11.288 12.7331L12.5039 13.6792H30.7738L31.9897 12.7331L33.1062 14.1678L32.3192 14.7786ZM30.7738 13.6763L21.6374 20.7786L12.5011 13.6763L11.2852 12.7303L10.1687 14.165L10.9528 14.7757L20.6573 22.3212C20.9364 22.538 21.2798 22.6557 21.6332 22.6557C21.9866 22.6557 22.3299 22.538 22.609 22.3212L32.3192 14.7786L33.1033 14.1678L31.9869 12.7331L30.7738 13.6763Z" fill="#0A2211"/>
</g>
<defs>
<clipPath id="clip0_296_13135">
<rect width="25.4545" height="25.4545" fill="white" transform="translate(8.91016 8.9082)"/>
</clipPath>
</defs>
</svg>
