<svg width="16" height="16" viewBox="0 0 16 16" fill="none" xmlns="http://www.w3.org/2000/svg">
<path fill-rule="evenodd" clip-rule="evenodd" d="M8.51115 2.65513C8.67312 2.72225 8.82029 2.82062 8.94423 2.94463L13.0562 7.05596C13.1803 7.17992 13.2788 7.32713 13.346 7.48916C13.4132 7.6512 13.4477 7.82489 13.4477 8.0003C13.4477 8.17571 13.4132 8.34939 13.346 8.51143C13.2788 8.67347 13.1803 8.82067 13.0562 8.94463L8.94423 13.056C8.82029 13.18 8.67312 13.2783 8.51115 13.3455C8.34917 13.4126 8.17556 13.4471 8.00023 13.4471C7.8249 13.4471 7.65129 13.4126 7.48931 13.3455C7.32734 13.2783 7.18018 13.18 7.05623 13.056L2.94423 8.94463C2.82012 8.82067 2.72166 8.67347 2.65449 8.51143C2.58731 8.34939 2.55273 8.17571 2.55273 8.0003C2.55273 7.82489 2.58731 7.6512 2.65449 7.48916C2.72166 7.32713 2.82012 7.17992 2.94423 7.05596L7.05623 2.94463C7.18018 2.82062 7.32734 2.72225 7.48931 2.65513C7.65129 2.58801 7.8249 2.55347 8.00023 2.55347C8.17556 2.55347 8.34917 2.58801 8.51115 2.65513ZM7.52882 9.13803C7.65385 9.26305 7.82342 9.33329 8.00023 9.33329C8.17704 9.33329 8.34661 9.26305 8.47163 9.13803C8.59666 9.01301 8.6669 8.84344 8.6669 8.66663V5.33329C8.6669 5.15648 8.59666 4.98691 8.47163 4.86189C8.34661 4.73686 8.17704 4.66663 8.00023 4.66663C7.82342 4.66663 7.65385 4.73686 7.52882 4.86189C7.4038 4.98691 7.33356 5.15648 7.33356 5.33329V8.66663C7.33356 8.84344 7.4038 9.01301 7.52882 9.13803ZM7.52882 11.138C7.65385 11.2631 7.82342 11.3333 8.00023 11.3333C8.17704 11.3333 8.34661 11.2631 8.47163 11.138C8.59666 11.013 8.6669 10.8434 8.6669 10.6666C8.6669 10.4898 8.59666 10.3202 8.47163 10.1952C8.34661 10.0702 8.17704 9.99996 8.00023 9.99996C7.82342 9.99996 7.65385 10.0702 7.52882 10.1952C7.4038 10.3202 7.33356 10.4898 7.33356 10.6666C7.33356 10.8434 7.4038 11.013 7.52882 11.138Z" fill="#DE350B"/>
</svg>
