<svg width="44" height="43" viewBox="0 0 44 43" fill="none" xmlns="http://www.w3.org/2000/svg">
<circle cx="22" cy="21.5" r="18.5" fill="#FF5A56"/>
<circle cx="22" cy="21.5" r="20" stroke="#DE350B" stroke-opacity="0.2" stroke-width="3"/>
<path fill-rule="evenodd" clip-rule="evenodd" d="M16.1669 14.2813C15.7793 13.8996 15.158 13.9073 14.7793 14.2984C14.4006 14.6895 14.4079 15.316 14.7955 15.6976L21.1968 22L14.7955 28.3024C14.4079 28.684 14.4006 29.3105 14.7793 29.7016C15.158 30.0927 15.7793 30.1004 16.1669 29.7187L22.6018 23.3833L28.8331 29.5183C29.2207 29.9 29.842 29.8923 30.2207 29.5012C30.5993 29.1101 30.5921 28.4836 30.2045 28.102L24.0067 22L30.2045 15.898C30.5921 15.5164 30.5993 14.8899 30.2207 14.4988C29.842 14.1077 29.2207 14.1 28.8331 14.4817L22.6018 20.6167L16.1669 14.2813Z" fill="white"/>
</svg>
