<svg width="31" height="32" viewBox="0 0 31 32" fill="none" xmlns="http://www.w3.org/2000/svg">
<rect width="30.3958" height="30.3958" transform="translate(0 0.804688)" fill="white" fill-opacity="0.01"/>
<path fill-rule="evenodd" clip-rule="evenodd" d="M13.7814 7.74319L3.10997 16.3921C2.60844 16.7973 2.37287 17.6028 2.58691 18.1867L2.71229 18.5312C2.92506 19.1163 3.63176 19.5811 4.26628 19.5697L5.69868 19.5443L13.3761 19.4152L18.0014 19.3354C18.6473 19.3227 18.9994 18.8478 18.7815 18.2449L15.0796 8.07501C14.9466 7.71026 14.6692 7.51649 14.3615 7.51649C14.1477 7.5228 13.9428 7.6029 13.7814 7.74319ZM6.30786 21.0071L8.52928 27.1091C8.58381 27.2684 8.66955 27.4153 8.78149 27.541C8.89344 27.6668 9.02935 27.769 9.18126 27.8416C9.33318 27.9143 9.49805 27.9559 9.66623 27.964C9.83442 27.9722 10.0025 27.9467 10.1608 27.8891C10.319 27.8315 10.4642 27.7429 10.5877 27.6286C10.7113 27.5142 10.8109 27.3764 10.8805 27.2231C10.9502 27.0698 10.9886 26.9041 10.9935 26.7358C10.9984 26.5675 10.9697 26.3999 10.909 26.2428L8.95989 20.8881L6.30786 21.0071ZM23.6727 9.46815L20.1025 10.7676C19.9432 10.8221 19.7963 10.9078 19.6705 11.0198C19.5448 11.1317 19.4426 11.2676 19.3699 11.4195C19.2973 11.5715 19.2557 11.7363 19.2475 11.9045C19.2394 12.0727 19.2649 12.2408 19.3225 12.3991C19.3801 12.5573 19.4686 12.7024 19.583 12.826C19.6974 12.9496 19.8352 13.0491 19.9885 13.1188C20.1418 13.1885 20.3075 13.2269 20.4758 13.2318C20.6441 13.2367 20.8117 13.208 20.9688 13.1473L24.5403 11.8479C24.6966 11.7909 24.8402 11.7037 24.9628 11.5913C25.0855 11.4788 25.1848 11.3433 25.255 11.1925C25.3253 11.0416 25.3652 10.8785 25.3724 10.7122C25.3796 10.546 25.354 10.3799 25.297 10.2236C25.24 10.0673 25.1528 9.92368 25.0404 9.80104C24.9279 9.6784 24.7924 9.57912 24.6416 9.50885C24.4907 9.43858 24.3276 9.39871 24.1613 9.39151C23.9951 9.38431 23.8291 9.40992 23.6727 9.46688V9.46815ZM21.4032 14.3378C21.1944 14.4143 21.0092 14.5441 20.8662 14.7143C20.7231 14.8844 20.627 15.0891 20.5875 15.3079C20.5297 15.6387 20.6053 15.9789 20.7978 16.2541C20.9904 16.5292 21.2841 16.7168 21.6147 16.7758L25.3571 17.4344C25.5732 17.4724 25.7953 17.4536 26.0019 17.38C26.2085 17.3063 26.3925 17.1803 26.5357 17.0142C26.6789 16.8481 26.7766 16.6476 26.8191 16.4325C26.8616 16.2173 26.8475 15.9948 26.7782 15.7867L26.7566 15.7271C26.6779 15.5245 26.5481 15.3456 26.3799 15.2078C26.2117 15.07 26.0108 14.978 25.7966 14.9407L22.0541 14.2808C21.836 14.2409 21.6111 14.2606 21.4032 14.3378ZM20.7091 4.66308L18.2661 7.57348C18.0501 7.83077 17.9452 8.16333 17.9744 8.49798C18.0036 8.83264 18.1645 9.14198 18.4218 9.35796C18.6791 9.57394 19.0117 9.67887 19.3463 9.64965C19.681 9.62044 19.9904 9.45948 20.2063 9.20219L22.6481 6.29179C22.8026 6.10704 22.9012 5.88212 22.9325 5.64336C22.9637 5.4046 22.9264 5.16187 22.8247 4.94358C22.7231 4.72528 22.5614 4.54044 22.3585 4.4107C22.1557 4.28096 21.9201 4.21167 21.6793 4.21094C21.4943 4.21031 21.3114 4.2505 21.1437 4.32866C20.976 4.40681 20.8276 4.521 20.7091 4.66308Z" fill="#DE350B"/>
</svg>
