<svg width="24" height="24" viewBox="0 0 24 24" fill="none" xmlns="http://www.w3.org/2000/svg">
<rect width="24" height="24" fill="white" fill-opacity="0.01"/>
<path fill-rule="evenodd" clip-rule="evenodd" d="M10.8819 5.47651L2.45592 12.3055C2.05992 12.6255 1.87392 13.2615 2.04292 13.7225L2.14192 13.9945C2.30992 14.4565 2.86792 14.8235 3.36892 14.8145L4.49992 14.7945L10.5619 14.6925L14.2139 14.6295C14.7239 14.6195 15.0019 14.2445 14.8299 13.7685L11.9069 5.73851C11.8019 5.45051 11.5829 5.29751 11.3399 5.29751C11.1712 5.30249 11.0093 5.36574 10.8819 5.47651ZM4.98092 15.9495L6.73492 20.7675C6.77797 20.8933 6.84567 21.0092 6.93406 21.1086C7.02245 21.2079 7.12976 21.2886 7.24971 21.3459C7.36966 21.4033 7.49984 21.4361 7.63264 21.4425C7.76544 21.449 7.89818 21.4289 8.02312 21.3834C8.14805 21.3379 8.26266 21.268 8.36024 21.1777C8.45783 21.0874 8.53642 20.9785 8.59143 20.8575C8.64645 20.7365 8.67677 20.6057 8.68063 20.4728C8.68449 20.3399 8.66181 20.2075 8.61392 20.0835L7.07492 15.8555L4.98092 15.9495ZM18.6919 6.83851L15.8729 7.86451C15.7471 7.90755 15.6312 7.97525 15.5319 8.06365C15.4326 8.15204 15.3519 8.25935 15.2945 8.3793C15.2372 8.49925 15.2043 8.62943 15.1979 8.76222C15.1914 8.89502 15.2116 9.02777 15.257 9.1527C15.3025 9.27763 15.3724 9.39224 15.4627 9.48983C15.553 9.58741 15.6619 9.666 15.7829 9.72102C15.904 9.77603 16.0348 9.80635 16.1677 9.81021C16.3006 9.81408 16.4329 9.7914 16.5569 9.74351L19.3769 8.71751C19.5004 8.67253 19.6137 8.60368 19.7106 8.51488C19.8074 8.42609 19.8858 8.31909 19.9413 8.2C19.9968 8.08091 20.0283 7.95206 20.0339 7.8208C20.0396 7.68954 20.0194 7.55845 19.9744 7.43501C19.9294 7.31156 19.8606 7.19819 19.7718 7.10135C19.683 7.00452 19.576 6.92612 19.4569 6.87064C19.3378 6.81516 19.209 6.78368 19.0777 6.77799C18.9465 6.7723 18.8154 6.79253 18.6919 6.83751V6.83851ZM16.8999 10.6835C16.7351 10.7439 16.5889 10.8464 16.4759 10.9807C16.3629 11.1151 16.2871 11.2767 16.2559 11.4495C16.2103 11.7107 16.27 11.9793 16.422 12.1966C16.574 12.4138 16.8059 12.5619 17.0669 12.6085L20.0219 13.1285C20.1925 13.1585 20.3679 13.1437 20.531 13.0856C20.6942 13.0274 20.8394 12.9279 20.9525 12.7967C21.0656 12.6656 21.1427 12.5073 21.1763 12.3374C21.2098 12.1675 21.1987 11.9918 21.1439 11.8275L21.1269 11.7805C21.0647 11.6205 20.9623 11.4793 20.8295 11.3705C20.6967 11.2617 20.538 11.189 20.3689 11.1595L17.4139 10.6385C17.2417 10.607 17.0641 10.6226 16.8999 10.6835ZM16.3519 3.04451L14.4229 5.34251C14.2524 5.54566 14.1695 5.80824 14.1926 6.07248C14.2157 6.33672 14.3428 6.58097 14.5459 6.75151C14.7491 6.92204 15.0117 7.00489 15.2759 6.98182C15.5401 6.95875 15.7844 6.83166 15.9549 6.62851L17.8829 4.33051C18.0049 4.18463 18.0827 4.00704 18.1074 3.81852C18.1321 3.63 18.1026 3.43834 18.0224 3.26598C17.9421 3.09362 17.8144 2.94767 17.6543 2.84523C17.4941 2.74278 17.3081 2.68808 17.1179 2.68751C16.9718 2.68701 16.8275 2.71874 16.695 2.78045C16.5626 2.84216 16.4455 2.93232 16.3519 3.04451Z" fill="#34A853"/>
</svg>
