<svg width="113" height="107" viewBox="0 0 113 107" fill="none" xmlns="http://www.w3.org/2000/svg">
<g clip-path="url(#clip0_2715_86109)">
<path d="M80.0229 58.6307C76.2381 51.7373 67.1231 45.2494 59.45 40.6997C54.0617 37.5047 47.5645 41.3579 48.9152 47.0981C50.5764 54.1579 53.8063 62.8247 60.0853 69.5867C62.1298 71.7885 65.2721 73.9857 68.1484 75.7553C71.8897 78.057 76.9906 76.7684 78.7259 72.8817C80.696 68.4692 82.2902 62.7602 80.0229 58.6307Z" fill="#56B770"/>
<path d="M44.243 73.6869C46.4924 66.3461 44.1002 56.0643 41.4576 48.2278C39.584 42.6717 32.6911 41.2414 29.5321 45.8196C25.2661 52.0021 20.6919 60.7378 20.5171 69.9444C20.4661 72.6309 21.2137 75.9114 22.0907 78.7964C23.3314 82.8782 27.8491 85.1276 31.723 83.5752C36.741 81.5642 42.844 78.2524 44.243 73.6869Z" fill="#56B770"/>
<path d="M94.5353 29.3084C86.8727 25.8374 75.5183 25.5853 66.5421 26.1143C60.236 26.486 58.1238 33.4766 63.2857 37.4081C69.4784 42.1246 77.8666 47.1872 87.1788 49.1604C90.2983 49.8215 94.2571 49.865 97.6959 49.7089C102.089 49.5095 105 45.5324 103.509 41.3223C101.878 36.717 99.0797 31.3669 94.5353 29.3084Z" fill="#56B770"/>
</g>
<defs>
<clipPath id="clip0_2715_86109">
<rect width="82.2558" height="91.5056" fill="white" transform="translate(112.5 28.3789) rotate(108.066)"/>
</clipPath>
</defs>
</svg>
