<svg width="32" height="32" viewBox="0 0 32 32" fill="none" xmlns="http://www.w3.org/2000/svg">
<path d="M26.6511 6.09279C25.2477 4.68891 23.3869 3.83536 21.4073 3.68737C19.4277 3.53939 17.4608 4.1068 15.8641 5.28641C14.1822 4.03538 12.0887 3.4681 10.0052 3.69882C7.92174 3.92953 6.00306 4.94109 4.63556 6.52981C3.26806 8.11852 2.55331 10.1664 2.63525 12.261C2.71718 14.3556 3.58971 16.3413 5.07713 17.8184L14.9256 27.6668C15.0485 27.7907 15.1947 27.8891 15.3557 27.9562C15.5168 28.0233 15.6896 28.0578 15.8641 28.0578C16.0386 28.0578 16.2114 28.0233 16.3725 27.9562C16.5336 27.8891 16.6798 27.7907 16.8027 27.6668L26.6511 17.8184C27.4214 17.0486 28.0324 16.1347 28.4493 15.1287C28.8661 14.1228 29.0807 13.0445 29.0807 11.9556C29.0807 10.8667 28.8661 9.78842 28.4493 8.78245C28.0324 7.77649 27.4214 6.86253 26.6511 6.09279V6.09279ZM24.7872 15.9544L15.8641 24.8643L6.94106 15.9544C6.15474 15.1649 5.61909 14.1606 5.4013 13.0678C5.18352 11.9749 5.2933 10.8421 5.71688 9.8114C6.14046 8.78069 6.85896 7.89802 7.78227 7.27411C8.70557 6.65019 9.79256 6.31282 10.9069 6.3043C12.3955 6.30795 13.8219 6.90226 14.8727 7.95673C14.9956 8.08063 15.1418 8.17897 15.3029 8.24609C15.464 8.3132 15.6367 8.34775 15.8113 8.34775C15.9858 8.34775 16.1586 8.3132 16.3196 8.24609C16.4807 8.17897 16.6269 8.08063 16.7498 7.95673C17.8316 7.01932 19.2291 6.5279 20.6595 6.58194C22.0899 6.63598 23.4464 7.23144 24.4543 8.2478C25.4623 9.26416 26.0465 10.6255 26.0886 12.0563C26.1308 13.4871 25.6278 14.8805 24.6815 15.9544H24.7872Z" fill="#DE350B"/>
<path d="M11.6797 7.05099C13.4053 7.19479 13.9157 8.95527 15.6455 9.0339C15.8389 9.04269 15.9477 9.0384 16.1412 9.0339C18.5893 8.97697 19.7379 6.36956 22.0899 7.05099C23.8043 7.54767 24.718 8.4516 25.56 10.0254C26.656 12.0737 25.927 12.8264 25.0642 14.9834C23.0813 19.9406 16.1412 24.8979 16.1412 24.8979C16.1412 24.8979 10.1924 20.9321 7.71379 15.9741C6.50185 13.5498 5.01149 11.1359 6.72242 9.0339C8.03867 7.4168 9.60183 6.87784 11.6797 7.05099Z" fill="#DE350B" stroke="#DE350B" stroke-width="2.97436"/>
</svg>
