<svg width="39" height="39" viewBox="0 0 39 39" fill="none" xmlns="http://www.w3.org/2000/svg">
<path d="M32.4802 7.42437C30.7697 5.71338 28.5019 4.67312 26.0893 4.49276C23.6767 4.31241 21.2794 5.00394 19.3336 6.44159C17.2837 4.9169 14.7322 4.22553 12.193 4.50671C9.65376 4.78789 7.31538 6.02074 5.64874 7.95698C3.9821 9.89323 3.111 12.389 3.21085 14.9418C3.31071 17.4946 4.3741 19.9148 6.18689 21.7149L18.1897 33.7177C18.3394 33.8687 18.5176 33.9886 18.714 34.0704C18.9103 34.1522 19.1209 34.1943 19.3336 34.1943C19.5462 34.1943 19.7568 34.1522 19.9532 34.0704C20.1495 33.9886 20.3277 33.8687 20.4774 33.7177L32.4802 21.7149C33.4189 20.7768 34.1636 19.6629 34.6717 18.4369C35.1798 17.2109 35.4413 15.8968 35.4413 14.5696C35.4413 13.2425 35.1798 11.9284 34.6717 10.7024C34.1636 9.47638 33.4189 8.36248 32.4802 7.42437ZM30.2086 19.4433L19.3336 30.3021L8.45856 19.4433C7.50023 18.4809 6.84741 17.2571 6.58199 15.9251C6.31656 14.5932 6.45036 13.2126 6.96659 11.9564C7.48283 10.7003 8.35851 9.62449 9.48378 8.8641C10.6091 8.1037 11.9338 7.69253 13.2919 7.68215C15.1062 7.68659 16.8446 8.41091 18.1252 9.69604C18.275 9.84705 18.4532 9.9669 18.6495 10.0487C18.8458 10.1305 19.0564 10.1726 19.2691 10.1726C19.4818 10.1726 19.6924 10.1305 19.8887 10.0487C20.085 9.9669 20.2632 9.84705 20.413 9.69604C21.7314 8.55357 23.4346 7.95466 25.1779 8.02052C26.9212 8.08638 28.5744 8.8121 29.8029 10.0508C31.0313 11.2895 31.7433 12.9486 31.7947 14.6924C31.8461 16.4362 31.233 18.1344 30.0797 19.4433H30.2086Z" fill="#F3D9D9"/>
<path d="M14.234 8.59535C16.337 8.7706 16.9592 10.9162 19.0673 11.012C19.303 11.0227 19.4356 11.0175 19.6715 11.012C22.6552 10.9426 24.0549 7.76485 26.9215 8.59535C29.0109 9.20068 30.1245 10.3023 31.1507 12.2204C32.4864 14.7168 31.5979 15.6341 30.5464 18.2629C28.1297 24.3046 19.6715 30.3463 19.6715 30.3463C19.6715 30.3463 12.4214 25.5129 9.40057 19.4704C7.92352 16.5158 6.10714 13.5738 8.19235 11.012C9.79651 9.04118 11.7016 8.38432 14.234 8.59535Z" fill="#F3D9D9" stroke="#F3D9D9" stroke-width="3.625"/>
</svg>
