<svg width="44" height="43" viewBox="0 0 44 43" fill="none" xmlns="http://www.w3.org/2000/svg">
<path fill-rule="evenodd" clip-rule="evenodd" d="M4.4082 21.3122C4.4082 11.9717 11.8729 3.55469 22.1745 3.55469C32.2457 3.55469 39.8699 11.8119 39.8699 21.2589C39.8699 32.2153 30.9336 39.0164 22.1391 39.0164C19.2312 39.0164 16.0042 38.2351 13.4155 36.708C12.5112 36.1575 11.7488 35.7491 10.7736 36.0687L7.19195 37.1341C6.28768 37.4183 5.47206 36.708 5.73802 35.7491L6.92599 31.7714C7.12103 31.2209 7.08556 30.6349 6.80187 30.1732C5.27702 27.3675 4.4082 24.2955 4.4082 21.3122ZM13.9294 23.6013C12.6882 23.6013 11.6599 22.5713 11.6599 21.3283C11.6599 20.0675 12.6705 19.0553 13.9294 19.0553C15.1883 19.0553 16.199 20.0675 16.199 21.3283C16.199 22.5713 15.1883 23.5835 13.9294 23.6013ZM28.0054 21.3283C28.0054 22.5713 29.0161 23.6013 30.275 23.6013C31.5339 23.6013 32.5445 22.5713 32.5445 21.3283C32.5445 20.0675 31.5339 19.0553 30.275 19.0553C29.0161 19.0553 28.0054 20.0675 28.0054 21.3283ZM19.8327 21.3108C19.8327 22.5716 20.8433 23.5838 22.1022 23.6015C23.3611 23.6015 24.3718 22.5716 24.3718 21.3286C24.3718 20.0678 23.3611 19.0556 22.1022 19.0556C20.8611 19.0379 19.8327 20.0678 19.8327 21.3108Z" fill="white"/>
</svg>
