<svg width="135" height="40" viewBox="0 0 135 40" fill="none" xmlns="http://www.w3.org/2000/svg">
<g clip-path="url(#clip0_296_13130)">
<path fill-rule="evenodd" clip-rule="evenodd" d="M17.8914 2.78879C19.68 4.58822 20.7269 7.11935 20.8462 10.2196C26.3027 12.4858 30.1398 17.8661 30.1398 24.1426C30.1398 32.4653 23.3929 39.2122 15.0702 39.2122H0.000604732V24.1426C0.000604732 23.6592 0.0233618 23.1811 0.0678628 22.7094L0.0656307 22.5888C-0.0369252 17.0172 -0.0702343 11.4036 0.356263 8.70243C1.26018 2.97759 6.45309 -0.079693 11.1301 0.00157942C13.5359 0.0433858 16.0103 0.896343 17.8914 2.78879ZM14.1739 6.48397C14.7108 7.02424 15.2103 7.84607 15.4562 9.07782C15.328 9.07462 15.1992 9.07297 15.0702 9.07297C11.341 9.07297 7.92822 10.4276 5.29697 12.6715C5.34203 11.3347 5.41774 10.2545 5.53372 9.51988C5.94611 6.90813 8.39914 5.19651 11.039 5.24238C12.2916 5.26415 13.3934 5.69878 14.1739 6.48397ZM5.41663 27.6821C5.46648 29.8837 5.51518 32.0341 5.54396 33.9706H15.0702C20.498 33.9706 24.8982 29.5704 24.8982 24.1426C24.8982 18.7147 20.498 14.3146 15.0702 14.3146C10.0487 14.3146 5.90685 18.0805 5.31478 22.9421C5.34475 24.5085 5.38098 26.1083 5.41662 27.6819L5.41663 27.682V27.6821ZM104.832 24.1426C104.832 15.8199 111.579 9.07297 119.902 9.07297C128.225 9.07297 134.971 15.8199 134.971 24.1426C134.971 32.4653 128.225 39.2122 119.902 39.2122C111.579 39.2122 104.832 32.4653 104.832 24.1426ZM119.902 14.3146C114.474 14.3146 110.074 18.7147 110.074 24.1426C110.074 29.5704 114.474 33.9706 119.902 33.9706C125.33 33.9706 129.73 29.5704 129.73 24.1426C129.73 18.7147 125.33 14.3146 119.902 14.3146ZM89.9815 39.3119C96.8562 39.3119 102.43 33.7384 102.43 26.8632V14.4143V0.217547H97.1879V14.4143H89.9815C83.106 14.4143 77.5324 19.9879 77.5324 26.8632C77.5324 33.7384 83.106 39.3119 89.9815 39.3119ZM97.1887 26.8632C97.1887 30.8436 93.9614 34.0703 89.9815 34.0703C86.0008 34.0703 82.7741 30.8436 82.7741 26.8632C82.7741 22.8827 86.0008 19.656 89.9815 19.656H97.1887V26.8632ZM37.7836 28.9397V9.39285H32.542V28.9397C32.542 34.6691 37.1866 39.3137 42.916 39.3137C48.6454 39.3137 53.29 34.6691 53.29 28.9397V9.39285H48.0484V28.9397C48.0484 31.7742 45.7505 34.072 42.916 34.072C40.0815 34.072 37.7836 31.7742 37.7836 28.9397ZM71.1988 38.8769V19.33C71.1988 16.4955 68.9009 14.1977 66.0664 14.1977C63.2319 14.1977 60.934 16.4955 60.934 19.33V38.8768H55.6924V19.33C55.6924 13.6006 60.337 8.95607 66.0664 8.95607C71.7958 8.95607 76.4404 13.6006 76.4404 19.33V38.8769H71.1988Z" fill="#34A853"/>
<path d="M12.6689 22.7144C12.6689 24.8855 14.4289 26.6456 16.6001 26.6456C18.7712 26.6456 20.5312 24.8855 20.5312 22.7144C20.5312 20.5433 18.7712 18.7832 16.6001 18.7832C14.4289 18.7832 12.6689 20.5433 12.6689 22.7144Z" fill="#FDE74C"/>
</g>
<defs>
<clipPath id="clip0_296_13130">
<rect width="135" height="39.3137" fill="white"/>
</clipPath>
</defs>
</svg>
