<svg width="24" height="24" viewBox="0 0 24 24" fill="none" xmlns="http://www.w3.org/2000/svg">
<path d="M20.9182 10.6541C20.6038 10.4842 17.9075 8.91972 16.8957 8.33086L16.8928 8.32886L4.63793 1.25372C4.42915 1.12628 4.19505 1.04599 3.95199 1.01847C3.70894 0.990954 3.46281 1.01688 3.23082 1.09442C3.20464 1.10382 3.18004 1.11328 3.15459 1.12493C3.0955 1.14419 3.03774 1.16732 2.98168 1.19415C2.74737 1.33421 2.55514 1.53483 2.42522 1.77491C2.29529 2.01499 2.23249 2.28565 2.2434 2.55841V21.5438C2.23597 21.7979 2.29615 22.0494 2.4178 22.2726C2.53945 22.4959 2.71821 22.6828 2.93578 22.8143C2.98596 22.8388 3.03767 22.8601 3.09057 22.878C3.1195 22.8914 3.14708 22.903 3.17693 22.9135C3.32014 22.9654 3.47097 22.9933 3.62328 22.9959C3.91577 22.9928 4.20233 22.913 4.45434 22.7645C4.84301 22.5389 16.8928 15.5818 16.8928 15.5818L20.9133 13.2606C21.1619 13.136 21.3717 12.9459 21.5201 12.7108C21.6684 12.4757 21.7497 12.2045 21.7551 11.9266C21.7429 11.6588 21.6587 11.3993 21.5114 11.1754C21.3641 10.9515 21.1592 10.7714 20.9182 10.6541ZM4.2434 19.8401V4.10296L12.1835 11.962L4.2434 19.8401ZM9.2614 17.6784L13.6049 13.3689L14.7545 14.5067C13.4898 15.2369 11.3531 16.4707 9.2614 17.6785V17.6784ZM13.6032 10.5534L9.20533 6.20043L14.759 9.40673L13.6032 10.5534ZM16.55 13.4701L15.0246 11.9603L16.5523 10.4445C17.2726 10.8628 18.3952 11.5139 19.1682 11.9588L16.55 13.4701Z" fill="#34A853"/>
</svg>
