<svg width="20" height="20" viewBox="0 0 20 20" fill="none" xmlns="http://www.w3.org/2000/svg">
<g id="PlusCircle">
<g id="Vector">
<path d="M13.5936 9.37592H10.6248V6.40717C10.6248 6.32123 10.5545 6.25092 10.4686 6.25092H9.5311C9.44516 6.25092 9.37485 6.32123 9.37485 6.40717V9.37592H6.4061C6.32016 9.37592 6.24985 9.44623 6.24985 9.53217V10.4697C6.24985 10.5556 6.32016 10.6259 6.4061 10.6259H9.37485V13.5947C9.37485 13.6806 9.44516 13.7509 9.5311 13.7509H10.4686C10.5545 13.7509 10.6248 13.6806 10.6248 13.5947V10.6259H13.5936C13.6795 10.6259 13.7499 10.5556 13.7499 10.4697V9.53217C13.7499 9.44623 13.6795 9.37592 13.5936 9.37592Z" fill="#34A853"/>
<path d="M10 1.25C5.16797 1.25 1.25 5.16797 1.25 10C1.25 14.832 5.16797 18.75 10 18.75C14.832 18.75 18.75 14.832 18.75 10C18.75 5.16797 14.832 1.25 10 1.25ZM10 17.2656C5.98828 17.2656 2.73438 14.0117 2.73438 10C2.73438 5.98828 5.98828 2.73438 10 2.73438C14.0117 2.73438 17.2656 5.98828 17.2656 10C17.2656 14.0117 14.0117 17.2656 10 17.2656Z" fill="#34A853"/>
</g>
</g>
</svg>
