<svg width="32" height="32" viewBox="0 0 32 32" fill="none" xmlns="http://www.w3.org/2000/svg">
<rect width="31.0097" height="31.0097" transform="translate(0.919922 0.601562)" fill="white" fill-opacity="0.01"/>
<path fill-rule="evenodd" clip-rule="evenodd" d="M29.3453 16.1082C29.3453 23.2441 23.5605 29.0289 16.4246 29.0289C9.2887 29.0289 3.50391 23.2441 3.50391 16.1082C3.50391 8.97229 9.2887 3.1875 16.4246 3.1875C23.5605 3.1875 29.3453 8.97229 29.3453 16.1082ZM13.0425 14.9052C13.2001 14.9729 13.3427 15.0713 13.4619 15.1947L15.1325 16.8654L19.3873 12.6106C19.5065 12.4872 19.6491 12.3888 19.8067 12.321C19.9644 12.2533 20.1339 12.2177 20.3055 12.2162C20.477 12.2147 20.6472 12.2474 20.8059 12.3124C20.9647 12.3773 21.109 12.4733 21.2303 12.5946C21.3516 12.7159 21.4476 12.8602 21.5125 13.0189C21.5775 13.1777 21.6102 13.3479 21.6087 13.5194C21.6072 13.691 21.5716 13.8605 21.5039 14.0182C21.4361 14.1758 21.3377 14.3184 21.2143 14.4376L16.046 19.6059C15.8037 19.8481 15.4751 19.9842 15.1325 19.9842C14.7899 19.9842 14.4613 19.8481 14.219 19.6059L11.6349 17.0217C11.5115 16.9025 11.4131 16.76 11.3453 16.6023C11.2776 16.4447 11.242 16.2751 11.2405 16.1036C11.239 15.932 11.2717 15.7619 11.3367 15.6031C11.4016 15.4443 11.4976 15.3 11.6189 15.1787C11.7402 15.0574 11.8845 14.9615 12.0433 14.8965C12.202 14.8315 12.3722 14.7988 12.5437 14.8003C12.7153 14.8018 12.8848 14.8375 13.0425 14.9052Z" fill="#34A853"/>
</svg>
