<svg width="25" height="25" viewBox="0 0 25 25" fill="none" xmlns="http://www.w3.org/2000/svg">
<path d="M22.9994 3.06641H1.99944C1.88158 3.06641 1.78516 3.16283 1.78516 3.28069V4.99498C1.78516 5.11284 1.88158 5.20926 1.99944 5.20926H22.9994C23.1173 5.20926 23.2137 5.11284 23.2137 4.99498V3.28069C23.2137 3.16283 23.1173 3.06641 22.9994 3.06641ZM22.9994 19.7807H1.99944C1.88158 19.7807 1.78516 19.8771 1.78516 19.995V21.7093C1.78516 21.8271 1.88158 21.9236 1.99944 21.9236H22.9994C23.1173 21.9236 23.2137 21.8271 23.2137 21.7093V19.995C23.2137 19.8771 23.1173 19.7807 22.9994 19.7807ZM22.9994 11.4236H1.99944C1.88158 11.4236 1.78516 11.52 1.78516 11.6378V13.3521C1.78516 13.47 1.88158 13.5664 1.99944 13.5664H22.9994C23.1173 13.5664 23.2137 13.47 23.2137 13.3521V11.6378C23.2137 11.52 23.1173 11.4236 22.9994 11.4236Z" fill="#34A853"/>
</svg>
