<svg width="72" height="72" viewBox="0 0 72 72" fill="none" xmlns="http://www.w3.org/2000/svg">
<rect x="0.462891" width="71.0747" height="71.0747" rx="35.5374" fill="#FAF8F3"/>
<path d="M44.1603 28.6108C43.0986 27.5488 41.691 26.9031 40.1935 26.7912C38.696 26.6792 37.2081 27.1085 36.0003 28.0008C34.7279 27.0544 33.1443 26.6253 31.5682 26.7998C29.9921 26.9744 28.5407 27.7396 27.5062 28.9414C26.4718 30.1432 25.9311 31.6923 25.9931 33.2768C26.0551 34.8613 26.7151 36.3635 27.8403 37.4808L35.2903 44.9308C35.3832 45.0245 35.4938 45.0989 35.6157 45.1497C35.7376 45.2004 35.8683 45.2266 36.0003 45.2266C36.1323 45.2266 36.263 45.2004 36.3849 45.1497C36.5067 45.0989 36.6173 45.0245 36.7103 44.9308L44.1603 37.4808C44.7429 36.8985 45.2051 36.2071 45.5205 35.4462C45.8358 34.6852 45.9982 33.8695 45.9982 33.0458C45.9982 32.2221 45.8358 31.4064 45.5205 30.6454C45.2051 29.8844 44.7429 29.1931 44.1603 28.6108ZM42.7503 36.0708L36.0003 42.8108L29.2503 36.0708C28.6555 35.4735 28.2502 34.7138 28.0855 33.8871C27.9208 33.0604 28.0038 32.2035 28.3242 31.4238C28.6446 30.6441 29.1882 29.9764 29.8866 29.5044C30.5851 29.0324 31.4073 28.7772 32.2503 28.7708C33.3764 28.7735 34.4554 29.2231 35.2503 30.0208C35.3432 30.1145 35.4538 30.1889 35.5757 30.2397C35.6976 30.2905 35.8283 30.3166 35.9603 30.3166C36.0923 30.3166 36.223 30.2905 36.3449 30.2397C36.4667 30.1889 36.5773 30.1145 36.6703 30.0208C37.4886 29.3117 38.5458 28.9399 39.6278 28.9808C40.7099 29.0217 41.736 29.4721 42.4985 30.241C43.2609 31.0098 43.7029 32.0396 43.7348 33.122C43.7667 34.2043 43.3862 35.2584 42.6703 36.0708H42.7503Z" fill="#34A853"/>
</svg>
    