<svg width="24" height="24" viewBox="0 0 24 24" fill="none" xmlns="http://www.w3.org/2000/svg">
<path d="M17 3.3C13.1 1.1 8.3 1.8 5.1 4.8V3C5.1 2.4 4.7 2 4.1 2C3.5 2 3.1 2.4 3.1 3V7.5C3.1 8.1 3.5 8.5 4.1 8.5H8.6C9.2 8.5 9.6 8.1 9.6 7.5C9.6 6.9 9.2 6.5 8.6 6.5H6.2C7.7 4.9 9.8 4 12 4C16.4 4 20 7.6 20 12C20 16.4 16.4 20 12 20C7.6 20 4 16.4 4 12C4 11.4 3.6 11 3 11C2.4 11 2 11.4 2 12C2 17.5 6.5 22 12 22C15.6 22 18.9 20.1 20.7 17C23.4 12.2 21.8 6.1 17 3.3ZM12 8C11.4 8 11 8.4 11 9V12C11 12.6 11.4 13 12 13H14C14.6 13 15 12.6 15 12C15 11.4 14.6 11 14 11H13V9C13 8.4 12.6 8 12 8Z" fill="#34A853"/>
</svg>
