<svg width="22" height="22" viewBox="0 0 22 22" fill="none" xmlns="http://www.w3.org/2000/svg">
<path d="M18.3334 7.33444L12.8334 2.51277C12.3292 2.06181 11.6765 1.8125 11.0001 1.8125C10.3236 1.8125 9.67094 2.06181 9.16675 2.51277L3.66675 7.33444C3.37559 7.59484 3.14325 7.91428 2.98519 8.2715C2.82713 8.62871 2.74698 9.0155 2.75009 9.4061V17.4178C2.75009 18.1471 3.03982 18.8466 3.55554 19.3623C4.07127 19.878 4.77074 20.1678 5.50009 20.1678H16.5001C17.2294 20.1678 17.9289 19.878 18.4446 19.3623C18.9604 18.8466 19.2501 18.1471 19.2501 17.4178V9.39694C19.2519 9.00787 19.1711 8.62285 19.0131 8.26731C18.8551 7.91177 18.6234 7.59381 18.3334 7.33444ZM12.8334 18.3344H9.16675V13.7511C9.16675 13.508 9.26333 13.2748 9.43524 13.1029C9.60715 12.931 9.84031 12.8344 10.0834 12.8344H11.9168C12.1599 12.8344 12.393 12.931 12.5649 13.1029C12.7368 13.2748 12.8334 13.508 12.8334 13.7511V18.3344ZM17.4168 17.4178C17.4168 17.6609 17.3202 17.894 17.1483 18.066C16.9764 18.2379 16.7432 18.3344 16.5001 18.3344H14.6668V13.7511C14.6668 13.0218 14.377 12.3223 13.8613 11.8066C13.3456 11.2908 12.6461 11.0011 11.9168 11.0011H10.0834C9.35407 11.0011 8.6546 11.2908 8.13888 11.8066C7.62315 12.3223 7.33342 13.0218 7.33342 13.7511V18.3344H5.50009C5.25697 18.3344 5.02381 18.2379 4.85191 18.066C4.68 17.894 4.58342 17.6609 4.58342 17.4178V9.39694C4.58359 9.26678 4.61146 9.13816 4.6652 9.01962C4.71894 8.90108 4.79731 8.79534 4.89509 8.70944L10.3951 3.89694C10.5624 3.74998 10.7774 3.66893 11.0001 3.66893C11.2228 3.66893 11.4378 3.74998 11.6051 3.89694L17.1051 8.70944C17.2029 8.79534 17.2812 8.90108 17.335 9.01962C17.3887 9.13816 17.4166 9.26678 17.4168 9.39694V17.4178Z" fill="currentColor"/>
</svg>
