<svg width="14" height="18" viewBox="0 0 14 18" fill="none" xmlns="http://www.w3.org/2000/svg">
<g clip-path="url(#clip0_2973_141064)">
<path fill-rule="evenodd" clip-rule="evenodd" d="M9.54941 4.68186C9.49482 3.2615 9.01523 2.10189 8.19582 1.27751C7.33411 0.410606 6.20062 0.0198745 5.09855 0.000723516C2.95608 -0.0365064 0.577274 1.364 0.1632 3.98647C-0.0321735 5.22384 -0.016915 7.79538 0.0300646 10.3477C0.0304009 10.3659 0.030739 10.3842 0.0310789 10.4025C0.0106444 10.6188 0.000194357 10.8381 0.000194357 11.0598V17.963H6.90338C10.7159 17.963 13.8066 14.8723 13.8066 11.0598C13.8066 8.18462 12.0489 5.72 9.54941 4.68186ZM7.08041 4.15879C6.96774 3.59435 6.73892 3.21777 6.49286 2.97023C6.13535 2.61054 5.63064 2.41145 5.05685 2.40147C3.84755 2.38046 2.72384 3.16453 2.53493 4.36094C2.48179 4.69753 2.44711 5.19243 2.42647 5.80494C3.6318 4.77704 5.19512 4.15658 6.90338 4.15658C6.96256 4.15658 7.02158 4.15733 7.08041 4.15879ZM2.53963 15.5618C2.52644 14.6747 2.50413 13.6895 2.48129 12.6808C2.46496 11.9598 2.44836 11.2269 2.43463 10.5092C2.70614 8.28249 4.60333 6.5577 6.90338 6.5577C9.38983 6.5577 11.4055 8.57334 11.4055 11.0598C11.4055 13.5462 9.38983 15.5618 6.90338 15.5618H2.53963Z" fill="white"/>
<path d="M5.80263 10.4063C5.80263 11.4009 6.60889 12.2071 7.60346 12.2071C8.59804 12.2071 9.4043 11.4009 9.4043 10.4063C9.4043 9.41173 8.59804 8.60547 7.60346 8.60547C6.60889 8.60547 5.80263 9.41173 5.80263 10.4063Z" fill="white"/>
</g>
<defs>
<clipPath id="clip0_2973_141064">
<rect width="13.8066" height="18" fill="white"/>
</clipPath>
</defs>
</svg>
