<svg width="25" height="24" viewBox="0 0 25 24" fill="none" xmlns="http://www.w3.org/2000/svg">
<rect width="24" height="24" transform="translate(0.5)" fill="white" fill-opacity="0.01"/>
<path d="M3.50002 18C3.50002 18.552 3.94502 19 4.49302 19H20.507C20.638 18.9999 20.7676 18.9739 20.8885 18.9235C21.0094 18.8731 21.1191 18.7993 21.2114 18.7064C21.3036 18.6135 21.3766 18.5032 21.4262 18.382C21.4757 18.2608 21.5008 18.131 21.5 18V17H3.50002V18ZM3.50002 11H21.5V9H3.50002V11ZM3.50002 7H21.5V6C21.5 5.448 21.055 5 20.507 5H4.49302C4.36206 5.00013 4.23242 5.02613 4.11155 5.07652C3.99067 5.12691 3.88095 5.20068 3.78867 5.29361C3.6964 5.38653 3.62339 5.49678 3.57386 5.618C3.52432 5.73923 3.49923 5.86905 3.50002 6V7ZM3.50002 15H21.5V13H3.50002V15Z" fill="#8E8A87"/>
</svg>
