<svg width="20" height="20" viewBox="0 0 20 20" fill="none" xmlns="http://www.w3.org/2000/svg">
<g clip-path="url(#clip0_1663_3781)">
<path opacity="0.2" fill-rule="evenodd" clip-rule="evenodd" d="M10 1.48148C5.29535 1.48148 1.48148 5.29535 1.48148 10C1.48148 14.7046 5.29535 18.5185 10 18.5185C14.7046 18.5185 18.5185 14.7046 18.5185 10C18.5185 5.29535 14.7046 1.48148 10 1.48148ZM0 10C0 4.47715 4.47715 0 10 0C15.5228 0 20 4.47715 20 10C20 15.5228 15.5228 20 10 20C4.47715 20 0 15.5228 0 10Z" fill="#1F304C"/>
<path fill-rule="evenodd" clip-rule="evenodd" d="M6.5909 1.35596C6.77114 1.72322 6.61953 2.16705 6.25227 2.34729C3.4251 3.73477 1.48148 6.64082 1.48148 9.99943C1.48148 12.8616 2.8923 15.3942 5.05974 16.94C5.39281 17.1775 5.47025 17.6401 5.23271 17.9732C4.99517 18.3062 4.53259 18.3837 4.19952 18.1461C1.65899 16.3343 0 13.3606 0 9.99943C0 6.05434 2.28458 2.64423 5.59958 1.01734C5.96683 0.8371 6.41067 0.988709 6.5909 1.35596Z" fill="#1F304C"/>
</g>
<defs>
<clipPath id="clip0_1663_3781">
<rect width="20" height="20" fill="white"/>
</clipPath>
</defs>
</svg>
