<svg width="22" height="22" viewBox="0 0 22 22" fill="none" xmlns="http://www.w3.org/2000/svg">
<path d="M16.5008 4.1063C15.0421 2.64761 13.0637 1.82812 11.0008 1.82812C8.93793 1.82813 6.95952 2.64761 5.50083 4.1063C4.04214 5.56499 3.22266 7.5434 3.22266 9.6063C3.22266 11.6692 4.04214 13.6476 5.50083 15.1063L10.3317 19.9463C10.4169 20.0322 10.5183 20.1004 10.63 20.147C10.7417 20.1935 10.8615 20.2174 10.9825 20.2174C11.1035 20.2174 11.2233 20.1935 11.335 20.147C11.4467 20.1004 11.5481 20.0322 11.6333 19.9463L16.5008 15.0605C17.9534 13.6078 18.7695 11.6377 18.7695 9.58338C18.7695 7.52908 17.9534 5.55892 16.5008 4.1063ZM15.19 13.7496L11.0008 17.9571L6.81166 13.7496C5.98405 12.9213 5.4206 11.8661 5.19255 10.7176C4.9645 9.56902 5.08209 8.37865 5.53044 7.29692C5.9788 6.2152 6.7378 5.29068 7.71149 4.64024C8.68519 3.9898 9.82987 3.64263 11.0008 3.64263C12.1718 3.64263 13.3165 3.9898 14.2902 4.64024C15.2639 5.29068 16.0229 6.2152 16.4712 7.29692C16.9196 8.37865 17.0372 9.56902 16.8091 10.7176C16.5811 11.8661 16.0176 12.9213 15.19 13.7496ZM8.25083 6.79213C7.51082 7.53442 7.09528 8.53982 7.09528 9.58797C7.09528 10.6361 7.51082 11.6415 8.25083 12.3838C8.80061 12.9345 9.50079 13.3106 10.2635 13.4649C11.0262 13.6192 11.8175 13.5448 12.5381 13.2511C13.2588 12.9574 13.8766 12.4574 14.3141 11.8139C14.7516 11.1703 14.9894 10.4119 14.9975 9.6338C15.0016 9.11424 14.9015 8.59912 14.7032 8.11891C14.5048 7.63869 14.2121 7.20313 13.8425 6.83797C13.4792 6.46633 13.046 6.17021 12.5678 5.96664C12.0896 5.76308 11.5759 5.65609 11.0562 5.65183C10.5365 5.64757 10.0211 5.74612 9.53964 5.94182C9.05818 6.13752 8.62017 6.4265 8.25083 6.79213ZM12.55 11.0821C12.2026 11.4348 11.7435 11.6559 11.2512 11.7075C10.7589 11.7592 10.2639 11.6382 9.85088 11.3653C9.43787 11.0924 9.13248 10.6845 8.98692 10.2114C8.84136 9.73823 8.86468 9.22922 9.05288 8.77136C9.24108 8.3135 9.58247 7.93523 10.0187 7.70123C10.4549 7.46722 10.9589 7.39201 11.4444 7.48845C11.93 7.58489 12.3669 7.847 12.6806 8.22995C12.9943 8.61291 13.1652 9.09294 13.1642 9.58797C13.1508 10.1538 12.9134 10.6912 12.5042 11.0821H12.55Z" fill="currentColor"/>
</svg>
