<svg width="20" height="27" viewBox="0 0 20 27" fill="none" xmlns="http://www.w3.org/2000/svg">
<g clip-path="url(#clip0_1782_42887)">
<path fill-rule="evenodd" clip-rule="evenodd" d="M13.5283 7.38263C13.451 5.37046 12.7716 3.72768 11.6107 2.55981C10.39 1.33169 8.78422 0.778156 7.22295 0.751025C4.18778 0.698283 0.817805 2.68233 0.2312 6.39749C-0.0455791 8.15044 -0.0239629 11.7935 0.0425916 15.4092C0.0430679 15.4351 0.0435469 15.461 0.0440284 15.4869C0.0150796 15.7933 0.000275339 16.1039 0.000275339 16.418V26.1975H9.77978C15.1809 26.1975 19.5593 21.8191 19.5593 16.418C19.5593 12.3449 17.0693 8.85334 13.5283 7.38263ZM10.0306 6.64162C9.87097 5.842 9.54681 5.30851 9.19821 4.95783C8.69174 4.44827 7.97674 4.16622 7.16387 4.15209C5.45069 4.12232 3.85877 5.23309 3.59115 6.92801C3.51587 7.40483 3.46674 8.10594 3.4375 8.97367C5.14505 7.51748 7.35975 6.63848 9.77978 6.63848C9.86362 6.63848 9.94724 6.63955 10.0306 6.64162ZM3.5978 22.796C3.57913 21.5392 3.54752 20.1434 3.51516 18.7145C3.49203 17.6931 3.46852 16.6548 3.44906 15.6381C3.83369 12.4835 6.52139 10.0401 9.77978 10.0401C13.3023 10.0401 16.1578 12.8956 16.1578 16.418C16.1578 19.9405 13.3023 22.796 9.77978 22.796H3.5978Z" fill="#34A853"/>
<path d="M8.22185 15.4897C8.22185 16.8986 9.36406 18.0408 10.773 18.0408C12.182 18.0408 13.3242 16.8986 13.3242 15.4897C13.3242 14.0807 12.182 12.9385 10.773 12.9385C9.36406 12.9385 8.22185 14.0807 8.22185 15.4897Z" fill="#FDE74C"/>
</g>
<defs>
<clipPath id="clip0_1782_42887">
<rect width="19.5593" height="25.5" fill="white" transform="translate(0 0.75)"/>
</clipPath>
</defs>
</svg>
