<svg width="20" height="20" viewBox="0 0 20 20" fill="none" xmlns="http://www.w3.org/2000/svg">
<path d="M16.7996 3.84167C15.9148 2.95668 14.7418 2.41861 13.4939 2.32533C12.246 2.23204 11.0061 2.58973 9.99958 3.33334C8.93929 2.54471 7.61957 2.1871 6.30618 2.33254C4.99279 2.47798 3.78328 3.11566 2.92122 4.11716C2.05917 5.11867 1.6086 6.40961 1.66025 7.73002C1.7119 9.05043 2.26193 10.3022 3.19958 11.2333L9.40791 17.4417C9.48538 17.5198 9.57755 17.5818 9.6791 17.6241C9.78065 17.6664 9.88957 17.6882 9.99958 17.6882C10.1096 17.6882 10.2185 17.6664 10.3201 17.6241C10.4216 17.5818 10.5138 17.5198 10.5912 17.4417L16.7996 11.2333C17.2851 10.7481 17.6703 10.172 17.9331 9.53781C18.1959 8.90367 18.3311 8.22395 18.3311 7.53751C18.3311 6.85106 18.1959 6.17135 17.9331 5.5372C17.6703 4.90305 17.2851 4.3269 16.7996 3.84167ZM15.6246 10.0583L9.99958 15.675L4.37458 10.0583C3.87889 9.56059 3.54122 8.92755 3.40394 8.23862C3.26665 7.5497 3.33585 6.83558 3.60287 6.18584C3.86989 5.53609 4.32283 4.97967 4.90487 4.58636C5.48691 4.19305 6.17213 3.98037 6.87458 3.97501C7.81301 3.97731 8.71216 4.35195 9.37458 5.01667C9.45205 5.09478 9.54422 5.15678 9.64576 5.19908C9.74731 5.24139 9.85624 5.26317 9.96625 5.26317C10.0763 5.26317 10.1852 5.24139 10.2867 5.19908C10.3883 5.15678 10.4804 5.09478 10.5579 5.01667C11.2398 4.42574 12.1208 4.11596 13.0225 4.15003C13.9242 4.18409 14.7793 4.55946 15.4147 5.20016C16.0501 5.84087 16.4184 6.69904 16.445 7.601C16.4716 8.50296 16.1545 9.38133 15.5579 10.0583H15.6246Z" fill="#DE350B"/>
<path d="M7.36242 4.44654C8.4502 4.53719 8.772 5.64698 9.86242 5.69654C9.98433 5.70209 10.0529 5.69938 10.1749 5.69654C11.7182 5.66065 12.4422 4.01698 13.9249 4.44654C15.0056 4.75964 15.5816 5.32947 16.1124 6.32154C16.8033 7.61281 16.3437 8.0873 15.7999 9.44702C14.5499 12.572 10.1749 15.697 10.1749 15.697C10.1749 15.697 6.42486 13.197 4.86236 10.0715C4.09837 8.54333 3.15887 7.02163 4.23742 5.69654C5.06716 4.67715 6.05256 4.33739 7.36242 4.44654Z" fill="#DE350B" stroke="#DE350B" stroke-width="3"/>
</svg>