<svg width="24" height="24" viewBox="0 0 24 24" fill="none" xmlns="http://www.w3.org/2000/svg">
<path d="M20.1603 4.61079C19.0986 3.5488 17.691 2.90312 16.1935 2.79117C14.696 2.67923 13.2081 3.10845 12.0003 4.00079C10.7279 3.05443 9.14427 2.6253 7.5682 2.79983C5.99212 2.97435 4.54072 3.73957 3.50625 4.94138C2.47178 6.14318 1.9311 7.69231 1.99308 9.2768C2.05506 10.8613 2.71509 12.3635 3.84028 13.4808L11.2903 20.9308C11.3832 21.0245 11.4938 21.0989 11.6157 21.1497C11.7376 21.2004 11.8683 21.2266 12.0003 21.2266C12.1323 21.2266 12.263 21.2004 12.3849 21.1497C12.5067 21.0989 12.6173 21.0245 12.7103 20.9308L20.1603 13.4808C20.7429 12.8985 21.2051 12.2071 21.5205 11.4462C21.8358 10.6852 21.9982 9.86952 21.9982 9.04579C21.9982 8.22206 21.8358 7.4064 21.5205 6.64542C21.2051 5.88445 20.7429 5.19307 20.1603 4.61079ZM18.7503 12.0708L12.0003 18.8108L5.25028 12.0708C4.65545 11.4735 4.25025 10.7138 4.0855 9.88713C3.92076 9.06042 4.00381 8.20347 4.32423 7.42378C4.64465 6.64409 5.18817 5.97638 5.88662 5.50441C6.58507 5.03244 7.40734 4.77723 8.25028 4.77079C9.37639 4.77355 10.4554 5.22313 11.2503 6.02079C11.3432 6.11452 11.4538 6.18891 11.5757 6.23968C11.6976 6.29045 11.8283 6.31659 11.9603 6.31659C12.0923 6.31659 12.223 6.29045 12.3449 6.23968C12.4667 6.18891 12.5773 6.11452 12.6703 6.02079C13.4886 5.31167 14.5458 4.93993 15.6278 4.98081C16.7099 5.02169 17.736 5.47214 18.4985 6.24098C19.2609 7.00982 19.7029 8.03963 19.7348 9.12198C19.7667 10.2043 19.3862 11.2584 18.6703 12.0708H18.7503Z" fill="#34A853"/>
</svg>
