<svg width="20" height="24" viewBox="0 0 20 24" fill="none" xmlns="http://www.w3.org/2000/svg">
<path d="M18.5703 0H1.42746C0.953348 0 0.570312 0.383036 0.570312 0.857143V23.1429C0.570312 23.617 0.953348 24 1.42746 24H18.5703C19.0444 24 19.4275 23.617 19.4275 23.1429V0.857143C19.4275 0.383036 19.0444 0 18.5703 0ZM2.49888 1.92857H17.4989V7.5H2.49888V1.92857ZM17.4989 14.7857H2.49888V9.21429H17.4989V14.7857ZM17.4989 22.0714H2.49888V16.5H17.4989V22.0714ZM4.42746 4.71429C4.42746 4.99845 4.54034 5.27097 4.74127 5.4719C4.9422 5.67283 5.21472 5.78571 5.49888 5.78571C5.78305 5.78571 6.05557 5.67283 6.2565 5.4719C6.45743 5.27097 6.57031 4.99845 6.57031 4.71429C6.57031 4.43013 6.45743 4.1576 6.2565 3.95667C6.05557 3.75574 5.78305 3.64286 5.49888 3.64286C5.21472 3.64286 4.9422 3.75574 4.74127 3.95667C4.54034 4.1576 4.42746 4.43013 4.42746 4.71429ZM4.42746 12C4.42746 12.2842 4.54034 12.5567 4.74127 12.7576C4.9422 12.9585 5.21472 13.0714 5.49888 13.0714C5.78305 13.0714 6.05557 12.9585 6.2565 12.7576C6.45743 12.5567 6.57031 12.2842 6.57031 12C6.57031 11.7158 6.45743 11.4433 6.2565 11.2424C6.05557 11.0415 5.78305 10.9286 5.49888 10.9286C5.21472 10.9286 4.9422 11.0415 4.74127 11.2424C4.54034 11.4433 4.42746 11.7158 4.42746 12ZM4.42746 19.2857C4.42746 19.5699 4.54034 19.8424 4.74127 20.0433C4.9422 20.2443 5.21472 20.3571 5.49888 20.3571C5.78305 20.3571 6.05557 20.2443 6.2565 20.0433C6.45743 19.8424 6.57031 19.5699 6.57031 19.2857C6.57031 19.0016 6.45743 18.729 6.2565 18.5281C6.05557 18.3272 5.78305 18.2143 5.49888 18.2143C5.21472 18.2143 4.9422 18.3272 4.74127 18.5281C4.54034 18.729 4.42746 19.0016 4.42746 19.2857Z" fill="currentColor"/>
</svg>
