<svg width="20" height="21" viewBox="0 0 20 21" fill="none" xmlns="http://www.w3.org/2000/svg">
<path fill-rule="evenodd" clip-rule="evenodd" d="M18.3346 10.5013C18.3346 15.1037 14.6037 18.8346 10.0013 18.8346C5.39893 18.8346 1.66797 15.1037 1.66797 10.5013C1.66797 5.89893 5.39893 2.16797 10.0013 2.16797C14.6037 2.16797 18.3346 5.89893 18.3346 10.5013ZM7.81997 9.7254C7.92164 9.76908 8.01359 9.83256 8.09047 9.91215L9.16797 10.9897L11.9121 8.24549C11.989 8.16589 12.081 8.10241 12.1826 8.05873C12.2843 8.01506 12.3937 7.99207 12.5043 7.99111C12.6149 7.99015 12.7247 8.01123 12.8271 8.05313C12.9295 8.09504 13.0226 8.15691 13.1008 8.23516C13.179 8.3134 13.2409 8.40644 13.2828 8.50886C13.3247 8.61127 13.3458 8.721 13.3448 8.83165C13.3439 8.9423 13.3209 9.05165 13.2772 9.15332C13.2335 9.25499 13.1701 9.34695 13.0905 9.42382L9.75713 12.7572C9.60086 12.9134 9.38894 13.0011 9.16797 13.0011C8.947 13.0011 8.73507 12.9134 8.5788 12.7572L6.91213 11.0905C6.83254 11.0136 6.76906 10.9217 6.72538 10.82C6.68171 10.7183 6.65872 10.609 6.65776 10.4983C6.6568 10.3877 6.67788 10.2779 6.71978 10.1755C6.76168 10.0731 6.82356 9.98007 6.9018 9.90182C6.98005 9.82358 7.07309 9.7617 7.17551 9.7198C7.27792 9.6779 7.38765 9.65682 7.4983 9.65778C7.60895 9.65874 7.7183 9.68173 7.81997 9.7254Z" fill="#1A542A"/>
</svg>
