<svg width="20" height="21" viewBox="0 0 20 21" fill="none" xmlns="http://www.w3.org/2000/svg">
<path d="M13.5936 9.9483H6.4061C6.32016 9.9483 6.24985 10.0186 6.24985 10.1046V11.0421C6.24985 11.128 6.32016 11.1983 6.4061 11.1983H13.5936C13.6795 11.1983 13.7499 11.128 13.7499 11.0421V10.1046C13.7499 10.0186 13.6795 9.9483 13.5936 9.9483Z" fill="#0A2211"/>
<path d="M10 1.82422C5.16797 1.82422 1.25 5.74219 1.25 10.5742C1.25 15.4063 5.16797 19.3242 10 19.3242C14.832 19.3242 18.75 15.4063 18.75 10.5742C18.75 5.74219 14.832 1.82422 10 1.82422ZM10 17.8398C5.98828 17.8398 2.73438 14.5859 2.73438 10.5742C2.73438 6.5625 5.98828 3.30859 10 3.30859C14.0117 3.30859 17.2656 6.5625 17.2656 10.5742C17.2656 14.5859 14.0117 17.8398 10 17.8398Z" fill="#0A2211"/>
</svg>
