<svg width="16" height="17" viewBox="0 0 16 17" fill="none" xmlns="http://www.w3.org/2000/svg">
<path d="M15.4292 4.098C14.8828 4.33371 14.2882 4.50336 13.6757 4.56943C14.3116 4.19163 14.7878 3.59478 15.015 2.89086C14.4182 3.24584 13.7645 3.49475 13.0828 3.62657C12.7979 3.32197 12.4533 3.07932 12.0705 2.91373C11.6877 2.74813 11.2749 2.66315 10.8578 2.66407C9.17031 2.66407 7.81317 4.03193 7.81317 5.7105C7.81317 5.94621 7.84174 6.18193 7.88817 6.40871C5.36138 6.27657 3.10781 5.06943 1.6096 3.22121C1.33661 3.68749 1.19355 4.2184 1.19531 4.75871C1.19531 5.81586 1.73281 6.748 2.55246 7.29621C2.06943 7.27719 1.59771 7.14442 1.17567 6.90871V6.94621C1.17567 8.42657 2.2221 9.65336 3.61674 9.9355C3.35488 10.0035 3.0855 10.0383 2.81496 10.0391C2.61674 10.0391 2.42924 10.0194 2.23996 9.99264C2.62567 11.1998 3.74888 12.0766 5.08638 12.1051C4.03996 12.9248 2.72924 13.4069 1.30603 13.4069C1.05067 13.4069 0.814955 13.398 0.570312 13.3694C1.92031 14.2355 3.5221 14.7355 5.2471 14.7355C10.8471 14.7355 13.9114 10.0962 13.9114 6.06943C13.9114 5.93728 13.9114 5.80514 13.9025 5.673C14.4953 5.23907 15.015 4.70157 15.4292 4.098Z" fill="#302F2C"/>
</svg>
