<svg width="16" height="17" viewBox="0 0 16 17" fill="none" xmlns="http://www.w3.org/2000/svg">
<path d="M10.742 10.7556L10.3296 11.3742C10.2473 11.4977 10.1384 11.603 9.99492 11.641C9.52496 11.7651 8.27731 11.8212 6.3778 9.9217C4.47828 8.02218 4.53434 6.77452 4.65852 6.30456C4.69643 6.16109 4.80179 6.05223 4.92526 5.96991L5.54386 5.55751C6.00442 5.25047 6.12887 4.62821 5.82183 4.16765L4.65351 2.41516C4.38551 2.01316 3.86886 1.85957 3.42478 2.04989L2.89775 2.27576C2.49738 2.44735 2.17079 2.75529 1.97599 3.1449C1.81324 3.47039 1.6871 3.81316 1.67 4.17668C1.61614 5.32227 1.86734 8.14464 5.0111 11.2884C8.15485 14.4322 10.9772 14.6833 12.1228 14.6295C12.4863 14.6124 12.8291 14.4862 13.1546 14.3235C13.5442 14.1287 13.8521 13.8021 14.0237 13.4017L14.2496 12.8747C14.4399 12.4306 14.2863 11.914 13.8843 11.646L12.1318 10.4776C11.6713 10.1706 11.049 10.2951 10.742 10.7556Z" fill="#302F2C"/>
</svg>
