<svg width="86" height="25" viewBox="0 0 86 25" fill="none" xmlns="http://www.w3.org/2000/svg">
<path fill-rule="evenodd" clip-rule="evenodd" d="M11.3773 1.77342C12.5148 2.9177 13.1805 4.52727 13.2563 6.49873C16.7262 7.93987 19.1662 11.3612 19.1662 15.3525C19.1662 20.645 14.8758 24.9355 9.58331 24.9355H0.000384556V15.3525C0.000384556 15.0452 0.014856 14.7411 0.0431547 14.4412L0.0417353 14.3645C-0.0234812 10.8214 -0.0446628 7.25165 0.226552 5.53398C0.801366 1.89349 4.10359 -0.0506776 7.07775 0.00100437C8.60765 0.0275895 10.1811 0.569994 11.3773 1.77342ZM9.01333 4.12323C9.35479 4.46679 9.67241 4.9894 9.8288 5.77269C9.74725 5.77065 9.66536 5.7696 9.58331 5.7696C7.21189 5.7696 5.04164 6.631 3.3684 8.05793C3.39706 7.20787 3.4452 6.52092 3.51895 6.0538C3.78119 4.39296 5.34111 3.30452 7.01982 3.33369C7.81635 3.34753 8.51702 3.62391 9.01333 4.12323ZM3.44449 17.6034C3.47619 19.0034 3.50716 20.3709 3.52547 21.6023H9.58331C13.0349 21.6023 15.833 18.8041 15.833 15.3525C15.833 11.9009 13.0349 9.10281 9.58331 9.10281C6.39009 9.10281 3.75623 11.4976 3.37973 14.5892C3.39879 15.5852 3.42183 16.6025 3.44449 17.6032L3.44449 17.6033V17.6034ZM66.6641 15.3525C66.6641 10.06 70.9543 5.7696 76.2472 5.7696C81.5396 5.7696 85.8298 10.06 85.8298 15.3525C85.8298 20.645 81.5396 24.9355 76.2472 24.9355C70.9543 24.9355 66.6641 20.645 66.6641 15.3525ZM76.2472 9.10281C72.7952 9.10281 69.9972 11.9009 69.9972 15.3525C69.9972 18.8041 72.7952 21.6023 76.2472 21.6023C79.6988 21.6023 82.4967 18.8041 82.4967 15.3525C82.4967 11.9009 79.6988 9.10281 76.2472 9.10281ZM57.2203 24.9989C61.592 24.9989 65.1366 21.4546 65.1366 17.0826V9.16624V0.13834H61.8029V9.16624H57.2203C52.848 9.16624 49.3037 12.7105 49.3037 17.0826C49.3037 21.4546 52.848 24.9989 57.2203 24.9989ZM61.8034 17.0826C61.8034 19.6138 59.7511 21.6657 57.2203 21.6657C54.6889 21.6657 52.6369 19.6138 52.6369 17.0826C52.6369 14.5514 54.6889 12.4994 57.2203 12.4994H61.8034V17.0826ZM24.027 18.4031V5.97302H20.6938V18.4031C20.6938 22.0465 23.6474 25 27.2907 25C30.9341 25 33.8877 22.0465 33.8877 18.4031V5.97302H30.5545V18.4031C30.5545 20.2056 29.0933 21.6668 27.2907 21.6668C25.4883 21.6668 24.027 20.2056 24.027 18.4031ZM45.2761 24.7222V12.2922C45.2761 10.4897 43.8149 9.02847 42.0124 9.02847C40.2099 9.02847 38.7486 10.4897 38.7486 12.2922V24.7222H35.4154V12.2922C35.4154 8.64879 38.369 5.69526 42.0124 5.69526C45.6558 5.69526 48.6093 8.64879 48.6093 12.2922V24.7222H45.2761Z" fill="#34A853"/>
</svg>
