<svg width="16" height="17" viewBox="0 0 16 17" fill="none" xmlns="http://www.w3.org/2000/svg">
<path d="M14.6693 4.86536C14.6618 4.57775 14.6395 4.2907 14.6026 4.00536C14.5528 3.75545 14.4699 3.5133 14.3559 3.28536C14.2368 3.0381 14.0768 2.81272 13.8826 2.6187C13.6867 2.42683 13.4617 2.26709 13.2159 2.14536C12.9877 2.03366 12.7456 1.95295 12.4959 1.90536C12.2133 1.86303 11.9283 1.83854 11.6426 1.83203H4.36927C4.08165 1.83952 3.79461 1.86177 3.50927 1.8987C3.25935 1.94848 3.01721 2.03143 2.78927 2.14536C2.54201 2.26452 2.31662 2.42455 2.1226 2.6187C1.93074 2.81464 1.771 3.03963 1.64927 3.28536C1.53757 3.51361 1.45685 3.75575 1.40927 4.00536C1.36694 4.28799 1.34244 4.573 1.33594 4.8587C1.33594 4.98536 1.33594 5.16536 1.33594 5.2187V11.7787C1.33594 11.852 1.33594 12.012 1.33594 12.132C1.34343 12.4197 1.36568 12.7067 1.4026 12.992C1.45238 13.2419 1.53534 13.4841 1.64927 13.712C1.76843 13.9593 1.92845 14.1847 2.1226 14.3787C2.31854 14.5706 2.54353 14.7303 2.78927 14.852C3.01751 14.9637 3.25965 15.0444 3.50927 15.092C3.79189 15.1344 4.0769 15.1589 4.3626 15.1654H11.6359C11.9236 15.1579 12.2106 15.1356 12.4959 15.0987C12.7459 15.0489 12.988 14.966 13.2159 14.852C13.4632 14.7329 13.6886 14.5728 13.8826 14.3787C14.0745 14.1828 14.2342 13.9578 14.3559 13.712C14.4676 13.4838 14.5484 13.2416 14.5959 12.992C14.6383 12.7094 14.6628 12.4244 14.6693 12.1387C14.6693 12.012 14.6693 11.852 14.6693 11.7787V5.2187C14.6693 5.16536 14.6693 4.98536 14.6693 4.86536ZM8.15594 13.1654C7.35531 13.1614 6.56869 12.955 5.86927 12.5654L3.33594 13.232L4.0026 10.752C3.57268 10.0297 3.34259 9.20596 3.33594 8.36537C3.33859 7.42065 3.62074 6.49784 4.14684 5.71317C4.67295 4.9285 5.41948 4.31705 6.29242 3.95584C7.16536 3.59463 8.12567 3.49981 9.05239 3.68332C9.97912 3.86684 10.8308 4.32047 11.5002 4.9871C12.1696 5.65373 12.6268 6.50353 12.8142 7.42949C13.0015 8.35544 12.9107 9.31614 12.5531 10.1906C12.1956 11.065 11.5872 11.8141 10.8047 12.3434C10.0223 12.8728 9.10063 13.1588 8.15594 13.1654ZM8.15594 4.41203C7.44914 4.42012 6.75712 4.61535 6.15031 4.97786C5.5435 5.34036 5.04359 5.85718 4.70147 6.47571C4.35935 7.09424 4.18724 7.79238 4.20266 8.49905C4.21808 9.20572 4.42049 9.89569 4.78927 10.4987L4.8826 10.652L4.4826 12.112L6.0026 11.6987L6.14927 11.7854C6.75565 12.1425 7.44554 12.3334 8.14927 12.3387C9.21014 12.3387 10.2276 11.9173 10.9777 11.1671C11.7278 10.417 12.1493 9.39956 12.1493 8.3387C12.1493 7.27783 11.7278 6.26042 10.9777 5.51027C10.2276 4.76013 9.21014 4.3387 8.14927 4.3387L8.15594 4.41203ZM10.4893 10.092C10.402 10.2377 10.285 10.3634 10.1461 10.461C10.0071 10.5586 9.84923 10.626 9.6826 10.6587C9.43363 10.7042 9.17731 10.6882 8.93594 10.612C8.70884 10.541 8.48621 10.4564 8.26927 10.3587C7.4451 9.94514 6.74223 9.32496 6.22927 8.5587C5.95053 8.20368 5.7814 7.77506 5.7426 7.32536C5.73863 7.13856 5.77397 6.953 5.84633 6.78073C5.91868 6.60846 6.02644 6.45331 6.1626 6.32536C6.20271 6.27989 6.25192 6.24334 6.30704 6.21807C6.36216 6.19281 6.42197 6.1794 6.4826 6.1787H6.66927C6.7426 6.1787 6.8426 6.1787 6.93594 6.38536C7.02927 6.59203 7.27594 7.21203 7.30927 7.27203C7.32565 7.30401 7.3342 7.33943 7.3342 7.37536C7.3342 7.4113 7.32565 7.44672 7.30927 7.4787C7.2798 7.55114 7.23932 7.6186 7.18927 7.6787C7.12927 7.75203 7.0626 7.8387 7.00927 7.89203C6.95594 7.94536 6.88927 8.01203 6.95594 8.13203C7.13733 8.43816 7.36186 8.71657 7.6226 8.9587C7.90655 9.2096 8.23121 9.41026 8.5826 9.55203C8.7026 9.61203 8.77594 9.60536 8.8426 9.55203C8.90927 9.4987 9.1426 9.20536 9.2226 9.08536C9.3026 8.96536 9.3826 8.98536 9.48927 9.02536C9.59594 9.06536 10.1893 9.35203 10.3093 9.41203C10.4293 9.47203 10.5026 9.4987 10.5359 9.55203C10.5649 9.72651 10.5488 9.90549 10.4893 10.072V10.092Z" fill="#302F2C"/>
</svg>
