<svg width="16" height="17" viewBox="0 0 16 17" fill="none" xmlns="http://www.w3.org/2000/svg">
<path d="M9.1058 10.8395C9.07895 10.8129 9.0427 10.798 9.00491 10.798C8.96712 10.798 8.93087 10.8129 8.90402 10.8395L6.82902 12.9145C5.8683 13.8752 4.24687 13.977 3.18616 12.9145C2.12366 11.852 2.22545 10.2324 3.18616 9.27165L5.26116 7.19665C5.31652 7.1413 5.31652 7.05022 5.26116 6.99487L4.55045 6.28415C4.5236 6.25757 4.48734 6.24265 4.44955 6.24265C4.41177 6.24265 4.37551 6.25757 4.34866 6.28415L2.27366 8.35915C0.762946 9.86987 0.762946 12.3145 2.27366 13.8234C3.78437 15.3324 6.22902 15.3342 7.73795 13.8234L9.81295 11.7484C9.8683 11.6931 9.8683 11.602 9.81295 11.5467L9.1058 10.8395ZM13.7237 2.37522C12.2129 0.864509 9.7683 0.864509 8.25937 2.37522L6.18259 4.45022C6.156 4.47707 6.14109 4.51333 6.14109 4.55112C6.14109 4.5889 6.156 4.62516 6.18259 4.65201L6.89152 5.36094C6.94688 5.4163 7.03795 5.4163 7.0933 5.36094L9.1683 3.28594C10.129 2.32522 11.7504 2.22344 12.8112 3.28594C13.8737 4.34844 13.7719 5.96808 12.8112 6.9288L10.7362 9.0038C10.7096 9.03065 10.6947 9.0669 10.6947 9.10469C10.6947 9.14247 10.7096 9.17873 10.7362 9.20558L11.4469 9.9163C11.5022 9.97165 11.5933 9.97165 11.6487 9.9163L13.7237 7.8413C15.2326 6.33058 15.2326 3.88594 13.7237 2.37522ZM9.75045 5.60558C9.7236 5.57899 9.68734 5.56408 9.64955 5.56408C9.61177 5.56408 9.57551 5.57899 9.54866 5.60558L5.50402 9.64844C5.47743 9.67529 5.46252 9.71155 5.46252 9.74933C5.46252 9.78712 5.47743 9.82338 5.50402 9.85022L6.21116 10.5574C6.26652 10.6127 6.35759 10.6127 6.41295 10.5574L10.4558 6.51451C10.5112 6.45915 10.5112 6.36808 10.4558 6.31272L9.75045 5.60558Z" fill="#302F2C"/>
</svg>
