<svg width="40" height="40" viewBox="0 0 40 40" fill="none" xmlns="http://www.w3.org/2000/svg">
<rect width="40" height="40" fill="white" fill-opacity="0.01"/>
<path d="M18.9733 9.12924C19.754 8.34715 20.6816 7.72695 21.7026 7.30423C22.7237 6.88151 23.8182 6.66458 24.9233 6.6659C26.5433 6.6659 28.1649 7.13257 29.5699 8.06424C29.6033 8.0209 29.6416 7.9809 29.6799 7.9409C29.8404 7.77662 30.0328 7.64692 30.2453 7.55978C30.4578 7.47265 30.6859 7.42991 30.9155 7.43422C31.1452 7.43852 31.3715 7.48976 31.5806 7.5848C31.7896 7.67984 31.9771 7.81666 32.1313 7.98683C32.2855 8.15701 32.4033 8.35695 32.4774 8.57435C32.5515 8.79174 32.5803 9.022 32.562 9.25094C32.5438 9.47988 32.4789 9.70267 32.3713 9.9056C32.2638 10.1085 32.1158 10.2873 31.9366 10.4309C33.0076 12.0488 33.4864 13.9872 33.292 15.9178C33.0977 17.8483 32.242 19.6523 30.8699 21.0242L29.6616 22.2326C28.3583 23.5376 26.6399 25.9159 25.8083 27.5776L23.2933 32.6042C22.8783 33.4376 22.0049 33.5776 21.3416 32.9159L7.08159 18.6576C6.41992 17.9959 6.56825 17.1176 7.39325 16.7042L12.4216 14.1909C14.0699 13.3676 16.4549 11.6476 17.7649 10.3376L18.9733 9.12924Z" fill="#34A853"/>
<path fill-rule="evenodd" clip-rule="evenodd" d="M13.2066 6.02924L13.8749 7.64257C13.9586 7.8448 14.0017 8.06155 14.0017 8.28043C14.0016 8.49931 13.9584 8.71603 13.8746 8.91823C13.7908 9.12043 13.668 9.30415 13.5132 9.45888C13.3584 9.61362 13.1747 9.73635 12.9724 9.82007C12.7702 9.90379 12.5534 9.94685 12.3346 9.9468C12.1157 9.94676 11.899 9.9036 11.6968 9.81979C11.2884 9.65054 10.964 9.326 10.7949 8.91757L10.1283 7.30423C10.0445 7.102 10.0015 6.88525 10.0015 6.66638C10.0016 6.4475 10.0447 6.23077 10.1285 6.02857C10.2123 5.82637 10.3351 5.64266 10.4899 5.48792C10.6448 5.33318 10.8285 5.21045 11.0308 5.12674C11.233 5.04302 11.4497 4.99995 11.6686 5C11.8875 5.00005 12.1042 5.04321 12.3064 5.12701C12.5086 5.21081 12.6923 5.33363 12.8471 5.48843C13.0018 5.64323 13.1245 5.827 13.2083 6.02924H13.2066ZM7.30492 10.1259L8.91825 10.7942C9.30978 10.9748 9.6162 11.2999 9.77327 11.7015C9.93034 12.103 9.92586 12.5497 9.76076 12.948C9.59566 13.3463 9.28278 13.6653 8.8877 13.8379C8.49263 14.0106 8.04604 14.0236 7.64159 13.8742L6.02825 13.2076C5.63672 13.027 5.3303 12.7019 5.17323 12.3003C5.01617 11.8988 5.02065 11.4521 5.18575 11.0538C5.35084 10.6555 5.66373 10.3365 6.0588 10.1639C6.45388 9.9912 6.90046 9.97653 7.30492 10.1259ZM27.0299 30.1259C26.622 30.2959 26.298 30.6204 26.1287 31.0286C25.9594 31.4368 25.9587 31.8955 26.1266 32.3042L26.7966 33.9176C26.8804 34.1198 27.0033 34.3035 27.1581 34.4583C27.3129 34.6131 27.4967 34.7358 27.699 34.8195C27.9013 34.9033 28.1181 34.9463 28.337 34.9463C28.5559 34.9462 28.7727 34.9031 28.9749 34.8192C29.1772 34.7354 29.3609 34.6126 29.5157 34.4577C29.6704 34.3029 29.7932 34.1191 29.8769 33.9168C29.9606 33.7145 30.0037 33.4977 30.0036 33.2788C30.0036 33.0599 29.9604 32.8431 29.8766 32.6409L29.2083 31.0292C29.1246 30.8268 29.0019 30.6429 28.8472 30.4879C28.6924 30.3329 28.5086 30.21 28.3063 30.1261C28.104 30.0422 27.8871 29.999 27.6681 29.999C27.4491 29.9989 27.2323 30.0421 27.0299 30.1259ZM30.1283 27.0309C29.9593 27.4389 29.9591 27.8973 30.1279 28.3055C30.2966 28.7136 30.6205 29.038 31.0283 29.2076L32.6433 29.8759C33.0477 30.0253 33.4943 30.0123 33.8894 29.8396C34.2844 29.6669 34.5973 29.348 34.7624 28.9497C34.9275 28.5514 34.932 28.1047 34.7749 27.7031C34.6179 27.3016 34.3115 26.9765 33.9199 26.7959L32.3033 26.1276C31.8948 25.9588 31.4361 25.9591 31.0279 26.1285C30.6197 26.2979 30.2972 26.6225 30.1283 27.0309ZM10.8083 29.4476C11.1178 29.7572 11.4853 30.0029 11.8898 30.1705C12.2943 30.3381 12.7279 30.4244 13.1658 30.4244C13.6036 30.4244 14.0372 30.3381 14.4417 30.1705C14.8462 30.0029 15.2137 29.7572 15.5233 29.4476L10.8083 24.7309C10.4983 25.0405 10.2525 25.4081 10.0847 25.8128C9.91697 26.2174 9.83063 26.6512 9.83063 27.0892C9.83063 27.5273 9.91697 27.961 10.0847 28.3657C10.2525 28.7704 10.4983 29.138 10.8083 29.4476Z" fill="#34A853"/>
</svg>
