<svg width="98" height="97" viewBox="0 0 98 97" fill="none" xmlns="http://www.w3.org/2000/svg">
<g filter="url(#filter0_dd_4078_838)">
<circle cx="49" cy="40.5" r="36.5" fill="#34A853"/>
<g clip-path="url(#clip0_4078_838)">
<path d="M57.5964 44.5219C57.1584 44.2969 54.9767 43.2282 54.5709 43.0835C54.1651 42.9309 53.8678 42.8585 53.5745 43.3085C53.2772 43.7545 52.4334 44.7469 52.1682 45.0483C51.9111 45.3456 51.6499 45.3818 51.212 45.1608C48.6084 43.859 46.9008 42.8384 45.1852 39.8934C44.7312 39.1099 45.6392 39.1661 46.487 37.4746C46.6316 37.1773 46.5593 36.9242 46.4468 36.6992C46.3343 36.4742 45.4504 34.2965 45.0807 33.4085C44.7231 32.5447 44.3535 32.6652 44.0843 32.6492C43.8272 32.6331 43.5339 32.6331 43.2365 32.6331C42.9392 32.6331 42.4611 32.7456 42.0553 33.1835C41.6495 33.6295 40.5044 34.7023 40.5044 36.88C40.5044 39.0576 42.0914 41.167 42.3084 41.4643C42.5334 41.7617 45.4303 46.2295 49.8781 48.1541C52.6906 49.3675 53.7914 49.4719 55.1977 49.263C56.0535 49.1344 57.8173 48.1943 58.183 47.1536C58.5486 46.117 58.5486 45.2291 58.4401 45.0443C58.3316 44.8474 58.0343 44.7349 57.5964 44.5219Z" fill="white"/>
<path d="M66.102 34.025C65.194 31.8674 63.8922 29.9308 62.2328 28.2674C60.5851 26.6136 58.6289 25.2991 56.4752 24.3982C54.2654 23.4701 51.919 23 49.5002 23H49.4199C46.9851 23.0121 44.6266 23.4942 42.4087 24.4424C40.2734 25.3525 38.3357 26.6694 36.7034 28.3196C35.06 29.979 33.7703 31.9076 32.8784 34.0571C31.9542 36.283 31.4882 38.6496 31.5002 41.0844C31.5139 43.8747 32.174 46.6238 33.4288 49.1161V55.2232C33.4288 55.7134 33.6235 56.1835 33.9701 56.5301C34.3167 56.8767 34.7868 57.0714 35.277 57.0714H41.3882C43.8804 58.3262 46.6296 58.9864 49.4199 59H49.5042C51.9109 59 54.2453 58.5339 56.4431 57.6219C58.5859 56.7317 60.5347 55.4325 62.1806 53.7969C63.84 52.1536 65.1458 50.233 66.0578 48.0915C67.006 45.8737 67.4882 43.5152 67.5002 41.0804C67.5123 38.6335 67.0382 36.2589 66.102 34.025ZM60.031 51.6232C57.2145 54.4116 53.4779 55.9464 49.5002 55.9464H49.4319C47.0092 55.9344 44.6025 55.3317 42.477 54.1987L42.1395 54.0179H36.4824V48.3607L36.3016 48.0232C35.1685 45.8978 34.5659 43.4911 34.5538 41.0683C34.5377 37.0625 36.0685 33.3018 38.877 30.4692C41.6815 27.6366 45.4301 26.0696 49.4359 26.0536H49.5042C51.5132 26.0536 53.4618 26.4433 55.298 27.2147C57.09 27.9661 58.6971 29.0469 60.0792 30.429C61.4574 31.8071 62.5422 33.4183 63.2935 35.2103C64.073 37.0665 64.4627 39.0353 64.4547 41.0683C64.4306 45.0701 62.8596 48.8188 60.031 51.6232Z" fill="white"/>
</g>
</g>
<defs>
<filter id="filter0_dd_4078_838" x="0.5" y="0" width="97" height="97" filterUnits="userSpaceOnUse" color-interpolation-filters="sRGB">
<feFlood flood-opacity="0" result="BackgroundImageFix"/>
<feColorMatrix in="SourceAlpha" type="matrix" values="0 0 0 0 0 0 0 0 0 0 0 0 0 0 0 0 0 0 127 0" result="hardAlpha"/>
<feOffset/>
<feGaussianBlur stdDeviation="0.5"/>
<feColorMatrix type="matrix" values="0 0 0 0 0.0352941 0 0 0 0 0.117647 0 0 0 0 0.258824 0 0 0 0.31 0"/>
<feBlend mode="normal" in2="BackgroundImageFix" result="effect1_dropShadow_4078_838"/>
<feColorMatrix in="SourceAlpha" type="matrix" values="0 0 0 0 0 0 0 0 0 0 0 0 0 0 0 0 0 0 127 0" result="hardAlpha"/>
<feOffset dy="8"/>
<feGaussianBlur stdDeviation="6"/>
<feColorMatrix type="matrix" values="0 0 0 0 0.0352941 0 0 0 0 0.117647 0 0 0 0 0.258824 0 0 0 0.15 0"/>
<feBlend mode="normal" in2="effect1_dropShadow_4078_838" result="effect2_dropShadow_4078_838"/>
<feBlend mode="normal" in="SourceGraphic" in2="effect2_dropShadow_4078_838" result="shape"/>
</filter>
<clipPath id="clip0_4078_838">
<rect width="36" height="36" fill="white" transform="translate(31.5 23)"/>
</clipPath>
</defs>
</svg>
