<svg width="22" height="22" viewBox="0 0 22 22" fill="none" xmlns="http://www.w3.org/2000/svg">
<path d="M17.416 6.41927H14.666V5.5026C14.666 4.53014 14.2797 3.59751 13.5921 2.90988C12.9044 2.22225 11.9718 1.83594 10.9993 1.83594C10.0269 1.83594 9.09426 2.22225 8.40662 2.90988C7.71899 3.59751 7.33268 4.53014 7.33268 5.5026V6.41927H4.58268C4.33957 6.41927 4.10641 6.51585 3.9345 6.68776C3.76259 6.85966 3.66602 7.09282 3.66602 7.33594V17.4193C3.66602 18.1486 3.95575 18.8481 4.47147 19.3638C4.9872 19.8795 5.68667 20.1693 6.41602 20.1693H15.5827C16.312 20.1693 17.0115 19.8795 17.5272 19.3638C18.043 18.8481 18.3327 18.1486 18.3327 17.4193V7.33594C18.3327 7.09282 18.2361 6.85966 18.0642 6.68776C17.8923 6.51585 17.6591 6.41927 17.416 6.41927ZM9.16602 5.5026C9.16602 5.01637 9.35917 4.55006 9.70299 4.20624C10.0468 3.86242 10.5131 3.66927 10.9993 3.66927C11.4856 3.66927 11.9519 3.86242 12.2957 4.20624C12.6395 4.55006 12.8327 5.01637 12.8327 5.5026V6.41927H9.16602V5.5026ZM16.4993 17.4193C16.4993 17.6624 16.4028 17.8955 16.2309 18.0675C16.059 18.2394 15.8258 18.3359 15.5827 18.3359H6.41602C6.1729 18.3359 5.93974 18.2394 5.76783 18.0675C5.59593 17.8955 5.49935 17.6624 5.49935 17.4193V8.2526H7.33268V9.16927C7.33268 9.41239 7.42926 9.64554 7.60117 9.81745C7.77308 9.98936 8.00623 10.0859 8.24935 10.0859C8.49246 10.0859 8.72562 9.98936 8.89753 9.81745C9.06944 9.64554 9.16602 9.41239 9.16602 9.16927V8.2526H12.8327V9.16927C12.8327 9.41239 12.9293 9.64554 13.1012 9.81745C13.2731 9.98936 13.5062 10.0859 13.7493 10.0859C13.9925 10.0859 14.2256 9.98936 14.3975 9.81745C14.5694 9.64554 14.666 9.41239 14.666 9.16927V8.2526H16.4993V17.4193Z" fill="currentcolor"/>
</svg>
