<svg width="31" height="31" viewBox="0 0 31 31" fill="none" xmlns="http://www.w3.org/2000/svg">
<rect width="30" height="30" transform="translate(0.919922 0.0390625)" fill="white" fill-opacity="0.01"/>
<path fill-rule="evenodd" clip-rule="evenodd" d="M15.9199 27.5391C9.01617 27.5391 3.41992 21.9428 3.41992 15.0391C3.41992 8.13531 9.01617 2.53906 15.9199 2.53906C22.8237 2.53906 28.4199 8.13531 28.4199 15.0391C28.4199 21.9428 22.8237 27.5391 15.9199 27.5391ZM17.1699 10.0391C17.1699 10.7294 16.6103 11.2891 15.9199 11.2891C15.2296 11.2891 14.6699 10.7294 14.6699 10.0391C14.6699 9.34871 15.2296 8.78906 15.9199 8.78906C16.6103 8.78906 17.1699 9.34871 17.1699 10.0391ZM15.9199 12.5391C16.6103 12.5391 17.1699 13.0987 17.1699 13.7891V20.0391C17.1699 20.7294 16.6103 21.2891 15.9199 21.2891C15.2296 21.2891 14.6699 20.7294 14.6699 20.0391V13.7891C14.6699 13.0987 15.2296 12.5391 15.9199 12.5391Z" fill="#B9A61A"/>
</svg>
