<svg width="42" height="42" viewBox="0 0 42 42" fill="none" xmlns="http://www.w3.org/2000/svg">
<circle cx="21" cy="21" r="21" fill="#FFFADB"/>
<path d="M32.0092 13.8748L28.9837 10.8521C28.6143 10.4828 28.12 10.2754 27.5973 10.2754C27.0746 10.2754 26.5803 10.4799 26.2109 10.8521L22.9524 14.1049C22.5831 14.4743 22.3757 14.9714 22.3757 15.4941C22.3757 16.0197 22.5803 16.5112 22.9524 16.8833L25.4979 19.4316C24.918 20.7827 24.0848 22.0103 23.0433 23.0481C22.0007 24.0964 20.782 24.9231 19.4297 25.5083L16.8842 22.96C16.5149 22.5907 16.0206 22.3833 15.4979 22.3833C15.24 22.3824 14.9846 22.4329 14.7465 22.5319C14.5085 22.631 14.2926 22.7765 14.1115 22.96L10.8501 26.2129C10.4808 26.5822 10.2734 27.0794 10.2734 27.6021C10.2734 28.1277 10.478 28.6191 10.8501 28.9913L13.8729 32.014C14.5036 32.6447 15.3729 33.0055 16.2649 33.0055C16.4496 33.0055 16.6286 32.9913 16.8104 32.9601C20.5717 32.3407 24.3047 30.3379 27.3189 27.3265C30.3303 24.3095 32.3303 20.5765 32.9553 16.8123C33.1342 15.7441 32.7763 14.6447 32.0092 13.8748ZM30.941 16.4743C30.3871 19.8237 28.5859 23.1646 25.8729 25.8777C23.1598 28.5907 19.8217 30.3919 16.4723 30.9458C16.0518 31.0169 15.62 30.8748 15.3132 30.5708L12.3445 27.6021L15.4922 24.4515L18.8956 27.8606L18.9212 27.8862L19.5348 27.6589C21.3954 26.9748 23.085 25.8944 24.4865 24.4924C25.888 23.0904 26.9679 21.4004 27.6513 19.5396L27.8786 18.926L24.4467 15.497L27.5945 12.3464L30.5632 15.3152C30.87 15.622 31.0121 16.0538 30.941 16.4743Z" fill="#0A2211"/>
</svg>
