<svg width="24" height="24" viewBox="0 0 24 24" fill="none" xmlns="http://www.w3.org/2000/svg">
<path d="M20.9182 10.6522C20.6038 10.4822 17.9075 8.91777 16.8957 8.32891L16.8928 8.32691L4.63793 1.25177C4.42915 1.12432 4.19505 1.04403 3.95199 1.01652C3.70894 0.989001 3.46281 1.01492 3.23082 1.09247C3.20464 1.10187 3.18004 1.11133 3.15459 1.12298C3.0955 1.14224 3.03774 1.16536 2.98168 1.1922C2.74737 1.33225 2.55514 1.53288 2.42522 1.77296C2.29529 2.01304 2.23249 2.2837 2.2434 2.55646V21.5418C2.23597 21.7959 2.29615 22.0475 2.4178 22.2707C2.53945 22.4939 2.71821 22.6808 2.93578 22.8123C2.98596 22.8368 3.03767 22.8581 3.09057 22.876C3.1195 22.8894 3.14708 22.901 3.17693 22.9116C3.32014 22.9635 3.47097 22.9913 3.62328 22.994C3.91577 22.9908 4.20233 22.911 4.45434 22.7625C4.84301 22.5369 16.8928 15.5799 16.8928 15.5799L20.9133 13.2586C21.1619 13.1341 21.3717 12.944 21.5201 12.7089C21.6684 12.4738 21.7497 12.2026 21.7551 11.9246C21.7429 11.6569 21.6587 11.3974 21.5114 11.1734C21.3641 10.9495 21.1592 10.7694 20.9182 10.6522ZM4.2434 19.8382V4.10101L12.1835 11.9601L4.2434 19.8382ZM9.2614 17.6765L13.6049 13.3669L14.7545 14.5047C13.4898 15.235 11.3531 16.4688 9.2614 17.6765V17.6765ZM13.6032 10.5515L9.20533 6.19848L14.759 9.40478L13.6032 10.5515ZM16.55 13.4682L15.0246 11.9584L16.5523 10.4426C17.2726 10.8608 18.3952 11.5119 19.1682 11.9569L16.55 13.4682Z" fill="#ABF5D1"/>
</svg>
