<svg width="49" height="49" viewBox="0 0 49 49" fill="none" xmlns="http://www.w3.org/2000/svg">
<circle cx="24.5" cy="24.5" r="24.5" fill="#0A2211"/>
<path d="M24.5 13.5625C18.46 13.5625 13.5625 18.46 13.5625 24.5C13.5625 30.54 18.46 35.4375 24.5 35.4375C30.54 35.4375 35.4375 30.54 35.4375 24.5C35.4375 18.46 30.54 13.5625 24.5 13.5625ZM28.0181 24.6685L22.686 28.5479C22.6568 28.5689 22.6223 28.5814 22.5865 28.5841C22.5506 28.5868 22.5146 28.5795 22.4826 28.5631C22.4505 28.5467 22.4236 28.5218 22.4048 28.4911C22.386 28.4604 22.376 28.4252 22.376 28.3892V20.6353C22.3759 20.5992 22.3857 20.5638 22.4045 20.533C22.4233 20.5022 22.4502 20.4772 22.4823 20.4607C22.5144 20.4443 22.5504 20.4371 22.5864 20.4399C22.6224 20.4427 22.6568 20.4554 22.686 20.4766L28.0181 24.3535C28.0433 24.3713 28.0638 24.3949 28.078 24.4223C28.0922 24.4497 28.0996 24.4801 28.0996 24.511C28.0996 24.5418 28.0922 24.5722 28.078 24.5996C28.0638 24.627 28.0433 24.6506 28.0181 24.6685Z" fill="#D6EEDD"/>
</svg>
