<svg width="20" height="21" viewBox="0 0 20 21" fill="none" xmlns="http://www.w3.org/2000/svg">
<path d="M13.5936 9.95014H10.6248V6.98138C10.6248 6.89545 10.5545 6.82513 10.4686 6.82513H9.5311C9.44516 6.82513 9.37485 6.89545 9.37485 6.98138V9.95014H6.4061C6.32016 9.95014 6.24985 10.0204 6.24985 10.1064V11.0439C6.24985 11.1298 6.32016 11.2001 6.4061 11.2001H9.37485V14.1689C9.37485 14.2548 9.44516 14.3251 9.5311 14.3251H10.4686C10.5545 14.3251 10.6248 14.2548 10.6248 14.1689V11.2001H13.5936C13.6795 11.2001 13.7499 11.1298 13.7499 11.0439V10.1064C13.7499 10.0204 13.6795 9.95014 13.5936 9.95014Z" fill="#0A2211"/>
<path d="M10 1.82422C5.16797 1.82422 1.25 5.74219 1.25 10.5742C1.25 15.4063 5.16797 19.3242 10 19.3242C14.832 19.3242 18.75 15.4063 18.75 10.5742C18.75 5.74219 14.832 1.82422 10 1.82422ZM10 17.8398C5.98828 17.8398 2.73438 14.5859 2.73438 10.5742C2.73438 6.5625 5.98828 3.30859 10 3.30859C14.0117 3.30859 17.2656 6.5625 17.2656 10.5742C17.2656 14.5859 14.0117 17.8398 10 17.8398Z" fill="#0A2211"/>
</svg>
