<svg width="18" height="18" viewBox="0 0 18 18" fill="none" xmlns="http://www.w3.org/2000/svg">
<path d="M16.558 13.0234L14.833 11.2567C14.462 10.904 13.9939 10.6703 13.489 10.5857C12.9841 10.501 12.4655 10.5693 11.9997 10.7817L11.2497 10.0317C12.1335 8.85079 12.5371 7.37893 12.3793 5.91239C12.2215 4.44586 11.514 3.09355 10.3992 2.1277C9.2844 1.16184 7.84511 0.654162 6.37105 0.706851C4.897 0.759541 3.49762 1.36869 2.45464 2.41167C1.41166 3.45465 0.80251 4.85403 0.74982 6.32808C0.69713 7.80214 1.20481 9.24144 2.17067 10.3562C3.13652 11.471 4.48883 12.1785 5.95536 12.3363C7.4219 12.4941 8.89376 12.0905 10.0747 11.2067L10.8163 11.9484C10.5789 12.4147 10.4938 12.9438 10.5731 13.4611C10.6523 13.9784 10.8919 14.4578 11.258 14.8317L13.0247 16.5984C13.4934 17.0665 14.1288 17.3295 14.7913 17.3295C15.4538 17.3295 16.0892 17.0665 16.558 16.5984C16.7961 16.3655 16.9853 16.0875 17.1145 15.7805C17.2437 15.4736 17.3102 15.1439 17.3102 14.8109C17.3102 14.4778 17.2437 14.1482 17.1145 13.8412C16.9853 13.5342 16.7961 13.2562 16.558 13.0234ZM9.49133 9.49003C8.9082 10.0717 8.16575 10.4675 7.35778 10.6274C6.54982 10.7873 5.71258 10.7042 4.95183 10.3885C4.19109 10.0728 3.54097 9.53879 3.08359 8.85381C2.62622 8.16884 2.38211 7.36367 2.38211 6.54003C2.38211 5.71639 2.62622 4.91123 3.08359 4.22625C3.54097 3.54127 4.19109 3.00722 4.95183 2.69154C5.71258 2.37587 6.54982 2.29274 7.35778 2.45266C8.16575 2.61258 8.9082 3.00837 9.49133 3.59003C9.87936 3.97708 10.1872 4.43687 10.3973 4.94308C10.6073 5.44929 10.7154 5.99197 10.7154 6.54003C10.7154 7.08809 10.6073 7.63077 10.3973 8.13698C10.1872 8.64319 9.87936 9.10298 9.49133 9.49003ZM15.383 15.3817C15.3055 15.4598 15.2134 15.5218 15.1118 15.5641C15.0103 15.6064 14.9013 15.6282 14.7913 15.6282C14.6813 15.6282 14.5724 15.6064 14.4709 15.5641C14.3693 15.5218 14.2771 15.4598 14.1997 15.3817L12.433 13.615C12.3549 13.5376 12.2929 13.4454 12.2506 13.3438C12.2083 13.2423 12.1865 13.1334 12.1865 13.0234C12.1865 12.9134 12.2083 12.8044 12.2506 12.7029C12.2929 12.6013 12.3549 12.5092 12.433 12.4317C12.5105 12.3536 12.6026 12.2916 12.7042 12.2493C12.8057 12.207 12.9147 12.1852 13.0247 12.1852C13.1347 12.1852 13.2436 12.207 13.3451 12.2493C13.4467 12.2916 13.5389 12.3536 13.6163 12.4317L15.383 14.1984C15.4611 14.2758 15.5231 14.368 15.5654 14.4696C15.6077 14.5711 15.6295 14.68 15.6295 14.79C15.6295 14.9 15.6077 15.009 15.5654 15.1105C15.5231 15.2121 15.4611 15.3042 15.383 15.3817Z" fill="currentColor"/>
</svg>
