<svg width="25" height="24" viewBox="0 0 25 24" fill="none" xmlns="http://www.w3.org/2000/svg">
<path d="M20 7.3125H16.8125V6.9375C16.8125 4.55625 14.8813 2.625 12.5 2.625C10.1188 2.625 8.1875 4.55625 8.1875 6.9375V7.3125H5C4.58516 7.3125 4.25 7.64766 4.25 8.0625V20.625C4.25 21.0398 4.58516 21.375 5 21.375H20C20.4148 21.375 20.75 21.0398 20.75 20.625V8.0625C20.75 7.64766 20.4148 7.3125 20 7.3125ZM15.125 7.3125H9.875V6.9375C9.875 5.48672 11.0492 4.3125 12.5 4.3125C13.9508 4.3125 15.125 5.48672 15.125 6.9375V7.3125Z" fill="#237037"/>
</svg>
