<svg width="21" height="21" viewBox="0 0 21 21" fill="none" xmlns="http://www.w3.org/2000/svg">
<path d="M17.3655 3.97142C16.4511 3.05678 15.2388 2.50069 13.9491 2.40427C12.6594 2.30786 11.3779 2.67753 10.3377 3.44606C9.24187 2.631 7.87794 2.26142 6.52054 2.41173C5.16315 2.56204 3.91313 3.22108 3.02219 4.25614C2.13126 5.29119 1.66559 6.62538 1.71897 7.99002C1.77235 9.35467 2.34081 10.6484 3.30987 11.6107L9.72619 18.027C9.80625 18.1077 9.90151 18.1718 10.0065 18.2155C10.1114 18.2593 10.224 18.2818 10.3377 18.2818C10.4514 18.2818 10.5639 18.2593 10.6689 18.2155C10.7738 18.1718 10.8691 18.1077 10.9492 18.027L17.3655 11.6107C17.8673 11.1092 18.2654 10.5138 18.537 9.85838C18.8086 9.20299 18.9483 8.5005 18.9483 7.79106C18.9483 7.08162 18.8086 6.37914 18.537 5.72375C18.2654 5.06836 17.8673 4.4729 17.3655 3.97142ZM16.1511 10.3963L10.3377 16.2012L4.52424 10.3963C4.01194 9.88192 3.66296 9.22767 3.52108 8.51567C3.37919 7.80367 3.45071 7.06562 3.72668 6.39411C4.00264 5.7226 4.47075 5.14754 5.07229 4.74105C5.67383 4.33457 6.38201 4.11477 7.10799 4.10922C8.07785 4.1116 9.00713 4.49879 9.69174 5.18578C9.7718 5.26651 9.86705 5.33058 9.97201 5.3743C10.077 5.41803 10.1895 5.44054 10.3032 5.44054C10.4169 5.44054 10.5295 5.41803 10.6344 5.3743C10.7394 5.33058 10.8346 5.26651 10.9147 5.18578C11.6195 4.57505 12.53 4.25489 13.4619 4.2901C14.3938 4.32531 15.2775 4.71326 15.9342 5.37542C16.5909 6.03758 16.9715 6.92451 16.999 7.85668C17.0265 8.78886 16.6988 9.69666 16.0822 10.3963H16.1511Z" fill="#F3D9D9"/>
<path d="M7.60844 4.59738C8.73265 4.69106 9.06523 5.83803 10.1922 5.88925C10.3182 5.89498 10.3891 5.89219 10.5152 5.88925C12.1101 5.85216 12.8584 4.15342 14.3908 4.59738C15.5077 4.92097 16.103 5.50988 16.6516 6.53519C17.3656 7.86971 16.8906 8.3601 16.3285 9.76537C15.0367 12.9951 10.5152 16.2247 10.5152 16.2247C10.5152 16.2247 6.63947 13.641 5.02463 10.4108C4.23504 8.83141 3.26406 7.25873 4.37875 5.88925C5.23629 4.83571 6.2547 4.48457 7.60844 4.59738Z" fill="#F3D9D9" stroke="#F3D9D9" stroke-width="3.625"/>
</svg>
