<svg width="18" height="19" viewBox="0 0 18 19" fill="none" xmlns="http://www.w3.org/2000/svg">
<path d="M10.0402 9.50223L15.3136 3.21629C15.402 3.11183 15.3277 2.95312 15.1911 2.95312H13.588C13.4935 2.95312 13.4031 2.99531 13.3409 3.06763L8.99153 8.25268L4.6422 3.06763C4.58193 2.99531 4.49153 2.95312 4.3951 2.95312H2.79198C2.65537 2.95312 2.58104 3.11183 2.66943 3.21629L7.94287 9.50223L2.66943 15.7882C2.64963 15.8115 2.63693 15.8399 2.63283 15.8702C2.62874 15.9005 2.63342 15.9313 2.64632 15.9591C2.65922 15.9868 2.6798 16.0102 2.70562 16.0265C2.73144 16.0429 2.76141 16.0515 2.79198 16.0513H4.3951C4.48952 16.0513 4.57993 16.0092 4.6422 15.9368L8.99153 10.7518L13.3409 15.9368C13.4011 16.0092 13.4915 16.0513 13.588 16.0513H15.1911C15.3277 16.0513 15.402 15.8926 15.3136 15.7882L10.0402 9.50223Z" fill="#C3423F"/>
</svg>
