<svg width="18" height="19" viewBox="0 0 18 19" fill="none" xmlns="http://www.w3.org/2000/svg">
<path d="M10.0403 9.50223L15.3138 3.21629C15.4021 3.11183 15.3278 2.95312 15.1912 2.95312H13.5881C13.4937 2.95312 13.4033 2.99531 13.341 3.06763L8.99166 8.25268L4.64232 3.06763C4.58206 2.99531 4.49165 2.95312 4.39523 2.95312H2.7921C2.65549 2.95312 2.58116 3.11183 2.66956 3.21629L7.94299 9.50223L2.66956 15.7882C2.64976 15.8115 2.63705 15.8399 2.63295 15.8702C2.62886 15.9005 2.63354 15.9313 2.64644 15.9591C2.65934 15.9868 2.67993 16.0102 2.70575 16.0265C2.73156 16.0429 2.76154 16.0515 2.7921 16.0513H4.39523C4.48965 16.0513 4.58005 16.0092 4.64232 15.9368L8.99166 10.7518L13.341 15.9368C13.4013 16.0092 13.4917 16.0513 13.5881 16.0513H15.1912C15.3278 16.0513 15.4021 15.8926 15.3138 15.7882L10.0403 9.50223Z" fill="#34A853"/>
</svg>
