<svg width="24" height="24" viewBox="0 0 24 24" fill="none" xmlns="http://www.w3.org/2000/svg">
<rect width="24" height="24" fill="white" fill-opacity="0.01"/>
<path d="M11.3879 5.47754C11.8563 5.00829 12.4128 4.63617 13.0255 4.38254C13.6381 4.1289 14.2948 3.99875 14.9579 3.99954C15.9299 3.99954 16.9029 4.27954 17.7459 4.83854C17.7659 4.81254 17.7889 4.78854 17.8119 4.76454C17.9082 4.66597 18.0236 4.58815 18.1511 4.53587C18.2786 4.48359 18.4155 4.45795 18.5532 4.46053C18.691 4.46311 18.8268 4.49386 18.9522 4.55088C19.0777 4.6079 19.1901 4.68999 19.2827 4.7921C19.3752 4.89421 19.4459 5.01417 19.4903 5.14461C19.5348 5.27505 19.5521 5.4132 19.5411 5.55056C19.5302 5.68793 19.4912 5.8216 19.4267 5.94336C19.3622 6.06511 19.2734 6.17237 19.1659 6.25854C19.8085 7.2293 20.0958 8.39233 19.9791 9.55065C19.8625 10.709 19.3491 11.7914 18.5259 12.6145L17.8009 13.3395C17.0189 14.1225 15.9879 15.5495 15.4889 16.5465L13.9799 19.5625C13.7309 20.0625 13.2069 20.1465 12.8089 19.7495L4.25286 11.1945C3.85586 10.7975 3.94486 10.2705 4.43986 10.0225L7.45686 8.51454C8.44586 8.02054 9.87686 6.98854 10.6629 6.20254L11.3879 5.47754Z" fill="#34A853"/>
<path fill-rule="evenodd" clip-rule="evenodd" d="M7.92786 3.61754L8.32886 4.58554C8.37909 4.70688 8.40493 4.83693 8.4049 4.96826C8.40487 5.09958 8.37898 5.22962 8.32869 5.35094C8.27841 5.47226 8.20472 5.58249 8.11184 5.67533C8.01896 5.76817 7.9087 5.84181 7.78736 5.89204C7.66602 5.94227 7.53597 5.96811 7.40464 5.96808C7.27331 5.96805 7.14328 5.94216 7.02196 5.89188C6.77694 5.79032 6.5823 5.5956 6.48086 5.35054L6.08086 4.38254C6.03063 4.2612 6.00479 4.13115 6.00482 3.99983C6.00484 3.8685 6.03074 3.73846 6.08102 3.61714C6.13131 3.49582 6.20499 3.3856 6.29787 3.29275C6.39076 3.19991 6.50102 3.12627 6.62236 3.07604C6.7437 3.02581 6.87375 2.99997 7.00507 3C7.1364 3.00003 7.26644 3.02592 7.38776 3.07621C7.50908 3.12649 7.6193 3.20018 7.71215 3.29306C7.80499 3.38594 7.87863 3.4962 7.92886 3.61754H7.92786ZM4.38686 6.07554L5.35486 6.47654C5.58978 6.58488 5.77363 6.77996 5.86787 7.02088C5.96211 7.2618 5.95942 7.52985 5.86036 7.76883C5.7613 8.00781 5.57357 8.19916 5.33653 8.30276C5.09948 8.40636 4.83153 8.41417 4.58886 8.32454L3.62086 7.92454C3.38594 7.8162 3.20209 7.62112 3.10785 7.3802C3.01361 7.13928 3.0163 6.87123 3.11535 6.63225C3.21441 6.39327 3.40214 6.20192 3.63919 6.09832C3.87623 5.99472 4.14418 5.98592 4.38686 6.07554ZM16.2219 18.0755C15.9771 18.1775 15.7827 18.3723 15.6811 18.6172C15.5796 18.8621 15.5791 19.1373 15.6799 19.3825L16.0819 20.3505C16.1322 20.4719 16.2059 20.5821 16.2988 20.675C16.3917 20.7678 16.5019 20.8415 16.6233 20.8917C16.7447 20.942 16.8748 20.9678 17.0061 20.9678C17.1375 20.9677 17.2675 20.9418 17.3889 20.8915C17.5102 20.8412 17.6204 20.7675 17.7133 20.6746C17.8062 20.5817 17.8798 20.4715 17.93 20.3501C17.9803 20.2287 18.0061 20.0986 18.0061 19.9673C18.0061 19.8359 17.9802 19.7059 17.9299 19.5845L17.5289 18.6175C17.4787 18.4961 17.4051 18.3857 17.3122 18.2927C17.2193 18.1998 17.1091 18.126 16.9877 18.0757C16.8663 18.0253 16.7362 17.9994 16.6048 17.9994C16.4734 17.9994 16.3433 18.0252 16.2219 18.0755ZM18.0809 16.2185C17.9795 16.4634 17.9794 16.7384 18.0806 16.9833C18.1819 17.2281 18.3762 17.4228 18.6209 17.5245L19.5899 17.9255C19.8325 18.0152 20.1005 18.0074 20.3375 17.9038C20.5746 17.8002 20.7623 17.6088 20.8614 17.3698C20.9604 17.1308 20.9631 16.8628 20.8689 16.6219C20.7746 16.381 20.5908 16.1859 20.3559 16.0775L19.3859 15.6765C19.1408 15.5753 18.8655 15.5755 18.6206 15.6771C18.3757 15.7788 18.1822 15.9735 18.0809 16.2185ZM6.48886 17.6685C6.67459 17.8543 6.8951 18.0017 7.1378 18.1023C7.38051 18.2029 7.64065 18.2546 7.90336 18.2546C8.16607 18.2546 8.42621 18.2029 8.66891 18.1023C8.91162 18.0017 9.13213 17.8543 9.31786 17.6685L6.48886 14.8385C6.3029 15.0243 6.15539 15.2449 6.05474 15.4877C5.95409 15.7305 5.90228 15.9907 5.90228 16.2535C5.90228 16.5164 5.95409 16.7766 6.05474 17.0194C6.15539 17.2622 6.3029 17.4828 6.48886 17.6685Z" fill="#34A853"/>
</svg>
