<svg viewBox="0 0 334 440" fill="none" xmlns="http://www.w3.org/2000/svg">
<path d="M95.3997 364.377L94.6196 366.218L95.3997 364.377ZM1.0687 423.604C0.297202 424.395 0.312593 425.661 1.10309 426.432L13.9848 439.005C14.7753 439.776 16.0416 439.761 16.813 438.97C17.5845 438.18 17.5691 436.913 16.7786 436.142L5.32822 424.967L16.5035 413.516C17.275 412.726 17.2596 411.459 16.4691 410.688C15.6786 409.916 14.4124 409.932 13.6409 410.722L1.0687 423.604ZM130.755 304.001C128.755 303.96 128.755 303.96 128.755 303.96C128.755 303.96 128.755 303.961 128.755 303.961C128.755 303.963 128.755 303.966 128.755 303.97C128.755 303.978 128.754 303.99 128.754 304.007C128.753 304.04 128.752 304.091 128.75 304.159C128.746 304.295 128.74 304.498 128.73 304.764C128.711 305.297 128.678 306.081 128.625 307.075C128.517 309.065 128.327 311.896 127.993 315.25C127.325 321.972 126.088 330.739 123.822 339.03C121.539 347.385 118.285 354.968 113.755 359.581C111.523 361.855 109.03 363.357 106.221 363.933C103.414 364.509 100.107 364.199 96.1797 362.535L94.6196 366.218C99.1414 368.134 103.277 368.621 107.024 367.852C110.769 367.084 113.943 365.099 116.609 362.384C121.877 357.019 125.35 348.613 127.681 340.085C130.029 331.493 131.294 322.482 131.973 315.646C132.314 312.222 132.509 309.33 132.619 307.29C132.674 306.271 132.708 305.463 132.728 304.909C132.738 304.632 132.744 304.418 132.748 304.272C132.75 304.199 132.752 304.143 132.753 304.104C132.753 304.085 132.754 304.071 132.754 304.06C132.754 304.055 132.754 304.051 132.754 304.048C132.754 304.047 132.754 304.046 132.754 304.045C132.754 304.044 132.754 304.043 130.755 304.001ZM96.1797 362.535C86.9862 358.641 78.6036 358.5 71.2274 363.709C64.0477 368.78 58.2081 378.675 53.2482 393.806L57.0492 395.052C61.9406 380.13 67.4435 371.279 73.535 366.977C79.4299 362.813 86.2472 362.672 94.6196 366.218L96.1797 362.535ZM53.2482 393.806C48.6157 407.937 36.1969 415.276 24.5106 419.083C18.6993 420.976 13.1732 421.958 9.09408 422.465C7.05746 422.719 5.3891 422.853 4.2358 422.924C3.65933 422.959 3.2121 422.978 2.91249 422.989C2.7627 422.994 2.64987 422.997 2.57628 422.999C2.5395 423 2.51252 423.001 2.49566 423.001C2.48723 423.001 2.48132 423.001 2.47798 423.001C2.47631 423.001 2.47527 423.001 2.47489 423.001C2.4747 423.001 2.4749 423.001 2.47481 423.001C2.47516 423.001 2.47568 423.001 2.5 425.001C2.52432 427.001 2.52517 427.001 2.52617 427.001C2.52673 427.001 2.5279 427.001 2.52901 427.001C2.53123 427.001 2.5341 427.001 2.53762 427.001C2.54465 427.001 2.55427 427 2.56645 427C2.5908 427 2.62537 426.999 2.66986 426.998C2.75883 426.996 2.88751 426.992 3.05359 426.987C3.3857 426.975 3.86756 426.954 4.48057 426.916C5.70623 426.841 7.45839 426.7 9.58794 426.435C13.8411 425.906 19.6302 424.879 25.7496 422.886C37.9248 418.92 51.8303 410.972 57.0492 395.052L53.2482 393.806Z" fill="#34A853"/>
<g clip-path="url(#clip0_1_2)">
<g clip-path="url(#clip1_1_2)">
<path d="M177.5 0L212.636 108.139H326.34L234.352 174.972L269.488 283.111L177.5 216.278L85.5116 283.111L120.648 174.972L28.6597 108.139H142.364L177.5 0Z" fill="#FDE74C"/>
</g>
<circle cx="177.5" cy="156.5" r="124.5" fill="#11381C"/>
<path d="M97.2723 143.366H90.4863V149H87.8043V135.32H90.4863V140.936H97.2723V135.32H99.9543V149H97.2723V143.366ZM106.636 149.18C105.58 149.18 104.65 148.958 103.846 148.514C103.054 148.058 102.442 147.434 102.01 146.642C101.578 145.85 101.362 144.95 101.362 143.942C101.362 142.934 101.578 142.034 102.01 141.242C102.442 140.45 103.054 139.832 103.846 139.388C104.638 138.932 105.556 138.704 106.6 138.704C107.62 138.704 108.526 138.944 109.318 139.424C110.11 139.892 110.716 140.588 111.136 141.512C111.568 142.424 111.754 143.522 111.694 144.806H104.08C104.212 145.502 104.5 146.042 104.944 146.426C105.4 146.81 105.964 147.002 106.636 147.002C107.644 147.002 108.376 146.606 108.832 145.814H111.64C111.292 146.846 110.686 147.668 109.822 148.28C108.958 148.88 107.896 149.18 106.636 149.18ZM109.102 143.078C108.982 142.382 108.7 141.842 108.256 141.458C107.824 141.074 107.272 140.882 106.6 140.882C105.94 140.882 105.388 141.074 104.944 141.458C104.5 141.842 104.212 142.382 104.08 143.078H109.102ZM112.953 138.884H115.473V140.99H115.671C116.235 139.586 117.303 138.884 118.875 138.884H119.487V141.206H117.849C117.105 141.206 116.523 141.458 116.103 141.962C115.683 142.454 115.473 143.144 115.473 144.032V149H112.953V138.884ZM124.899 149.18C123.843 149.18 122.913 148.958 122.109 148.514C121.317 148.058 120.705 147.434 120.273 146.642C119.841 145.85 119.625 144.95 119.625 143.942C119.625 142.934 119.841 142.034 120.273 141.242C120.705 140.45 121.317 139.832 122.109 139.388C122.901 138.932 123.819 138.704 124.863 138.704C125.883 138.704 126.789 138.944 127.581 139.424C128.373 139.892 128.979 140.588 129.399 141.512C129.831 142.424 130.017 143.522 129.957 144.806H122.343C122.475 145.502 122.763 146.042 123.207 146.426C123.663 146.81 124.227 147.002 124.899 147.002C125.907 147.002 126.639 146.606 127.095 145.814H129.903C129.555 146.846 128.949 147.668 128.085 148.28C127.221 148.88 126.159 149.18 124.899 149.18ZM127.365 143.078C127.245 142.382 126.963 141.842 126.519 141.458C126.087 141.074 125.535 140.882 124.863 140.882C124.203 140.882 123.651 141.074 123.207 141.458C122.763 141.842 122.475 142.382 122.343 143.078H127.365ZM130.77 139.91L131.778 137.3C131.442 137.252 131.16 137.102 130.932 136.85C130.716 136.586 130.608 136.286 130.608 135.95C130.608 135.566 130.74 135.242 131.004 134.978C131.268 134.714 131.592 134.582 131.976 134.582C132.36 134.582 132.684 134.714 132.948 134.978C133.212 135.242 133.344 135.566 133.344 135.95C133.344 136.166 133.302 136.364 133.218 136.544L131.778 140.288L130.77 139.91ZM137.824 149.18C136.96 149.18 136.18 149.036 135.484 148.748C134.788 148.448 134.224 148.034 133.792 147.506C133.372 146.978 133.12 146.378 133.036 145.706H135.52C135.64 146.102 135.904 146.42 136.312 146.66C136.732 146.888 137.236 147.002 137.824 147.002C138.4 147.002 138.832 146.918 139.12 146.75C139.42 146.582 139.57 146.354 139.57 146.066C139.57 145.766 139.402 145.544 139.066 145.4C138.742 145.256 138.214 145.106 137.482 144.95C136.654 144.77 135.976 144.584 135.448 144.392C134.92 144.188 134.458 143.87 134.062 143.438C133.678 142.994 133.486 142.4 133.486 141.656C133.486 141.08 133.648 140.57 133.972 140.126C134.308 139.682 134.77 139.334 135.358 139.082C135.946 138.83 136.618 138.704 137.374 138.704C138.154 138.704 138.862 138.848 139.498 139.136C140.146 139.424 140.668 139.826 141.064 140.342C141.46 140.846 141.694 141.422 141.766 142.07H139.282C139.174 141.698 138.952 141.41 138.616 141.206C138.28 140.99 137.866 140.882 137.374 140.882C136.918 140.882 136.57 140.954 136.33 141.098C136.09 141.23 135.97 141.416 135.97 141.656C135.97 141.92 136.126 142.124 136.438 142.268C136.762 142.4 137.272 142.538 137.968 142.682C138.808 142.874 139.498 143.078 140.038 143.294C140.578 143.498 141.046 143.822 141.442 144.266C141.85 144.71 142.054 145.31 142.054 146.066C142.054 146.654 141.874 147.188 141.514 147.668C141.154 148.136 140.65 148.508 140.002 148.784C139.366 149.048 138.64 149.18 137.824 149.18ZM147.635 135.32H150.155V140.99H150.353C150.665 140.222 151.109 139.652 151.685 139.28C152.261 138.896 152.903 138.704 153.611 138.704C154.343 138.704 154.997 138.89 155.573 139.262C156.161 139.622 156.617 140.15 156.941 140.846C157.277 141.53 157.445 142.346 157.445 143.294V149H154.943V143.636C154.943 142.748 154.733 142.07 154.313 141.602C153.905 141.134 153.329 140.9 152.585 140.9C151.817 140.9 151.217 141.152 150.785 141.656C150.365 142.16 150.155 142.856 150.155 143.744V149H147.635V135.32ZM163.96 149.18C162.904 149.18 161.968 148.958 161.152 148.514C160.348 148.058 159.718 147.434 159.262 146.642C158.818 145.838 158.596 144.938 158.596 143.942C158.596 142.934 158.818 142.034 159.262 141.242C159.718 140.45 160.348 139.832 161.152 139.388C161.968 138.932 162.904 138.704 163.96 138.704C165.004 138.704 165.928 138.932 166.732 139.388C167.548 139.832 168.178 140.45 168.622 141.242C169.078 142.034 169.306 142.934 169.306 143.942C169.306 144.938 169.078 145.838 168.622 146.642C168.178 147.434 167.548 148.058 166.732 148.514C165.928 148.958 165.004 149.18 163.96 149.18ZM161.26 143.942C161.26 144.89 161.506 145.64 161.998 146.192C162.502 146.732 163.156 147.002 163.96 147.002C164.752 147.002 165.394 146.732 165.886 146.192C166.39 145.64 166.642 144.89 166.642 143.942C166.642 142.994 166.39 142.25 165.886 141.71C165.394 141.158 164.752 140.882 163.96 140.882C163.156 140.882 162.502 141.158 161.998 141.71C161.506 142.25 161.26 142.994 161.26 143.942ZM169.294 138.884H171.922L173.506 146.3H173.686L175.63 138.884H178.672L180.562 146.156H180.742L182.362 138.884H184.954L182.11 149H179.14L177.232 141.728H177.052L175.108 149H172.138L169.294 138.884ZM189.632 138.884H192.26L193.844 146.3H194.024L195.968 138.884H199.01L200.9 146.156H201.08L202.7 138.884H205.292L202.448 149H199.478L197.57 141.728H197.39L195.446 149H192.476L189.632 138.884ZM210.54 149.18C209.484 149.18 208.554 148.958 207.75 148.514C206.958 148.058 206.346 147.434 205.914 146.642C205.482 145.85 205.266 144.95 205.266 143.942C205.266 142.934 205.482 142.034 205.914 141.242C206.346 140.45 206.958 139.832 207.75 139.388C208.542 138.932 209.46 138.704 210.504 138.704C211.524 138.704 212.43 138.944 213.222 139.424C214.014 139.892 214.62 140.588 215.04 141.512C215.472 142.424 215.658 143.522 215.598 144.806H207.984C208.116 145.502 208.404 146.042 208.848 146.426C209.304 146.81 209.868 147.002 210.54 147.002C211.548 147.002 212.28 146.606 212.736 145.814H215.544C215.196 146.846 214.59 147.668 213.726 148.28C212.862 148.88 211.8 149.18 210.54 149.18ZM213.006 143.078C212.886 142.382 212.604 141.842 212.16 141.458C211.728 141.074 211.176 140.882 210.504 140.882C209.844 140.882 209.292 141.074 208.848 141.458C208.404 141.842 208.116 142.382 207.984 143.078H213.006ZM221.182 138.884H223.702V140.99H223.882C224.362 139.466 225.364 138.704 226.888 138.704C227.392 138.704 227.854 138.812 228.274 139.028C228.694 139.232 229.042 139.514 229.318 139.874C229.594 140.222 229.774 140.594 229.858 140.99H230.038C230.518 139.466 231.526 138.704 233.062 138.704C234.202 138.704 235.09 139.106 235.726 139.91C236.362 140.702 236.68 141.824 236.68 143.276V149H234.16V143.294C234.16 142.538 233.986 141.95 233.638 141.53C233.302 141.11 232.828 140.9 232.216 140.9C231.58 140.9 231.082 141.128 230.722 141.584C230.362 142.028 230.182 142.604 230.182 143.312V149H227.68V143.312C227.68 142.544 227.512 141.95 227.176 141.53C226.852 141.11 226.372 140.9 225.736 140.9C225.1 140.9 224.602 141.128 224.242 141.584C223.882 142.04 223.702 142.634 223.702 143.366V149H221.182V138.884ZM241.209 149.18C240.177 149.18 239.367 148.916 238.779 148.388C238.191 147.848 237.897 147.092 237.897 146.12C237.897 145.148 238.245 144.404 238.941 143.888C239.649 143.36 240.639 143.096 241.911 143.096C242.967 143.096 243.687 143.012 244.071 142.844C244.467 142.664 244.665 142.4 244.665 142.052C244.665 141.68 244.503 141.392 244.179 141.188C243.855 140.984 243.411 140.882 242.847 140.882C242.295 140.882 241.851 140.99 241.515 141.206C241.179 141.41 240.963 141.704 240.867 142.088H238.383C238.503 141.044 238.953 140.222 239.733 139.622C240.513 139.01 241.551 138.704 242.847 138.704C244.275 138.704 245.349 139.064 246.069 139.784C246.789 140.492 247.149 141.518 247.149 142.862V146.696H248.085V149H247.437C246.633 149 246.027 148.844 245.619 148.532C245.223 148.208 244.977 147.668 244.881 146.912H244.701C244.065 148.424 242.901 149.18 241.209 149.18ZM240.273 146.048C240.273 146.432 240.399 146.726 240.651 146.93C240.915 147.122 241.287 147.218 241.767 147.218C242.403 147.218 242.967 147.032 243.459 146.66C243.963 146.276 244.335 145.646 244.575 144.77L244.665 144.356C244.029 144.704 243.129 144.878 241.965 144.878C241.425 144.878 241.005 144.98 240.705 145.184C240.417 145.376 240.273 145.664 240.273 146.048ZM249.307 135.32H251.827V142.34H252.007L255.301 138.884H258.757L254.833 142.826L258.829 149H255.841L253.069 144.59L251.827 145.85V149H249.307V135.32ZM263.696 149.18C262.64 149.18 261.71 148.958 260.906 148.514C260.114 148.058 259.502 147.434 259.07 146.642C258.638 145.85 258.422 144.95 258.422 143.942C258.422 142.934 258.638 142.034 259.07 141.242C259.502 140.45 260.114 139.832 260.906 139.388C261.698 138.932 262.616 138.704 263.66 138.704C264.68 138.704 265.586 138.944 266.378 139.424C267.17 139.892 267.776 140.588 268.196 141.512C268.628 142.424 268.814 143.522 268.754 144.806H261.14C261.272 145.502 261.56 146.042 262.004 146.426C262.46 146.81 263.024 147.002 263.696 147.002C264.704 147.002 265.436 146.606 265.892 145.814H268.7C268.352 146.846 267.746 147.668 266.882 148.28C266.018 148.88 264.956 149.18 263.696 149.18ZM266.162 143.078C266.042 142.382 265.76 141.842 265.316 141.458C264.884 141.074 264.332 140.882 263.66 140.882C263 140.882 262.448 141.074 262.004 141.458C261.56 141.842 261.272 142.382 261.14 143.078H266.162ZM115.69 168.884H118.192V179H115.69V168.884ZM116.932 167.66C116.548 167.66 116.218 167.522 115.942 167.246C115.666 166.97 115.528 166.64 115.528 166.256C115.528 165.86 115.666 165.524 115.942 165.248C116.218 164.972 116.548 164.834 116.932 164.834C117.328 164.834 117.664 164.972 117.94 165.248C118.216 165.524 118.354 165.86 118.354 166.256C118.354 166.64 118.216 166.97 117.94 167.246C117.664 167.522 117.328 167.66 116.932 167.66ZM124.009 179C123.025 179 122.323 178.796 121.903 178.388C121.495 177.968 121.291 177.266 121.291 176.282V171.008H119.365V168.884H120.103C120.571 168.884 120.883 168.806 121.039 168.65C121.207 168.482 121.291 168.164 121.291 167.696V166.22H123.775V168.884H126.205V171.008H123.775V176.678H126.205V179H124.009ZM136.633 179.18C135.577 179.18 134.647 178.958 133.843 178.514C133.051 178.058 132.439 177.434 132.007 176.642C131.575 175.85 131.359 174.95 131.359 173.942C131.359 172.934 131.575 172.034 132.007 171.242C132.439 170.45 133.051 169.832 133.843 169.388C134.635 168.932 135.553 168.704 136.597 168.704C137.617 168.704 138.523 168.944 139.315 169.424C140.107 169.892 140.713 170.588 141.133 171.512C141.565 172.424 141.751 173.522 141.691 174.806H134.077C134.209 175.502 134.497 176.042 134.941 176.426C135.397 176.81 135.961 177.002 136.633 177.002C137.641 177.002 138.373 176.606 138.829 175.814H141.637C141.289 176.846 140.683 177.668 139.819 178.28C138.955 178.88 137.893 179.18 136.633 179.18ZM139.099 173.078C138.979 172.382 138.697 171.842 138.253 171.458C137.821 171.074 137.269 170.882 136.597 170.882C135.937 170.882 135.385 171.074 134.941 171.458C134.497 171.842 134.209 172.382 134.077 173.078H139.099ZM145.874 179.18C144.842 179.18 144.032 178.916 143.444 178.388C142.856 177.848 142.562 177.092 142.562 176.12C142.562 175.148 142.91 174.404 143.606 173.888C144.314 173.36 145.304 173.096 146.576 173.096C147.632 173.096 148.352 173.012 148.736 172.844C149.132 172.664 149.33 172.4 149.33 172.052C149.33 171.68 149.168 171.392 148.844 171.188C148.52 170.984 148.076 170.882 147.512 170.882C146.96 170.882 146.516 170.99 146.18 171.206C145.844 171.41 145.628 171.704 145.532 172.088H143.048C143.168 171.044 143.618 170.222 144.398 169.622C145.178 169.01 146.216 168.704 147.512 168.704C148.94 168.704 150.014 169.064 150.734 169.784C151.454 170.492 151.814 171.518 151.814 172.862V176.696H152.75V179H152.102C151.298 179 150.692 178.844 150.284 178.532C149.888 178.208 149.642 177.668 149.546 176.912H149.366C148.73 178.424 147.566 179.18 145.874 179.18ZM144.938 176.048C144.938 176.432 145.064 176.726 145.316 176.93C145.58 177.122 145.952 177.218 146.432 177.218C147.068 177.218 147.632 177.032 148.124 176.66C148.628 176.276 149 175.646 149.24 174.77L149.33 174.356C148.694 174.704 147.794 174.878 146.63 174.878C146.09 174.878 145.67 174.98 145.37 175.184C145.082 175.376 144.938 175.664 144.938 176.048ZM158.188 179.18C157.324 179.18 156.544 179.036 155.848 178.748C155.152 178.448 154.588 178.034 154.156 177.506C153.736 176.978 153.484 176.378 153.4 175.706H155.884C156.004 176.102 156.268 176.42 156.676 176.66C157.096 176.888 157.6 177.002 158.188 177.002C158.764 177.002 159.196 176.918 159.484 176.75C159.784 176.582 159.934 176.354 159.934 176.066C159.934 175.766 159.766 175.544 159.43 175.4C159.106 175.256 158.578 175.106 157.846 174.95C157.018 174.77 156.34 174.584 155.812 174.392C155.284 174.188 154.822 173.87 154.426 173.438C154.042 172.994 153.85 172.4 153.85 171.656C153.85 171.08 154.012 170.57 154.336 170.126C154.672 169.682 155.134 169.334 155.722 169.082C156.31 168.83 156.982 168.704 157.738 168.704C158.518 168.704 159.226 168.848 159.862 169.136C160.51 169.424 161.032 169.826 161.428 170.342C161.824 170.846 162.058 171.422 162.13 172.07H159.646C159.538 171.698 159.316 171.41 158.98 171.206C158.644 170.99 158.23 170.882 157.738 170.882C157.282 170.882 156.934 170.954 156.694 171.098C156.454 171.23 156.334 171.416 156.334 171.656C156.334 171.92 156.49 172.124 156.802 172.268C157.126 172.4 157.636 172.538 158.332 172.682C159.172 172.874 159.862 173.078 160.402 173.294C160.942 173.498 161.41 173.822 161.806 174.266C162.214 174.71 162.418 175.31 162.418 176.066C162.418 176.654 162.238 177.188 161.878 177.668C161.518 178.136 161.014 178.508 160.366 178.784C159.73 179.048 159.004 179.18 158.188 179.18ZM162.792 180.746H166.41L166.788 179.504L162.378 168.884H165.15L167.922 176.426H168.102L170.496 168.884H173.25L168.804 180.89C168.504 181.706 168.138 182.27 167.706 182.582C167.274 182.906 166.62 183.068 165.744 183.068H162.792V180.746ZM179.77 167.876C179.77 166.88 179.974 166.178 180.382 165.77C180.802 165.35 181.504 165.14 182.488 165.14H184.684V167.462H182.29V169.028H184.684V171.152H182.29V179H179.77V171.152H178.222V169.028H179.77V167.876ZM190.248 179.18C189.192 179.18 188.256 178.958 187.44 178.514C186.636 178.058 186.006 177.434 185.55 176.642C185.106 175.838 184.884 174.938 184.884 173.942C184.884 172.934 185.106 172.034 185.55 171.242C186.006 170.45 186.636 169.832 187.44 169.388C188.256 168.932 189.192 168.704 190.248 168.704C191.292 168.704 192.216 168.932 193.02 169.388C193.836 169.832 194.466 170.45 194.91 171.242C195.366 172.034 195.594 172.934 195.594 173.942C195.594 174.938 195.366 175.838 194.91 176.642C194.466 177.434 193.836 178.058 193.02 178.514C192.216 178.958 191.292 179.18 190.248 179.18ZM187.548 173.942C187.548 174.89 187.794 175.64 188.286 176.192C188.79 176.732 189.444 177.002 190.248 177.002C191.04 177.002 191.682 176.732 192.174 176.192C192.678 175.64 192.93 174.89 192.93 173.942C192.93 172.994 192.678 172.25 192.174 171.71C191.682 171.158 191.04 170.882 190.248 170.882C189.444 170.882 188.79 171.158 188.286 171.71C187.794 172.25 187.548 172.994 187.548 173.942ZM196.862 168.884H199.382V170.99H199.58C200.144 169.586 201.212 168.884 202.784 168.884H203.396V171.206H201.758C201.014 171.206 200.432 171.458 200.012 171.962C199.592 172.454 199.382 173.144 199.382 174.032V179H196.862V168.884ZM208.618 180.746H212.236L212.614 179.504L208.204 168.884H210.976L213.748 176.426H213.928L216.322 168.884H219.076L214.63 180.89C214.33 181.706 213.964 182.27 213.532 182.582C213.1 182.906 212.446 183.068 211.57 183.068H208.618V180.746ZM224.227 179.18C223.171 179.18 222.235 178.958 221.419 178.514C220.615 178.058 219.985 177.434 219.529 176.642C219.085 175.838 218.863 174.938 218.863 173.942C218.863 172.934 219.085 172.034 219.529 171.242C219.985 170.45 220.615 169.832 221.419 169.388C222.235 168.932 223.171 168.704 224.227 168.704C225.271 168.704 226.195 168.932 226.999 169.388C227.815 169.832 228.445 170.45 228.889 171.242C229.345 172.034 229.573 172.934 229.573 173.942C229.573 174.938 229.345 175.838 228.889 176.642C228.445 177.434 227.815 178.058 226.999 178.514C226.195 178.958 225.271 179.18 224.227 179.18ZM221.527 173.942C221.527 174.89 221.773 175.64 222.265 176.192C222.769 176.732 223.423 177.002 224.227 177.002C225.019 177.002 225.661 176.732 226.153 176.192C226.657 175.64 226.909 174.89 226.909 173.942C226.909 172.994 226.657 172.25 226.153 171.71C225.661 171.158 225.019 170.882 224.227 170.882C223.423 170.882 222.769 171.158 222.265 171.71C221.773 172.25 221.527 172.994 221.527 173.942ZM234.479 179.18C233.747 179.18 233.087 179 232.499 178.64C231.923 178.268 231.467 177.734 231.131 177.038C230.807 176.342 230.645 175.526 230.645 174.59V168.884H233.147V174.248C233.147 175.124 233.351 175.802 233.759 176.282C234.179 176.75 234.761 176.984 235.505 176.984C236.273 176.984 236.867 176.732 237.287 176.228C237.719 175.724 237.935 175.028 237.935 174.14V168.884H240.455V179H237.935V176.894H237.737C237.425 177.662 236.981 178.238 236.405 178.622C235.829 178.994 235.187 179.18 234.479 179.18Z" fill="#FCFBF8"/>
</g>
<defs>
<clipPath id="clip0_1_2">
<rect width="313" height="313" fill="white" transform="translate(21)"/>
</clipPath>
<clipPath id="clip1_1_2">
<rect width="313" height="313" fill="white" transform="translate(21)"/>
</clipPath>
</defs>
</svg>
