<svg width="24" height="24" viewBox="0 0 24 24" fill="none" xmlns="http://www.w3.org/2000/svg">
<path d="M21.9995 9.67161C21.9363 9.4887 21.8215 9.32804 21.6688 9.20911C21.5162 9.09019 21.3323 9.01811 21.1395 9.00161L15.4495 8.17161L12.8995 3.00161C12.8176 2.83254 12.6898 2.68995 12.5306 2.59018C12.3714 2.49041 12.1873 2.4375 11.9995 2.4375C11.8116 2.4375 11.6276 2.49041 11.4684 2.59018C11.3092 2.68995 11.1814 2.83254 11.0995 3.00161L8.54949 8.16161L2.85949 9.00161C2.67441 9.02792 2.50041 9.10557 2.35724 9.22577C2.21407 9.34596 2.10745 9.50388 2.04949 9.68161C1.99643 9.85528 1.99167 10.0401 2.03572 10.2163C2.07976 10.3925 2.17095 10.5533 2.29949 10.6816L6.42949 14.6816L5.42949 20.3616C5.39379 20.5491 5.41248 20.7429 5.48336 20.9201C5.55424 21.0973 5.67434 21.2505 5.82949 21.3616C5.98071 21.4697 6.15906 21.5335 6.34454 21.5459C6.53001 21.5583 6.71526 21.5187 6.87949 21.4316L11.9995 18.7616L17.0995 21.4416C17.2398 21.5208 17.3983 21.5621 17.5595 21.5616C17.7713 21.5624 17.9779 21.4958 18.1495 21.3716C18.3046 21.2605 18.4247 21.1073 18.4956 20.9301C18.5665 20.7529 18.5852 20.5591 18.5495 20.3716L17.5495 14.6916L21.6795 10.6916C21.8239 10.5693 21.9306 10.4085 21.9872 10.228C22.0439 10.0474 22.0481 9.85448 21.9995 9.67161ZM15.8495 13.6716C15.7322 13.785 15.6445 13.9255 15.5939 14.0806C15.5434 14.2357 15.5316 14.4009 15.5595 14.5616L16.2795 18.7516L12.5195 16.7516C12.3748 16.6746 12.2134 16.6343 12.0495 16.6343C11.8856 16.6343 11.7242 16.6746 11.5795 16.7516L7.81949 18.7516L8.53949 14.5616C8.56742 14.4009 8.5556 14.2357 8.50505 14.0806C8.45451 13.9255 8.36677 13.785 8.24949 13.6716L5.24949 10.6716L9.45949 10.0616C9.62149 10.0391 9.77549 9.97715 9.90799 9.88126C10.0405 9.78537 10.1474 9.65845 10.2195 9.51161L11.9995 5.70161L13.8795 9.52161C13.9515 9.66845 14.0585 9.79537 14.191 9.89126C14.3235 9.98715 14.4775 10.0491 14.6395 10.0716L18.8495 10.6816L15.8495 13.6716Z" fill="#34A853"/>
</svg>
