<svg viewBox="0 0 334 440" fill="none" xmlns="http://www.w3.org/2000/svg">
<path d="M95.3997 364.377L94.6196 366.218L95.3997 364.377ZM1.0687 423.604C0.297202 424.395 0.312593 425.661 1.10309 426.432L13.9848 439.005C14.7753 439.776 16.0416 439.761 16.813 438.97C17.5845 438.18 17.5691 436.913 16.7786 436.142L5.32822 424.967L16.5035 413.516C17.275 412.726 17.2596 411.459 16.4691 410.688C15.6786 409.916 14.4124 409.932 13.6409 410.722L1.0687 423.604ZM130.755 304.001C128.755 303.96 128.755 303.96 128.755 303.96C128.755 303.96 128.755 303.961 128.755 303.961C128.755 303.963 128.755 303.966 128.755 303.97C128.755 303.978 128.754 303.99 128.754 304.007C128.753 304.04 128.752 304.091 128.75 304.159C128.746 304.295 128.74 304.498 128.73 304.764C128.711 305.297 128.678 306.081 128.625 307.075C128.517 309.065 128.327 311.896 127.993 315.25C127.325 321.972 126.088 330.739 123.822 339.03C121.539 347.385 118.285 354.968 113.755 359.581C111.523 361.855 109.03 363.357 106.221 363.933C103.414 364.509 100.107 364.199 96.1797 362.535L94.6196 366.218C99.1414 368.134 103.277 368.621 107.024 367.852C110.769 367.084 113.943 365.099 116.609 362.384C121.877 357.019 125.35 348.613 127.681 340.085C130.029 331.493 131.294 322.482 131.973 315.646C132.314 312.222 132.509 309.33 132.619 307.29C132.674 306.271 132.708 305.463 132.728 304.909C132.738 304.632 132.744 304.418 132.748 304.272C132.75 304.199 132.752 304.143 132.753 304.104C132.753 304.085 132.754 304.071 132.754 304.06C132.754 304.055 132.754 304.051 132.754 304.048C132.754 304.047 132.754 304.046 132.754 304.045C132.754 304.044 132.754 304.043 130.755 304.001ZM96.1797 362.535C86.9862 358.641 78.6036 358.5 71.2274 363.709C64.0477 368.78 58.2081 378.675 53.2482 393.806L57.0492 395.052C61.9406 380.13 67.4435 371.279 73.535 366.977C79.4299 362.813 86.2472 362.672 94.6196 366.218L96.1797 362.535ZM53.2482 393.806C48.6157 407.937 36.1969 415.276 24.5106 419.083C18.6993 420.976 13.1732 421.958 9.09408 422.465C7.05746 422.719 5.3891 422.853 4.2358 422.924C3.65933 422.959 3.2121 422.978 2.91249 422.989C2.7627 422.994 2.64987 422.997 2.57628 422.999C2.5395 423 2.51252 423.001 2.49566 423.001C2.48723 423.001 2.48132 423.001 2.47798 423.001C2.47631 423.001 2.47527 423.001 2.47489 423.001C2.4747 423.001 2.4749 423.001 2.47481 423.001C2.47516 423.001 2.47568 423.001 2.5 425.001C2.52432 427.001 2.52517 427.001 2.52617 427.001C2.52673 427.001 2.5279 427.001 2.52901 427.001C2.53123 427.001 2.5341 427.001 2.53762 427.001C2.54465 427.001 2.55427 427 2.56645 427C2.5908 427 2.62537 426.999 2.66986 426.998C2.75883 426.996 2.88751 426.992 3.05359 426.987C3.3857 426.975 3.86756 426.954 4.48057 426.916C5.70623 426.841 7.45839 426.7 9.58794 426.435C13.8411 425.906 19.6302 424.879 25.7496 422.886C37.9248 418.92 51.8303 410.972 57.0492 395.052L53.2482 393.806Z" fill="#34A853"/>
<g clip-path="url(#clip0_1_2)">
<g clip-path="url(#clip1_1_2)">
<path d="M177.5 0L212.636 108.139H326.34L234.352 174.972L269.488 283.111L177.5 216.278L85.5116 283.111L120.648 174.972L28.6597 108.139H142.364L177.5 0Z" fill="#FDE74C"/>
</g>
<circle cx="177.5" cy="156.5" r="124.5" fill="#11381C"/>
<path d="M97.2723 143.366H90.4863V149H87.8043V135.32H90.4863V140.936H97.2723V135.32H99.9543V149H97.2723V143.366ZM106.636 149.18C105.58 149.18 104.65 148.958 103.846 148.514C103.054 148.058 102.442 147.434 102.01 146.642C101.578 145.85 101.362 144.95 101.362 143.942C101.362 142.934 101.578 142.034 102.01 141.242C102.442 140.45 103.054 139.832 103.846 139.388C104.638 138.932 105.556 138.704 106.6 138.704C107.62 138.704 108.526 138.944 109.318 139.424C110.11 139.892 110.716 140.588 111.136 141.512C111.568 142.424 111.754 143.522 111.694 144.806H104.08C104.212 145.502 104.5 146.042 104.944 146.426C105.4 146.81 105.964 147.002 106.636 147.002C107.644 147.002 108.376 146.606 108.832 145.814H111.64C111.292 146.846 110.686 147.668 109.822 148.28C108.958 148.88 107.896 149.18 106.636 149.18ZM109.102 143.078C108.982 142.382 108.7 141.842 108.256 141.458C107.824 141.074 107.272 140.882 106.6 140.882C105.94 140.882 105.388 141.074 104.944 141.458C104.5 141.842 104.212 142.382 104.08 143.078H109.102ZM112.953 138.884H115.473V140.99H115.671C116.235 139.586 117.303 138.884 118.875 138.884H119.487V141.206H117.849C117.105 141.206 116.523 141.458 116.103 141.962C115.683 142.454 115.473 143.144 115.473 144.032V149H112.953V138.884ZM124.899 149.18C123.843 149.18 122.913 148.958 122.109 148.514C121.317 148.058 120.705 147.434 120.273 146.642C119.841 145.85 119.625 144.95 119.625 143.942C119.625 142.934 119.841 142.034 120.273 141.242C120.705 140.45 121.317 139.832 122.109 139.388C122.901 138.932 123.819 138.704 124.863 138.704C125.883 138.704 126.789 138.944 127.581 139.424C128.373 139.892 128.979 140.588 129.399 141.512C129.831 142.424 130.017 143.522 129.957 144.806H122.343C122.475 145.502 122.763 146.042 123.207 146.426C123.663 146.81 124.227 147.002 124.899 147.002C125.907 147.002 126.639 146.606 127.095 145.814H129.903C129.555 146.846 128.949 147.668 128.085 148.28C127.221 148.88 126.159 149.18 124.899 149.18ZM127.365 143.078C127.245 142.382 126.963 141.842 126.519 141.458C126.087 141.074 125.535 140.882 124.863 140.882C124.203 140.882 123.651 141.074 123.207 141.458C122.763 141.842 122.475 142.382 122.343 143.078H127.365ZM130.77 139.91L131.778 137.3C131.442 137.252 131.16 137.102 130.932 136.85C130.716 136.586 130.608 136.286 130.608 135.95C130.608 135.566 130.74 135.242 131.004 134.978C131.268 134.714 131.592 134.582 131.976 134.582C132.36 134.582 132.684 134.714 132.948 134.978C133.212 135.242 133.344 135.566 133.344 135.95C133.344 136.166 133.302 136.364 133.218 136.544L131.778 140.288L130.77 139.91ZM137.824 149.18C136.96 149.18 136.18 149.036 135.484 148.748C134.788 148.448 134.224 148.034 133.792 147.506C133.372 146.978 133.12 146.378 133.036 145.706H135.52C135.64 146.102 135.904 146.42 136.312 146.66C136.732 146.888 137.236 147.002 137.824 147.002C138.4 147.002 138.832 146.918 139.12 146.75C139.42 146.582 139.57 146.354 139.57 146.066C139.57 145.766 139.402 145.544 139.066 145.4C138.742 145.256 138.214 145.106 137.482 144.95C136.654 144.77 135.976 144.584 135.448 144.392C134.92 144.188 134.458 143.87 134.062 143.438C133.678 142.994 133.486 142.4 133.486 141.656C133.486 141.08 133.648 140.57 133.972 140.126C134.308 139.682 134.77 139.334 135.358 139.082C135.946 138.83 136.618 138.704 137.374 138.704C138.154 138.704 138.862 138.848 139.498 139.136C140.146 139.424 140.668 139.826 141.064 140.342C141.46 140.846 141.694 141.422 141.766 142.07H139.282C139.174 141.698 138.952 141.41 138.616 141.206C138.28 140.99 137.866 140.882 137.374 140.882C136.918 140.882 136.57 140.954 136.33 141.098C136.09 141.23 135.97 141.416 135.97 141.656C135.97 141.92 136.126 142.124 136.438 142.268C136.762 142.4 137.272 142.538 137.968 142.682C138.808 142.874 139.498 143.078 140.038 143.294C140.578 143.498 141.046 143.822 141.442 144.266C141.85 144.71 142.054 145.31 142.054 146.066C142.054 146.654 141.874 147.188 141.514 147.668C141.154 148.136 140.65 148.508 140.002 148.784C139.366 149.048 138.64 149.18 137.824 149.18ZM147.635 135.32H150.155V140.99H150.353C150.665 140.222 151.109 139.652 151.685 139.28C152.261 138.896 152.903 138.704 153.611 138.704C154.343 138.704 154.997 138.89 155.573 139.262C156.161 139.622 156.617 140.15 156.941 140.846C157.277 141.53 157.445 142.346 157.445 143.294V149H154.943V143.636C154.943 142.748 154.733 142.07 154.313 141.602C153.905 141.134 153.329 140.9 152.585 140.9C151.817 140.9 151.217 141.152 150.785 141.656C150.365 142.16 150.155 142.856 150.155 143.744V149H147.635V135.32ZM163.96 149.18C162.904 149.18 161.968 148.958 161.152 148.514C160.348 148.058 159.718 147.434 159.262 146.642C158.818 145.838 158.596 144.938 158.596 143.942C158.596 142.934 158.818 142.034 159.262 141.242C159.718 140.45 160.348 139.832 161.152 139.388C161.968 138.932 162.904 138.704 163.96 138.704C165.004 138.704 165.928 138.932 166.732 139.388C167.548 139.832 168.178 140.45 168.622 141.242C169.078 142.034 169.306 142.934 169.306 143.942C169.306 144.938 169.078 145.838 168.622 146.642C168.178 147.434 167.548 148.058 166.732 148.514C165.928 148.958 165.004 149.18 163.96 149.18ZM161.26 143.942C161.26 144.89 161.506 145.64 161.998 146.192C162.502 146.732 163.156 147.002 163.96 147.002C164.752 147.002 165.394 146.732 165.886 146.192C166.39 145.64 166.642 144.89 166.642 143.942C166.642 142.994 166.39 142.25 165.886 141.71C165.394 141.158 164.752 140.882 163.96 140.882C163.156 140.882 162.502 141.158 161.998 141.71C161.506 142.25 161.26 142.994 161.26 143.942ZM169.294 138.884H171.922L173.506 146.3H173.686L175.63 138.884H178.672L180.562 146.156H180.742L182.362 138.884H184.954L182.11 149H179.14L177.232 141.728H177.052L175.108 149H172.138L169.294 138.884ZM189.632 138.884H192.26L193.844 146.3H194.024L195.968 138.884H199.01L200.9 146.156H201.08L202.7 138.884H205.292L202.448 149H199.478L197.57 141.728H197.39L195.446 149H192.476L189.632 138.884ZM210.54 149.18C209.484 149.18 208.554 148.958 207.75 148.514C206.958 148.058 206.346 147.434 205.914 146.642C205.482 145.85 205.266 144.95 205.266 143.942C205.266 142.934 205.482 142.034 205.914 141.242C206.346 140.45 206.958 139.832 207.75 139.388C208.542 138.932 209.46 138.704 210.504 138.704C211.524 138.704 212.43 138.944 213.222 139.424C214.014 139.892 214.62 140.588 215.04 141.512C215.472 142.424 215.658 143.522 215.598 144.806H207.984C208.116 145.502 208.404 146.042 208.848 146.426C209.304 146.81 209.868 147.002 210.54 147.002C211.548 147.002 212.28 146.606 212.736 145.814H215.544C215.196 146.846 214.59 147.668 213.726 148.28C212.862 148.88 211.8 149.18 210.54 149.18ZM213.006 143.078C212.886 142.382 212.604 141.842 212.16 141.458C211.728 141.074 211.176 140.882 210.504 140.882C209.844 140.882 209.292 141.074 208.848 141.458C208.404 141.842 208.116 142.382 207.984 143.078H213.006ZM221.182 138.884H223.702V140.99H223.882C224.362 139.466 225.364 138.704 226.888 138.704C227.392 138.704 227.854 138.812 228.274 139.028C228.694 139.232 229.042 139.514 229.318 139.874C229.594 140.222 229.774 140.594 229.858 140.99H230.038C230.518 139.466 231.526 138.704 233.062 138.704C234.202 138.704 235.09 139.106 235.726 139.91C236.362 140.702 236.68 141.824 236.68 143.276V149H234.16V143.294C234.16 142.538 233.986 141.95 233.638 141.53C233.302 141.11 232.828 140.9 232.216 140.9C231.58 140.9 231.082 141.128 230.722 141.584C230.362 142.028 230.182 142.604 230.182 143.312V149H227.68V143.312C227.68 142.544 227.512 141.95 227.176 141.53C226.852 141.11 226.372 140.9 225.736 140.9C225.1 140.9 224.602 141.128 224.242 141.584C223.882 142.04 223.702 142.634 223.702 143.366V149H221.182V138.884ZM241.209 149.18C240.177 149.18 239.367 148.916 238.779 148.388C238.191 147.848 237.897 147.092 237.897 146.12C237.897 145.148 238.245 144.404 238.941 143.888C239.649 143.36 240.639 143.096 241.911 143.096C242.967 143.096 243.687 143.012 244.071 142.844C244.467 142.664 244.665 142.4 244.665 142.052C244.665 141.68 244.503 141.392 244.179 141.188C243.855 140.984 243.411 140.882 242.847 140.882C242.295 140.882 241.851 140.99 241.515 141.206C241.179 141.41 240.963 141.704 240.867 142.088H238.383C238.503 141.044 238.953 140.222 239.733 139.622C240.513 139.01 241.551 138.704 242.847 138.704C244.275 138.704 245.349 139.064 246.069 139.784C246.789 140.492 247.149 141.518 247.149 142.862V146.696H248.085V149H247.437C246.633 149 246.027 148.844 245.619 148.532C245.223 148.208 244.977 147.668 244.881 146.912H244.701C244.065 148.424 242.901 149.18 241.209 149.18ZM240.273 146.048C240.273 146.432 240.399 146.726 240.651 146.93C240.915 147.122 241.287 147.218 241.767 147.218C242.403 147.218 242.967 147.032 243.459 146.66C243.963 146.276 244.335 145.646 244.575 144.77L244.665 144.356C244.029 144.704 243.129 144.878 241.965 144.878C241.425 144.878 241.005 144.98 240.705 145.184C240.417 145.376 240.273 145.664 240.273 146.048ZM249.307 135.32H251.827V142.34H252.007L255.301 138.884H258.757L254.833 142.826L258.829 149H255.841L253.069 144.59L251.827 145.85V149H249.307V135.32ZM263.696 149.18C262.64 149.18 261.71 148.958 260.906 148.514C260.114 148.058 259.502 147.434 259.07 146.642C258.638 145.85 258.422 144.95 258.422 143.942C258.422 142.934 258.638 142.034 259.07 141.242C259.502 140.45 260.114 139.832 260.906 139.388C261.698 138.932 262.616 138.704 263.66 138.704C264.68 138.704 265.586 138.944 266.378 139.424C267.17 139.892 267.776 140.588 268.196 141.512C268.628 142.424 268.814 143.522 268.754 144.806H261.14C261.272 145.502 261.56 146.042 262.004 146.426C262.46 146.81 263.024 147.002 263.696 147.002C264.704 147.002 265.436 146.606 265.892 145.814H268.7C268.352 146.846 267.746 147.668 266.882 148.28C266.018 148.88 264.956 149.18 263.696 149.18ZM266.162 143.078C266.042 142.382 265.76 141.842 265.316 141.458C264.884 141.074 264.332 140.882 263.66 140.882C263 140.882 262.448 141.074 262.004 141.458C261.56 141.842 261.272 142.382 261.14 143.078H266.162ZM117.08 180.746H120.698L121.076 179.504L116.666 168.884H119.438L122.21 176.426H122.39L124.784 168.884H127.538L123.092 180.89C122.792 181.706 122.426 182.27 121.994 182.582C121.562 182.906 120.908 183.068 120.032 183.068H117.08V180.746ZM132.688 179.18C131.632 179.18 130.696 178.958 129.88 178.514C129.076 178.058 128.446 177.434 127.99 176.642C127.546 175.838 127.324 174.938 127.324 173.942C127.324 172.934 127.546 172.034 127.99 171.242C128.446 170.45 129.076 169.832 129.88 169.388C130.696 168.932 131.632 168.704 132.688 168.704C133.732 168.704 134.656 168.932 135.46 169.388C136.276 169.832 136.906 170.45 137.35 171.242C137.806 172.034 138.034 172.934 138.034 173.942C138.034 174.938 137.806 175.838 137.35 176.642C136.906 177.434 136.276 178.058 135.46 178.514C134.656 178.958 133.732 179.18 132.688 179.18ZM129.988 173.942C129.988 174.89 130.234 175.64 130.726 176.192C131.23 176.732 131.884 177.002 132.688 177.002C133.48 177.002 134.122 176.732 134.614 176.192C135.118 175.64 135.37 174.89 135.37 173.942C135.37 172.994 135.118 172.25 134.614 171.71C134.122 171.158 133.48 170.882 132.688 170.882C131.884 170.882 131.23 171.158 130.726 171.71C130.234 172.25 129.988 172.994 129.988 173.942ZM142.941 179.18C142.209 179.18 141.549 179 140.961 178.64C140.385 178.268 139.929 177.734 139.593 177.038C139.269 176.342 139.107 175.526 139.107 174.59V168.884H141.609V174.248C141.609 175.124 141.813 175.802 142.221 176.282C142.641 176.75 143.223 176.984 143.967 176.984C144.735 176.984 145.329 176.732 145.749 176.228C146.181 175.724 146.397 175.028 146.397 174.14V168.884H148.917V179H146.397V176.894H146.199C145.887 177.662 145.443 178.238 144.867 178.622C144.291 178.994 143.649 179.18 142.941 179.18ZM159.216 179.18C158.352 179.18 157.572 179.036 156.876 178.748C156.18 178.448 155.616 178.034 155.184 177.506C154.764 176.978 154.512 176.378 154.428 175.706H156.912C157.032 176.102 157.296 176.42 157.704 176.66C158.124 176.888 158.628 177.002 159.216 177.002C159.792 177.002 160.224 176.918 160.512 176.75C160.812 176.582 160.962 176.354 160.962 176.066C160.962 175.766 160.794 175.544 160.458 175.4C160.134 175.256 159.606 175.106 158.874 174.95C158.046 174.77 157.368 174.584 156.84 174.392C156.312 174.188 155.85 173.87 155.454 173.438C155.07 172.994 154.878 172.4 154.878 171.656C154.878 171.08 155.04 170.57 155.364 170.126C155.7 169.682 156.162 169.334 156.75 169.082C157.338 168.83 158.01 168.704 158.766 168.704C159.546 168.704 160.254 168.848 160.89 169.136C161.538 169.424 162.06 169.826 162.456 170.342C162.852 170.846 163.086 171.422 163.158 172.07H160.674C160.566 171.698 160.344 171.41 160.008 171.206C159.672 170.99 159.258 170.882 158.766 170.882C158.31 170.882 157.962 170.954 157.722 171.098C157.482 171.23 157.362 171.416 157.362 171.656C157.362 171.92 157.518 172.124 157.83 172.268C158.154 172.4 158.664 172.538 159.36 172.682C160.2 172.874 160.89 173.078 161.43 173.294C161.97 173.498 162.438 173.822 162.834 174.266C163.242 174.71 163.446 175.31 163.446 176.066C163.446 176.654 163.266 177.188 162.906 177.668C162.546 178.136 162.042 178.508 161.394 178.784C160.758 179.048 160.032 179.18 159.216 179.18ZM168.367 179C167.383 179 166.681 178.796 166.261 178.388C165.853 177.968 165.649 177.266 165.649 176.282V171.008H163.723V168.884H164.461C164.929 168.884 165.241 168.806 165.397 168.65C165.565 168.482 165.649 168.164 165.649 167.696V166.22H168.133V168.884H170.563V171.008H168.133V176.678H170.563V179H168.367ZM174.693 179.18C173.661 179.18 172.851 178.916 172.263 178.388C171.675 177.848 171.381 177.092 171.381 176.12C171.381 175.148 171.729 174.404 172.425 173.888C173.133 173.36 174.123 173.096 175.395 173.096C176.451 173.096 177.171 173.012 177.555 172.844C177.951 172.664 178.149 172.4 178.149 172.052C178.149 171.68 177.987 171.392 177.663 171.188C177.339 170.984 176.895 170.882 176.331 170.882C175.779 170.882 175.335 170.99 174.999 171.206C174.663 171.41 174.447 171.704 174.351 172.088H171.867C171.987 171.044 172.437 170.222 173.217 169.622C173.997 169.01 175.035 168.704 176.331 168.704C177.759 168.704 178.833 169.064 179.553 169.784C180.273 170.492 180.633 171.518 180.633 172.862V176.696H181.569V179H180.921C180.117 179 179.511 178.844 179.103 178.532C178.707 178.208 178.461 177.668 178.365 176.912H178.185C177.549 178.424 176.385 179.18 174.693 179.18ZM173.757 176.048C173.757 176.432 173.883 176.726 174.135 176.93C174.399 177.122 174.771 177.218 175.251 177.218C175.887 177.218 176.451 177.032 176.943 176.66C177.447 176.276 177.819 175.646 178.059 174.77L178.149 174.356C177.513 174.704 176.613 174.878 175.449 174.878C174.909 174.878 174.489 174.98 174.189 175.184C173.901 175.376 173.757 175.664 173.757 176.048ZM182.791 168.884H185.311V170.99H185.509C185.821 170.222 186.265 169.652 186.841 169.28C187.417 168.896 188.059 168.704 188.767 168.704C189.499 168.704 190.153 168.89 190.729 169.262C191.317 169.622 191.773 170.15 192.097 170.846C192.433 171.53 192.601 172.346 192.601 173.294V179H190.099V173.636C190.099 172.748 189.889 172.07 189.469 171.602C189.061 171.134 188.485 170.9 187.741 170.9C186.973 170.9 186.373 171.152 185.941 171.656C185.521 172.16 185.311 172.856 185.311 173.744V179H182.791V168.884ZM198.018 179.18C197.19 179.18 196.452 178.97 195.804 178.55C195.156 178.118 194.652 177.506 194.292 176.714C193.932 175.922 193.752 174.998 193.752 173.942C193.752 172.886 193.932 171.968 194.292 171.188C194.652 170.396 195.156 169.784 195.804 169.352C196.452 168.92 197.19 168.704 198.018 168.704C198.798 168.704 199.482 168.89 200.07 169.262C200.658 169.634 201.108 170.204 201.42 170.972H201.618V165.32H204.138V179H201.618V176.894H201.42C201.108 177.686 200.658 178.268 200.07 178.64C199.482 179 198.798 179.18 198.018 179.18ZM196.578 173.942C196.578 174.866 196.806 175.604 197.262 176.156C197.718 176.708 198.33 176.984 199.098 176.984C199.866 176.984 200.478 176.708 200.934 176.156C201.39 175.604 201.618 174.866 201.618 173.942C201.618 173.018 201.39 172.28 200.934 171.728C200.478 171.176 199.866 170.9 199.098 170.9C198.33 170.9 197.718 171.176 197.262 171.728C196.806 172.28 196.578 173.018 196.578 173.942ZM215.095 179.18C214.039 179.18 213.103 178.958 212.287 178.514C211.483 178.058 210.853 177.434 210.397 176.642C209.953 175.838 209.731 174.938 209.731 173.942C209.731 172.934 209.953 172.034 210.397 171.242C210.853 170.45 211.483 169.832 212.287 169.388C213.103 168.932 214.039 168.704 215.095 168.704C216.139 168.704 217.063 168.932 217.867 169.388C218.683 169.832 219.313 170.45 219.757 171.242C220.213 172.034 220.441 172.934 220.441 173.942C220.441 174.938 220.213 175.838 219.757 176.642C219.313 177.434 218.683 178.058 217.867 178.514C217.063 178.958 216.139 179.18 215.095 179.18ZM212.395 173.942C212.395 174.89 212.641 175.64 213.133 176.192C213.637 176.732 214.291 177.002 215.095 177.002C215.887 177.002 216.529 176.732 217.021 176.192C217.525 175.64 217.777 174.89 217.777 173.942C217.777 172.994 217.525 172.25 217.021 171.71C216.529 171.158 215.887 170.882 215.095 170.882C214.291 170.882 213.637 171.158 213.133 171.71C212.641 172.25 212.395 172.994 212.395 173.942ZM225.347 179.18C224.615 179.18 223.955 179 223.367 178.64C222.791 178.268 222.335 177.734 221.999 177.038C221.675 176.342 221.513 175.526 221.513 174.59V168.884H224.015V174.248C224.015 175.124 224.219 175.802 224.627 176.282C225.047 176.75 225.629 176.984 226.373 176.984C227.141 176.984 227.735 176.732 228.155 176.228C228.587 175.724 228.803 175.028 228.803 174.14V168.884H231.323V179H228.803V176.894H228.605C228.293 177.662 227.849 178.238 227.273 178.622C226.697 178.994 226.055 179.18 225.347 179.18ZM236.992 179C236.008 179 235.306 178.796 234.886 178.388C234.478 177.968 234.274 177.266 234.274 176.282V171.008H232.348V168.884H233.086C233.554 168.884 233.866 168.806 234.022 168.65C234.19 168.482 234.274 168.164 234.274 167.696V166.22H236.758V168.884H239.188V171.008H236.758V176.678H239.188V179H236.992Z" fill="#FCFBF8"/>
</g>
<defs>
<clipPath id="clip0_1_2">
<rect width="313" height="313" fill="white" transform="translate(21)"/>
</clipPath>
<clipPath id="clip1_1_2">
<rect width="313" height="313" fill="white" transform="translate(21)"/>
</clipPath>
</defs>
</svg>
