<svg width="22" height="22" viewBox="0 0 22 22" fill="none" xmlns="http://www.w3.org/2000/svg">
<path d="M20.1673 7.16537C20.1717 7.1074 20.1717 7.04918 20.1673 6.99121L18.334 2.40787C18.2624 2.2267 18.1349 2.07305 17.9701 1.96921C17.8053 1.86537 17.6116 1.81674 17.4173 1.83037H4.58398C4.4004 1.8302 4.22098 1.88515 4.06899 1.98811C3.91699 2.09108 3.79941 2.23731 3.73148 2.40787L1.89815 6.99121C1.89373 7.04918 1.89373 7.1074 1.89815 7.16537C1.86769 7.2164 1.846 7.27217 1.83398 7.33037C1.84419 7.96401 2.01844 8.58419 2.33975 9.13041C2.66106 9.67664 3.11845 10.1303 3.66732 10.447V19.247C3.66732 19.4902 3.76389 19.7233 3.9358 19.8952C4.10771 20.0671 4.34087 20.1637 4.58398 20.1637H17.4173C17.6604 20.1637 17.8936 20.0671 18.0655 19.8952C18.2374 19.7233 18.334 19.4902 18.334 19.247V10.4837C18.8882 10.1638 19.349 9.70438 19.6706 9.15118C19.9922 8.59799 20.1635 7.97026 20.1673 7.33037C20.1759 7.27571 20.1759 7.22004 20.1673 7.16537ZM11.9173 18.3304H10.084V14.6637H11.9173V18.3304ZM16.5006 18.3304H13.7506V13.747C13.7506 13.5039 13.6541 13.2708 13.4822 13.0989C13.3103 12.927 13.0771 12.8304 12.834 12.8304H9.16732C8.9242 12.8304 8.69104 12.927 8.51914 13.0989C8.34723 13.2708 8.25065 13.5039 8.25065 13.747V18.3304H5.50065V10.997C6.02266 10.9941 6.53803 10.8797 7.01228 10.6616C7.48653 10.4434 7.90873 10.1265 8.25065 9.73204C8.59474 10.1222 9.01791 10.4347 9.49204 10.6487C9.96618 10.8627 10.4804 10.9734 11.0007 10.9734C11.5209 10.9734 12.0351 10.8627 12.5093 10.6487C12.9834 10.4347 13.4066 10.1222 13.7506 9.73204C14.0926 10.1265 14.5148 10.4434 14.989 10.6616C15.4633 10.8797 15.9786 10.9941 16.5006 10.997V18.3304ZM16.5006 9.16371C16.0144 9.16371 15.5481 8.97055 15.2043 8.62674C14.8605 8.28292 14.6673 7.8166 14.6673 7.33037C14.6673 7.08726 14.5707 6.8541 14.3988 6.68219C14.2269 6.51028 13.9938 6.41371 13.7506 6.41371C13.5075 6.41371 13.2744 6.51028 13.1025 6.68219C12.9306 6.8541 12.834 7.08726 12.834 7.33037C12.834 7.8166 12.6408 8.28292 12.297 8.62674C11.9532 8.97055 11.4869 9.16371 11.0007 9.16371C10.5144 9.16371 10.0481 8.97055 9.70429 8.62674C9.36047 8.28292 9.16732 7.8166 9.16732 7.33037C9.16732 7.08726 9.07074 6.8541 8.89883 6.68219C8.72692 6.51028 8.49377 6.41371 8.25065 6.41371C8.00754 6.41371 7.77438 6.51028 7.60247 6.68219C7.43056 6.8541 7.33398 7.08726 7.33398 7.33037C7.34301 7.57113 7.30453 7.81131 7.22074 8.03719C7.13695 8.26308 7.00948 8.47025 6.84563 8.64687C6.68177 8.8235 6.48473 8.96612 6.26575 9.06659C6.04678 9.16707 5.81016 9.22343 5.5694 9.23246C5.08317 9.25069 4.60961 9.07502 4.2529 8.7441C4.07628 8.58024 3.93366 8.3832 3.83318 8.16423C3.73271 7.94525 3.67635 7.70863 3.66732 7.46787L5.20732 3.66371H16.794L18.334 7.46787C18.2992 7.92989 18.0908 8.36162 17.7507 8.67623C17.4106 8.99084 16.964 9.16501 16.5006 9.16371Z" fill="currentColor"/>
</svg>
