<svg width="15" height="16" viewBox="0 0 15 16" fill="none" xmlns="http://www.w3.org/2000/svg">
<path d="M4.67102 4.42534C4.49418 4.42534 4.32131 4.47778 4.17427 4.57602C4.02724 4.67427 3.91264 4.81391 3.84496 4.97729C3.77729 5.14067 3.75958 5.32045 3.79408 5.49389C3.82858 5.66733 3.91374 5.82665 4.03878 5.95169C4.16383 6.07674 4.32314 6.16189 4.49659 6.19639C4.67003 6.23089 4.8498 6.21319 5.01318 6.14551C5.17656 6.07784 5.3162 5.96324 5.41445 5.8162C5.5127 5.66916 5.56514 5.4963 5.56514 5.31946C5.56514 5.08232 5.47094 4.8549 5.30326 4.68722C5.13558 4.51954 4.90815 4.42534 4.67102 4.42534V4.42534ZM12.7896 7.23287L7.77659 2.21389C7.72089 2.15864 7.65483 2.11494 7.58221 2.08527C7.50959 2.05561 7.43182 2.04057 7.35337 2.04103H1.98867C1.83058 2.04103 1.67896 2.10383 1.56718 2.21561C1.45539 2.3274 1.39259 2.47901 1.39259 2.6371V8.00181C1.39213 8.08026 1.40717 8.15802 1.43683 8.23065C1.4665 8.30327 1.51021 8.36933 1.56545 8.42502L6.58443 13.438C6.91973 13.7729 7.37423 13.961 7.84812 13.961C8.322 13.961 8.77651 13.7729 9.1118 13.438L12.7896 9.79004C13.1245 9.45475 13.3126 9.00024 13.3126 8.52636C13.3126 8.05247 13.1245 7.59797 12.7896 7.26267V7.23287ZM11.9491 8.91381L8.26537 12.5916C8.15369 12.7026 8.00261 12.7649 7.84514 12.7649C7.68766 12.7649 7.53658 12.7026 7.4249 12.5916L2.58474 7.75742V3.23318H7.10898L11.9491 8.07334C12.0044 8.12904 12.0481 8.19509 12.0778 8.26772C12.1074 8.34034 12.1225 8.41811 12.122 8.49655C12.1213 8.65293 12.0593 8.80278 11.9491 8.91381V8.91381Z" fill="#333333"/>
</svg>
