<svg width="24" height="24" viewBox="0 0 24 24" fill="none" xmlns="http://www.w3.org/2000/svg">
<path d="M23.1429 5.09622C22.3232 5.44979 21.4313 5.70425 20.5125 5.80336C21.4664 5.23667 22.1807 4.34139 22.5215 3.2855C21.6264 3.81797 20.6458 4.19135 19.6232 4.38907C19.1959 3.93218 18.679 3.5682 18.1048 3.31981C17.5306 3.07142 16.9114 2.94394 16.2857 2.94532C13.7545 2.94532 11.7188 4.99711 11.7188 7.51497C11.7188 7.86854 11.7616 8.22211 11.8313 8.56229C8.0411 8.36407 4.66074 6.55336 2.41342 3.78104C2.00393 4.48045 1.78935 5.27682 1.79199 6.08729C1.79199 7.673 2.59824 9.07122 3.82771 9.89354C3.10316 9.865 2.39559 9.66585 1.76253 9.31229V9.36854C1.76253 11.5891 3.33217 13.4293 5.42414 13.8525C5.03135 13.9545 4.62728 14.0067 4.22146 14.0078C3.92414 14.0078 3.64288 13.9784 3.35896 13.9382C3.93753 15.7489 5.62235 17.0641 7.6286 17.1069C6.05896 18.3364 4.09289 19.0596 1.95806 19.0596C1.57503 19.0596 1.22146 19.0462 0.854492 19.0034C2.87949 20.3025 5.28217 21.0525 7.86967 21.0525C16.2697 21.0525 20.8661 14.0935 20.8661 8.05336C20.8661 7.85515 20.8661 7.65693 20.8527 7.45872C21.742 6.80782 22.5215 6.00157 23.1429 5.09622Z" fill="currentColor"/>
</svg>
