<svg width="24" height="24" viewBox="0 0 24 24" fill="none" xmlns="http://www.w3.org/2000/svg">
<path d="M23.14 5.09622C22.3203 5.44979 21.4283 5.70425 20.5096 5.80336C21.4635 5.23667 22.1778 4.34139 22.5185 3.2855C21.6234 3.81797 20.6429 4.19135 19.6203 4.38907C19.1929 3.93218 18.676 3.5682 18.1018 3.31981C17.5276 3.07142 16.9084 2.94394 16.2828 2.94532C13.7516 2.94532 11.7158 4.99711 11.7158 7.51497C11.7158 7.86854 11.7587 8.22211 11.8283 8.56229C8.03817 8.36407 4.65781 6.55336 2.41049 3.78104C2.00101 4.48045 1.78642 5.27682 1.78906 6.08729C1.78906 7.673 2.59531 9.07122 3.82478 9.89354C3.10023 9.865 2.39266 9.66585 1.7596 9.31229V9.36854C1.7596 11.5891 3.32924 13.4293 5.42121 13.8525C5.02842 13.9545 4.62435 14.0067 4.21853 14.0078C3.92121 14.0078 3.63996 13.9784 3.35603 13.9382C3.9346 15.7489 5.61942 17.0641 7.62567 17.1069C6.05603 18.3364 4.08996 19.0596 1.95513 19.0596C1.5721 19.0596 1.21853 19.0462 0.851562 19.0034C2.87656 20.3025 5.27924 21.0525 7.86674 21.0525C16.2667 21.0525 20.8632 14.0935 20.8632 8.05336C20.8632 7.85515 20.8632 7.65693 20.8498 7.45872C21.7391 6.80782 22.5185 6.00157 23.14 5.09622Z" fill="#34A853"/>
</svg>
