   <svg
                          width="48"
                          height="47"
                          viewBox="0 0 48 47"
                          fill="none"
                          xmlns="http://www.w3.org/2000/svg"
                        >
                          <circle
                            cx="23.9508"
                            cy="23.5016"
                            r="23.4"
                            fill="#DEF2FB"
                          />
                          <rect
                            width="21.6"
                            height="21.6"
                            transform="translate(13.1523 12.7031)"
                            fill="white"
                            fill-opacity="0.01"
                          />
                          <path
                            fill-rule="evenodd"
                            clip-rule="evenodd"
                            d="M23.2403 21.0903L21.5141 22.83C21.3468 22.9986 21.2529 23.2265 21.2529 23.4641C21.2529 23.7016 21.3468 23.9296 21.5141 24.0981C21.5963 24.1813 21.6942 24.2474 21.8021 24.2924C21.91 24.3375 22.0258 24.3607 22.1428 24.3607C22.2597 24.3607 22.3755 24.3375 22.4834 24.2924C22.5913 24.2474 22.6892 24.1813 22.7714 24.0981L23.9324 22.9272L25.1348 24.1395C25.217 24.2228 25.3148 24.2889 25.4227 24.3341C25.5306 24.3792 25.6463 24.4025 25.7633 24.4026C25.8802 24.4027 25.996 24.3795 26.104 24.3345C26.2119 24.2895 26.3099 24.2236 26.3921 24.1404C26.5589 23.9718 26.6525 23.7442 26.6527 23.507C26.6528 23.2698 26.5596 23.0421 26.393 22.8732L24.6245 21.0912C24.5342 20.9995 24.4265 20.9266 24.3077 20.8768C24.1889 20.827 24.0614 20.8014 23.9326 20.8013C23.8038 20.8012 23.6763 20.8267 23.5575 20.8763C23.4386 20.926 23.3308 20.9987 23.2403 21.0903Z"
                            fill="#5BC0EB"
                          />
                          <path
                            fill-rule="evenodd"
                            clip-rule="evenodd"
                            d="M23.0531 21.7086L23.054 30.696C23.054 31.1973 23.4572 31.6032 23.954 31.6023C24.4517 31.6023 24.854 31.1973 24.854 30.696L24.8531 21.7077C24.8531 21.2082 24.4499 20.8023 23.9531 20.8023C23.4563 20.8023 23.0522 21.2082 23.0531 21.7086Z"
                            fill="#5BC0EB"
                          />
                          <path
                            fill-rule="evenodd"
                            clip-rule="evenodd"
                            d="M20.2973 17.6352C20.0661 17.5974 19.8323 17.5785 19.598 17.5785C17.0735 17.5794 14.9531 19.5603 14.9531 22.1514C14.9531 24.7695 17.0996 27.1023 19.5431 27.1023H22.136V25.3086H19.5431C18.0518 25.3086 16.7396 23.8119 16.7396 22.1514C16.7396 20.5512 18.0617 19.3731 19.5332 19.3731H19.544C19.8941 19.3731 20.1614 19.419 20.417 19.5081L20.57 19.5648C21.1145 19.788 21.3575 19.3434 21.3575 19.3434L21.4925 19.1031C22.1495 17.8908 23.4734 17.2167 24.8369 17.196C25.7414 17.205 26.6117 17.5428 27.2856 18.1462C27.9594 18.7497 28.3907 19.5776 28.499 20.4756L28.5404 20.7816C28.5404 20.7816 28.6043 21.2541 29.1389 21.2541C29.1506 21.2541 29.1497 21.2586 29.1596 21.2586H29.3882C30.4106 21.2586 31.1666 22.1217 31.1666 23.2008C31.1666 24.2871 30.2783 25.3086 29.3036 25.3086H25.736V27.1023H29.3036C31.2476 27.1023 32.9531 25.2618 32.9531 23.2008C32.9531 21.4017 31.7723 19.9041 30.1289 19.5342C29.4926 17.0979 27.3812 15.4374 24.8315 15.4023C23.054 15.4212 21.3206 16.2132 20.2973 17.6352Z"
                            fill="#5BC0EB"
                          />
                        </svg>