<svg width="14" height="13" viewBox="0 0 14 13" fill="none" xmlns="http://www.w3.org/2000/svg">
<path d="M12.9857 6.843C13.1028 6.69238 13.1597 6.49824 13.1078 6.30022L11.5698 0.470738C11.4806 0.133793 11.1342 -0.0681306 10.7978 0.0211162L0.970254 2.6123C0.634991 2.701 0.432498 3.04855 0.520633 3.38492L2.05862 9.21384C2.14675 9.55022 2.49485 9.75217 2.83125 9.66403L6.30383 8.74806V10.7C6.30383 11.7917 8.11292 12.3629 9.90137 12.3629C11.6887 12.3629 13.5 11.7917 13.5 10.7V7.74001C13.5 7.38466 13.3053 7.08565 12.9857 6.843ZM11.8728 4.83364L12.0334 5.44057L10.0798 5.95658L9.9203 5.34853L11.8728 4.83364ZM10.7392 0.993443L11.0444 2.14931L7.99238 2.95483L7.68724 1.79896L10.7392 0.993443ZM9.36971 5.49356L9.52592 6.0871C8.80351 6.11945 8.10063 6.24553 7.53608 6.46085L7.41671 6.01011L9.36971 5.49356ZM2.56847 7.93692L2.40893 7.3311L4.36194 6.81452L4.52259 7.42368L2.56847 7.93692ZM4.91255 6.67006L6.86444 6.15406L7.01227 6.71023C6.96484 6.73924 6.92023 6.76934 6.8767 6.80004L5.07209 7.27643L4.91255 6.67006ZM12.8484 10.652C12.8484 11.2884 11.5297 11.8039 9.90137 11.8039C8.2747 11.8039 6.95483 11.2879 6.95483 10.652V9.93513C6.95483 9.91113 6.96877 9.88939 6.97267 9.86652C7.06582 10.4701 8.33436 10.9487 9.90137 10.9487C11.4689 10.9487 12.738 10.4701 12.8306 9.86652C12.8345 9.88939 12.8484 9.91116 12.8484 9.93513V10.652ZM12.8484 9.24172C12.8484 9.87767 11.5297 10.3931 9.90137 10.3931C8.2747 10.3931 6.95483 9.87767 6.95483 9.24172V8.5249C6.95483 8.50147 6.96877 8.47915 6.97267 8.45629C7.06582 9.05932 8.33436 9.53907 9.90137 9.53907C11.4689 9.53907 12.738 9.05932 12.8306 8.45629C12.8345 8.47915 12.8484 8.50147 12.8484 8.5249V9.24172ZM9.90134 8.89083C8.27468 8.89083 6.9548 8.3754 6.9548 7.73999C6.9548 7.10461 8.27465 6.58917 9.90134 6.58917C11.5297 6.58917 12.8484 7.10461 12.8484 7.73999C12.8484 8.3754 11.5297 8.89083 9.90134 8.89083Z" fill="white"/>
</svg>
