<svg width="24" height="24" viewBox="0 0 24 24" fill="none" xmlns="http://www.w3.org/2000/svg">
<g clip-path="url(#clip0_2807_62808)">
<path d="M17.3976 14.348C17.1056 14.198 15.6511 13.4855 15.3806 13.389C15.1101 13.2872 14.9119 13.239 14.7163 13.539C14.5181 13.8363 13.9556 14.498 13.7788 14.6988C13.6074 14.8971 13.4333 14.9212 13.1413 14.7738C11.4056 13.906 10.2672 13.2256 9.12346 11.2622C8.82079 10.7399 9.42614 10.7774 9.99132 9.64974C10.0878 9.45153 10.0395 9.28278 9.96454 9.13278C9.88953 8.98278 9.30025 7.53099 9.05382 6.93903C8.81543 6.36313 8.569 6.44349 8.38954 6.43278C8.21811 6.42206 8.02257 6.42206 7.82436 6.42206C7.62614 6.42206 7.30739 6.49706 7.03686 6.78903C6.76632 7.08635 6.00293 7.80153 6.00293 9.25331C6.00293 10.7051 7.06096 12.1113 7.20561 12.3096C7.35561 12.5078 9.28686 15.4863 12.252 16.7694C14.127 17.5783 14.861 17.648 15.7985 17.5087C16.369 17.423 17.5449 16.7962 17.7886 16.1024C18.0324 15.4113 18.0324 14.8194 17.9601 14.6962C17.8878 14.5649 17.6895 14.4899 17.3976 14.348Z" fill="#34A853"/>
<path d="M23.068 7.35C22.4627 5.91161 21.5948 4.62054 20.4886 3.51161C19.39 2.4091 18.086 1.53274 16.6502 0.932143C15.1769 0.313393 13.6127 0 12.0002 0H11.9466C10.3234 0.00803571 8.75105 0.329464 7.27248 0.961607C5.84897 1.56836 4.55711 2.44628 3.4689 3.54643C2.37337 4.65268 1.51355 5.93839 0.918902 7.37143C0.302831 8.85536 -0.00788375 10.433 0.000151963 12.0562C0.00924103 13.9164 0.449327 15.7492 1.28587 17.4107V21.4821C1.28587 21.8089 1.41568 22.1223 1.64675 22.3534C1.87782 22.5845 2.19123 22.7143 2.51801 22.7143H6.59212C8.25362 23.5508 10.0864 23.9909 11.9466 24H12.0028C13.6073 24 15.1635 23.6893 16.6287 23.0813C18.0573 22.4878 19.3565 21.6217 20.4537 20.5312C21.56 19.4357 22.4305 18.1554 23.0385 16.7277C23.6707 15.2491 23.9921 13.6768 24.0002 12.0536C24.0082 10.4223 23.6921 8.83929 23.068 7.35ZM19.0207 19.0821C17.143 20.9411 14.6519 21.9643 12.0002 21.9643H11.9546C10.3394 21.9563 8.73498 21.5545 7.31801 20.7991L7.09301 20.6786H3.32158V16.9071L3.20105 16.6821C2.44569 15.2652 2.0439 13.6607 2.03587 12.0455C2.02515 9.375 3.04569 6.86786 4.91801 4.97946C6.78765 3.09107 9.28676 2.04643 11.9573 2.03571H12.0028C13.3421 2.03571 14.6412 2.29554 15.8653 2.80982C17.06 3.31071 18.1314 4.03125 19.0528 4.95268C19.9716 5.87143 20.6948 6.94554 21.1957 8.14018C21.7153 9.37768 21.9752 10.6902 21.9698 12.0455C21.9537 14.7134 20.9064 17.2125 19.0207 19.0821Z" fill="#34A853"/>
</g>
<defs>
<clipPath id="clip0_2807_62808">
<rect width="24" height="24" fill="white"/>
</clipPath>
</defs>
</svg>
