<svg width="44" height="44" viewBox="0 0 44 44" fill="none" xmlns="http://www.w3.org/2000/svg">
<path fill-rule="evenodd" clip-rule="evenodd" d="M4.40625 22.0192C4.40625 12.6788 11.8709 4.26172 22.1726 4.26172C32.2437 4.26172 39.868 12.519 39.868 21.966C39.868 32.9223 30.9316 39.7235 22.1371 39.7235C19.2293 39.7235 16.0022 38.9421 13.4135 37.415C12.5093 36.8645 11.7468 36.4561 10.7716 36.7757L7.19 37.8412C6.28572 38.1253 5.4701 37.415 5.73607 36.4561L6.92403 32.4784C7.11907 31.9279 7.08361 31.3419 6.79992 30.8802C5.27506 28.0745 4.40625 25.0025 4.40625 22.0192ZM19.8326 22.0178C19.8326 23.2786 20.8433 24.2907 22.1022 24.3085C23.3611 24.3085 24.3717 23.2786 24.3717 22.0355C24.3717 20.7747 23.3611 19.7626 22.1022 19.7626C20.861 19.7448 19.8326 20.7747 19.8326 22.0178ZM28.0054 22.0353C28.0054 23.2783 29.0161 24.3083 30.275 24.3083C31.5339 24.3083 32.5445 23.2783 32.5445 22.0353C32.5445 20.7745 31.5339 19.7623 30.275 19.7623C29.0161 19.7623 28.0054 20.7745 28.0054 22.0353ZM13.9275 24.3083C12.6863 24.3083 11.6579 23.2784 11.6579 22.0353C11.6579 20.7746 12.6686 19.7624 13.9275 19.7624C15.1863 19.7624 16.197 20.7746 16.197 22.0353C16.197 23.2784 15.1863 24.2905 13.9275 24.3083Z" fill="white"/>
</svg>
