<svg width="32" height="32" viewBox="0 0 32 32" fill="none" xmlns="http://www.w3.org/2000/svg">
<rect width="32" height="32" rx="5" fill="#FDE74C"/>
<g clip-path="url(#clip0_10814_93340)">
<path fill-rule="evenodd" clip-rule="evenodd" d="M19.141 10.4622C19.0773 8.80508 18.5178 7.4522 17.5618 6.49043C16.5565 5.47904 15.2341 5.02319 13.9483 5.00084C11.4488 4.95741 8.67349 6.59133 8.1904 9.65088C7.96246 11.0945 7.98027 14.0946 8.03508 17.0723C8.03547 17.0936 8.03586 17.1149 8.03626 17.1362C8.01242 17.3886 8.00023 17.6444 8.00023 17.903V25.9568H16.0539C20.5019 25.9568 24.1077 22.351 24.1077 17.903C24.1077 14.5487 22.057 11.6733 19.141 10.4622ZM16.2605 9.85192C16.129 9.19341 15.8621 8.75407 15.575 8.46527C15.1579 8.04563 14.5691 7.81335 13.8997 7.80172C12.4888 7.7772 11.1778 8.69196 10.9574 10.0878C10.8954 10.4804 10.855 11.0578 10.8309 11.7724C12.2371 10.5732 14.061 9.84934 16.0539 9.84934C16.123 9.84934 16.1918 9.85022 16.2605 9.85192ZM10.9629 23.1555C10.9475 22.1205 10.9215 20.971 10.8948 19.7943C10.8758 18.9531 10.8564 18.098 10.8404 17.2608C11.1572 14.6629 13.3706 12.6506 16.0539 12.6506C18.9548 12.6506 21.3064 15.0022 21.3064 17.903C21.3064 20.8039 18.9548 23.1555 16.0539 23.1555H10.9629Z" fill="#34A853"/>
<path d="M14.7707 17.1381C14.7707 18.2984 15.7113 19.2391 16.8717 19.2391C18.032 19.2391 18.9727 18.2984 18.9727 17.1381C18.9727 15.9777 18.032 15.0371 16.8717 15.0371C15.7113 15.0371 14.7707 15.9777 14.7707 17.1381Z" fill="#34A853"/>
</g>
<defs>
<clipPath id="clip0_10814_93340">
<rect width="16.1077" height="21" fill="white" transform="translate(8 5)"/>
</clipPath>
</defs>
</svg>
